<svg id="Capa_1" data-name="Capa 1" xmlns="http://www.w3.org/2000/svg" viewBox="0 0 1080 1080"><defs><style>.cls-1{fill:#fff;}</style></defs><title>ani_B</title><path class="cls-1" d="M733.92,420.31q0,139,0,278.08c0,31.23-7.49,38.79-38.36,38.8q-278.08.1-556.17,0c-31.53,0-39.16-7.5-39.16-37.94q0-278.07.08-556.15c0-34.9,5.9-40.73,40.54-40.74q275.75-.06,551.49,0c35.93,0,41.56,5.74,41.57,42.2Q733.95,282.44,733.92,420.31ZM682.49,686V152.11H150.81V686Z"/><path class="cls-1" d="M393.73,928.37H929.34V393.73c-39,0-76.93.87-114.81-.61-9.29-.37-21.72-6.09-26.67-13.42-9.85-14.59,2.35-33.58,21.56-33.92,48.26-.86,96.54-.46,144.82-.12,15.87.11,24,9.56,25.12,25,.57,7.74.33,15.56.33,23.34q0,272.12.09,544.23c0,33.84-5.38,39.44-38.92,39.44q-279.12,0-558.25-.14c-32.61,0-36.78-4.21-36.81-36.09,0-42,.24-84.09-.19-126.13-.17-16.88,4.15-30.34,23.31-30.87,20.85-.59,25.13,13.66,24.93,31.42C393.44,852.38,393.73,888.93,393.73,928.37Z"/><path class="cls-1" d="M491.06,831.28H830.87V493.34c-8-.57-17.79,1.38-24.25-2.38-8.82-5.14-20.75-14.51-20.92-22.3-.17-8.06,11-21.87,19.15-23.5,18-3.6,37.25-2.39,55.78-.72,16.28,1.45,20.71,14.49,20.79,29,.15,26.48.07,53,.08,79.44q0,144.87,0,289.75c0,33.51-5.82,39.37-39.6,39.42q-181.1.26-362.19.15c-30.64,0-37.91-7.71-38.15-39.13-.08-10.12-.22-20.26.09-30.37.5-16,7.09-27.72,24.62-27.89,17.7-.18,24,11.75,24.78,27.59C491.29,817.81,491.06,823.25,491.06,831.28Z"/></svg>