<svg id="Capa_3" data-name="Capa 3" xmlns="http://www.w3.org/2000/svg" viewBox="0 0 1080 1080"><defs><style>.cls-1{fill:#fff;}</style></defs><title>Mesa de trabajo 1</title><circle cx="540" cy="540" r="540"/><path class="cls-1" d="M832.21,856.89c-25.82,0-49.16.79-72.37-.63-4.9-.3-11.1-7.83-13.64-13.42-17.4-38.33-34.64-76.76-50.56-115.73C688.65,710,682,705,662.76,713.23q-158.5,67.63-318.4,132c-17.45,7-37.25,10-56.18,11.21-30.59,1.9-44.57-19-32.37-47.6,30.78-72.21,62.36-144.07,93.77-216,42.83-98.11,86.21-196,128.43-294.35,11.09-25.84,28-41,56.42-41s45.31,15.68,56.4,41.24Q707.94,568.75,826,838.41C828.12,843.39,829.47,848.73,832.21,856.89ZM534.08,359.26l-172.23,395c7.94-1.72,10.68-1.9,13.08-2.9,87.7-36.29,175.26-72.94,263.15-108.77,15-6.12,14.59-13.77,9-26.33C626.12,569.38,606,522.1,585.39,475,569.17,438,552.66,401.16,534.08,359.26Z"/><path class="cls-1" d="M529.93,633.45a54,54,0,0,1-53.68-55c.35-30,25.3-54.68,54.84-54.3,29.13.37,54.66,26.46,54.25,55.44C584.93,609.27,559.7,633.79,529.93,633.45Z"/></svg>