<?xml version="1.0" encoding="UTF-8"?>
<svg id="Capa_3" data-name="Capa 3" xmlns="http://www.w3.org/2000/svg" viewBox="0 0 227.29 227.28">
  <defs>
    <style>
      .cls-1 {
        fill: #fff;
      }
    </style>
  </defs>
  <path class="cls-1" d="M113.65,227.28C51.02,227.29,.03,176.3,.02,113.65,.01,51.01,51,0,113.64,0c62.63,0,113.62,50.99,113.63,113.63,0,62.64-50.98,113.64-113.62,113.65Zm-10.3-116.68c.4-.33,.67-.66,1.02-.82,11.14-5.24,10.27-25.52-.46-31.59-4.16-2.35-8.58-3.62-13.23-3.69-12.71-.19-25.42-.09-38.12-.16-1.5,0-2.07,.45-2.07,2.02,.04,24.83,.03,49.66,0,74.5,0,1.49,.44,2.1,2.01,2.08,12.79-.11,25.59,0,38.37-.3,9.7-.22,17.37-4.14,21.8-13.3,3.54-7.32,3.09-19.64-4.04-25.14-1.63-1.26-3.4-2.33-5.27-3.6Zm72.47,23.38c-4.81,0-9.26-.05-13.71,.06-.66,.02-1.48,.69-1.92,1.29-3.51,4.76-9.82,6.42-16.13,4.16-5.26-1.89-8.36-6.81-7.94-13.05h40.3c0-3.33,.19-6.27-.03-9.18-1.02-13.43-10.01-22.91-23.39-24.3-10.99-1.15-20.67,1.6-27.22,11.21-4.36,6.4-5.01,13.81-4.73,21.33,.53,14.33,7.91,23.48,21.95,26.22,9.72,1.9,19.01,.55,26.62-6.62,3.09-2.91,5.56-6.25,6.19-11.12Zm-42.86-56.33c0,2.14,.12,3.82-.03,5.47-.17,1.96,.66,2.41,2.48,2.39,8.92-.08,17.84-.03,26.76-.05,.72,0,1.43-.14,2.35-.24,0-1.97-.09-3.73,.03-5.48,.11-1.71-.63-2.14-2.22-2.13-7.66,.06-15.32,.03-22.98,.03-2,0-4.01,0-6.4,0Z"/>
  <path class="cls-1" d="M79.24,118.18c3.35,.15,6.72,.17,10.06,.48,5.72,.54,8.87,3.87,9.01,9.25,.16,6.36-2.75,10.41-8.71,10.89-6.43,.52-12.92,.37-19.38,.38-.5,0-1.43-1.08-1.45-1.68-.11-5.8-.03-11.59-.09-17.39-.01-1.5,.67-1.85,1.99-1.82,2.86,.05,5.71,.02,8.57,.02,0-.04,0-.09,0-.13Z"/>
  <path class="cls-1" d="M68.85,104.98v-16.49c.18-.14,.32-.33,.45-.32,7.2,.23,14.43,.19,21.6,.83,3.98,.35,5.55,2.88,5.77,7.04,.22,4.16-1.38,6.89-4.89,8.19-.94,.35-1.95,.71-2.93,.72-6.61,.06-13.23,.03-20,.03Z"/>
  <path class="cls-1" d="M161.23,116.62h-24.76c.14-6.88,5.37-11.77,12.39-11.78,7.17,0,12.34,4.8,12.37,11.78Z"/>
</svg>