<svg id="Capa_1" data-name="Capa 1" xmlns="http://www.w3.org/2000/svg" viewBox="0 0 1080 1080"><defs><style>.cls-1{fill:#fff;}</style></defs><title>des_B</title><path class="cls-1" d="M542.76,656.23c15.3-51.65,30.77-103.25,45.88-155q41.21-141,82.1-282.12c7-24.18,5.3-27.45-18.32-33.7q-30.24-8-60.44-16.17c-13.33-3.6-21.16-12.41-17.9-26,3.49-14.62,15.22-19.59,29.32-16,26.27,6.64,52.72,13,78.37,21.58,29.88,10.05,43.58,38.87,34.35,70.88q-46.75,162.21-94.41,324.14c-20.39,69.84-40.88,139.66-58.24,211l50.38-80q112.89-179.3,225.74-358.61c14.1-22.42,12.12-29.41-11.2-43.1-15.59-9.16-31.24-18.23-46.82-27.4-11.79-6.93-20.58-15.62-12.76-30.35s19.65-16,33.39-8c19.89,11.48,40.27,22.16,59.65,34.43,31.61,20,38.9,58.82,17.38,93.49-37.43,60.3-75.53,120.19-113.37,180.25-79.38,126-158.31,252.25-238.33,377.83-66,103.58-202.84,106.52-280.67,37.09-38.41-34.26-58-78.17-58.09-129.38q-.74-319.72-.13-639.46c0-37.67,21.88-59,60.23-59.07q114.93-.32,229.87,0c39.31.11,60.42,21.59,60.44,61q.11,236.15,0,472.28v20ZM492.87,671.5H233.73c0,47-1.21,92.72.28,138.41,2.17,66.46,56,117.18,127.06,121.92,59.88,4,124.4-44.6,130.72-105.75C497,775.4,492.87,723.74,492.87,671.5ZM234.67,494.74V623.46H493.29V494.74ZM494.71,276c0-37.14-.61-73.13.28-109.09.39-15.73-5.45-20.15-20.63-20-65.31.65-130.64.26-196,.25-45.12,0-45.12,0-45.12,44.9V276Zm-1,44.41h-259v127.4h259Z"/><path class="cls-1" d="M364.13,736.15a64.91,64.91,0,0,1,65,65.06c-.16,34.83-31.26,65.15-66.28,64.62-34.26-.51-63.7-30.59-63.55-64.92C299.46,764.13,327.6,736,364.13,736.15Zm-5.41,88.52,10.19,0c5.4-8.06,15.91-16.88,14.86-24-1.18-8-12.77-14.49-19.84-21.63-7,7.07-18.61,13.48-19.76,21.41C343.12,807.7,353.42,816.55,358.72,824.67Z"/></svg>