<svg id="Capa_3" data-name="Capa 3" xmlns="http://www.w3.org/2000/svg" viewBox="0 0 298.51 369.92"><defs><style>.cls-1{fill:#fff;}</style></defs><title>Mesa de trabajo 1</title><path class="cls-1" d="M298.51,151.78C298.08,233.77,231,300,148.7,299.65,65.69,299.31-.46,232.3,0,149.16.46,66.8,68.69.39,150.32,1.23A149.16,149.16,0,0,1,298.51,151.78Zm-8.15-.91c0-77.66-63.42-141.61-140.7-141.31C69.85,9.88,9.86,72.6,8.41,147c-1.61,82.69,64,144.15,140.94,144.39,77.17.24,141-63.63,141-140.54Z"/><path class="cls-1" d="M278.29,150.83c1,11.13-5.11,20-11,28.5-8.12,11.64-12.57,24.37-15,38.1-3.24,18.13-12.67,30.78-31.48,34.95-2.91.65-5.78,1.55-8.72,2a78.08,78.08,0,0,0-32.87,13.46,98,98,0,0,1-16.46,9.21,32.6,32.6,0,0,1-27.56-.29,70.89,70.89,0,0,1-12.63-6.92,91,91,0,0,0-40.14-16.43c-20.48-3.31-32.87-15.23-36-35.76-2.52-16.76-10.14-31-19.16-44.93-8.45-13-10.25-26.82-2.05-40.88,2.51-4.31,4.76-8.81,7.67-12.83,7.75-10.67,11.06-22.91,13.39-35.57C49.6,65.36,59,52.69,77.78,48.54c2.92-.64,5.78-1.55,8.73-2A80.22,80.22,0,0,0,119.4,33.1a113.5,113.5,0,0,1,18.35-9.84c7.44-3.24,15.27-2.91,22.88-.15a37,37,0,0,1,9,4.15c15.8,11.28,33.2,18.26,52.3,21.86,18.18,3.43,27.13,16.46,30.09,33.69a102,102,0,0,0,17.54,42.37c5.3,7.49,9.46,15.71,8.71,25.64ZM50.41,197.49c1.67,7.11,3.47,13.49,4.63,20C57.79,232.88,66.65,242,82.11,244.6c17.12,2.88,33,8.84,46.86,19.47.92.7,2,1.14,3,1.76q17,10.94,34.17.27c1.69-1.05,3.49-2,5.09-3.13A93.92,93.92,0,0,1,214,245.32c17.74-2.62,27.5-13.15,30.23-30.73,2.14-13.77,6.47-26.75,14.87-38.13a98.06,98.06,0,0,0,5.5-8.32c6.79-11.5,7.81-23.07.17-34.68-2.28-3.47-4.29-7.13-6.64-10.55A72.43,72.43,0,0,1,246,94.26c-.75-4.24-1.93-8.39-2.88-12.6-2.93-13-10.17-22.12-23.7-24.48-19.82-3.46-37.59-11.24-54.1-22.65-10.42-7.2-21.6-6.5-32.41,0-1.85,1.11-3.8,2.1-5.52,3.38A94.13,94.13,0,0,1,84.62,55.61C67.78,58.17,57.2,67.46,54.68,84.77c-2.55,17.51-9.93,32.78-20.11,47.12-6.92,9.74-9,20.76-2.69,31.93,5.41,9.49,11.14,18.79,16.27,27.4,2.62,0,5-.64,6.7.14a42.16,42.16,0,0,1,9.69,6c1.21,1,1.14,3.56,1.65,5.42-1.9.27-4.12,1.31-5.64.67-3.33-1.4-6.3-3.64-10.14-6Z"/><path class="cls-1" d="M103.07,149.93c-1.44-21.82,18.56-46.86,47.42-45.86,26.11.9,46.4,22.57,45.23,47.88-1.19,25.74-22.88,46.17-47.76,45C122,195.67,101.92,174.69,103.07,149.93Zm84.18,1.48c1.14-21.07-17.44-39.24-38.11-39-20.45.24-38,17.23-38,37.21,0,21.72,16.86,38.87,38.26,38.85,20.64,0,37.91-16.91,37.89-37.07Z"/><path class="cls-1" d="M79.1,164.64c-.32,2.44-.32,5-1.09,7.28-.43,1.27-2.36,3.1-3.23,2.91-1.38-.3-3.33-2-3.48-3.26a60.1,60.1,0,0,1-.14-12.86c.14-1.39,2.42-3.56,3.7-3.54s3.23,2,3.83,3.54c.67,1.73.15,3.91.15,5.9Z"/><path class="cls-1" d="M217.78,185.89c-1.14,1.27-2,3-3.26,3.4s-3.58-.27-4.17-1.24a88.58,88.58,0,0,1-6.3-12.35c-.43-1,.53-3.47,1.55-4.07s3.81-.34,4.36.5c2.79,4.27,5.1,8.86,7.81,13.77Z"/><path class="cls-1" d="M102.85,125.46c-2.51,1.1-4.61,2.92-6.09,2.51a59.82,59.82,0,0,1-12.23-5.14c-1.13-.61-2.28-3.44-1.78-4.31.76-1.32,3.25-2.84,4.47-2.48a79.26,79.26,0,0,1,12.26,5.09c1.13.55,1.73,2.16,3.37,4.32Z"/><path class="cls-1" d="M122.05,52.58c-3.89,2.77-7.68,5.7-11.73,8.21-1.48.92-4,1.67-5.31,1-2.73-1.38-2.83-4.22-.45-6.08a85.16,85.16,0,0,1,11.16-7.33c2.91-1.61,4.55.34,6.33,4.19Z"/><path class="cls-1" d="M199.58,236.67c-3.29-.44-4.8-2.56-3.31-5.19a70.4,70.4,0,0,1,8.26-11.21c.75-.86,3.21-1,4.46-.44,1,.42,2.18,2.95,1.79,3.55-2.9,4.42-6.14,8.61-9.37,12.81-.31.41-1.24.34-1.83.48Z"/><path class="cls-1" d="M152.27,89.11c-1.58,1.66-2.38,3.15-3.53,3.53s-3.22.12-3.92-.7a89.68,89.68,0,0,1-8-10.69c-.67-1-.34-3.36.42-4.49.59-.87,3.36-1.52,3.81-1,3.83,4.18,7.36,8.64,11.27,13.37Z"/><path class="cls-1" d="M237.28,89.89c0,3.43-3.18,5.06-6.05,2.93a79,79,0,0,1-9.69-8.59,4.87,4.87,0,0,1-.53-4.38c.4-.93,3-2,3.57-1.61,4.33,3.25,8.41,6.83,12.51,10.37C237.37,88.85,237.24,89.57,237.28,89.89Z"/><path class="cls-1" d="M173.21,211.11a13.92,13.92,0,0,1-1.79,3.23,70.13,70.13,0,0,1-8.76,8c-1.29.9-3.74.15-5.67.15.11-1.81-.48-4.23.46-5.31a70.76,70.76,0,0,1,9.44-8.69,4.78,4.78,0,0,1,4-.3c1,.38,1.54,1.89,2.31,3Z"/><path class="cls-1" d="M177.82,47.91c.34.89,1.44,2.45,1.37,4s-.89,3.8-2.05,4.36a75.61,75.61,0,0,1-12.48,4.61c-1.12.31-3.6-.9-3.92-1.89-.43-1.36.15-4.15,1.13-4.63,4.39-2.17,9.08-3.73,15.94-6.39Z"/><path class="cls-1" d="M109.14,194.9c1.18.93,3.16,1.71,3.34,2.8.25,1.46-.44,4-1.51,4.58a72.29,72.29,0,0,1-12.84,5.06c-1.1.32-3.43-1.26-4.09-2.54-.48-.94.42-3.61,1.41-4.11,4.24-2.14,8.74-3.77,13.69-5.8Z"/><path class="cls-1" d="M87,245.12c-1.37-1.24-3.16-2.12-3.46-3.36s.47-3.57,1.5-4.18a74.77,74.77,0,0,1,12-5.83c1.19-.44,3.46.68,4.54,1.77.63.63.36,3.45-.35,3.89-4.47,2.72-9.19,5-14.24,7.71Z"/><path class="cls-1" d="M161.55,239.53c4.57,4,8.91,7.6,13,11.49.43.4-.19,2.76-1,3.37-1,.77-3.12,1.37-4,.83a108.34,108.34,0,0,1-11.45-8.57c-.8-.68-1-2.88-.51-4s2.06-1.73,3.87-3.1Z"/><path class="cls-1" d="M254.56,124.67c-1.75,4.92-7.12,5.54-10.91,8-1.53,1-4.31,1.7-5.71,1-2.66-1.38-2.74-4.28-.22-6a80.06,80.06,0,0,1,11.51-6.69c2.91-1.38,4.61.4,5.34,3.73Z"/><path class="cls-1" d="M206.74,122.48c2,0,4.15-.5,5.9.14s2.93,2.42,4.36,3.7c-1.45,1.31-2.83,3.63-4.37,3.74a55.89,55.89,0,0,1-12.84-.77c-1.21-.2-3-2.51-2.89-3.68s2-3,3.42-3.39c2-.52,4.25,0,6.4.14v.12Z"/><path class="cls-1" d="M256.12,176.93c-1.16,1.42-1.93,3.24-2.91,3.37-1.55.19-3.83-.25-4.75-1.32a55.59,55.59,0,0,1-7-10.17c-.65-1.24,0-4.05,1.06-5,.79-.71,4-.18,4.8.85,3.13,3.75,5.74,7.94,8.77,12.29Z"/><path class="cls-1" d="M42.93,144.53c.89-4.68,1.13-8.06,2.28-11.11.64-1.7,2.82-4,4.28-4,3.19,0,3.52,2.77,2.91,5.54-.67,3.06-1.24,6.15-1.81,9.23-.49,2.61-1.32,5.4-4.56,4.31-1.55-.53-2.42-3.07-3.09-4Z"/></svg>