<?xml version="1.0" encoding="utf-8"?>
<!-- Generator: Adobe Illustrator 23.0.5, SVG Export Plug-In . SVG Version: 6.00 Build 0)  -->
<svg version="1.1" xmlns="http://www.w3.org/2000/svg" xmlns:xlink="http://www.w3.org/1999/xlink" x="0px" y="0px"
	 viewBox="0 0 298.5 369.9" style="enable-background:new 0 0 298.5 369.9;" xml:space="preserve">
<style type="text/css">
	.st0{fill:#941B31;}
	.st1{fill:#FFFFFF;}
</style>
<g id="Capa_2">
	<circle class="st0" cx="149.1" cy="150.4" r="144.6"/>
	<polygon class="st0" points="122,292.5 122,354.4 144.3,365.7 152.3,365.7 174.7,354 173.2,293.1 	"/>
</g>
<g id="Capa_1">
	<path class="st1" d="M278.3,150.8c1,11.1-5.1,20-11,28.5c-8.1,11.6-12.6,24.4-15,38.1c-3.2,18.1-12.7,30.8-31.5,34.9
		c-2.9,0.6-5.8,1.6-8.7,2c-62.7,2.4-24.3,96.4-34.3,103.4c-5.1,3.6-10.7,6.7-16.5,9.2c-9.1,4-18.5,3.9-27.6-0.3
		c-4.4-2-8.8-4.1-12.6-6.9C109,350.9,139.2,249,82.4,253.4c-20.5-3.3-32.9-15.2-36-35.8c-2.5-16.8-10.1-31-19.2-44.9
		c-8.5-13-10.3-26.8-2-40.9c2.5-4.3,4.8-8.8,7.7-12.8c7.8-10.7,11.1-22.9,13.4-35.6C49.6,65.4,59,52.7,77.8,48.5
		c2.9-0.6,5.8-1.5,8.7-2c12-1.9,22.8-6.6,32.9-13.4c5.7-3.9,12-7.1,18.4-9.8c7.4-3.2,15.3-2.9,22.9-0.1c3.1,1.1,6.4,2.3,9,4.1
		c15.8,11.3,33.2,18.3,52.3,21.9c18.2,3.4,27.1,16.5,30.1,33.7c2.7,15.6,8.5,29.5,17.5,42.4C274.9,132.7,279,140.9,278.3,150.8
		L278.3,150.8z M50.4,197.5c1.7,7.1,3.5,13.5,4.6,20c2.8,15.4,11.6,24.5,27.1,27.1c69,6.8,31.5,98.8,45.4,109.4c0.9,0.7,2,1.1,3,1.8
		c11.3,7.3,22.7,7.4,34.2,0.3c1.7-1,3.5-2,5.1-3.1c12.8-9.5-30.6-101.5,44.3-107.6c17.7-2.6,27.5-13.1,30.2-30.7
		c2.1-13.8,6.5-26.8,14.9-38.1c2-2.7,3.8-5.5,5.5-8.3c6.8-11.5,7.8-23.1,0.2-34.7c-2.3-3.5-4.3-7.1-6.6-10.6
		c-6-8.7-10.3-18.2-12.2-28.7c-0.8-4.2-1.9-8.4-2.9-12.6c-2.9-13-10.2-22.1-23.7-24.5c-19.8-3.5-37.6-11.2-54.1-22.6
		c-10.4-7.2-21.6-6.5-32.4,0c-1.9,1.1-3.8,2.1-5.5,3.4c-12.8,9.5-27,15.3-42.8,17.7c-16.8,2.6-27.4,11.8-29.9,29.2
		c-2.5,17.5-9.9,32.8-20.1,47.1c-6.9,9.7-9,20.8-2.7,31.9c5.4,9.5,11.1,18.8,16.3,27.4c2.6,0,5-0.6,6.7,0.1c3.5,1.6,6.8,3.6,9.7,6
		c1.2,1,1.1,3.6,1.7,5.4c-1.9,0.3-4.1,1.3-5.6,0.7C57.2,202.1,54.2,199.8,50.4,197.5L50.4,197.5z"/>
	<path class="st1" d="M103.1,149.9c-1.4-21.8,18.6-46.9,47.4-45.9c26.1,0.9,46.4,22.6,45.2,47.9c-1.2,25.7-22.9,46.2-47.8,45
		C122,195.7,101.9,174.7,103.1,149.9z M187.3,151.4c1.1-21.1-17.4-39.2-38.1-39c-20.4,0.2-38,17.2-38.1,37.2
		c0,21.7,16.9,38.9,38.3,38.9C170,188.5,187.3,171.6,187.3,151.4L187.3,151.4z"/>
	<path class="st1" d="M79.1,164.6c-0.3,2.4-0.3,5-1.1,7.3c-0.4,1.3-2.4,3.1-3.2,2.9c-1.4-0.3-3.3-2-3.5-3.3
		c-0.5-4.3-0.6-8.6-0.1-12.9c0.1-1.4,2.4-3.6,3.7-3.5c1.3,0,3.2,2,3.8,3.5c0.7,1.7,0.2,3.9,0.2,5.9C78.9,164.6,79,164.6,79.1,164.6z
		"/>
	<path class="st1" d="M217.8,185.9c-1.1,1.3-2,3-3.3,3.4c-1.2,0.4-3.6-0.3-4.2-1.2c-2.4-3.9-4.5-8.1-6.3-12.4
		c-0.4-1,0.5-3.5,1.6-4.1c1.1-0.6,3.8-0.3,4.4,0.5C212.8,176.4,215.1,181,217.8,185.9L217.8,185.9z"/>
	<path class="st1" d="M102.8,125.4c-2.5,1.1-4.6,2.9-6.1,2.5c-4.2-1.2-8.3-3-12.2-5.1c-1.1-0.6-2.3-3.4-1.8-4.3
		c0.8-1.3,3.3-2.8,4.5-2.5c4.2,1.3,8.3,3.1,12.3,5.1C100.6,121.7,101.2,123.3,102.8,125.4L102.8,125.4z"/>
	<path class="st1" d="M122.1,52.6c-3.9,2.8-7.7,5.7-11.7,8.2c-1.5,0.9-4,1.7-5.3,1c-2.7-1.4-2.8-4.2-0.4-6.1
		c3.5-2.7,7.3-5.2,11.2-7.3C118.6,46.8,120.3,48.7,122.1,52.6L122.1,52.6z"/>
	<path class="st1" d="M199.6,236.7c-3.3-0.4-4.8-2.6-3.3-5.2c2.3-4,5.2-7.7,8.3-11.2c0.8-0.9,3.2-1,4.5-0.4c1,0.4,2.2,2.9,1.8,3.6
		c-2.9,4.4-6.1,8.6-9.4,12.8C201.1,236.6,200.2,236.5,199.6,236.7L199.6,236.7z"/>
	<path class="st1" d="M152.3,89.1c-1.6,1.7-2.4,3.2-3.5,3.5s-3.2,0.1-3.9-0.7c-2.9-3.4-5.7-6.9-8-10.7c-0.7-1.1-0.3-3.4,0.4-4.5
		c0.6-0.9,3.4-1.5,3.8-1C144.8,79.9,148.4,84.4,152.3,89.1L152.3,89.1z"/>
	<path class="st1" d="M237.3,89.9c0,3.4-3.2,5.1-6.1,2.9c-3.5-2.6-6.7-5.5-9.7-8.6c-0.9-0.9-1.1-3.2-0.5-4.4c0.4-0.9,3-2,3.6-1.6
		c4.3,3.3,8.4,6.8,12.5,10.4C237.4,88.8,237.2,89.6,237.3,89.9z"/>
	<path class="st1" d="M173.2,211.1c-0.7,1.3-1,2.5-1.8,3.2c-2.8,2.8-5.6,5.7-8.8,8c-1.3,0.9-3.7,0.1-5.7,0.1
		c0.1-1.8-0.5-4.2,0.5-5.3c2.8-3.2,6.1-6,9.4-8.7c0.9-0.7,2.8-0.8,4-0.3C171.9,208.5,172.4,210.1,173.2,211.1L173.2,211.1z"/>
	<path class="st1" d="M177.8,47.9c0.3,0.9,1.4,2.5,1.4,4c-0.1,1.5-0.9,3.8-2.1,4.4c-4,1.9-8.2,3.4-12.5,4.6
		c-1.1,0.3-3.6-0.9-3.9-1.9c-0.4-1.4,0.1-4.2,1.1-4.6C166.3,52.1,171,50.6,177.8,47.9L177.8,47.9z"/>
	<path class="st1" d="M109.1,194.9c1.2,0.9,3.2,1.7,3.3,2.8c0.3,1.5-0.4,4-1.5,4.6c-4.1,2.1-8.4,3.8-12.8,5.1
		c-1.1,0.3-3.4-1.3-4.1-2.5c-0.5-0.9,0.4-3.6,1.4-4.1C99.7,198.5,104.2,196.9,109.1,194.9L109.1,194.9z"/>
	<path class="st1" d="M87,245.1c-1.4-1.2-3.2-2.1-3.5-3.4c-0.3-1.3,0.5-3.6,1.5-4.2c3.8-2.3,7.8-4.3,12-5.8c1.2-0.4,3.5,0.7,4.5,1.8
		c0.6,0.6,0.4,3.4-0.3,3.9C96.8,240.1,92.1,242.4,87,245.1L87,245.1z"/>
	<path class="st1" d="M161.6,239.5c4.6,4,8.9,7.6,13,11.5c0.4,0.4-0.2,2.8-1,3.4c-1,0.8-3.1,1.4-4,0.8c-4-2.6-7.8-5.5-11.4-8.6
		c-0.8-0.7-1-2.9-0.5-4C158.1,241.5,159.7,240.9,161.6,239.5L161.6,239.5z"/>
	<path class="st1" d="M254.6,124.7c-1.8,4.9-7.1,5.5-10.9,8c-1.5,1-4.3,1.7-5.7,1c-2.7-1.4-2.7-4.3-0.2-6c3.6-2.5,7.5-4.8,11.5-6.7
		C252.1,119.5,253.8,121.3,254.6,124.7L254.6,124.7z"/>
	<path class="st1" d="M206.7,122.5c2,0,4.1-0.5,5.9,0.1c1.7,0.6,2.9,2.4,4.4,3.7c-1.4,1.3-2.8,3.6-4.4,3.7
		c-4.3,0.3-8.6-0.1-12.8-0.8c-1.2-0.2-3-2.5-2.9-3.7c0.1-1.3,2-3,3.4-3.4c2-0.5,4.3,0,6.4,0.1C206.7,122.4,206.7,122.4,206.7,122.5
		L206.7,122.5z"/>
	<path class="st1" d="M256.1,176.9c-1.2,1.4-1.9,3.2-2.9,3.4c-1.6,0.2-3.8-0.3-4.8-1.3c-2.7-3.1-5.1-6.5-7-10.2
		c-0.6-1.2,0-4.1,1.1-5c0.8-0.7,3.9-0.2,4.8,0.9C250.5,168.4,253.1,172.6,256.1,176.9L256.1,176.9z"/>
	<path class="st1" d="M42.9,144.5c0.9-4.7,1.1-8.1,2.3-11.1c0.6-1.7,2.8-4,4.3-4c3.2,0,3.5,2.8,2.9,5.5c-0.7,3.1-1.2,6.1-1.8,9.2
		c-0.5,2.6-1.3,5.4-4.6,4.3C44.5,148,43.6,145.4,42.9,144.5L42.9,144.5z"/>
	<path class="st1" d="M150.3,1.2C68.7,0.4,0.5,66.8,0,149.1c-0.4,75.2,53.7,137.2,125.4,148.6c-0.2-3.1-0.5-6-0.8-8.5
		C58.9,277.5,7,220.7,8.4,147C9.9,72.6,69.8,9.9,149.7,9.6C227,9.3,290.3,73.2,290.4,150.9c0,70.1-53.1,129.4-121,139.1
		c-0.1,3.2-0.1,5.9-0.1,8.3c72.6-9.7,128.8-71.5,129.2-146.5C299,68.7,233,2.1,150.3,1.2z"/>
</g>
</svg>
