<?xml version="1.0" encoding="UTF-8"?>
<svg id="Capa_6" data-name="Capa 6" xmlns="http://www.w3.org/2000/svg" viewBox="0 0 227.29 227.28">
  <defs>
    <style>
      .cls-1 {
        fill: #fff;
      }
    </style>
  </defs>
  <path class="cls-1" d="M113.66,227.09C51.01,227.11,.08,176.3,0,113.71-.08,51.12,51.06,.08,113.73,.19c62.72,.1,113.61,50.96,113.56,113.49-.05,62.58-50.96,113.4-113.63,113.42Zm-.11-63.23c20.92,0,41.84,0,62.77,0,4.69,0,6.75-2.04,6.75-6.73,0-28.99,0-57.98,0-86.98,0-4.69-2.05-6.73-6.75-6.73-41.78,0-83.56,0-125.33,0-4.7,0-6.75,2.04-6.75,6.73,0,28.99,0,57.98,0,86.98,0,4.69,2.06,6.74,6.75,6.74,20.86,0,41.71,0,62.57,0Z"/>
  <path class="cls-1" d="M65.01,76.99h97.23c-16.42,14.32-32.45,28.31-48.6,42.4-16.14-14.07-32.17-28.05-48.62-42.4Z"/>
  <path class="cls-1" d="M161.32,152.29H66.32c11.32-10.08,22.35-19.9,33.53-29.85,2.6,2.26,5.12,4.45,7.64,6.64,.8,.69,1.57,1.41,2.39,2.07,2.44,1.96,5.15,1.96,7.56-.08,3.36-2.85,6.66-5.78,10.14-8.81,11.17,9.95,22.3,19.85,33.74,30.03Z"/>
  <path class="cls-1" d="M55.67,83.88c11.97,10.44,23.68,20.66,35.59,31.04-11.85,10.55-23.59,20.99-35.59,31.67v-62.71Z"/>
  <path class="cls-1" d="M171.71,83.77v62.59c-12.02-10.69-23.73-21.11-35.53-31.61,11.85-10.34,23.54-20.52,35.53-30.98Z"/>
</svg>