<svg id="Capa_4" data-name="Capa 4" xmlns="http://www.w3.org/2000/svg" viewBox="0 0 1080 1080"><defs><style>.cls-1{fill:#1d3d78;}.cls-2{fill:#fff;}</style></defs><title>Mesa de trabajo 1</title><circle class="cls-1" cx="540" cy="540" r="540"/><path class="cls-2" d="M664.13,246.22c20.6,0,29,14.65,18.74,32.51L558.1,495.14c-10.32,17.89-27.18,17.89-37.47,0L395.86,278.73c-10.3-17.86-1.88-32.51,18.74-32.51Z"/><path class="cls-2" d="M261,623.92c-20.62,0-29-14.61-18.73-32.51L367,375c10.3-17.87,27.15-17.87,37.47,0L529.24,591.41c10.29,17.9,1.88,32.51-18.74,32.51Z"/><path class="cls-2" d="M567.71,623.92c-20.63,0-29.06-14.61-18.75-32.51L673.73,375c10.31-17.87,27.16-17.87,37.46,0L836,591.41c10.27,17.9,1.86,32.51-18.76,32.51Z"/><path class="cls-2" d="M136,726.86h43.78l.29,15.22q0,16.62-8.12,21.42t-36.24,4.81q-25.78,0-34.16-6.41t-8.38-26.11q0-25.17,3.36-31.79a21.26,21.26,0,0,1,12.6-10.9q8.44-2.8,28.7-2.8,26.51,0,34.23,4.35t7.72,19.29H160.68q-.51-7.53-4.26-9.35t-18.82-1.83q-16.39,0-20.8,3.15t-4.41,14.77l-.07,7.69.14,9.83q0,11.4,4.38,14.52t20.25,3.12q15.43,0,19.63-2.64t4.18-12.47l.08-3.15H136Z"/><path class="cls-2" d="M187.94,767.63V691h49q18.28,0,25.21,4.89t6.91,17.69q0,11.63-3.46,15.89t-14.16,5.9v.5q16.53.79,16.53,14.89v16.9H249.13v-14q0-11.85-15.15-11.85H206.81v25.83Zm18.87-38.08H233.9q9.69,0,12.86-2.66t3.17-10.7q0-8.21-2.73-10.59t-12-2.39h-28.4Z"/><path class="cls-2" d="M342.67,691h18.86v51q0,16-8,21.17T321,768.31q-26,0-34.08-4.89t-8.09-20.61V691h18.86v51.84q0,8.48,3.94,10.75t18.5,2.28q14.93,0,18.75-2.3t3.83-11.29Z"/><path class="cls-2" d="M373.57,767.63V691h45q20.18,0,27.2,5.42t7,20.92q0,15.39-6.7,20.44T419,742.81l-4.37.05H392.43v24.77Zm18.86-37h21.49q12.81,0,16.28-2.27t3.46-10.76q0-9.72-2.88-12.05t-15-2.33H392.43Z"/><path class="cls-2" d="M504.34,690.3q27.09,0,34.89,6.93t7.79,31q0,26.34-7.83,33.2t-37.91,6.85q-27.09,0-35-6.77t-7.94-29.8q0-27.4,7.79-34.42t38.24-7m-1.46,12.46q-19,0-22.21,3.77t-3.21,26.06q0,16.5,3.75,19.88t22.11,3.37q17.55,0,21.05-3.79t3.5-23q0-19.26-3.32-22.78t-21.67-3.51"/><path class="cls-2" d="M589.9,767.63V691h49q18.29,0,25.2,4.89T671,713.55q0,11.63-3.46,15.89t-14.17,5.9v.5q16.53.79,16.54,14.89v16.9H651.08v-14q0-11.85-15.15-11.85H608.76v25.83Zm18.86-38.08h27.1q9.69,0,12.86-2.66t3.16-10.7q0-8.21-2.73-10.59t-12-2.39H608.76Z"/><polygon class="cls-2" points="697.58 703.21 697.58 722.98 744.19 722.98 744.19 733.71 697.58 733.71 697.58 755.39 747.17 755.39 747.17 767.63 678.71 767.63 678.71 690.97 746.74 690.97 746.74 703.21 697.58 703.21"/><path class="cls-2" d="M795,726.86h43.78l.29,15.22q0,16.62-8.12,21.42t-36.24,4.81q-25.78,0-34.16-6.41t-8.38-26.11q0-25.17,3.35-31.79a21.28,21.28,0,0,1,12.61-10.9q8.45-2.8,28.69-2.8,26.52,0,34.23,4.35t7.73,19.29H819.66q-.51-7.53-4.26-9.35t-18.83-1.83q-16.38,0-20.79,3.15t-4.41,14.77l-.07,7.69.14,9.83q0,11.4,4.38,14.52t20.25,3.12q15.43,0,19.62-2.64t4.19-12.47l.07-3.15H795Z"/><rect class="cls-2" x="846.93" y="690.97" width="18.86" height="76.66"/><path class="cls-2" d="M919.35,690.3q27.09,0,34.88,6.93t7.8,31q0,26.34-7.83,33.2t-37.92,6.85q-27.09,0-35-6.77t-7.93-29.8q0-27.4,7.78-34.42t38.25-7m-1.46,12.46q-19,0-22.22,3.77t-3.2,26.06q0,16.5,3.75,19.88t22.11,3.37q17.55,0,21-3.79t3.49-23q0-19.26-3.31-22.78t-21.67-3.51"/><path class="cls-2" d="M974.4,690.24a11.92,11.92,0,0,1,8.78,3.67,12.52,12.52,0,0,1,0,17.69,11.93,11.93,0,0,1-8.78,3.68,12.52,12.52,0,1,1,0-25m0,1.72a10.11,10.11,0,0,0-7.49,3.16,11,11,0,0,0,0,15.27,10.43,10.43,0,0,0,15,0,11,11,0,0,0,0-15.26,10.06,10.06,0,0,0-7.47-3.17m-5.94,17.67v-14h7.12q4.73,0,4.72,4.35c0,2.11-.72,3.37-2.15,3.8a2.49,2.49,0,0,1,2,2.75v3.1h-2.94v-2.58c0-1.32-.68-2-2-2h-3.75v4.56Zm2.94-7.08h3.75c1.56,0,2.34-.74,2.34-2.23a1.91,1.91,0,0,0-2.16-2.17h-3.93Z"/><polygon class="cls-2" points="102.7 787.96 102.7 798.26 125.12 798.26 125.12 803.84 102.7 803.84 102.7 815.13 126.56 815.13 126.56 821.5 93.62 821.5 93.62 781.59 126.35 781.59 126.35 787.96 102.7 787.96"/><polygon class="cls-2" points="146.7 781.59 146.7 814.72 169.12 814.72 169.12 821.5 137.62 821.5 137.62 781.59 146.7 781.59"/><path class="cls-2" d="M198.25,821.5V781.59h21.66q9.71,0,13.09,2.82t3.38,10.89c0,5.35-1.08,8.89-3.23,10.65s-6.49,2.63-13,2.63l-2.11,0H207.33V821.5Zm9.08-19.27h10.34c4.1,0,6.72-.39,7.83-1.18s1.66-2.66,1.66-5.6c0-3.38-.46-5.46-1.38-6.27s-3.33-1.22-7.2-1.22H207.33Z"/><path class="cls-2" d="M267.32,781.24q13,0,16.78,3.61T287.85,801q0,13.72-3.76,17.28t-18.24,3.57q-13,0-16.86-3.52t-3.81-15.51q0-14.28,3.74-17.93t18.4-3.65m-.7,6.49q-9.15,0-10.69,2t-1.54,13.57q0,8.6,1.8,10.35t10.64,1.75q8.44,0,10.13-2t1.68-12q0-10-1.59-11.85t-10.43-1.83"/><path class="cls-2" d="M295.29,821.5V781.59H318.8q10,0,14,3.66t4,12.81q0,14.93-3.23,19.19t-14.54,4.25Zm9.08-6.37H317.3q6.51,0,8.42-2.51t1.91-11q0-8.83-1.71-11.23t-8.06-2.4H304.37Z"/><polygon class="cls-2" points="354.9 787.96 354.9 798.26 377.32 798.26 377.32 803.84 354.9 803.84 354.9 815.13 378.76 815.13 378.76 821.5 345.83 821.5 345.83 781.59 378.55 781.59 378.55 787.96 354.9 787.96"/><path class="cls-2" d="M389.75,821.5V781.59h23.58q8.81,0,12.13,2.54t3.33,9.21c0,4-.56,6.8-1.66,8.28s-3.39,2.5-6.82,3.07V805q7.95.4,7.95,7.75v8.8h-9.07v-7.28q0-6.16-7.29-6.17H398.83V821.5Zm9.08-19.83h13c3.11,0,5.17-.45,6.19-1.38s1.52-2.79,1.52-5.57-.43-4.69-1.31-5.52-2.8-1.24-5.76-1.24H398.83Z"/><path class="cls-2" d="M459.15,821.5V781.59h23.51q10,0,14,3.66t4,12.81q0,14.93-3.23,19.19t-14.54,4.25Zm9.08-6.37h12.93q6.51,0,8.42-2.51t1.91-11q0-8.83-1.71-11.23t-8.07-2.4H468.23Z"/><polygon class="cls-2" points="521.22 787.96 521.22 798.26 543.64 798.26 543.64 803.84 521.22 803.84 521.22 815.13 545.08 815.13 545.08 821.5 512.15 821.5 512.15 781.59 544.87 781.59 544.87 787.96 521.22 787.96"/><polygon class="cls-2" points="584.78 781.59 584.78 814.72 607.21 814.72 607.21 821.5 575.71 821.5 575.71 781.59 584.78 781.59"/><path class="cls-2" d="M648,813.84H627.39l-3,7.66h-9.59l15.9-39.91h13.63L660.5,821.5h-9.42Zm-2.1-5.59-8.27-20.79-8.13,20.79Z"/><rect class="cls-2" x="687.18" y="781.59" width="9.08" height="39.92"/><path class="cls-2" d="M768,781.59V821.5h-9.07V799.75c0-1.74,0-3.71.17-5.91l.18-3,.17-3h-.27l-1.1,2.78-1,2.77c-1,2.49-1.75,4.34-2.28,5.53L744.19,821.5h-8.27l-10.61-22.34c-.58-1.23-1.36-3.07-2.31-5.53l-1.09-2.77-1.08-2.75h-.29l.18,2.9.17,2.92q.21,3.39.21,5.82V821.5H712V781.59h14.78l8.56,18.48c.58,1.29,1.35,3.12,2.31,5.52l1.05,2.78,1.08,2.75h.32l1-2.75,1.05-2.74q1.29-3.5,2.24-5.5l8.41-18.54Z"/><path class="cls-2" d="M810.6,813.84H790l-3,7.66h-9.6l15.91-39.91h13.62l16.16,39.91h-9.42Zm-2.11-5.59-8.26-20.79-8.14,20.79Z"/><path class="cls-2" d="M850.29,799.94h21.05l.15,7.92q0,8.65-3.91,11.15t-17.43,2.51q-12.42,0-16.43-3.34c-2.69-2.21-4-6.75-4-13.59q0-13.1,1.61-16.55a10.51,10.51,0,0,1,6.06-5.68q4.07-1.46,13.8-1.45c8.51,0,14,.74,16.47,2.26s3.71,4.86,3.71,10h-9.17q-.25-3.91-2-4.86c-1.21-.63-4.22-1-9.06-1-5.26,0-8.59.55-10,1.64s-2.12,3.66-2.12,7.69l0,4,.07,5.12q0,5.92,2.1,7.55t9.74,1.63c5,0,8.1-.46,9.44-1.37s2-3.09,2-6.49l0-1.64h-12Z"/><polygon class="cls-2" points="890.32 787.96 890.32 798.26 912.75 798.26 912.75 803.84 890.32 803.84 890.32 815.13 914.18 815.13 914.18 821.5 881.25 821.5 881.25 781.59 913.97 781.59 913.97 787.96 890.32 787.96"/><path class="cls-2" d="M968.78,781.59V821.5H953.4l-13.67-21.9c-.67-1.09-1.74-3-3.18-5.73L935,791l-1.51-2.87h-.35l.15,2.63.1,2.6.07,5.23v22.9h-9.07V781.59h15.38l12.43,20.23c1.1,1.79,2.38,4,3.83,6.52l1.82,3.25,1.82,3.27H960l-.1-2.57-.1-2.57-.07-5.15v-23Z"/></svg>