<?xml version="1.0" encoding="UTF-8"?>
<svg id="Capa_2" data-name="Capa 2" xmlns="http://www.w3.org/2000/svg" viewBox="0 0 227.29 227.28">
  <defs>
    <style>
      .cls-1 {
        fill: #fff;
      }
    </style>
  </defs>
  <path class="cls-1" d="M113.33,227.28C50.16,227.12-.44,176.19-.09,112.74,.27,48.68,53.47-1.34,116.17,.03c60.08,1.31,111.63,50.65,111.21,115.23-.4,61.51-51.76,112.18-114.05,112.02Zm0-45.17c0-.29,.01-.58,.02-.87,9.5,0,19.01,.28,28.5-.06,20.89-.74,35.07-12.67,36.36-33.3,1.35-21.55,1.06-43.29-.06-64.87-.92-17.83-14.45-30.9-32.19-31.6-21.61-.85-43.3-.86-64.91,.03-17.5,.72-31.14,14.13-31.9,31.56-.96,21.93-.99,43.96-.01,65.88,.77,17.4,13.71,29.88,31.1,31.65,10.97,1.12,22.05,1.09,33.08,1.57Z"/>
  <path class="cls-1" d="M168.04,116.07c-.45,10.71-.22,21.49-1.51,32.1-1.58,13.01-9.86,20.63-22.91,20.98-19.88,.54-39.79,.59-59.66,0-14.34-.43-23.12-9.65-23.52-24.46-.52-19-.52-38.03-.02-57.02,.41-15.59,9.53-24.57,25.23-24.97,18.56-.48,37.15-.48,55.71-.01,16.45,.41,25.19,9.47,25.74,25.86,.31,9.16,.06,18.34,.06,27.51,.3,0,.59,.01,.89,.02Zm-54.83,33.7c18.2,.49,33.7-14.45,34.17-32.95,.47-18.26-14.25-33.92-32.33-34.4-18.68-.5-34.43,13.95-34.96,32.07-.57,19.35,13.9,34.76,33.12,35.28Zm27.82-68.67c.03,4.26,3.59,7.78,7.85,7.74,4.25-.04,7.71-3.62,7.65-7.93-.06-4.33-3.55-7.77-7.83-7.73-4.22,.04-7.69,3.62-7.66,7.92Z"/>
  <path class="cls-1" d="M113.56,94.16c12.2-.06,22.01,9.52,22.13,21.63,.13,12.18-9.86,22.3-21.96,22.25-12.11-.05-21.92-9.85-21.95-21.91-.03-12.2,9.58-21.9,21.77-21.96Z"/>
</svg>