<svg id="Capa_1" data-name="Capa 1" xmlns="http://www.w3.org/2000/svg" viewBox="0 0 1080 1080"><defs><style>.cls-1{fill:#fff;}</style></defs><title>illu_B</title><path class="cls-1" d="M438.92,684.08c5.79-51.17,11.17-102.39,17.62-153.48,2.14-17,.19-29.26-14.24-42.06-32.8-29.08-43.78-69.83-45.42-111.62-4-102.48,30.44-189.06,112.72-253.67a162.9,162.9,0,0,1,26.08-16.49c20.79-10.67,36.18-1.39,37.37,21.75.94,18.37,1.85,36.76,3.37,55.09,3.42,41.34,20.52,76.21,50.24,105.11,33.92,33,56.46,71.43,56.77,120.35.21,33.64-11.31,62.45-37.9,83.26-11.06,8.66-12.25,17.38-11.32,30,5.12,69.61,12.34,139.27,12.89,209,.56,70.45-21.18,137.78-42.53,204.37-8.38,26.17-33.35,42.24-59.07,42s-50.91-16.67-59-42.4C460.78,853.61,440.13,770.92,438.92,684.08ZM528,168.22c-42.71,35.88-65.9,79.14-77.86,128.44-10.37,42.73-11.95,86,4.07,128.09,12.84,33.75,28.9,44.18,64.85,44.19,20.6,0,41.21.15,61.82-.05,28.26-.27,48.52-16.71,54.32-44.72,7-33.87-4.23-64.44-27.36-86.86C560.48,291.4,531,238.26,528,168.22ZM494.23,609.1c-1.2,5.7-2.64,10.57-3.19,15.54-11.17,100.65,7.69,197.46,38.56,292.51,1.84,5.65,12.9,13.2,17.46,11.93,6.68-1.86,14.8-10.12,16.34-17,13.78-61.44,29.18-122.76,38-185,5.44-38.39.25-78.27-.18-118Zm7.22-49.27H592c-1.75-15-3.23-27.74-4.88-42-17.49,0-32.76-.12-48,0-43.63.42-33.22-4.46-39,35.77C499.92,555,500.68,556.48,501.45,559.83Z"/></svg>