<svg width="250" height="148" viewBox="0 0 250 148" fill="none" xmlns="http://www.w3.org/2000/svg">
<path d="M37.2461 43.0352C36.6836 43.0352 36.4023 42.8828 36.4023 42.5781V28.832C36.4023 28.5195 36.6836 28.3633 37.2461 28.3633H37.4102C37.9648 28.3633 38.2422 28.5195 38.2422 28.832V42.5781C38.2422 42.8828 37.9648 43.0352 37.4102 43.0352H37.2461ZM46.4336 43.0352C46.1211 43.0352 45.8945 43.0078 45.7539 42.9531C45.6133 42.8906 45.543 42.8008 45.543 42.6836C45.543 42.6289 45.5625 42.5352 45.6016 42.4023L50.5352 28.7031C50.6133 28.4766 50.8906 28.3633 51.3672 28.3633H51.9766C52.4531 28.3633 52.7305 28.4766 52.8086 28.7031L57.7422 42.4141C57.7812 42.5 57.8008 42.5898 57.8008 42.6836C57.8008 42.918 57.5078 43.0352 56.9219 43.0352H56.7461C56.2617 43.0352 55.9805 42.9258 55.9023 42.707L54.6836 39.2852H48.5664L47.3711 42.707C47.3008 42.9258 47.0234 43.0352 46.5391 43.0352H46.4336ZM54.1211 37.7031L51.9414 31.5039C51.8789 31.332 51.8281 31.1367 51.7891 30.918C51.75 30.6992 51.7148 30.4883 51.6836 30.2852H51.6367C51.543 30.8086 51.4375 31.2148 51.3203 31.5039L49.1406 37.7031H54.1211ZM60.7773 43.0352C60.4805 43.0352 60.2656 43 60.1328 42.9297C60 42.8516 59.9336 42.7344 59.9336 42.5781V28.832C59.9336 28.5195 60.2148 28.3633 60.7773 28.3633H61.5156C61.9766 28.3633 62.2695 28.4922 62.3945 28.75L66.332 35.582L66.8711 36.8945L67.4102 35.6992L71.3594 28.75C71.4922 28.4922 71.7812 28.3633 72.2266 28.3633H72.918C73.4727 28.3633 73.75 28.5195 73.75 28.832V42.5781C73.75 42.8828 73.4727 43.0352 72.918 43.0352H72.7773C72.4805 43.0352 72.2656 43 72.1328 42.9297C72 42.8516 71.9336 42.7344 71.9336 42.5781V31.3633L71.8984 31.457L67.75 38.6641C67.6953 38.7578 67.6328 38.8281 67.5625 38.875C67.4922 38.9141 67.4023 38.9336 67.293 38.9336H66.4609C66.25 38.9336 66.0938 38.8438 65.9922 38.6641L61.75 31.2461V42.5781C61.75 42.8828 61.4727 43.0352 60.918 43.0352H60.7773Z" fill="black"/>
<path d="M94.3281 46C93.9635 46 93.6966 45.9154 93.5273 45.7461C93.3581 45.5768 93.2734 45.3164 93.2734 44.9648V22.7383C93.2734 22.3737 93.3581 22.1133 93.5273 21.957C93.6966 21.7878 93.9635 21.7031 94.3281 21.7031H100.539C102.232 21.7031 103.658 21.957 104.816 22.4648C105.975 22.9727 106.848 23.6888 107.434 24.6133C108.02 25.5378 108.312 26.612 108.312 27.8359C108.312 28.5911 108.137 29.3464 107.785 30.1016C107.434 30.8438 106.965 31.4883 106.379 32.0352C105.793 32.569 105.168 32.9271 104.504 33.1094V33.2461C104.504 33.1549 104.953 33.3307 105.852 33.7734C106.75 34.2031 107.557 34.8477 108.273 35.707C109.003 36.5534 109.367 37.6536 109.367 39.0078C109.367 43.6693 106.346 46 100.305 46H94.3281ZM100.383 32.1719C101.294 32.1719 102.115 31.9961 102.844 31.6445C103.573 31.2799 104.139 30.7917 104.543 30.1797C104.96 29.5547 105.168 28.8646 105.168 28.1094C105.168 26.8073 104.777 25.8568 103.996 25.2578C103.215 24.6458 101.965 24.3398 100.246 24.3398H96.3398V32.1719H100.383ZM101.418 43.3633C102.941 43.3633 104.12 42.9661 104.953 42.1719C105.786 41.3646 106.203 40.2643 106.203 38.8711C106.203 37.582 105.747 36.5859 104.836 35.8828C103.924 35.1667 102.583 34.8086 100.812 34.8086H96.3398V43.3633H101.418ZM115.266 46.0586C114.328 46.0586 113.859 45.8047 113.859 45.2969V22.7383C113.859 22.3737 113.944 22.1133 114.113 21.957C114.283 21.7878 114.549 21.7031 114.914 21.7031H120.754C123.527 21.7031 125.611 22.1914 127.004 23.168C128.41 24.1445 129.113 25.7005 129.113 27.8359C129.113 29.2812 128.762 30.4987 128.059 31.4883C127.368 32.4648 126.392 33.2005 125.129 33.6953V33.832C125.806 34.0664 126.359 34.5221 126.789 35.1992C127.232 35.8633 127.72 36.8529 128.254 38.168L130.969 45.0234C131.034 45.2578 131.066 45.4206 131.066 45.5117C131.066 45.8763 130.578 46.0586 129.602 46.0586H129.25C128.898 46.0586 128.592 46.013 128.332 45.9219C128.085 45.8177 127.928 45.681 127.863 45.5117L125.227 38.6953C124.888 37.8099 124.491 37.1198 124.035 36.625C123.579 36.1302 123.039 35.7852 122.414 35.5898C121.789 35.3945 121.001 35.2969 120.051 35.2969H116.926V45.2969C116.926 45.8047 116.464 46.0586 115.539 46.0586H115.266ZM121.496 32.6602C122.316 32.6602 123.065 32.4648 123.742 32.0742C124.432 31.6836 124.973 31.1628 125.363 30.5117C125.767 29.8477 125.969 29.1445 125.969 28.4023C125.969 27.0352 125.552 26.0195 124.719 25.3555C123.885 24.6784 122.733 24.3398 121.262 24.3398H116.926V32.6602H121.496ZM136.125 46C135.76 46 135.493 45.9154 135.324 45.7461C135.155 45.5768 135.07 45.3164 135.07 44.9648V22.7383C135.07 22.3737 135.155 22.1133 135.324 21.957C135.493 21.7878 135.76 21.7031 136.125 21.7031H148.234C148.482 21.7031 148.658 21.7812 148.762 21.9375C148.879 22.0938 148.938 22.3607 148.938 22.7383V23.3047C148.938 23.6562 148.879 23.9167 148.762 24.0859C148.658 24.2552 148.482 24.3398 148.234 24.3398H138.137V32.25H147.199C147.447 32.25 147.622 32.3346 147.727 32.5039C147.844 32.6732 147.902 32.9401 147.902 33.3047V33.832C147.902 34.1966 147.844 34.4635 147.727 34.6328C147.622 34.7891 147.447 34.8672 147.199 34.8672H138.137V43.3633H148.273C148.521 43.3633 148.697 43.4479 148.801 43.6172C148.918 43.7734 148.977 44.0339 148.977 44.3984V44.9648C148.977 45.3164 148.918 45.5768 148.801 45.7461C148.697 45.9154 148.521 46 148.273 46H136.125ZM155.227 46.0586C154.732 46.0586 154.374 46 154.152 45.8828C153.931 45.7526 153.82 45.5573 153.82 45.2969V22.3867C153.82 21.8659 154.289 21.6055 155.227 21.6055H155.949C156.314 21.6055 156.6 21.6576 156.809 21.7617C157.03 21.8659 157.225 22.0352 157.395 22.2695L168.488 39.0078L169.523 40.9609V22.3867C169.523 21.8659 169.979 21.6055 170.891 21.6055H171.164C172.076 21.6055 172.531 21.8659 172.531 22.3867V45.2969C172.531 45.5573 172.421 45.7526 172.199 45.8828C171.978 46 171.633 46.0586 171.164 46.0586H170.461C170.135 46.0586 169.875 46.0195 169.68 45.9414C169.484 45.8633 169.335 45.7396 169.23 45.5703L157.785 28.3047L156.848 26.5078V45.2969C156.848 45.8047 156.385 46.0586 155.461 46.0586H155.227ZM180.07 46C179.706 46 179.439 45.9154 179.27 45.7461C179.1 45.5768 179.016 45.3164 179.016 44.9648V22.7383C179.016 22.3737 179.1 22.1133 179.27 21.957C179.439 21.7878 179.706 21.7031 180.07 21.7031H187.082C190.337 21.7031 192.941 22.6667 194.895 24.5938C196.848 26.5208 197.824 29.6003 197.824 33.832C197.824 38.0898 196.848 41.1823 194.895 43.1094C192.941 45.0365 190.337 46 187.082 46H180.07ZM186.848 43.3633C189.191 43.3633 191.079 42.6016 192.512 41.0781C193.944 39.5417 194.66 37.1263 194.66 33.832C194.66 31.6185 194.322 29.8086 193.645 28.4023C192.967 26.9831 192.043 25.9544 190.871 25.3164C189.699 24.6654 188.358 24.3398 186.848 24.3398H182.082V43.3633H186.848ZM201.711 46.0586C201.19 46.0586 200.812 46.013 200.578 45.9219C200.344 45.8177 200.227 45.668 200.227 45.4727C200.227 45.3815 200.259 45.2253 200.324 45.0039L208.547 22.1719C208.677 21.7943 209.139 21.6055 209.934 21.6055H210.949C211.743 21.6055 212.206 21.7943 212.336 22.1719L220.559 45.0234C220.624 45.1667 220.656 45.3164 220.656 45.4727C220.656 45.8633 220.168 46.0586 219.191 46.0586H218.898C218.091 46.0586 217.622 45.8763 217.492 45.5117L215.461 39.8086H205.266L203.273 45.5117C203.156 45.8763 202.694 46.0586 201.887 46.0586H201.711ZM214.523 37.1719L210.891 26.8398C210.786 26.5534 210.702 26.2279 210.637 25.8633C210.572 25.4987 210.513 25.1471 210.461 24.8086H210.383C210.227 25.681 210.051 26.3581 209.855 26.8398L206.223 37.1719H214.523Z" fill="#941B31"/>
<path d="M31.918 90.0762C30.6992 90.0762 30.0898 89.7461 30.0898 89.0859V59.7598C30.0898 59.2858 30.1999 58.9473 30.4199 58.7441C30.64 58.5241 30.987 58.4141 31.4609 58.4141H39.0527C42.6582 58.4141 45.3665 59.0488 47.1777 60.3184C49.0059 61.5879 49.9199 63.6107 49.9199 66.3867C49.9199 68.2656 49.4629 69.8483 48.5488 71.1348C47.6517 72.4043 46.3822 73.3607 44.7402 74.0039V74.1816C45.6204 74.4863 46.3398 75.0788 46.8984 75.959C47.474 76.8223 48.1087 78.1087 48.8027 79.8184L52.332 88.7305C52.4167 89.0352 52.459 89.2467 52.459 89.3652C52.459 89.8392 51.8242 90.0762 50.5547 90.0762H50.0977C49.6406 90.0762 49.2428 90.0169 48.9043 89.8984C48.5827 89.763 48.3796 89.5853 48.2949 89.3652L44.8672 80.5039C44.4271 79.3529 43.9108 78.4557 43.3184 77.8125C42.7259 77.1693 42.0234 76.7207 41.2109 76.4668C40.3984 76.2129 39.3743 76.0859 38.1387 76.0859H34.0762V89.0859C34.0762 89.7461 33.4753 90.0762 32.2734 90.0762H31.918ZM40.0176 72.6582C41.084 72.6582 42.0573 72.4043 42.9375 71.8965C43.8346 71.3887 44.5371 70.7116 45.0449 69.8652C45.5697 69.002 45.832 68.0879 45.832 67.123C45.832 65.3457 45.2904 64.0254 44.207 63.1621C43.1237 62.2819 41.6257 61.8418 39.7129 61.8418H34.0762V72.6582H40.0176ZM59.0352 90C58.5612 90 58.2142 89.89 57.9941 89.6699C57.7741 89.4499 57.6641 89.1113 57.6641 88.6543V59.7598C57.6641 59.2858 57.7741 58.9473 57.9941 58.7441C58.2142 58.5241 58.5612 58.4141 59.0352 58.4141H74.7773C75.099 58.4141 75.3275 58.5156 75.4629 58.7188C75.6152 58.9219 75.6914 59.2689 75.6914 59.7598V60.4961C75.6914 60.9531 75.6152 61.2917 75.4629 61.5117C75.3275 61.7318 75.099 61.8418 74.7773 61.8418H61.6504V72.125H73.4316C73.7533 72.125 73.9818 72.235 74.1172 72.4551C74.2695 72.6751 74.3457 73.0221 74.3457 73.4961V74.1816C74.3457 74.6556 74.2695 75.0026 74.1172 75.2227C73.9818 75.4258 73.7533 75.5273 73.4316 75.5273H61.6504V86.5723H74.8281C75.1497 86.5723 75.3783 86.6823 75.5137 86.9023C75.666 87.1055 75.7422 87.444 75.7422 87.918V88.6543C75.7422 89.1113 75.666 89.4499 75.5137 89.6699C75.3783 89.89 75.1497 90 74.8281 90H59.0352ZM90.3926 90.0762C89.1908 90.0762 88.5898 89.7461 88.5898 89.0859V73.8008L79.1445 59.8867C78.9076 59.5651 78.7891 59.2943 78.7891 59.0742C78.7891 58.5495 79.4831 58.2871 80.8711 58.2871H81.3535C81.8613 58.2871 82.2676 58.3379 82.5723 58.4395C82.8939 58.541 83.1393 58.7188 83.3086 58.9727L90.7227 70.0684L98.2891 58.9473C98.5599 58.5072 99.237 58.2871 100.32 58.2871H100.625C101.251 58.321 101.7 58.4056 101.971 58.541C102.258 58.6595 102.402 58.8372 102.402 59.0742C102.402 59.2266 102.275 59.4974 102.021 59.8867L92.5762 73.9277V89.0859C92.5762 89.7461 91.9668 90.0762 90.748 90.0762H90.3926ZM109.105 90.0762C108.462 90.0762 107.997 90 107.709 89.8477C107.421 89.6784 107.277 89.4245 107.277 89.0859V59.3027C107.277 58.6257 107.887 58.2871 109.105 58.2871H110.045C110.519 58.2871 110.891 58.3548 111.162 58.4902C111.45 58.6257 111.704 58.8457 111.924 59.1504L126.346 80.9102L127.691 83.4492V59.3027C127.691 58.6257 128.284 58.2871 129.469 58.2871H129.824C131.009 58.2871 131.602 58.6257 131.602 59.3027V89.0859C131.602 89.4245 131.458 89.6784 131.17 89.8477C130.882 90 130.434 90.0762 129.824 90.0762H128.91C128.487 90.0762 128.148 90.0254 127.895 89.9238C127.641 89.8223 127.446 89.6615 127.311 89.4414L112.432 66.9961L111.213 64.6602V89.0859C111.213 89.7461 110.612 90.0762 109.41 90.0762H109.105ZM152.143 90.2539C147.623 90.2539 144.178 88.8828 141.809 86.1406C139.439 83.3984 138.254 79.3867 138.254 74.1055C138.254 68.8411 139.43 64.8633 141.783 62.1719C144.153 59.4635 147.606 58.1094 152.143 58.1094C156.696 58.1094 160.158 59.4635 162.527 62.1719C164.897 64.8633 166.082 68.8411 166.082 74.1055C166.082 79.3867 164.897 83.3984 162.527 86.1406C160.158 88.8828 156.696 90.2539 152.143 90.2539ZM152.143 86.8262C155.325 86.8262 157.762 85.7428 159.455 83.5762C161.148 81.3926 161.994 78.2357 161.994 74.1055C161.994 69.9753 161.148 66.8522 159.455 64.7363C157.779 62.6035 155.342 61.5371 152.143 61.5371C148.96 61.5371 146.531 62.6035 144.855 64.7363C143.18 66.8522 142.342 69.9753 142.342 74.1055C142.342 78.2526 143.18 81.4095 144.855 83.5762C146.531 85.7428 148.96 86.8262 152.143 86.8262ZM179.691 90.2539C178.033 90.2539 176.484 90.0762 175.045 89.7207C173.623 89.3483 172.48 88.9082 171.617 88.4004C170.771 87.8757 170.348 87.4017 170.348 86.9785C170.348 86.7415 170.441 86.4284 170.627 86.0391C170.83 85.6497 171.059 85.3027 171.312 84.998C171.566 84.6934 171.77 84.541 171.922 84.541C172.057 84.541 172.354 84.6764 172.811 84.9473C173.86 85.4889 174.901 85.9375 175.934 86.293C176.966 86.6484 178.219 86.8262 179.691 86.8262C180.842 86.8262 181.867 86.6061 182.764 86.166C183.661 85.7259 184.355 85.1081 184.846 84.3125C185.354 83.5 185.607 82.569 185.607 81.5195C185.607 80.4023 185.303 79.4798 184.693 78.752C184.101 78.0072 183.373 77.4232 182.51 77C181.663 76.5599 180.428 76.0182 178.803 75.375C177.042 74.6979 175.646 74.0716 174.613 73.4961C173.598 72.9036 172.726 72.0488 171.998 70.9316C171.287 69.8145 170.932 68.3333 170.932 66.4883C170.932 64.8802 171.346 63.4414 172.176 62.1719C173.005 60.8854 174.182 59.8867 175.705 59.1758C177.229 58.4648 178.98 58.1094 180.961 58.1094C181.858 58.1094 182.882 58.2363 184.033 58.4902C185.184 58.7272 186.166 59.0573 186.979 59.4805C187.808 59.9036 188.223 60.3691 188.223 60.877C188.223 61.097 188.13 61.4017 187.943 61.791C187.774 62.1634 187.571 62.502 187.334 62.8066C187.097 63.1113 186.911 63.2637 186.775 63.2637C186.623 63.2637 186.318 63.1367 185.861 62.8828C185.1 62.4766 184.346 62.1549 183.602 61.918C182.857 61.6641 181.951 61.5371 180.885 61.5371C179.141 61.5371 177.728 61.9857 176.645 62.8828C175.578 63.7799 175.045 65.0326 175.045 66.6406C175.045 67.6055 175.282 68.401 175.756 69.0273C176.23 69.6536 176.831 70.153 177.559 70.5254C178.286 70.8978 179.302 71.3294 180.605 71.8203C180.69 71.8372 180.885 71.9049 181.189 72.0234C182.984 72.7174 184.448 73.3945 185.582 74.0547C186.733 74.6979 187.706 75.6289 188.502 76.8477C189.314 78.0664 189.721 79.6237 189.721 81.5195C189.721 83.2969 189.306 84.8457 188.477 86.166C187.664 87.4863 186.496 88.502 184.973 89.2129C183.466 89.9069 181.706 90.2539 179.691 90.2539ZM207.748 90.2539C203.229 90.2539 199.784 88.8828 197.414 86.1406C195.044 83.3984 193.859 79.3867 193.859 74.1055C193.859 68.8411 195.036 64.8633 197.389 62.1719C199.758 59.4635 203.212 58.1094 207.748 58.1094C212.301 58.1094 215.763 59.4635 218.133 62.1719C220.503 64.8633 221.688 68.8411 221.688 74.1055C221.688 79.3867 220.503 83.3984 218.133 86.1406C215.763 88.8828 212.301 90.2539 207.748 90.2539ZM207.748 86.8262C210.93 86.8262 213.368 85.7428 215.061 83.5762C216.753 81.3926 217.6 78.2357 217.6 74.1055C217.6 69.9753 216.753 66.8522 215.061 64.7363C213.385 62.6035 210.947 61.5371 207.748 61.5371C204.566 61.5371 202.137 62.6035 200.461 64.7363C198.785 66.8522 197.947 69.9753 197.947 74.1055C197.947 78.2526 198.785 81.4095 200.461 83.5762C202.137 85.7428 204.566 86.8262 207.748 86.8262Z" fill="#941B31"/>
<path d="M40.4053 130.088C38.6943 130.088 37.4287 129.637 36.6084 128.734C35.7881 127.832 35.3779 126.429 35.3779 124.524C35.3779 120.815 37.0625 118.961 40.4316 118.961C40.9238 118.961 41.4014 119.014 41.8643 119.119C42.3271 119.219 42.7021 119.345 42.9893 119.497C43.2764 119.649 43.4199 119.796 43.4199 119.937C43.4199 120.024 43.3877 120.142 43.3232 120.288C43.2646 120.435 43.1943 120.563 43.1123 120.675C43.0303 120.786 42.957 120.842 42.8926 120.842C42.8633 120.842 42.7812 120.804 42.6465 120.728C42.3418 120.563 42.0225 120.426 41.6885 120.314C41.3545 120.203 40.9473 120.147 40.4668 120.147C39.207 120.147 38.2783 120.499 37.6807 121.202C37.0889 121.899 36.793 123.013 36.793 124.542C36.793 126.036 37.0859 127.138 37.6719 127.847C38.2637 128.55 39.1748 128.901 40.4053 128.901C40.9209 128.901 41.3633 128.84 41.7324 128.717C42.1016 128.594 42.4561 128.441 42.7959 128.26C42.96 128.172 43.0596 128.128 43.0947 128.128C43.1592 128.128 43.2324 128.184 43.3145 128.295C43.4023 128.406 43.4785 128.532 43.543 128.673C43.6074 128.808 43.6396 128.904 43.6396 128.963C43.6396 129.109 43.4902 129.273 43.1914 129.455C42.8984 129.631 42.5029 129.78 42.0049 129.903C41.5127 130.026 40.9795 130.088 40.4053 130.088ZM45.0283 130.026C44.7939 130.026 44.624 130.006 44.5186 129.965C44.4131 129.918 44.3604 129.851 44.3604 129.763C44.3604 129.722 44.375 129.651 44.4043 129.552L48.1045 119.277C48.1631 119.107 48.3711 119.022 48.7285 119.022H49.1855C49.543 119.022 49.751 119.107 49.8096 119.277L53.5098 129.561C53.5391 129.625 53.5537 129.692 53.5537 129.763C53.5537 129.938 53.334 130.026 52.8945 130.026H52.7627C52.3994 130.026 52.1885 129.944 52.1299 129.78L51.2158 127.214H46.6279L45.7314 129.78C45.6787 129.944 45.4707 130.026 45.1074 130.026H45.0283ZM50.7939 126.027L49.1592 121.378C49.1123 121.249 49.0742 121.103 49.0449 120.938C49.0156 120.774 48.9893 120.616 48.9658 120.464H48.9307C48.8604 120.856 48.7812 121.161 48.6934 121.378L47.0586 126.027H50.7939ZM55.8916 130.026C55.4697 130.026 55.2588 129.912 55.2588 129.684V119.532C55.2588 119.368 55.2969 119.251 55.373 119.181C55.4492 119.104 55.5693 119.066 55.7334 119.066H58.3613C59.6094 119.066 60.5469 119.286 61.1738 119.726C61.8066 120.165 62.123 120.865 62.123 121.826C62.123 122.477 61.9648 123.024 61.6484 123.47C61.3379 123.909 60.8984 124.24 60.3301 124.463V124.524C60.6348 124.63 60.8838 124.835 61.0771 125.14C61.2764 125.438 61.4961 125.884 61.7363 126.476L62.958 129.561C62.9873 129.666 63.002 129.739 63.002 129.78C63.002 129.944 62.7822 130.026 62.3428 130.026H62.1846C62.0264 130.026 61.8887 130.006 61.7715 129.965C61.6602 129.918 61.5898 129.856 61.5605 129.78L60.374 126.713C60.2217 126.314 60.043 126.004 59.8379 125.781C59.6328 125.559 59.3896 125.403 59.1084 125.315C58.8271 125.228 58.4727 125.184 58.0449 125.184H56.6387V129.684C56.6387 129.912 56.4307 130.026 56.0146 130.026H55.8916ZM58.6953 123.997C59.0645 123.997 59.4014 123.909 59.7061 123.733C60.0166 123.558 60.2598 123.323 60.4355 123.03C60.6172 122.731 60.708 122.415 60.708 122.081C60.708 121.466 60.5205 121.009 60.1455 120.71C59.7705 120.405 59.252 120.253 58.5898 120.253H56.6387V123.997H58.6953ZM67.5459 130.026C67.3291 130.026 67.1709 130 67.0713 129.947C66.9717 129.889 66.9219 129.801 66.9219 129.684V120.253H63.916C63.8047 120.253 63.7256 120.215 63.6787 120.139C63.6318 120.062 63.6084 119.945 63.6084 119.787V119.532C63.6084 119.368 63.6318 119.251 63.6787 119.181C63.7256 119.104 63.8047 119.066 63.916 119.066H71.2461C71.3574 119.066 71.4365 119.104 71.4834 119.181C71.5303 119.251 71.5537 119.368 71.5537 119.532V119.787C71.5537 119.945 71.5303 120.062 71.4834 120.139C71.4365 120.215 71.3574 120.253 71.2461 120.253H68.3018V129.684C68.3018 129.912 68.0908 130.026 67.6689 130.026H67.5459ZM77.5742 130.088C76.0098 130.088 74.8174 129.613 73.9971 128.664C73.1768 127.715 72.7666 126.326 72.7666 124.498C72.7666 122.676 73.1738 121.299 73.9883 120.367C74.8086 119.43 76.0039 118.961 77.5742 118.961C79.1504 118.961 80.3486 119.43 81.1689 120.367C81.9893 121.299 82.3994 122.676 82.3994 124.498C82.3994 126.326 81.9893 127.715 81.1689 128.664C80.3486 129.613 79.1504 130.088 77.5742 130.088ZM77.5742 128.901C78.6758 128.901 79.5195 128.526 80.1055 127.776C80.6914 127.021 80.9844 125.928 80.9844 124.498C80.9844 123.068 80.6914 121.987 80.1055 121.255C79.5254 120.517 78.6816 120.147 77.5742 120.147C76.4727 120.147 75.6318 120.517 75.0518 121.255C74.4717 121.987 74.1816 123.068 74.1816 124.498C74.1816 125.934 74.4717 127.026 75.0518 127.776C75.6318 128.526 76.4727 128.901 77.5742 128.901ZM89 130.088C87.4355 130.088 86.2432 129.613 85.4229 128.664C84.6025 127.715 84.1924 126.326 84.1924 124.498C84.1924 122.676 84.5996 121.299 85.4141 120.367C86.2344 119.43 87.4297 118.961 89 118.961C90.5762 118.961 91.7744 119.43 92.5947 120.367C93.415 121.299 93.8252 122.676 93.8252 124.498C93.8252 126.326 93.415 127.715 92.5947 128.664C91.7744 129.613 90.5762 130.088 89 130.088ZM89 128.901C90.1016 128.901 90.9453 128.526 91.5312 127.776C92.1172 127.021 92.4102 125.928 92.4102 124.498C92.4102 123.068 92.1172 121.987 91.5312 121.255C90.9512 120.517 90.1074 120.147 89 120.147C87.8984 120.147 87.0576 120.517 86.4775 121.255C85.8975 121.987 85.6074 123.068 85.6074 124.498C85.6074 125.934 85.8975 127.026 86.4775 127.776C87.0576 128.526 87.8984 128.901 89 128.901ZM96.7607 130.026C96.5381 130.026 96.377 130 96.2773 129.947C96.1777 129.889 96.1279 129.801 96.1279 129.684V119.374C96.1279 119.14 96.3389 119.022 96.7607 119.022H97.0859C97.25 119.022 97.3789 119.046 97.4727 119.093C97.5723 119.14 97.6602 119.216 97.7363 119.321L102.729 126.854L103.194 127.732V119.374C103.194 119.14 103.399 119.022 103.81 119.022H103.933C104.343 119.022 104.548 119.14 104.548 119.374V129.684C104.548 129.801 104.498 129.889 104.398 129.947C104.299 130 104.144 130.026 103.933 130.026H103.616C103.47 130.026 103.353 130.009 103.265 129.974C103.177 129.938 103.109 129.883 103.062 129.807L97.9121 122.037L97.4902 121.229V129.684C97.4902 129.912 97.2822 130.026 96.8662 130.026H96.7607ZM108.099 130.026C107.677 130.026 107.466 129.912 107.466 129.684V119.374C107.466 119.14 107.677 119.022 108.099 119.022H108.222C108.638 119.022 108.846 119.14 108.846 119.374V129.684C108.846 129.912 108.638 130.026 108.222 130.026H108.099ZM114.181 130.088C113.606 130.088 113.07 130.026 112.572 129.903C112.08 129.774 111.685 129.622 111.386 129.446C111.093 129.265 110.946 129.101 110.946 128.954C110.946 128.872 110.979 128.764 111.043 128.629C111.113 128.494 111.192 128.374 111.28 128.269C111.368 128.163 111.438 128.11 111.491 128.11C111.538 128.11 111.641 128.157 111.799 128.251C112.162 128.438 112.522 128.594 112.88 128.717C113.237 128.84 113.671 128.901 114.181 128.901C114.579 128.901 114.934 128.825 115.244 128.673C115.555 128.521 115.795 128.307 115.965 128.031C116.141 127.75 116.229 127.428 116.229 127.064C116.229 126.678 116.123 126.358 115.912 126.106C115.707 125.849 115.455 125.646 115.156 125.5C114.863 125.348 114.436 125.16 113.873 124.938C113.264 124.703 112.78 124.486 112.423 124.287C112.071 124.082 111.77 123.786 111.518 123.399C111.271 123.013 111.148 122.5 111.148 121.861C111.148 121.305 111.292 120.807 111.579 120.367C111.866 119.922 112.273 119.576 112.801 119.33C113.328 119.084 113.935 118.961 114.62 118.961C114.931 118.961 115.285 119.005 115.684 119.093C116.082 119.175 116.422 119.289 116.703 119.436C116.99 119.582 117.134 119.743 117.134 119.919C117.134 119.995 117.102 120.101 117.037 120.235C116.979 120.364 116.908 120.481 116.826 120.587C116.744 120.692 116.68 120.745 116.633 120.745C116.58 120.745 116.475 120.701 116.316 120.613C116.053 120.473 115.792 120.361 115.534 120.279C115.276 120.191 114.963 120.147 114.594 120.147C113.99 120.147 113.501 120.303 113.126 120.613C112.757 120.924 112.572 121.357 112.572 121.914C112.572 122.248 112.654 122.523 112.818 122.74C112.982 122.957 113.19 123.13 113.442 123.259C113.694 123.388 114.046 123.537 114.497 123.707C114.526 123.713 114.594 123.736 114.699 123.777C115.32 124.018 115.827 124.252 116.22 124.48C116.618 124.703 116.955 125.025 117.23 125.447C117.512 125.869 117.652 126.408 117.652 127.064C117.652 127.68 117.509 128.216 117.222 128.673C116.94 129.13 116.536 129.481 116.009 129.728C115.487 129.968 114.878 130.088 114.181 130.088ZM122.442 130.026C122.226 130.026 122.067 130 121.968 129.947C121.868 129.889 121.818 129.801 121.818 129.684V120.253H118.812C118.701 120.253 118.622 120.215 118.575 120.139C118.528 120.062 118.505 119.945 118.505 119.787V119.532C118.505 119.368 118.528 119.251 118.575 119.181C118.622 119.104 118.701 119.066 118.812 119.066H126.143C126.254 119.066 126.333 119.104 126.38 119.181C126.427 119.251 126.45 119.368 126.45 119.532V119.787C126.45 119.945 126.427 120.062 126.38 120.139C126.333 120.215 126.254 120.253 126.143 120.253H123.198V129.684C123.198 129.912 122.987 130.026 122.565 130.026H122.442ZM139.748 128.893C139.812 128.893 139.871 128.939 139.924 129.033C139.977 129.127 140.015 129.235 140.038 129.358C140.067 129.476 140.082 129.563 140.082 129.622C140.082 129.933 139.701 130.088 138.939 130.088C138.236 130.088 137.703 129.865 137.34 129.42C137.029 129.607 136.657 129.766 136.224 129.895C135.796 130.023 135.321 130.088 134.8 130.088C134.231 130.088 133.681 129.977 133.147 129.754C132.62 129.531 132.181 129.177 131.829 128.69C131.483 128.204 131.311 127.583 131.311 126.827C131.311 126.306 131.404 125.843 131.592 125.438C131.785 125.034 132.031 124.709 132.33 124.463C132.635 124.211 132.954 124.041 133.288 123.953V123.883C132.819 123.707 132.433 123.42 132.128 123.021C131.823 122.617 131.671 122.14 131.671 121.589C131.671 121.021 131.806 120.54 132.075 120.147C132.345 119.749 132.717 119.453 133.191 119.26C133.666 119.061 134.211 118.961 134.826 118.961C135.166 118.961 135.471 118.999 135.74 119.075C136.016 119.151 136.153 119.283 136.153 119.471C136.153 119.512 136.139 119.597 136.109 119.726C136.086 119.849 136.048 119.966 135.995 120.077C135.948 120.183 135.887 120.235 135.811 120.235C135.799 120.235 135.734 120.224 135.617 120.2C135.33 120.124 135.078 120.086 134.861 120.086C134.141 120.086 133.648 120.256 133.385 120.596C133.121 120.936 132.989 121.316 132.989 121.738C132.989 122.025 133.062 122.315 133.209 122.608C133.355 122.896 133.584 123.139 133.895 123.338C134.211 123.531 134.604 123.628 135.072 123.628H136.918L137.111 121.976C137.129 121.747 137.293 121.633 137.604 121.633H137.771C137.923 121.633 138.037 121.665 138.113 121.729C138.195 121.788 138.236 121.87 138.236 121.976V123.628H139.546C139.657 123.628 139.736 123.666 139.783 123.742C139.83 123.812 139.854 123.93 139.854 124.094V124.287C139.854 124.445 139.83 124.562 139.783 124.639C139.736 124.715 139.657 124.753 139.546 124.753H138.236V127.812C138.236 128.239 138.312 128.538 138.465 128.708C138.617 128.878 138.822 128.963 139.08 128.963C139.273 128.963 139.423 128.951 139.528 128.928C139.64 128.904 139.713 128.893 139.748 128.893ZM132.673 126.81C132.673 127.337 132.787 127.762 133.016 128.084C133.25 128.406 133.537 128.635 133.877 128.77C134.217 128.898 134.565 128.963 134.923 128.963C135.269 128.963 135.614 128.91 135.96 128.805C136.312 128.693 136.64 128.559 136.944 128.4C136.927 128.248 136.918 128.093 136.918 127.935V124.753H135.011C134.255 124.753 133.675 124.908 133.271 125.219C132.872 125.523 132.673 126.054 132.673 126.81ZM146.032 130C145.868 130 145.748 129.962 145.672 129.886C145.596 129.81 145.558 129.692 145.558 129.534V119.532C145.558 119.368 145.596 119.251 145.672 119.181C145.748 119.104 145.868 119.066 146.032 119.066H149.188C150.652 119.066 151.824 119.5 152.703 120.367C153.582 121.234 154.021 122.62 154.021 124.524C154.021 126.44 153.582 127.832 152.703 128.699C151.824 129.566 150.652 130 149.188 130H146.032ZM149.082 128.813C150.137 128.813 150.986 128.471 151.631 127.785C152.275 127.094 152.598 126.007 152.598 124.524C152.598 123.528 152.445 122.714 152.141 122.081C151.836 121.442 151.42 120.979 150.893 120.692C150.365 120.399 149.762 120.253 149.082 120.253H146.938V128.813H149.082ZM156.896 130C156.731 130 156.611 129.962 156.535 129.886C156.459 129.81 156.421 129.692 156.421 129.534V119.532C156.421 119.368 156.459 119.251 156.535 119.181C156.611 119.104 156.731 119.066 156.896 119.066H162.345C162.456 119.066 162.535 119.102 162.582 119.172C162.635 119.242 162.661 119.362 162.661 119.532V119.787C162.661 119.945 162.635 120.062 162.582 120.139C162.535 120.215 162.456 120.253 162.345 120.253H157.801V123.812H161.879C161.99 123.812 162.069 123.851 162.116 123.927C162.169 124.003 162.195 124.123 162.195 124.287V124.524C162.195 124.688 162.169 124.809 162.116 124.885C162.069 124.955 161.99 124.99 161.879 124.99H157.801V128.813H162.362C162.474 128.813 162.553 128.852 162.6 128.928C162.652 128.998 162.679 129.115 162.679 129.279V129.534C162.679 129.692 162.652 129.81 162.6 129.886C162.553 129.962 162.474 130 162.362 130H156.896ZM167.267 130.088C166.692 130.088 166.156 130.026 165.658 129.903C165.166 129.774 164.771 129.622 164.472 129.446C164.179 129.265 164.032 129.101 164.032 128.954C164.032 128.872 164.064 128.764 164.129 128.629C164.199 128.494 164.278 128.374 164.366 128.269C164.454 128.163 164.524 128.11 164.577 128.11C164.624 128.11 164.727 128.157 164.885 128.251C165.248 128.438 165.608 128.594 165.966 128.717C166.323 128.84 166.757 128.901 167.267 128.901C167.665 128.901 168.02 128.825 168.33 128.673C168.641 128.521 168.881 128.307 169.051 128.031C169.227 127.75 169.314 127.428 169.314 127.064C169.314 126.678 169.209 126.358 168.998 126.106C168.793 125.849 168.541 125.646 168.242 125.5C167.949 125.348 167.521 125.16 166.959 124.938C166.35 124.703 165.866 124.486 165.509 124.287C165.157 124.082 164.855 123.786 164.604 123.399C164.357 123.013 164.234 122.5 164.234 121.861C164.234 121.305 164.378 120.807 164.665 120.367C164.952 119.922 165.359 119.576 165.887 119.33C166.414 119.084 167.021 118.961 167.706 118.961C168.017 118.961 168.371 119.005 168.77 119.093C169.168 119.175 169.508 119.289 169.789 119.436C170.076 119.582 170.22 119.743 170.22 119.919C170.22 119.995 170.188 120.101 170.123 120.235C170.064 120.364 169.994 120.481 169.912 120.587C169.83 120.692 169.766 120.745 169.719 120.745C169.666 120.745 169.561 120.701 169.402 120.613C169.139 120.473 168.878 120.361 168.62 120.279C168.362 120.191 168.049 120.147 167.68 120.147C167.076 120.147 166.587 120.303 166.212 120.613C165.843 120.924 165.658 121.357 165.658 121.914C165.658 122.248 165.74 122.523 165.904 122.74C166.068 122.957 166.276 123.13 166.528 123.259C166.78 123.388 167.132 123.537 167.583 123.707C167.612 123.713 167.68 123.736 167.785 123.777C168.406 124.018 168.913 124.252 169.306 124.48C169.704 124.703 170.041 125.025 170.316 125.447C170.598 125.869 170.738 126.408 170.738 127.064C170.738 127.68 170.595 128.216 170.308 128.673C170.026 129.13 169.622 129.481 169.095 129.728C168.573 129.968 167.964 130.088 167.267 130.088ZM173.419 130.026C172.997 130.026 172.786 129.912 172.786 129.684V119.374C172.786 119.14 172.997 119.022 173.419 119.022H173.542C173.958 119.022 174.166 119.14 174.166 119.374V129.684C174.166 129.912 173.958 130.026 173.542 130.026H173.419ZM181.399 130.088C179.829 130.088 178.634 129.637 177.813 128.734C176.993 127.826 176.583 126.455 176.583 124.621C176.583 120.848 178.268 118.961 181.637 118.961C182.129 118.961 182.606 119.014 183.069 119.119C183.532 119.219 183.907 119.345 184.194 119.497C184.481 119.649 184.625 119.796 184.625 119.937C184.625 120.024 184.593 120.142 184.528 120.288C184.47 120.435 184.399 120.563 184.317 120.675C184.235 120.786 184.162 120.842 184.098 120.842C184.068 120.842 183.986 120.804 183.852 120.728C183.547 120.563 183.228 120.426 182.894 120.314C182.56 120.203 182.152 120.147 181.672 120.147C180.348 120.147 179.404 120.514 178.842 121.246C178.279 121.973 177.998 123.051 177.998 124.48C177.998 125.828 178.259 126.903 178.78 127.706C179.308 128.503 180.216 128.901 181.505 128.901C181.897 128.901 182.275 128.884 182.639 128.849C183.008 128.808 183.301 128.758 183.518 128.699V125.544H181.689C181.578 125.544 181.496 125.509 181.443 125.438C181.396 125.362 181.373 125.242 181.373 125.078V124.823C181.373 124.659 181.396 124.542 181.443 124.472C181.496 124.396 181.578 124.357 181.689 124.357H184.423C184.587 124.357 184.707 124.396 184.783 124.472C184.859 124.542 184.897 124.659 184.897 124.823V128.963C184.897 129.367 184.569 129.657 183.913 129.833C183.257 130.003 182.419 130.088 181.399 130.088ZM188.237 130.026C188.015 130.026 187.854 130 187.754 129.947C187.654 129.889 187.604 129.801 187.604 129.684V119.374C187.604 119.14 187.815 119.022 188.237 119.022H188.562C188.727 119.022 188.855 119.046 188.949 119.093C189.049 119.14 189.137 119.216 189.213 119.321L194.205 126.854L194.671 127.732V119.374C194.671 119.14 194.876 119.022 195.286 119.022H195.409C195.819 119.022 196.024 119.14 196.024 119.374V129.684C196.024 129.801 195.975 129.889 195.875 129.947C195.775 130 195.62 130.026 195.409 130.026H195.093C194.946 130.026 194.829 130.009 194.741 129.974C194.653 129.938 194.586 129.883 194.539 129.807L189.389 122.037L188.967 121.229V129.684C188.967 129.912 188.759 130.026 188.343 130.026H188.237ZM199.417 130C199.253 130 199.133 129.962 199.057 129.886C198.98 129.81 198.942 129.692 198.942 129.534V119.532C198.942 119.368 198.98 119.251 199.057 119.181C199.133 119.104 199.253 119.066 199.417 119.066H204.866C204.978 119.066 205.057 119.102 205.104 119.172C205.156 119.242 205.183 119.362 205.183 119.532V119.787C205.183 119.945 205.156 120.062 205.104 120.139C205.057 120.215 204.978 120.253 204.866 120.253H200.322V123.812H204.4C204.512 123.812 204.591 123.851 204.638 123.927C204.69 124.003 204.717 124.123 204.717 124.287V124.524C204.717 124.688 204.69 124.809 204.638 124.885C204.591 124.955 204.512 124.99 204.4 124.99H200.322V128.813H204.884C204.995 128.813 205.074 128.852 205.121 128.928C205.174 128.998 205.2 129.115 205.2 129.279V129.534C205.2 129.692 205.174 129.81 205.121 129.886C205.074 129.962 204.995 130 204.884 130H199.417ZM208.118 130.026C207.696 130.026 207.485 129.912 207.485 129.684V119.532C207.485 119.368 207.523 119.251 207.6 119.181C207.676 119.104 207.796 119.066 207.96 119.066H210.588C211.836 119.066 212.773 119.286 213.4 119.726C214.033 120.165 214.35 120.865 214.35 121.826C214.35 122.477 214.191 123.024 213.875 123.47C213.564 123.909 213.125 124.24 212.557 124.463V124.524C212.861 124.63 213.11 124.835 213.304 125.14C213.503 125.438 213.723 125.884 213.963 126.476L215.185 129.561C215.214 129.666 215.229 129.739 215.229 129.78C215.229 129.944 215.009 130.026 214.569 130.026H214.411C214.253 130.026 214.115 130.006 213.998 129.965C213.887 129.918 213.816 129.856 213.787 129.78L212.601 126.713C212.448 126.314 212.27 126.004 212.064 125.781C211.859 125.559 211.616 125.403 211.335 125.315C211.054 125.228 210.699 125.184 210.271 125.184H208.865V129.684C208.865 129.912 208.657 130.026 208.241 130.026H208.118ZM210.922 123.997C211.291 123.997 211.628 123.909 211.933 123.733C212.243 123.558 212.486 123.323 212.662 123.03C212.844 122.731 212.935 122.415 212.935 122.081C212.935 121.466 212.747 121.009 212.372 120.71C211.997 120.405 211.479 120.253 210.816 120.253H208.865V123.997H210.922Z" fill="black"/>
</svg>
