<svg width="250" height="148" viewBox="0 0 250 148" fill="none" xmlns="http://www.w3.org/2000/svg">
<path d="M37.2461 43.0352C36.6836 43.0352 36.4023 42.8828 36.4023 42.5781V28.832C36.4023 28.5195 36.6836 28.3633 37.2461 28.3633H37.4102C37.9648 28.3633 38.2422 28.5195 38.2422 28.832V42.5781C38.2422 42.8828 37.9648 43.0352 37.4102 43.0352H37.2461ZM46.4336 43.0352C46.1211 43.0352 45.8945 43.0078 45.7539 42.9531C45.6133 42.8906 45.543 42.8008 45.543 42.6836C45.543 42.6289 45.5625 42.5352 45.6016 42.4023L50.5352 28.7031C50.6133 28.4766 50.8906 28.3633 51.3672 28.3633H51.9766C52.4531 28.3633 52.7305 28.4766 52.8086 28.7031L57.7422 42.4141C57.7812 42.5 57.8008 42.5898 57.8008 42.6836C57.8008 42.918 57.5078 43.0352 56.9219 43.0352H56.7461C56.2617 43.0352 55.9805 42.9258 55.9023 42.707L54.6836 39.2852H48.5664L47.3711 42.707C47.3008 42.9258 47.0234 43.0352 46.5391 43.0352H46.4336ZM54.1211 37.7031L51.9414 31.5039C51.8789 31.332 51.8281 31.1367 51.7891 30.918C51.75 30.6992 51.7148 30.4883 51.6836 30.2852H51.6367C51.543 30.8086 51.4375 31.2148 51.3203 31.5039L49.1406 37.7031H54.1211ZM60.7773 43.0352C60.4805 43.0352 60.2656 43 60.1328 42.9297C60 42.8516 59.9336 42.7344 59.9336 42.5781V28.832C59.9336 28.5195 60.2148 28.3633 60.7773 28.3633H61.5156C61.9766 28.3633 62.2695 28.4922 62.3945 28.75L66.332 35.582L66.8711 36.8945L67.4102 35.6992L71.3594 28.75C71.4922 28.4922 71.7812 28.3633 72.2266 28.3633H72.918C73.4727 28.3633 73.75 28.5195 73.75 28.832V42.5781C73.75 42.8828 73.4727 43.0352 72.918 43.0352H72.7773C72.4805 43.0352 72.2656 43 72.1328 42.9297C72 42.8516 71.9336 42.7344 71.9336 42.5781V31.3633L71.8984 31.457L67.75 38.6641C67.6953 38.7578 67.6328 38.8281 67.5625 38.875C67.4922 38.9141 67.4023 38.9336 67.293 38.9336H66.4609C66.25 38.9336 66.0938 38.8438 65.9922 38.6641L61.75 31.2461V42.5781C61.75 42.8828 61.4727 43.0352 60.918 43.0352H60.7773Z" fill="black"/>
<path d="M94.3281 46C93.9635 46 93.6966 45.9154 93.5273 45.7461C93.3581 45.5768 93.2734 45.3164 93.2734 44.9648V22.7383C93.2734 22.3737 93.3581 22.1133 93.5273 21.957C93.6966 21.7878 93.9635 21.7031 94.3281 21.7031H100.539C102.232 21.7031 103.658 21.957 104.816 22.4648C105.975 22.9727 106.848 23.6888 107.434 24.6133C108.02 25.5378 108.312 26.612 108.312 27.8359C108.312 28.5911 108.137 29.3464 107.785 30.1016C107.434 30.8438 106.965 31.4883 106.379 32.0352C105.793 32.569 105.168 32.9271 104.504 33.1094V33.2461C104.504 33.1549 104.953 33.3307 105.852 33.7734C106.75 34.2031 107.557 34.8477 108.273 35.707C109.003 36.5534 109.367 37.6536 109.367 39.0078C109.367 43.6693 106.346 46 100.305 46H94.3281ZM100.383 32.1719C101.294 32.1719 102.115 31.9961 102.844 31.6445C103.573 31.2799 104.139 30.7917 104.543 30.1797C104.96 29.5547 105.168 28.8646 105.168 28.1094C105.168 26.8073 104.777 25.8568 103.996 25.2578C103.215 24.6458 101.965 24.3398 100.246 24.3398H96.3398V32.1719H100.383ZM101.418 43.3633C102.941 43.3633 104.12 42.9661 104.953 42.1719C105.786 41.3646 106.203 40.2643 106.203 38.8711C106.203 37.582 105.747 36.5859 104.836 35.8828C103.924 35.1667 102.583 34.8086 100.812 34.8086H96.3398V43.3633H101.418ZM115.266 46.0586C114.328 46.0586 113.859 45.8047 113.859 45.2969V22.7383C113.859 22.3737 113.944 22.1133 114.113 21.957C114.283 21.7878 114.549 21.7031 114.914 21.7031H120.754C123.527 21.7031 125.611 22.1914 127.004 23.168C128.41 24.1445 129.113 25.7005 129.113 27.8359C129.113 29.2812 128.762 30.4987 128.059 31.4883C127.368 32.4648 126.392 33.2005 125.129 33.6953V33.832C125.806 34.0664 126.359 34.5221 126.789 35.1992C127.232 35.8633 127.72 36.8529 128.254 38.168L130.969 45.0234C131.034 45.2578 131.066 45.4206 131.066 45.5117C131.066 45.8763 130.578 46.0586 129.602 46.0586H129.25C128.898 46.0586 128.592 46.013 128.332 45.9219C128.085 45.8177 127.928 45.681 127.863 45.5117L125.227 38.6953C124.888 37.8099 124.491 37.1198 124.035 36.625C123.579 36.1302 123.039 35.7852 122.414 35.5898C121.789 35.3945 121.001 35.2969 120.051 35.2969H116.926V45.2969C116.926 45.8047 116.464 46.0586 115.539 46.0586H115.266ZM121.496 32.6602C122.316 32.6602 123.065 32.4648 123.742 32.0742C124.432 31.6836 124.973 31.1628 125.363 30.5117C125.767 29.8477 125.969 29.1445 125.969 28.4023C125.969 27.0352 125.552 26.0195 124.719 25.3555C123.885 24.6784 122.733 24.3398 121.262 24.3398H116.926V32.6602H121.496ZM136.125 46C135.76 46 135.493 45.9154 135.324 45.7461C135.155 45.5768 135.07 45.3164 135.07 44.9648V22.7383C135.07 22.3737 135.155 22.1133 135.324 21.957C135.493 21.7878 135.76 21.7031 136.125 21.7031H148.234C148.482 21.7031 148.658 21.7812 148.762 21.9375C148.879 22.0938 148.938 22.3607 148.938 22.7383V23.3047C148.938 23.6562 148.879 23.9167 148.762 24.0859C148.658 24.2552 148.482 24.3398 148.234 24.3398H138.137V32.25H147.199C147.447 32.25 147.622 32.3346 147.727 32.5039C147.844 32.6732 147.902 32.9401 147.902 33.3047V33.832C147.902 34.1966 147.844 34.4635 147.727 34.6328C147.622 34.7891 147.447 34.8672 147.199 34.8672H138.137V43.3633H148.273C148.521 43.3633 148.697 43.4479 148.801 43.6172C148.918 43.7734 148.977 44.0339 148.977 44.3984V44.9648C148.977 45.3164 148.918 45.5768 148.801 45.7461C148.697 45.9154 148.521 46 148.273 46H136.125ZM155.227 46.0586C154.732 46.0586 154.374 46 154.152 45.8828C153.931 45.7526 153.82 45.5573 153.82 45.2969V22.3867C153.82 21.8659 154.289 21.6055 155.227 21.6055H155.949C156.314 21.6055 156.6 21.6576 156.809 21.7617C157.03 21.8659 157.225 22.0352 157.395 22.2695L168.488 39.0078L169.523 40.9609V22.3867C169.523 21.8659 169.979 21.6055 170.891 21.6055H171.164C172.076 21.6055 172.531 21.8659 172.531 22.3867V45.2969C172.531 45.5573 172.421 45.7526 172.199 45.8828C171.978 46 171.633 46.0586 171.164 46.0586H170.461C170.135 46.0586 169.875 46.0195 169.68 45.9414C169.484 45.8633 169.335 45.7396 169.23 45.5703L157.785 28.3047L156.848 26.5078V45.2969C156.848 45.8047 156.385 46.0586 155.461 46.0586H155.227ZM180.07 46C179.706 46 179.439 45.9154 179.27 45.7461C179.1 45.5768 179.016 45.3164 179.016 44.9648V22.7383C179.016 22.3737 179.1 22.1133 179.27 21.957C179.439 21.7878 179.706 21.7031 180.07 21.7031H187.082C190.337 21.7031 192.941 22.6667 194.895 24.5938C196.848 26.5208 197.824 29.6003 197.824 33.832C197.824 38.0898 196.848 41.1823 194.895 43.1094C192.941 45.0365 190.337 46 187.082 46H180.07ZM186.848 43.3633C189.191 43.3633 191.079 42.6016 192.512 41.0781C193.944 39.5417 194.66 37.1263 194.66 33.832C194.66 31.6185 194.322 29.8086 193.645 28.4023C192.967 26.9831 192.043 25.9544 190.871 25.3164C189.699 24.6654 188.358 24.3398 186.848 24.3398H182.082V43.3633H186.848ZM201.711 46.0586C201.19 46.0586 200.812 46.013 200.578 45.9219C200.344 45.8177 200.227 45.668 200.227 45.4727C200.227 45.3815 200.259 45.2253 200.324 45.0039L208.547 22.1719C208.677 21.7943 209.139 21.6055 209.934 21.6055H210.949C211.743 21.6055 212.206 21.7943 212.336 22.1719L220.559 45.0234C220.624 45.1667 220.656 45.3164 220.656 45.4727C220.656 45.8633 220.168 46.0586 219.191 46.0586H218.898C218.091 46.0586 217.622 45.8763 217.492 45.5117L215.461 39.8086H205.266L203.273 45.5117C203.156 45.8763 202.694 46.0586 201.887 46.0586H201.711ZM214.523 37.1719L210.891 26.8398C210.786 26.5534 210.702 26.2279 210.637 25.8633C210.572 25.4987 210.513 25.1471 210.461 24.8086H210.383C210.227 25.681 210.051 26.3581 209.855 26.8398L206.223 37.1719H214.523Z" fill="white"/>
<path d="M31.918 90.0762C30.6992 90.0762 30.0898 89.7461 30.0898 89.0859V59.7598C30.0898 59.2858 30.1999 58.9473 30.4199 58.7441C30.64 58.5241 30.987 58.4141 31.4609 58.4141H39.0527C42.6582 58.4141 45.3665 59.0488 47.1777 60.3184C49.0059 61.5879 49.9199 63.6107 49.9199 66.3867C49.9199 68.2656 49.4629 69.8483 48.5488 71.1348C47.6517 72.4043 46.3822 73.3607 44.7402 74.0039V74.1816C45.6204 74.4863 46.3398 75.0788 46.8984 75.959C47.474 76.8223 48.1087 78.1087 48.8027 79.8184L52.332 88.7305C52.4167 89.0352 52.459 89.2467 52.459 89.3652C52.459 89.8392 51.8242 90.0762 50.5547 90.0762H50.0977C49.6406 90.0762 49.2428 90.0169 48.9043 89.8984C48.5827 89.763 48.3796 89.5853 48.2949 89.3652L44.8672 80.5039C44.4271 79.3529 43.9108 78.4557 43.3184 77.8125C42.7259 77.1693 42.0234 76.7207 41.2109 76.4668C40.3984 76.2129 39.3743 76.0859 38.1387 76.0859H34.0762V89.0859C34.0762 89.7461 33.4753 90.0762 32.2734 90.0762H31.918ZM40.0176 72.6582C41.084 72.6582 42.0573 72.4043 42.9375 71.8965C43.8346 71.3887 44.5371 70.7116 45.0449 69.8652C45.5697 69.002 45.832 68.0879 45.832 67.123C45.832 65.3457 45.2904 64.0254 44.207 63.1621C43.1237 62.2819 41.6257 61.8418 39.7129 61.8418H34.0762V72.6582H40.0176ZM59.0352 90C58.5612 90 58.2142 89.89 57.9941 89.6699C57.7741 89.4499 57.6641 89.1113 57.6641 88.6543V59.7598C57.6641 59.2858 57.7741 58.9473 57.9941 58.7441C58.2142 58.5241 58.5612 58.4141 59.0352 58.4141H74.7773C75.099 58.4141 75.3275 58.5156 75.4629 58.7188C75.6152 58.9219 75.6914 59.2689 75.6914 59.7598V60.4961C75.6914 60.9531 75.6152 61.2917 75.4629 61.5117C75.3275 61.7318 75.099 61.8418 74.7773 61.8418H61.6504V72.125H73.4316C73.7533 72.125 73.9818 72.235 74.1172 72.4551C74.2695 72.6751 74.3457 73.0221 74.3457 73.4961V74.1816C74.3457 74.6556 74.2695 75.0026 74.1172 75.2227C73.9818 75.4258 73.7533 75.5273 73.4316 75.5273H61.6504V86.5723H74.8281C75.1497 86.5723 75.3783 86.6823 75.5137 86.9023C75.666 87.1055 75.7422 87.444 75.7422 87.918V88.6543C75.7422 89.1113 75.666 89.4499 75.5137 89.6699C75.3783 89.89 75.1497 90 74.8281 90H59.0352ZM90.3926 90.0762C89.1908 90.0762 88.5898 89.7461 88.5898 89.0859V73.8008L79.1445 59.8867C78.9076 59.5651 78.7891 59.2943 78.7891 59.0742C78.7891 58.5495 79.4831 58.2871 80.8711 58.2871H81.3535C81.8613 58.2871 82.2676 58.3379 82.5723 58.4395C82.8939 58.541 83.1393 58.7188 83.3086 58.9727L90.7227 70.0684L98.2891 58.9473C98.5599 58.5072 99.237 58.2871 100.32 58.2871H100.625C101.251 58.321 101.7 58.4056 101.971 58.541C102.258 58.6595 102.402 58.8372 102.402 59.0742C102.402 59.2266 102.275 59.4974 102.021 59.8867L92.5762 73.9277V89.0859C92.5762 89.7461 91.9668 90.0762 90.748 90.0762H90.3926ZM109.105 90.0762C108.462 90.0762 107.997 90 107.709 89.8477C107.421 89.6784 107.277 89.4245 107.277 89.0859V59.3027C107.277 58.6257 107.887 58.2871 109.105 58.2871H110.045C110.519 58.2871 110.891 58.3548 111.162 58.4902C111.45 58.6257 111.704 58.8457 111.924 59.1504L126.346 80.9102L127.691 83.4492V59.3027C127.691 58.6257 128.284 58.2871 129.469 58.2871H129.824C131.009 58.2871 131.602 58.6257 131.602 59.3027V89.0859C131.602 89.4245 131.458 89.6784 131.17 89.8477C130.882 90 130.434 90.0762 129.824 90.0762H128.91C128.487 90.0762 128.148 90.0254 127.895 89.9238C127.641 89.8223 127.446 89.6615 127.311 89.4414L112.432 66.9961L111.213 64.6602V89.0859C111.213 89.7461 110.612 90.0762 109.41 90.0762H109.105ZM152.143 90.2539C147.623 90.2539 144.178 88.8828 141.809 86.1406C139.439 83.3984 138.254 79.3867 138.254 74.1055C138.254 68.8411 139.43 64.8633 141.783 62.1719C144.153 59.4635 147.606 58.1094 152.143 58.1094C156.696 58.1094 160.158 59.4635 162.527 62.1719C164.897 64.8633 166.082 68.8411 166.082 74.1055C166.082 79.3867 164.897 83.3984 162.527 86.1406C160.158 88.8828 156.696 90.2539 152.143 90.2539ZM152.143 86.8262C155.325 86.8262 157.762 85.7428 159.455 83.5762C161.148 81.3926 161.994 78.2357 161.994 74.1055C161.994 69.9753 161.148 66.8522 159.455 64.7363C157.779 62.6035 155.342 61.5371 152.143 61.5371C148.96 61.5371 146.531 62.6035 144.855 64.7363C143.18 66.8522 142.342 69.9753 142.342 74.1055C142.342 78.2526 143.18 81.4095 144.855 83.5762C146.531 85.7428 148.96 86.8262 152.143 86.8262ZM179.691 90.2539C178.033 90.2539 176.484 90.0762 175.045 89.7207C173.623 89.3483 172.48 88.9082 171.617 88.4004C170.771 87.8757 170.348 87.4017 170.348 86.9785C170.348 86.7415 170.441 86.4284 170.627 86.0391C170.83 85.6497 171.059 85.3027 171.312 84.998C171.566 84.6934 171.77 84.541 171.922 84.541C172.057 84.541 172.354 84.6764 172.811 84.9473C173.86 85.4889 174.901 85.9375 175.934 86.293C176.966 86.6484 178.219 86.8262 179.691 86.8262C180.842 86.8262 181.867 86.6061 182.764 86.166C183.661 85.7259 184.355 85.1081 184.846 84.3125C185.354 83.5 185.607 82.569 185.607 81.5195C185.607 80.4023 185.303 79.4798 184.693 78.752C184.101 78.0072 183.373 77.4232 182.51 77C181.663 76.5599 180.428 76.0182 178.803 75.375C177.042 74.6979 175.646 74.0716 174.613 73.4961C173.598 72.9036 172.726 72.0488 171.998 70.9316C171.287 69.8145 170.932 68.3333 170.932 66.4883C170.932 64.8802 171.346 63.4414 172.176 62.1719C173.005 60.8854 174.182 59.8867 175.705 59.1758C177.229 58.4648 178.98 58.1094 180.961 58.1094C181.858 58.1094 182.882 58.2363 184.033 58.4902C185.184 58.7272 186.166 59.0573 186.979 59.4805C187.808 59.9036 188.223 60.3691 188.223 60.877C188.223 61.097 188.13 61.4017 187.943 61.791C187.774 62.1634 187.571 62.502 187.334 62.8066C187.097 63.1113 186.911 63.2637 186.775 63.2637C186.623 63.2637 186.318 63.1367 185.861 62.8828C185.1 62.4766 184.346 62.1549 183.602 61.918C182.857 61.6641 181.951 61.5371 180.885 61.5371C179.141 61.5371 177.728 61.9857 176.645 62.8828C175.578 63.7799 175.045 65.0326 175.045 66.6406C175.045 67.6055 175.282 68.401 175.756 69.0273C176.23 69.6536 176.831 70.153 177.559 70.5254C178.286 70.8978 179.302 71.3294 180.605 71.8203C180.69 71.8372 180.885 71.9049 181.189 72.0234C182.984 72.7174 184.448 73.3945 185.582 74.0547C186.733 74.6979 187.706 75.6289 188.502 76.8477C189.314 78.0664 189.721 79.6237 189.721 81.5195C189.721 83.2969 189.306 84.8457 188.477 86.166C187.664 87.4863 186.496 88.502 184.973 89.2129C183.466 89.9069 181.706 90.2539 179.691 90.2539ZM207.748 90.2539C203.229 90.2539 199.784 88.8828 197.414 86.1406C195.044 83.3984 193.859 79.3867 193.859 74.1055C193.859 68.8411 195.036 64.8633 197.389 62.1719C199.758 59.4635 203.212 58.1094 207.748 58.1094C212.301 58.1094 215.763 59.4635 218.133 62.1719C220.503 64.8633 221.688 68.8411 221.688 74.1055C221.688 79.3867 220.503 83.3984 218.133 86.1406C215.763 88.8828 212.301 90.2539 207.748 90.2539ZM207.748 86.8262C210.93 86.8262 213.368 85.7428 215.061 83.5762C216.753 81.3926 217.6 78.2357 217.6 74.1055C217.6 69.9753 216.753 66.8522 215.061 64.7363C213.385 62.6035 210.947 61.5371 207.748 61.5371C204.566 61.5371 202.137 62.6035 200.461 64.7363C198.785 66.8522 197.947 69.9753 197.947 74.1055C197.947 78.2526 198.785 81.4095 200.461 83.5762C202.137 85.7428 204.566 86.8262 207.748 86.8262Z" fill="white"/>
<path d="M40.4053 123.088C38.6943 123.088 37.4287 122.637 36.6084 121.734C35.7881 120.832 35.3779 119.429 35.3779 117.524C35.3779 113.815 37.0625 111.961 40.4316 111.961C40.9238 111.961 41.4014 112.014 41.8643 112.119C42.3271 112.219 42.7021 112.345 42.9893 112.497C43.2764 112.649 43.4199 112.796 43.4199 112.937C43.4199 113.024 43.3877 113.142 43.3232 113.288C43.2646 113.435 43.1943 113.563 43.1123 113.675C43.0303 113.786 42.957 113.842 42.8926 113.842C42.8633 113.842 42.7812 113.804 42.6465 113.728C42.3418 113.563 42.0225 113.426 41.6885 113.314C41.3545 113.203 40.9473 113.147 40.4668 113.147C39.207 113.147 38.2783 113.499 37.6807 114.202C37.0889 114.899 36.793 116.013 36.793 117.542C36.793 119.036 37.0859 120.138 37.6719 120.847C38.2637 121.55 39.1748 121.901 40.4053 121.901C40.9209 121.901 41.3633 121.84 41.7324 121.717C42.1016 121.594 42.4561 121.441 42.7959 121.26C42.96 121.172 43.0596 121.128 43.0947 121.128C43.1592 121.128 43.2324 121.184 43.3145 121.295C43.4023 121.406 43.4785 121.532 43.543 121.673C43.6074 121.808 43.6396 121.904 43.6396 121.963C43.6396 122.109 43.4902 122.273 43.1914 122.455C42.8984 122.631 42.5029 122.78 42.0049 122.903C41.5127 123.026 40.9795 123.088 40.4053 123.088ZM45.0283 123.026C44.7939 123.026 44.624 123.006 44.5186 122.965C44.4131 122.918 44.3604 122.851 44.3604 122.763C44.3604 122.722 44.375 122.651 44.4043 122.552L48.1045 112.277C48.1631 112.107 48.3711 112.022 48.7285 112.022H49.1855C49.543 112.022 49.751 112.107 49.8096 112.277L53.5098 122.561C53.5391 122.625 53.5537 122.692 53.5537 122.763C53.5537 122.938 53.334 123.026 52.8945 123.026H52.7627C52.3994 123.026 52.1885 122.944 52.1299 122.78L51.2158 120.214H46.6279L45.7314 122.78C45.6787 122.944 45.4707 123.026 45.1074 123.026H45.0283ZM50.7939 119.027L49.1592 114.378C49.1123 114.249 49.0742 114.103 49.0449 113.938C49.0156 113.774 48.9893 113.616 48.9658 113.464H48.9307C48.8604 113.856 48.7812 114.161 48.6934 114.378L47.0586 119.027H50.7939ZM55.8916 123.026C55.4697 123.026 55.2588 122.912 55.2588 122.684V112.532C55.2588 112.368 55.2969 112.251 55.373 112.181C55.4492 112.104 55.5693 112.066 55.7334 112.066H58.3613C59.6094 112.066 60.5469 112.286 61.1738 112.726C61.8066 113.165 62.123 113.865 62.123 114.826C62.123 115.477 61.9648 116.024 61.6484 116.47C61.3379 116.909 60.8984 117.24 60.3301 117.463V117.524C60.6348 117.63 60.8838 117.835 61.0771 118.14C61.2764 118.438 61.4961 118.884 61.7363 119.476L62.958 122.561C62.9873 122.666 63.002 122.739 63.002 122.78C63.002 122.944 62.7822 123.026 62.3428 123.026H62.1846C62.0264 123.026 61.8887 123.006 61.7715 122.965C61.6602 122.918 61.5898 122.856 61.5605 122.78L60.374 119.713C60.2217 119.314 60.043 119.004 59.8379 118.781C59.6328 118.559 59.3896 118.403 59.1084 118.315C58.8271 118.228 58.4727 118.184 58.0449 118.184H56.6387V122.684C56.6387 122.912 56.4307 123.026 56.0146 123.026H55.8916ZM58.6953 116.997C59.0645 116.997 59.4014 116.909 59.7061 116.733C60.0166 116.558 60.2598 116.323 60.4355 116.03C60.6172 115.731 60.708 115.415 60.708 115.081C60.708 114.466 60.5205 114.009 60.1455 113.71C59.7705 113.405 59.252 113.253 58.5898 113.253H56.6387V116.997H58.6953ZM67.5459 123.026C67.3291 123.026 67.1709 123 67.0713 122.947C66.9717 122.889 66.9219 122.801 66.9219 122.684V113.253H63.916C63.8047 113.253 63.7256 113.215 63.6787 113.139C63.6318 113.062 63.6084 112.945 63.6084 112.787V112.532C63.6084 112.368 63.6318 112.251 63.6787 112.181C63.7256 112.104 63.8047 112.066 63.916 112.066H71.2461C71.3574 112.066 71.4365 112.104 71.4834 112.181C71.5303 112.251 71.5537 112.368 71.5537 112.532V112.787C71.5537 112.945 71.5303 113.062 71.4834 113.139C71.4365 113.215 71.3574 113.253 71.2461 113.253H68.3018V122.684C68.3018 122.912 68.0908 123.026 67.6689 123.026H67.5459ZM77.5742 123.088C76.0098 123.088 74.8174 122.613 73.9971 121.664C73.1768 120.715 72.7666 119.326 72.7666 117.498C72.7666 115.676 73.1738 114.299 73.9883 113.367C74.8086 112.43 76.0039 111.961 77.5742 111.961C79.1504 111.961 80.3486 112.43 81.1689 113.367C81.9893 114.299 82.3994 115.676 82.3994 117.498C82.3994 119.326 81.9893 120.715 81.1689 121.664C80.3486 122.613 79.1504 123.088 77.5742 123.088ZM77.5742 121.901C78.6758 121.901 79.5195 121.526 80.1055 120.776C80.6914 120.021 80.9844 118.928 80.9844 117.498C80.9844 116.068 80.6914 114.987 80.1055 114.255C79.5254 113.517 78.6816 113.147 77.5742 113.147C76.4727 113.147 75.6318 113.517 75.0518 114.255C74.4717 114.987 74.1816 116.068 74.1816 117.498C74.1816 118.934 74.4717 120.026 75.0518 120.776C75.6318 121.526 76.4727 121.901 77.5742 121.901ZM89 123.088C87.4355 123.088 86.2432 122.613 85.4229 121.664C84.6025 120.715 84.1924 119.326 84.1924 117.498C84.1924 115.676 84.5996 114.299 85.4141 113.367C86.2344 112.43 87.4297 111.961 89 111.961C90.5762 111.961 91.7744 112.43 92.5947 113.367C93.415 114.299 93.8252 115.676 93.8252 117.498C93.8252 119.326 93.415 120.715 92.5947 121.664C91.7744 122.613 90.5762 123.088 89 123.088ZM89 121.901C90.1016 121.901 90.9453 121.526 91.5312 120.776C92.1172 120.021 92.4102 118.928 92.4102 117.498C92.4102 116.068 92.1172 114.987 91.5312 114.255C90.9512 113.517 90.1074 113.147 89 113.147C87.8984 113.147 87.0576 113.517 86.4775 114.255C85.8975 114.987 85.6074 116.068 85.6074 117.498C85.6074 118.934 85.8975 120.026 86.4775 120.776C87.0576 121.526 87.8984 121.901 89 121.901ZM96.7607 123.026C96.5381 123.026 96.377 123 96.2773 122.947C96.1777 122.889 96.1279 122.801 96.1279 122.684V112.374C96.1279 112.14 96.3389 112.022 96.7607 112.022H97.0859C97.25 112.022 97.3789 112.046 97.4727 112.093C97.5723 112.14 97.6602 112.216 97.7363 112.321L102.729 119.854L103.194 120.732V112.374C103.194 112.14 103.399 112.022 103.81 112.022H103.933C104.343 112.022 104.548 112.14 104.548 112.374V122.684C104.548 122.801 104.498 122.889 104.398 122.947C104.299 123 104.144 123.026 103.933 123.026H103.616C103.47 123.026 103.353 123.009 103.265 122.974C103.177 122.938 103.109 122.883 103.062 122.807L97.9121 115.037L97.4902 114.229V122.684C97.4902 122.912 97.2822 123.026 96.8662 123.026H96.7607ZM108.099 123.026C107.677 123.026 107.466 122.912 107.466 122.684V112.374C107.466 112.14 107.677 112.022 108.099 112.022H108.222C108.638 112.022 108.846 112.14 108.846 112.374V122.684C108.846 122.912 108.638 123.026 108.222 123.026H108.099ZM114.181 123.088C113.606 123.088 113.07 123.026 112.572 122.903C112.08 122.774 111.685 122.622 111.386 122.446C111.093 122.265 110.946 122.101 110.946 121.954C110.946 121.872 110.979 121.764 111.043 121.629C111.113 121.494 111.192 121.374 111.28 121.269C111.368 121.163 111.438 121.11 111.491 121.11C111.538 121.11 111.641 121.157 111.799 121.251C112.162 121.438 112.522 121.594 112.88 121.717C113.237 121.84 113.671 121.901 114.181 121.901C114.579 121.901 114.934 121.825 115.244 121.673C115.555 121.521 115.795 121.307 115.965 121.031C116.141 120.75 116.229 120.428 116.229 120.064C116.229 119.678 116.123 119.358 115.912 119.106C115.707 118.849 115.455 118.646 115.156 118.5C114.863 118.348 114.436 118.16 113.873 117.938C113.264 117.703 112.78 117.486 112.423 117.287C112.071 117.082 111.77 116.786 111.518 116.399C111.271 116.013 111.148 115.5 111.148 114.861C111.148 114.305 111.292 113.807 111.579 113.367C111.866 112.922 112.273 112.576 112.801 112.33C113.328 112.084 113.935 111.961 114.62 111.961C114.931 111.961 115.285 112.005 115.684 112.093C116.082 112.175 116.422 112.289 116.703 112.436C116.99 112.582 117.134 112.743 117.134 112.919C117.134 112.995 117.102 113.101 117.037 113.235C116.979 113.364 116.908 113.481 116.826 113.587C116.744 113.692 116.68 113.745 116.633 113.745C116.58 113.745 116.475 113.701 116.316 113.613C116.053 113.473 115.792 113.361 115.534 113.279C115.276 113.191 114.963 113.147 114.594 113.147C113.99 113.147 113.501 113.303 113.126 113.613C112.757 113.924 112.572 114.357 112.572 114.914C112.572 115.248 112.654 115.523 112.818 115.74C112.982 115.957 113.19 116.13 113.442 116.259C113.694 116.388 114.046 116.537 114.497 116.707C114.526 116.713 114.594 116.736 114.699 116.777C115.32 117.018 115.827 117.252 116.22 117.48C116.618 117.703 116.955 118.025 117.23 118.447C117.512 118.869 117.652 119.408 117.652 120.064C117.652 120.68 117.509 121.216 117.222 121.673C116.94 122.13 116.536 122.481 116.009 122.728C115.487 122.968 114.878 123.088 114.181 123.088ZM122.442 123.026C122.226 123.026 122.067 123 121.968 122.947C121.868 122.889 121.818 122.801 121.818 122.684V113.253H118.812C118.701 113.253 118.622 113.215 118.575 113.139C118.528 113.062 118.505 112.945 118.505 112.787V112.532C118.505 112.368 118.528 112.251 118.575 112.181C118.622 112.104 118.701 112.066 118.812 112.066H126.143C126.254 112.066 126.333 112.104 126.38 112.181C126.427 112.251 126.45 112.368 126.45 112.532V112.787C126.45 112.945 126.427 113.062 126.38 113.139C126.333 113.215 126.254 113.253 126.143 113.253H123.198V122.684C123.198 122.912 122.987 123.026 122.565 123.026H122.442ZM139.748 121.893C139.812 121.893 139.871 121.939 139.924 122.033C139.977 122.127 140.015 122.235 140.038 122.358C140.067 122.476 140.082 122.563 140.082 122.622C140.082 122.933 139.701 123.088 138.939 123.088C138.236 123.088 137.703 122.865 137.34 122.42C137.029 122.607 136.657 122.766 136.224 122.895C135.796 123.023 135.321 123.088 134.8 123.088C134.231 123.088 133.681 122.977 133.147 122.754C132.62 122.531 132.181 122.177 131.829 121.69C131.483 121.204 131.311 120.583 131.311 119.827C131.311 119.306 131.404 118.843 131.592 118.438C131.785 118.034 132.031 117.709 132.33 117.463C132.635 117.211 132.954 117.041 133.288 116.953V116.883C132.819 116.707 132.433 116.42 132.128 116.021C131.823 115.617 131.671 115.14 131.671 114.589C131.671 114.021 131.806 113.54 132.075 113.147C132.345 112.749 132.717 112.453 133.191 112.26C133.666 112.061 134.211 111.961 134.826 111.961C135.166 111.961 135.471 111.999 135.74 112.075C136.016 112.151 136.153 112.283 136.153 112.471C136.153 112.512 136.139 112.597 136.109 112.726C136.086 112.849 136.048 112.966 135.995 113.077C135.948 113.183 135.887 113.235 135.811 113.235C135.799 113.235 135.734 113.224 135.617 113.2C135.33 113.124 135.078 113.086 134.861 113.086C134.141 113.086 133.648 113.256 133.385 113.596C133.121 113.936 132.989 114.316 132.989 114.738C132.989 115.025 133.062 115.315 133.209 115.608C133.355 115.896 133.584 116.139 133.895 116.338C134.211 116.531 134.604 116.628 135.072 116.628H136.918L137.111 114.976C137.129 114.747 137.293 114.633 137.604 114.633H137.771C137.923 114.633 138.037 114.665 138.113 114.729C138.195 114.788 138.236 114.87 138.236 114.976V116.628H139.546C139.657 116.628 139.736 116.666 139.783 116.742C139.83 116.812 139.854 116.93 139.854 117.094V117.287C139.854 117.445 139.83 117.562 139.783 117.639C139.736 117.715 139.657 117.753 139.546 117.753H138.236V120.812C138.236 121.239 138.312 121.538 138.465 121.708C138.617 121.878 138.822 121.963 139.08 121.963C139.273 121.963 139.423 121.951 139.528 121.928C139.64 121.904 139.713 121.893 139.748 121.893ZM132.673 119.81C132.673 120.337 132.787 120.762 133.016 121.084C133.25 121.406 133.537 121.635 133.877 121.77C134.217 121.898 134.565 121.963 134.923 121.963C135.269 121.963 135.614 121.91 135.96 121.805C136.312 121.693 136.64 121.559 136.944 121.4C136.927 121.248 136.918 121.093 136.918 120.935V117.753H135.011C134.255 117.753 133.675 117.908 133.271 118.219C132.872 118.523 132.673 119.054 132.673 119.81ZM146.032 123C145.868 123 145.748 122.962 145.672 122.886C145.596 122.81 145.558 122.692 145.558 122.534V112.532C145.558 112.368 145.596 112.251 145.672 112.181C145.748 112.104 145.868 112.066 146.032 112.066H149.188C150.652 112.066 151.824 112.5 152.703 113.367C153.582 114.234 154.021 115.62 154.021 117.524C154.021 119.44 153.582 120.832 152.703 121.699C151.824 122.566 150.652 123 149.188 123H146.032ZM149.082 121.813C150.137 121.813 150.986 121.471 151.631 120.785C152.275 120.094 152.598 119.007 152.598 117.524C152.598 116.528 152.445 115.714 152.141 115.081C151.836 114.442 151.42 113.979 150.893 113.692C150.365 113.399 149.762 113.253 149.082 113.253H146.938V121.813H149.082ZM156.896 123C156.731 123 156.611 122.962 156.535 122.886C156.459 122.81 156.421 122.692 156.421 122.534V112.532C156.421 112.368 156.459 112.251 156.535 112.181C156.611 112.104 156.731 112.066 156.896 112.066H162.345C162.456 112.066 162.535 112.102 162.582 112.172C162.635 112.242 162.661 112.362 162.661 112.532V112.787C162.661 112.945 162.635 113.062 162.582 113.139C162.535 113.215 162.456 113.253 162.345 113.253H157.801V116.812H161.879C161.99 116.812 162.069 116.851 162.116 116.927C162.169 117.003 162.195 117.123 162.195 117.287V117.524C162.195 117.688 162.169 117.809 162.116 117.885C162.069 117.955 161.99 117.99 161.879 117.99H157.801V121.813H162.362C162.474 121.813 162.553 121.852 162.6 121.928C162.652 121.998 162.679 122.115 162.679 122.279V122.534C162.679 122.692 162.652 122.81 162.6 122.886C162.553 122.962 162.474 123 162.362 123H156.896ZM167.267 123.088C166.692 123.088 166.156 123.026 165.658 122.903C165.166 122.774 164.771 122.622 164.472 122.446C164.179 122.265 164.032 122.101 164.032 121.954C164.032 121.872 164.064 121.764 164.129 121.629C164.199 121.494 164.278 121.374 164.366 121.269C164.454 121.163 164.524 121.11 164.577 121.11C164.624 121.11 164.727 121.157 164.885 121.251C165.248 121.438 165.608 121.594 165.966 121.717C166.323 121.84 166.757 121.901 167.267 121.901C167.665 121.901 168.02 121.825 168.33 121.673C168.641 121.521 168.881 121.307 169.051 121.031C169.227 120.75 169.314 120.428 169.314 120.064C169.314 119.678 169.209 119.358 168.998 119.106C168.793 118.849 168.541 118.646 168.242 118.5C167.949 118.348 167.521 118.16 166.959 117.938C166.35 117.703 165.866 117.486 165.509 117.287C165.157 117.082 164.855 116.786 164.604 116.399C164.357 116.013 164.234 115.5 164.234 114.861C164.234 114.305 164.378 113.807 164.665 113.367C164.952 112.922 165.359 112.576 165.887 112.33C166.414 112.084 167.021 111.961 167.706 111.961C168.017 111.961 168.371 112.005 168.77 112.093C169.168 112.175 169.508 112.289 169.789 112.436C170.076 112.582 170.22 112.743 170.22 112.919C170.22 112.995 170.188 113.101 170.123 113.235C170.064 113.364 169.994 113.481 169.912 113.587C169.83 113.692 169.766 113.745 169.719 113.745C169.666 113.745 169.561 113.701 169.402 113.613C169.139 113.473 168.878 113.361 168.62 113.279C168.362 113.191 168.049 113.147 167.68 113.147C167.076 113.147 166.587 113.303 166.212 113.613C165.843 113.924 165.658 114.357 165.658 114.914C165.658 115.248 165.74 115.523 165.904 115.74C166.068 115.957 166.276 116.13 166.528 116.259C166.78 116.388 167.132 116.537 167.583 116.707C167.612 116.713 167.68 116.736 167.785 116.777C168.406 117.018 168.913 117.252 169.306 117.48C169.704 117.703 170.041 118.025 170.316 118.447C170.598 118.869 170.738 119.408 170.738 120.064C170.738 120.68 170.595 121.216 170.308 121.673C170.026 122.13 169.622 122.481 169.095 122.728C168.573 122.968 167.964 123.088 167.267 123.088ZM173.419 123.026C172.997 123.026 172.786 122.912 172.786 122.684V112.374C172.786 112.14 172.997 112.022 173.419 112.022H173.542C173.958 112.022 174.166 112.14 174.166 112.374V122.684C174.166 122.912 173.958 123.026 173.542 123.026H173.419ZM181.399 123.088C179.829 123.088 178.634 122.637 177.813 121.734C176.993 120.826 176.583 119.455 176.583 117.621C176.583 113.848 178.268 111.961 181.637 111.961C182.129 111.961 182.606 112.014 183.069 112.119C183.532 112.219 183.907 112.345 184.194 112.497C184.481 112.649 184.625 112.796 184.625 112.937C184.625 113.024 184.593 113.142 184.528 113.288C184.47 113.435 184.399 113.563 184.317 113.675C184.235 113.786 184.162 113.842 184.098 113.842C184.068 113.842 183.986 113.804 183.852 113.728C183.547 113.563 183.228 113.426 182.894 113.314C182.56 113.203 182.152 113.147 181.672 113.147C180.348 113.147 179.404 113.514 178.842 114.246C178.279 114.973 177.998 116.051 177.998 117.48C177.998 118.828 178.259 119.903 178.78 120.706C179.308 121.503 180.216 121.901 181.505 121.901C181.897 121.901 182.275 121.884 182.639 121.849C183.008 121.808 183.301 121.758 183.518 121.699V118.544H181.689C181.578 118.544 181.496 118.509 181.443 118.438C181.396 118.362 181.373 118.242 181.373 118.078V117.823C181.373 117.659 181.396 117.542 181.443 117.472C181.496 117.396 181.578 117.357 181.689 117.357H184.423C184.587 117.357 184.707 117.396 184.783 117.472C184.859 117.542 184.897 117.659 184.897 117.823V121.963C184.897 122.367 184.569 122.657 183.913 122.833C183.257 123.003 182.419 123.088 181.399 123.088ZM188.237 123.026C188.015 123.026 187.854 123 187.754 122.947C187.654 122.889 187.604 122.801 187.604 122.684V112.374C187.604 112.14 187.815 112.022 188.237 112.022H188.562C188.727 112.022 188.855 112.046 188.949 112.093C189.049 112.14 189.137 112.216 189.213 112.321L194.205 119.854L194.671 120.732V112.374C194.671 112.14 194.876 112.022 195.286 112.022H195.409C195.819 112.022 196.024 112.14 196.024 112.374V122.684C196.024 122.801 195.975 122.889 195.875 122.947C195.775 123 195.62 123.026 195.409 123.026H195.093C194.946 123.026 194.829 123.009 194.741 122.974C194.653 122.938 194.586 122.883 194.539 122.807L189.389 115.037L188.967 114.229V122.684C188.967 122.912 188.759 123.026 188.343 123.026H188.237ZM199.417 123C199.253 123 199.133 122.962 199.057 122.886C198.98 122.81 198.942 122.692 198.942 122.534V112.532C198.942 112.368 198.98 112.251 199.057 112.181C199.133 112.104 199.253 112.066 199.417 112.066H204.866C204.978 112.066 205.057 112.102 205.104 112.172C205.156 112.242 205.183 112.362 205.183 112.532V112.787C205.183 112.945 205.156 113.062 205.104 113.139C205.057 113.215 204.978 113.253 204.866 113.253H200.322V116.812H204.4C204.512 116.812 204.591 116.851 204.638 116.927C204.69 117.003 204.717 117.123 204.717 117.287V117.524C204.717 117.688 204.69 117.809 204.638 117.885C204.591 117.955 204.512 117.99 204.4 117.99H200.322V121.813H204.884C204.995 121.813 205.074 121.852 205.121 121.928C205.174 121.998 205.2 122.115 205.2 122.279V122.534C205.2 122.692 205.174 122.81 205.121 122.886C205.074 122.962 204.995 123 204.884 123H199.417ZM208.118 123.026C207.696 123.026 207.485 122.912 207.485 122.684V112.532C207.485 112.368 207.523 112.251 207.6 112.181C207.676 112.104 207.796 112.066 207.96 112.066H210.588C211.836 112.066 212.773 112.286 213.4 112.726C214.033 113.165 214.35 113.865 214.35 114.826C214.35 115.477 214.191 116.024 213.875 116.47C213.564 116.909 213.125 117.24 212.557 117.463V117.524C212.861 117.63 213.11 117.835 213.304 118.14C213.503 118.438 213.723 118.884 213.963 119.476L215.185 122.561C215.214 122.666 215.229 122.739 215.229 122.78C215.229 122.944 215.009 123.026 214.569 123.026H214.411C214.253 123.026 214.115 123.006 213.998 122.965C213.887 122.918 213.816 122.856 213.787 122.78L212.601 119.713C212.448 119.314 212.27 119.004 212.064 118.781C211.859 118.559 211.616 118.403 211.335 118.315C211.054 118.228 210.699 118.184 210.271 118.184H208.865V122.684C208.865 122.912 208.657 123.026 208.241 123.026H208.118ZM210.922 116.997C211.291 116.997 211.628 116.909 211.933 116.733C212.243 116.558 212.486 116.323 212.662 116.03C212.844 115.731 212.935 115.415 212.935 115.081C212.935 114.466 212.747 114.009 212.372 113.71C211.997 113.405 211.479 113.253 210.816 113.253H208.865V116.997H210.922Z" fill="black"/>
</svg>
