<?xml version="1.0" encoding="utf-8"?>
<!-- Generator: Adobe Illustrator 23.0.5, SVG Export Plug-In . SVG Version: 6.00 Build 0)  -->
<svg version="1.1" id="Capa_1_copia_3" xmlns="http://www.w3.org/2000/svg" xmlns:xlink="http://www.w3.org/1999/xlink" x="0px"
	 y="0px" viewBox="0 0 945 567.2" style="enable-background:new 0 0 945 567.2;" xml:space="preserve">
<style type="text/css">
	.st0{fill:#A76A5E;}
	.st1{fill:#5F2534;}
	.st2{fill:#462D2B;}
	.st3{fill:#801E3E;}
	.st4{fill:#E24765;}
	.st5{fill:#9D8579;}
	.st6{fill:#AB2145;}
	.st7{fill:#701726;}
	.st8{fill:#D16E56;}
	.st9{fill:#F29FAC;}
	.st10{fill:#472D2B;}
	.st11{fill:#F08767;}
	.st12{fill:#DE5C48;}
	.st13{fill:#E4997F;}
	.st14{fill:#E9B498;}
	.st15{fill:#FFFFFF;}
	.st16{fill:#A86A5E;}
	.st17{fill:#3E2236;}
	.st18{fill:#67212E;}
	.st19{fill:#66212F;}
	.st20{fill:#DC95AE;}
	.st21{fill:#AA6F66;}
	.st22{fill:#87213E;}
	.st23{fill:#8B243E;}
	.st24{fill:#712634;}
	.st25{fill:#C54E48;}
	.st26{fill:#4A2934;}
	.st27{fill:#9D3240;}
	.st28{fill:#9C5943;}
	.st29{fill:#C17B6A;}
	.st30{fill:#6E1620;}
	.st31{fill:#6F1620;}
	.st32{fill:#333737;}
	.st33{fill:#E0415D;}
	.st34{fill:#68222F;}
	.st35{fill:#975741;}
	.st36{fill:#644C48;}
	.st37{fill:#D06E55;}
	.st38{fill:#CF6D54;}
	.st39{fill:#552630;}
	.st40{fill:#65212E;}
	.st41{fill:#4B1C31;}
	.st42{fill:#A82145;}
	.st43{fill:#751724;}
	.st44{fill:#AB2146;}
	.st45{fill:#CBB088;}
	.st46{fill:#823D3E;}
	.st47{fill:#771722;}
	.st48{fill:#761723;}
	.st49{fill:#761823;}
	.st50{fill:#F3A49B;}
	.st51{fill:#F2A2A0;}
	.st52{fill:#682837;}
	.st53{fill:#E3B197;}
	.st54{fill:#BF2943;}
	.st55{fill:#692937;}
	.st56{fill:#A2253B;}
	.st57{fill:#E47962;}
	.st58{fill:#9B3442;}
	.st59{fill:#EAA079;}
	.st60{fill:#F08867;}
	.st61{fill:#9C303F;}
	.st62{fill:#C6594D;}
	.st63{fill:#7B2C38;}
	.st64{fill:#C75C4E;}
	.st65{fill:#E6A983;}
	.st66{fill:#E5AA83;}
	.st67{fill:#7B4E4F;}
	.st68{fill:#656E66;}
	.st69{fill:#666E67;}
	.st70{fill:#964D93;}
	.st71{fill:#974E94;}
	.st72{fill:#E32247;}
	.st73{fill:#E32347;}
	.st74{fill:#EAB296;}
	.st75{fill:#686E66;}
	.st76{fill:#676E66;}
	.st77{fill:#4E2E4D;}
	.st78{fill:#EBB396;}
	.st79{fill:#EAB295;}
	.st80{fill:#EC8A68;}
	.st81{fill:#4C2E4D;}
	.st82{fill:#4D2D4D;}
	.st83{fill:#E22447;}
	.st84{fill:#E22347;}
	.st85{fill:#E32447;}
	.st86{fill:#71434D;}
	.st87{fill:#673E49;}
	.st88{fill:#ECC7B5;}
	.st89{fill:#995D55;}
	.st90{fill:#DA678F;}
	.st91{fill:#C4354D;}
	.st92{fill:#221916;}
	.st93{fill:#6F424C;}
	.st94{fill:#4C353E;}
	.st95{fill:#EDC7B4;}
	.st96{fill:#653D48;}
	.st97{fill:#998176;}
	.st98{fill:#D7686F;}
	.st99{fill:#B56066;}
	.st100{fill:#AD1831;}
	.st101{fill:#DC5A4B;}
	.st102{fill:#E39E79;}
	.st103{fill:#652E32;}
	.st104{fill:#7A3F4D;}
	.st105{fill:#E8BEA7;}
	.st106{fill:#DF857D;}
	.st107{fill:#4B1A2F;}
	.st108{fill:#AB1B33;}
	.st109{fill:#B87C6B;}
	.st110{fill:#D2877B;}
	.st111{fill:#D5887D;}
	.st112{fill:#AC1C34;}
	.st113{fill:#B9806E;}
	.st114{fill:#DB7B77;}
	.st115{fill:#DB9484;}
	.st116{fill:#DB8B80;}
	.st117{fill:#AB1D35;}
	.st118{fill:#BB8370;}
	.st119{fill:#E39E8B;}
	.st120{fill:#E6A28E;}
	.st121{fill:#F0B699;}
	.st122{fill:#E96383;}
	.st123{fill:#954854;}
	.st124{fill:#E9C1AA;}
	.st125{fill:#C5735A;}
	.st126{fill:#EBC3AC;}
	.st127{fill:#7D2D3A;}
	.st128{fill:#D3618D;}
	.st129{fill:#933E53;}
	.st130{fill:#D2618C;}
	.st131{fill:#974055;}
	.st132{fill:#9B6950;}
	.st133{fill:#D6646D;}
	.st134{fill:#6A2936;}
	.st135{fill:#9A5E56;}
	.st136{fill:#DC6B92;}
	.st137{fill:#C5374E;}
	.st138{fill:#D7618C;}
	.st139{fill:#BC2746;}
	.st140{fill:#E29C7B;}
	.st141{fill:#B32645;}
	.st142{fill:#E9A480;}
	.st143{fill:#B72645;}
	.st144{fill:#E09678;}
	.st145{fill:#E1847D;}
	.st146{fill:#DA324D;}
	.st147{fill:#6A202D;}
	.st148{fill:#E6B9A3;}
	.st149{fill:#E4B298;}
	.st150{fill:#5C615D;}
	.st151{fill:#E89580;}
	.st152{fill:#F6D6C4;}
	.st153{fill:#DC827B;}
	.st154{fill:#E48F84;}
	.st155{fill:#CC9378;}
	.st156{fill:#D86A70;}
	.st157{fill:#D46551;}
	.st158{fill:#E9BCA5;}
	.st159{fill:#CA8C74;}
	.st160{fill:#C44E48;}
	.st161{fill:#E6A57D;}
	.st162{fill:#EE8665;}
	.st163{fill:#E5A27C;}
	.st164{fill:#741722;}
	.st165{fill:#C4314A;}
	.st166{fill:#2D1310;}
	.st167{fill:#752E42;}
	.st168{fill:#E67C60;}
	.st169{fill:#F3BAA8;}
	.st170{fill:#5C615E;}
	.st171{fill:#712736;}
	.st172{fill:#DD5B4B;}
	.st173{fill:#F5CAB9;}
	.st174{fill:#D66350;}
</style>
<title>Mesa de trabajo 1</title>
<path class="st0" d="M0.6,568.1v-11c1.4-1,2.5,0.2,3.7,0.6c2.1,0.8,4.2,1.5,6.5,0.3c-3.6-1.4-6.8-3.5-10.2-5.2V313.9
	c0.7-0.6,1.6-1,2.5-1.2c3-1.2,4.2-2.9,4.1-5.7c0.2-2.9-1.6-5.5-4.4-6.3c-0.8-0.2-1.6-0.5-2.2-1v-51.7c1.5-1.2,3.1-0.9,4.7-0.5
	c2.5,0.6,4.6-0.2,6.7-1.3c1-0.4,1.7-1.3,1.8-2.3c-0.1-4.4,2.8-7.4,5-10.6c2-2.8,2-2.9-1.2-4.1c-2.9-1-5.3-2.4-6.4-5.4
	c-0.2-0.6-0.7-1.7-1.7-1.4c-0.7,0.2-0.7,1.1-1,1.8c-1.7,4.6-4.2,6.1-7.9,4.7v-1.2c2.2-1.4,3.9-3,4.2-5.9c0.2-2-0.1-3.4-2.5-3.2
	c-0.6,0-1.2-0.2-1.6-0.7v-54.2c2-1.9,5-1.7,7.2-3.1c7.1-1.9,9.5-6.9,9.8-13.1c0.1-1.6,0-3.3,0-4.9c-0.1-5-2.7-7.6-7.8-8
	c-3-1.6-6.1-3.2-9.3-4.7V58.5c1.3-0.8,1.8,0.4,2.5,1c0.9,1,1.9,1.9,3,2.6c3.3,2,6,1.3,8.1-1.9c3.6-5.5,2.5-10.4-2.9-13.5
	c-3.5-2-6.5-1.1-8.3,2.5c-0.5,0.9-0.5,2.6-2.4,1.9V0.6h80c0.1,2.2-1.5,2.7-3,3.3c-5.9,2.4-7.2,8.3-2.9,13.2c3.7,4.2,13.8,5.8,18.5,3
	l0.3-0.2c1.9-1.3,5.3-10.3,4.7-12.5c-0.3-1.1-1.3-1.9-2.4-2.1c-1.6-0.5-3.2-0.5-4.8-1s-3.5-1.2-2.3-3.7h42.5
	c0.8,3.1,0.3,6.3,0.1,9.4c-0.2,2.7,0.9,3.8,3.2,4.2c4.3,0.8,8.6,1.7,13,2.1c2.4,0.1,4.9,0.5,7.3,1c3,1,6.3-0.1,8.1-2.8
	c2-2.6,4.6-4.7,6.3-7.5c0.9-2.3-1-2.9-2.4-3.9c-0.9-0.6-2.5-0.8-1.7-2.5h62.2c0.6,1.5-0.4,2.7-0.9,4c-0.2,0.4-0.5,1-0.1,1.4
	s1.1,0.2,1.6-0.3c0.8-0.8,1.5-1.7,2.1-2.6c0.7-1.3,2.1-2,3.5-1.9c48.9,0,97.7,0,146.6,0c1.8-0.1,2.3,1.3,3,2.5
	c0.6,0.9,1.2,2.1,2.4,2s0.9-1.6,1.1-2.5s0.5-1.8,1.6-2c23.6-0.1,47.1-0.1,70.7,0c2.4,0.7,1,1.8,0.1,2.5c-2.5,1.9-3.5,4.7-4.7,7.4
	c-0.5,0.9-0.5,2-0.2,3c1.5,4.1,6.5,7.6,10.9,7.8c6.1,0.3,12-0.3,17.5-3.4c2-1,3.9-2.3,5.5-3.8c4.5-4.5,4.1-8.6-1.3-12
	c-0.9-0.5-2.3-0.6-2.2-2.2H530c0,1.5-0.1,3.1-0.1,4.6c0,49.3,0,98.5,0,147.8c0,1.3,0.1,2.7,0.1,4c-0.9,0.9-2.1,0.8-3.2,0.8
	c-14.1,0.1-28.2,1.8-42,5.1c-27.8,6.9-52.4,19.6-71.7,41.2C398.9,220,390,238.6,388,260c-3.1,32,6.6,59.4,29.1,82.3
	c15,15.3,33,25.4,53,32.5c1.4,0.5,2.8,0.7,3.9,1.7c-0.1,2.3-0.5,4.6-0.5,7c0,5.2,2.6,10.1,7,12.9c3,2,6.1,4.6,10.3,3.7
	c1.5-0.2,3-0.3,4.4-0.1c5.5,1.2,10.3-0.9,14.8-3.5c2.7-1.5,3.4-4.7,4.2-7.6c0.5-1.6,0.3-3.5,1.9-4.7c2.3-0.5,4.7-1.1,6.9,0.5
	c1.7,0.7,3.4,0.3,5.1,0.4c1.1,0,1.7,0.4,1.7,1.6c0,0.7,0,1.4,0,2.1c0,15,0,30,0,45c0,1.4,0.1,2.9,0.1,4.3c-3.7,2.1-4.9,5.9-6.2,9.5
	c-0.9,2.7-2.2,4.9-5.2,6c-2.3,1-4,3-4.6,5.5c-0.8,2.3,0.1,4.9,2.3,6.1c3.7,2.1,7.5,3.4,11.6,1c0.6-0.4,1.2-0.8,2-0.4
	c0,2.9-0.1,5.7-0.1,8.6c0,17.3,0,34.7,0.1,52c0,1.5-0.1,3.1-0.1,4.6c-0.3,1.2-0.3,2.4-0.2,3.7v32"/>
<path class="st1" d="M484.5,0.6c1.7,1.4,3.9,2,5.4,3.8c2.2,2.4,2.7,4.5,1.2,7.5c-1.4,2.9-3.8,5.2-6.7,6.5c-3.5,1.7-6.9,3.8-11,4.1
	c-3.6,0.3-7.1,0.4-10.7,0.1c-2.8-0.3-5-2.1-6.9-4.2c-0.6-0.7-1.1-1.5-1.6-2.2c-1.4-1.7-1.6-4-0.6-5.9c1.3-3.3,3.5-6.2,6.3-8.4
	c1.3-1.1,2.9-0.9,4.4-0.9c3.5-0.2,6.9,0.4,10.4-0.3L484.5,0.6z"/>
<path class="st2" d="M88.6,0.6c0.4,2.3,1,2.9,3.3,3.1c1.8,0.2,3.6,0.6,5.4,1.1c1.2,0.2,2,1.3,1.8,2.4c0,0.5,0,1,0,1.5
	c-0.7,3.7-2.5,7-3.8,10.4c-0.7,1.8-2.8,2.2-4.7,2.5c-5.4,0.9-10.6,1-15.1-2.7c-3.4-3-4.9-7.7-3.8-12.2c0.2-0.9,0.8-1.7,1.6-2.1
	c1.3-0.6,2.4-1.5,3.9-1.7c1.5-0.2,2.7-1.1,3.3-2.5H88.6z"/>
<path class="st3" d="M0.6,229c1.5-0.1,3,0.1,4.4-0.9s2.3-1.8,2.6-3.5c0.1-1.5,0.8-2.9,1.9-4c1.2,0.8,1.6,2.3,2.7,3.1
	c1.4,0.9,0.4,3.4,2.9,3.6c1.6,0.1,2.9,1.6,4.8,1.7s2.2,1.7,0.7,3.4c-1.7,2-3,4.4-4.6,6.5c-0.9,1-1.3,2.3-1.2,3.6
	c0.3,2.5-0.9,3.8-3.2,4.9c-2.2,1.1-4.7,1.4-7,0.7c-1.3-0.2-2.7-0.2-4-0.1L0.6,229z"/>
<path class="st4" d="M8.1,161.3c-2.3,1.3-4.9,2.1-7.5,2.5v-25.9c3.2-0.8,6.7-0.5,9.7,0.9c1.6,0.8,2.5,0.7,3.6-0.4
	c0.8,0.5,1.2,1.5,1.1,2.4c0.3,5.1-0.1,10.2-1.3,15.2C12.9,159.2,10.1,159.7,8.1,161.3z"/>
<path class="st5" d="M474.6,0.6c-1,0.9-2.1,0.5-3.2,0.5c-3.9,0.1-7.7-0.3-11.5,0.8l-72.8,0c-2,1.2-4-0.4-6,0H232.1
	c-0.3-0.3-0.4-0.8-0.1-1.2c0,0,0,0,0.1-0.1L474.6,0.6z"/>
<path class="st6" d="M169.9,6.8c0.1,1.3-1.1,1.9-1.7,2.8c-1.6,2.6-4.1,4.5-6,6.9c-1.7,2.2-4.5,2.5-7,1.8c-5-1.4-10.3-1-15.4-2.3
	c-2.6-0.7-5.4-0.7-8-1.7c-1.4-0.6-2-1.2-1.4-2.7c0.6-1.9,0.3-3.9,0.3-5.8c-0.1-1.7,0.1-3.5,0.6-5.1h2.5c1.4,5.4,6.1,6,10.5,7.1
	c0.3,0.1,0.6,0.2,0.9,0.3c2.3,0.9,4.7,1.1,7,2.1c1.8,0.8,3.9,0.8,5.6-0.1c3.1-1.7,6.7-1.6,9.8-3.3C168.2,6.2,169.2,6.2,169.9,6.8z"
	/>
<path class="st7" d="M0.6,51.1c1.1,0.1,1.2-0.8,1.5-1.6c1.7-4.9,5.4-6.1,9.9-3.4c2.5,1.3,4.3,3.6,5,6.3c0.5,2.3,0.6,4.4-1,6.4
	c-0.5,0.8-1,1.5-1.4,2.4c-1.9,3-4.4,3.7-7.9,2.2c-1.7-0.9-3.3-2.1-4.4-3.7c-0.5-0.5-0.8-1.2-1.6-1.2L0.6,51.1z"/>
<path class="st8" d="M169.9,6.8c-0.7,0-1.4,0.1-2,0.5c-2,1-3.9,2.1-6.3,1.9c-0.6,0-1.2,0.2-1.7,0.6c-3,2.4-6.2,2.1-9.4,0.6
	c-1.9-0.9-4-0.4-5.8-1.7c1.1-1.2,2.4-0.6,3.7-0.4c1.8,0.2,3.5,1,5.3,0.6c0-0.9-0.6-0.9-1-1.1c-3.3-1.3-3.4-1.4-0.9-4.2
	c0.8-0.9,0.9-2,1.4-3H165c0.1,1.2,1,1.5,1.9,1.8c1.5,0.3,2.4,1.5,3.3,2.6c0.5,0.4,0.5,1.2,0,1.6C170.1,6.7,170,6.7,169.9,6.8z"/>
<path class="st9" d="M153.3,0.6c0.8,1,0.6,2.5-0.4,3.2c0,0,0,0,0,0c-0.7,0.7-1.8,0.9-2.4,2c1,1.2,2.6,0.9,3.8,1.5
	c0.6,0.3,1.2,0.5,1.2,1.2c0,0.9-0.8,1.1-1.5,1.2c-2.1,0.3-4-0.4-6-0.8c-1.1-0.3-2.2-0.4-3.3-0.3c-2.1-0.6-4.3-1.3-6.4-1.7
	c-2.5-0.6-4.4-1.6-4.2-4.6c-0.1-0.6-0.2-1.2-0.4-1.8L153.3,0.6z"/>
<path class="st10" d="M0.6,299.8c4.5-0.7,8.7,3.6,7.3,9.6c-0.5,2.3-3.9,4.3-7.3,4.5L0.6,299.8z"/>
<path class="st11" d="M13.5,138.5c-0.1,0.9,0.2,1.8-0.2,2.6c-0.7,0.4-1.2-0.1-1.5-0.5c-1.2-1.4-3-2.2-4.8-2.1
	c-2.1,0-4.2-0.3-6.3-0.7v-8c3.7,0.1,6.5,2,9.2,4.3C11.7,135,13.2,136.3,13.5,138.5z"/>
<path class="st12" d="M0.6,552.8c1.3-0.1,2.7,0.2,3.7,1c2,1.3,3.9,2.6,6.3,2.8c0.8,0,1.5,0.6,1.5,1.4c0,0.1,0,0.2,0,0.2
	c-0.1,1-0.8,1.4-1.7,1.4c-2.2,0.2-4.5-0.1-6.5-1.1c-1.1-0.5-2.1-1.3-3.4-1.4L0.6,552.8z"/>
<path class="st13" d="M0.6,217.9h0.9c4.4,0.1,4.4,0.1,4,4.5c-0.1,2.8-2.2,5-4.9,5.4L0.6,217.9z"/>
<path class="st14" d="M232.1,0.6v1.2c-1.4,0.9-2,2.5-3.1,3.7c-0.4,0.5-0.8,0.9-1.2,1.3c-0.7,0.7-1.8,0.7-2.5,0c0,0,0,0,0,0
	c-0.6-0.5-0.6-1.5-0.1-2.1c0,0,0.1-0.1,0.1-0.1c1-1.2,1.3-2.8,1.9-4.2L232.1,0.6z"/>
<path class="st15" d="M523.1,384.8l-7.3-0.1c-1.3-1.8-1.1-3.9-1.3-5.9c-1.3-9.1-6.8-14.4-15.9-14.8c-2.9-0.2-5.7-0.2-8.6,0
	c-6.5,0.5-10.8,4.3-13.9,9.8c-0.6,1-0.8,2.4-2.1,2.9c-0.9,0-1.8-0.2-2.7-0.5c-20.1-6.8-38.2-16.8-53.5-31.7
	c-14.4-14-24.5-30.6-28.7-50.2c-7.1-32.6-0.2-62,21-87.9c13.5-16.5,30.7-28.1,50.3-36.3c15.2-6.3,31.3-10.4,47.8-11.9
	c7.2-0.8,14.5-1.1,21.8-1.1v-0.1c0.8,1,1.1,2.2,1,3.4c0,12.7,0,25.4,0,38.1c0,0.9-0.1,1.8-0.4,2.7c-1,2-3,1.5-4.6,1.6
	c-14.6,0.2-29,3.1-42.5,8.5c-6.7,2.6-13,6.1-18.9,10.3c-1.9,1.6-4.6,1.9-6.9,0.9c-4-1.4-8.2-2-12.4-1.7c-2.7,0.1-4.7,1.3-5.1,4.3
	c-1,2.7-2.1,5.4-4.9,6.9c-3.7,1.5-4.4,2.3-2.9,6c2,5.1,3.9,10.4,7.5,14.8c0.2,1.2,0,2.5-0.4,3.6c-2.2,8.5-2.4,17.3-0.8,25.9
	c3,16.4,12.1,28.7,25.4,38.1c16.5,11.6,35,17.2,54.9,18.7c2.9,0.2,5.7,0.6,8.6,0.6c1.2-0.2,2.3,0.4,2.8,1.5c0.3,1.1,0.5,2.2,0.4,3.3
	c0,12.1,0,24.1,0,36.2c0,1.4,0.2,2.9-0.9,4.1L523.1,384.8z"/>
<path class="st16" d="M530,384.7c0-5.5,0.1-11,0.1-16.5c0-9.3-0.1-18.5-0.1-27.8l0.4-0.4c4-1,8.1-0.5,12.1-1c4.2-0.5,8.5-1,12.6-1.9
	c1.5-0.4,2.5,0.6,3.5,1.5c2.2,1.9,4.7,3.6,7.3,5c2,1.1,3.6,1.2,5.1-0.7c0.8-0.9,1.8-1.7,2.8-2.3c5.8-3.5,10.3-8.6,13-14.8
	c11.9-6.5,21.9-15.1,28.5-27.2c3.9-7.1,6.3-15,6.9-23.1c1.3-16-3.6-29.9-13.7-42.1c-6.1-7.1-13.4-13-21.7-17.4
	c-16.3-8.9-34.6-13.5-53.1-13.4c-1.1,0.1-2.3,0-3.3-0.4L530,202l-0.1-45c7.3,0.1,14.5,0.4,21.8,1.2c32.8,3.6,62.5,14.6,87.2,37
	c13.3,12,23.4,27.1,29.2,44.1c0.1,0.5,0.2,1,0.3,1.5c-1.7,0.1-2.1-1.4-3-2.3c-3.7-3.7-7.8-6.2-13.4-5c-4.4,0.9-8.6,6.8-7.6,11.3
	c2.2,9.5,8.3,15.7,16.7,20c3.1,1.7,6.8,1.4,9.6-0.6c0.6-0.4,1.2-0.9,2-0.6c0.7,3.9,0.8,7.9,0.5,11.9c-0.8,19.9-7.7,39.2-19.6,55.2
	c-2,0.9-2.5-0.8-3.2-1.9c-1.3-2.3-3-4.4-5-6.1c-0.7-0.6-1.6-1.2-2.5-0.5s-0.2,1.5,0.1,2.2c2,3.8,4.8,6.9,7.5,10
	c-5.3,6.9-11.5,13-18.3,18.4c-1.4,1.1-2.9,2.3-4.4,3.4c-0.5,0.4-0.8,0.8-0.5,1.5c-1.7,0.8-2.2-0.9-3.3-1.5c-0.9-0.5-1.8-1.6-2.7-0.7
	s0.4,1.6,0.8,2.3s1,1.1,0.6,1.9c-16.2,10.6-33.8,17.5-52.5,21.5c-11.4,2.5-23,3.8-34.7,3.9C533.9,384.9,531.9,385.6,530,384.7z"/>
<path class="st17" d="M672.8,263.5c-4.1,3.9-8.7,4-13.3,1.3c-7.8-4.6-13.9-10.7-15.9-20.1c-0.3-1-0.3-2,0-3c0.9-2.6,2.2-5,3.8-7.3
	c0.4-0.6,1-1,1.8-1.2c5.6-1.7,10.7-1.1,15.1,3.1c1.5,1.4,2.8,3,4.2,4.5c2.8,4.1,4.7,8.9,5.4,13.8
	C674.2,257.6,674.3,260.6,672.8,263.5z"/>
<path class="st18" d="M530,466c-4.6,3.8-9.4,2.6-14,0.2c-2.6-1.5-3.7-4.6-2.7-7.4c1.2-3.2,3.1-5.4,6.4-6.4c1.1-0.3,1.9-1.2,2.3-2.2
	c1-2.6,1.9-5.1,3-7.7c1-2.2,2.3-4.1,5-4.3c2,1.4,2,1.6,1,3.2c-0.3,0.6-0.8,1.2-1.2,1.7c-0.6,1.6-0.3,3.5-1.2,5
	c-1.2,2.1-0.5,3.6,1.3,4.8c3.5,1.6,4.7,5,3.2,8.8C532.6,463.5,531.4,464.9,530,466z"/>
<path class="st19" d="M622.9,359.5c-0.7-0.8-1.5-1.6-2.2-2.5s-1.1-1.5-0.4-2.4c0.6-0.7,1.7-0.8,2.5-0.4c1.2,0.6,2.2,1.4,3.1,2.4
	c0.5,0.4,0.8,0.9,1.5,0.9c1.8,0.9,3.7,1.7,5.5,2.7c1,0.5,1.5,0.4,1.9-0.6c0.1-0.2,0.2-0.4,0.3-0.5c2-5.6,9.4-5.5,13-1.5
	s4,9.4,0.7,13.4c-2.7,3.3-6.5,4-10.1,1.8c-2.2-1.4-4.1-3.1-4.7-5.8c-0.4-1.6-1.6-2.9-3.1-3.5C628.2,362.2,625.6,360.8,622.9,359.5z"
	/>
<path class="st20" d="M650.6,334.3c-0.5,0-1-0.2-1.4-0.6c-2.9-2.9-5.3-6.2-7.2-9.8c-0.5-0.9-1-2,0.1-2.7c1-0.8,2.5-0.7,3.4,0.2
	c2.2,1.9,4,4.1,5.4,6.6c0.6,1.1,1.1,2.5,2.8,2.5C653.6,333.6,653.5,333.8,650.6,334.3z"/>
<path class="st21" d="M530.1,453c-3.5-1-3.5-1-2.2-4.5c0.7-1.8,0.9-3.7,2-5.3C530,446.5,529.7,449.7,530.1,453z"/>
<path class="st22" d="M432.7,527c0.9,1.6,2,2.9,4.1,1.8c0.4-0.2,0.8-0.2,1.2,0c2.6,1,3.8-1.4,5.6-2.4c0.8-0.6,1.1-1.6,0.7-2.5
	c-0.7-1.7,0.1-3.2,0.5-5c2.1,1.6,4.5,2.3,5.3,4.9c0.1,0.5,0.5,1.1,1,0.8c1.9-1.1,3.8,0.1,5.6-0.1c2.1-0.2,2.9,1,2.3,3.2
	c-0.5,1.8-1.2,3.5-1.9,5.2c-1,2.1-1.2,4.6-0.6,6.8c0.8,2.4,0.2,3.1-2.3,4.5c-0.3,0.2-0.9,0.4-0.9,0.7c-0.5,2.6-2.5,2.3-4.3,2.2
	c-4.6-0.3-8.9,0.7-13.2,2c-2.3,0.8-4.8,1.2-7.2,1.2c-3.8-0.1-5.5-1.8-5.7-5.6c-0.3-3.6-1-7.1-2-10.5c-0.4-2-0.6-4-0.4-6.1
	c0.1-1.5,0.7-2,2.2-1.6c1.3,0.3,2.7,0.4,4,0.2c0.3-0.3,0.8-0.4,1.2-0.3c1.1,0.3,2.2,0.2,3.3-0.1C431.8,526.3,432.4,526.5,432.7,527z
	"/>
<path class="st23" d="M446.9,60.3c1.4,0.1,2.9-0.1,4,1.2c0.6,0.6,1.5,0.8,2.2,0.3c0.6-0.3,1.4-0.4,2.1-0.2c1.9,0.8,3-0.5,4.3-1.5
	c1.2-0.8,1.8-2.3,1.6-3.7c0-1.4-0.6-3.2,0.9-3.9s2.3,1.3,3.4,2c0.1,0.1,0.2,0.1,0.2,0.2c2,2.8,4.9,3.2,8,3c2.5-0.1,3.1,0.7,2.3,3
	c-0.6,1.7-1.2,3.5-1.9,5.2c-0.9,2.2-1.2,4.6-0.6,6.9c0.5,1.9,0.1,3.4-1.9,4.2c-0.4,0.1-0.8,0.4-1,0.7c-1.1,2.5-3.3,2.4-5.5,2.3
	c-2.4-0.1-4.7,0.2-7,0.9c-3.6,1.2-7.4,1.6-11,2.6c-2.4,0.7-4.3-0.7-6.2-1.9c-0.5-0.4-0.8-1-0.8-1.6c0.4-5.4-1.8-10.4-2.9-15.6
	c-0.2-1.1-0.3-2.2-0.2-3.4c0.1-1.6,0.8-2.2,2.4-1.9c2,0.4,4,0.9,6,1.4C446,60.7,446.5,60.8,446.9,60.3L446.9,60.3z"/>
<path class="st24" d="M160.2,187c-6.7,1-12-2.1-16.5-6.7c-2.4-2.5-3.8-5.9-3.9-9.4c0-0.9,0.1-1.9,0-2.8c-0.6-4.9,1.8-8.7,4.9-12.1
	c1-1.1,2-2,3-3.1c1.5-1.4,3.3-2.4,5.3-2.9c5.9-1.9,11.8-0.9,17.6,0.3c3.8,0.9,7,3.4,8.7,6.9c3,5.3,3.8,11.6,2.3,17.5
	c-0.9,3.3-2,6.8-5.3,9c-1.2,0.8-2.3,1.6-3.8,1.6c-0.9,0-1.8,0.2-2.7,0.6C166.6,187.3,163.5,187.3,160.2,187z"/>
<path class="st25" d="M415.5,104.7c0.2-0.5,0.5-1,1.1-0.9c0.8,0.1,1.6,0.6,1.9,1.4c1,2.1,2,4.3,2.9,6.4c2.1,4.9,3.6,10,4.5,15.2
	c0.6,3.8-1.1,5.5-4.6,5.6c-0.8-0.1-1.6,0-2.4,0.2c-2.9,1.3-6.2,1.4-9.1,0.3c-1.2-0.6-2.7-0.2-3.5,0.9c-0.4,0.4-0.8,0.7-1.2,1
	c-1.5,1-2.3,0.8-3.1-0.9c-1.5-3.4-2.7-6.8-3.6-10.4c-1-3.9-2.1-7.7-3.2-11.5c-1.7-6.1,0.7-8.9,5.1-10.4c2.8-0.9,5.7-1.5,8.7-1.8
	c2.3-0.4,2.8,0.2,2.9,3c-0.6,1.1,0.1,1.5,0.8,2.3c3.4,3.4,5.6,7.8,6.3,12.6c0.2,1,0.4,2,0.7,3c0.7,2.9,0,4.2-2.9,5
	c-1,0.2-2,0.5-2.9,0.9c-3.2,1.9-7.4,0.8-9.3-2.4c-0.2-0.4-0.4-0.8-0.6-1.2c-0.2-0.8-0.5-1.6-1-2.2c0.9,4.8,1.1,5.5,2.7,7.2
	c1.1,1.2,2.3,1.9,3.7,0.7c1-0.9,2.6-0.9,3.5,0.2c0,0,0,0,0,0c1.8,1.5,3.1,0.9,4.5-0.6c1.4-0.4,4,1.4,3.8-2.1c0.5-4.3-0.9-8.2-2.6-12
	c-0.9-1.9-1.8-3.9-2.7-5.8C415.1,107,414.5,105.9,415.5,104.7z"/>
<path class="st26" d="M89.3,161.3c0.2-0.3,0.5-0.6,0.7-1c0.7-1.3,1.6-1.2,2.4-0.2c1.7,2,3,4.4,5,6.1c0.3,0.4,0.5,0.9,0.5,1.4
	c0.2,1.6-0.2,3.3,1.6,4.4c0.6,0.5,0.7,1.3,0.3,2c-0.8,1.1-1.1,2.6-0.7,3.9c0.1,0.5-0.5,0.8-0.9,1.1c-2,1.5-4,2.8-5.5,5
	c-1.3,1.9-3.6,3-5.5,4.3c-1.4,0.7-2.6,1.5-3.7,2.6c-0.7,0.8-2,0.9-2.8,0.1c-2.6-1.9-6.1-2.6-8-5.5c-4.2-1.8-6.4-5.6-9-8.9
	c-1.5-1.9-2.8-4-4.1-6c-0.3-0.4-0.5-0.9-0.4-1.4c1-2.5,1.7-5.2,4.2-6.8c0.8-0.5,1.4,0,2,0.1c1.5,0.4,2.9,1.1,4.4,1.4
	c1.7,0.3,3.1,1.4,3.7,3c0.8,2.4,2.6,3.3,4.6,4.5c3.7,2,7.2,4.3,10.5,6.8c1.6,1.3,2.4,1.1,2.4-1c-0.2-2.4-1.9-4.2-2.3-6.6
	c-0.2-1.1-1.7-1-2.6-1.3c-1.1-0.3-2.7-0.2-3.1-1.6s1.1-2,1.9-2.8C86.4,163.8,87.3,161.8,89.3,161.3z"/>
<path class="st27" d="M158.2,389.6c0.8-1.3,2.2-2,3.6-1.8c3.1,0,6.1,0,9.2,0c2,0,3.8,1.1,4.6,2.9c1.1,1.9,1.7,4.2,1.6,6.4
	c-0.1,5.9,0,11.9,0,17.8c0.1,1,0,2-0.3,3c-0.7,2.3-0.7,2.4-3.4,2.5c-0.7-2.1,0.1-4.2,0.2-6.4c0.2-5.4,0.2-10.9,0-16.3
	c-0.1-1.2-0.4-2.4-0.9-3.5c-1.4-3-3.6-3.6-6.7-1.8c0.4,1,1.5,0.9,2.3,1.3c2,0.8,3.2,2.8,3.1,4.9c-0.3,3.9-0.1,7.8-0.3,11.7
	c-0.2,3.4-1.3,4.8-4.7,4.8c-2.9,0-3.5,2.2-4.9,3.8c1.9,0.8,4.7-1,5.6,2.2c-1,0.9-2.3,1.4-3.6,1.4c-2.7,0.1-5.4,0.7-8.2,0.6
	c-1.4,0.1-2.6-0.7-3-2c-0.7-1.8-1.1-3.7-1.2-5.6c0-3.2-0.3-6.4,0.1-9.5c0.3-4,1.1-8,2.4-11.8c2.4-0.3,3.2,0.3,3,2.6s-0.6,4.5-1,6.7
	c-0.7,3.6-0.5,7.2-0.5,10.7c0,1.1-0.3,2.5,1.1,3c1.4,0.6,3.1,0.2,4-1.1c-1.4-1.2-3.6-1.3-4.1-3.4c-0.3-1.8-0.4-3.7-0.3-5.5
	c0-1.8-0.1-3.7,0.1-5.5c0.3-3.8,1.4-7.1,6.1-8.3C160.6,391.8,158.5,391.7,158.2,389.6z"/>
<path class="st28" d="M112.7,370.6c0.9,1.5,0.6,3.4,2.2,4.8c0.9,0.8,0.2,2.4-0.5,3.4c-1.6,2.6-3.2,5.3-4.8,7.8
	c-1.3,2-2.3,4.1-3.4,6.2c-1.8,3.4-4.6,4.3-7.9,2.5c-3.7-1.9-7.3-4.1-10.7-6.4c-2.3-1.6-5-2.3-7.5-3.4c-1.3-0.6-2.5-0.9-2.6-2.6
	c-0.1-0.4-0.3-0.7-0.6-1c-1.5-1.4-1.6-3.8-0.3-5.3c1.2-1.8,1.8-3.9,1.7-6c0-2.2,0.7-4.4,0.7-6.7c0-1.6,1-2.1,2.5-1.4
	c1.1,0.6,2.3,0.8,3.6,0.8c1.2,1.1,1.6,2.6,2.3,4c0.4,0.6,0.6,1.3,0.4,2c-0.6,0.7-1.8,0.5-2.1,1.5l-0.3,0.7
	c-1.1,3.5-1.3,7.4-3.7,10.4c-0.1,0.2-0.2,0.5-0.3,0.7c0.1,1.2,1.1,0.8,1.8,1c3.4,1,6.7,2.6,9.6,4.7c0.8,0.6,1.7,1.1,2.6,1.6
	c1.3,0.6,2.3,0.4,2.3-1.2c0.1-3.4,1.3-6.4,2.4-9.5c0.4-1.1,0.3-2-0.9-2.5s-1.9,0.3-2.3,1.4c-0.7,1.8-1.6,3.6-2.3,5.4
	c-0.6,1.6-1,4.2-3.4,3.3c-2.2-0.8-0.9-3-0.4-4.6c0.5-1.7,1.1-3.3,1.8-4.9c0.4-0.7,0.6-1.5,0.5-2.4c-0.1-0.6-0.4-1.2-1.2-1.2
	s-0.9,0.5-1.1,1c-0.3,1-0.6,2-0.8,3c-0.3,1.4-0.8,2.8-1.5,4c-0.7,1-1.5,2.2-3,1.5s-1-2-0.5-3.2c1.2-3.1,2.5-6.1,1.8-9.5
	c0-0.3,0.2-0.6,0.3-0.8c1.4-0.8,2.3,1,3.5,0.8c3.1-1.1,5.4,1.4,8.1,1.7c1.1,0.3,2.2,0.3,3.3,0c1.4-0.7,3.2-0.3,4.1,1
	c0.4,0.5,0.9,1.4,1.7,1s0.5-1.4,0.7-2.2c0.1-0.6,0.4-1.1,0.9-1.5c0.3,0,0.7,0,0.8,0.3C111.3,373,112,371.3,112.7,370.6z"/>
<path class="st2" d="M67.2,466.6c2.2,0,4.1,0,4.4,2.6c0.1,1.1,1.4,1.1,2.2,1.4c1.1,0.4,2.2,0.2,3.3,0.4c4.7,0.6,5.6,2.3,4.3,7
	c-0.5,1.9-1.3,3.8-1.9,5.8c-0.7,2.5-2,4.4-5,4.7c-3.2,0.4-6.4,1.2-9.7,0.5c-5.8-1.2-9.6-4.8-10.6-10.4c-0.8-3.6,1.4-7.2,5-8.1
	c0.1,0,0.1,0,0.2,0c1.4-0.2,2.7-0.9,3.6-2C64.1,467,65.7,466.3,67.2,466.6z"/>
<path class="st2" d="M410.3,421.2c-2.9-0.4-5.9-1-8.5-3.1c-2.4-2-1.8-4.5-1.5-6.8c0.3-1.3,0.3-2.6,0-3.9c-0.9-3.5,1.2-6,4.8-6
	c1.3,0,2.6-0.5,3.6-1.5c0.9-0.8,1.8-1.7,2.6-2.6c1.3-1.8,3.8-2.1,5.6-0.8c0.1,0.1,0.3,0.2,0.4,0.3c2.8,2.7,5.4,5.7,7.7,8.9
	c0.5,0.6,0.5,1.4,0.2,2c-1.6,3.9-3,8-6.6,10.8C416.1,420.3,413.4,420.9,410.3,421.2z"/>
<path class="st29" d="M345.6,391.2c-0.2,1-0.5,2-1,2.9c-0.8,1.8-1.4,1.9-3.6,1c-1-1.3-0.4-2.5,0.3-3.6c0.8-1,0.8-2.4,0-3.4
	c0.1-2.3,2.4-3.5,2.7-5.8c0.1-0.7,0.9-1.7-0.3-2.1c-0.9-0.3-1.4,0.7-1.6,1.5c-0.4,2.1-1.7,4-3.5,5.2c-1.4,1-3.1,1.2-4.7,0.5
	c-0.8-0.4-1.7-0.8-2.5-1.1c-4.7-1.7-5.3-2.8-4.2-7.8c0.7-3.6,2-7.1,3.8-10.4c2-3.5,4.5-4.2,8.2-2.5c1.8,0.8,3.5,1.7,5.5,0.6
	c0.8,0,1.6,0.4,2.1,1.1c0.4,0.3,0.8,0.8,1.3,0.3s0.2-1.1-0.2-1.6c-0.9-1.2-2.1-2-3.5-2.3c-2.2-0.4-4.4-0.8-6.6-1.3
	c-0.3,0-0.6,0-0.9-0.1c-0.8-0.3-2-0.4-1.8-1.6c0.2-1.1,1.4-0.8,2.1-0.6c2.7,0.7,5.4,0.6,8.1,1.4c4.7,1.2,7.5,5.9,6.3,10.6
	c-0.2,0.6-0.4,1.2-0.7,1.8c-2.1,4.5-2.6,9.4-4.2,13.9C346.6,389.1,346,389.3,345.6,391.2z"/>
<path class="st30" d="M159.6,354.6c-1.7,0.2-3.5-0.2-4.9-1.3c-1.1-0.8-2.3-1.4-3.6-1.8c-1.3-0.3-2.3-1.6-2.2-3c0-0.6,0-1.2-0.1-1.8
	c-1.6-5,0.9-8.6,4.5-11.4c3-2.3,6.2-4.2,9.6-5.9c1.5-0.6,3.1-1,4.8-1c3.5-0.4,7-1.2,10.6-0.4c5.2,1.2,7.3,4.7,5.8,9.8
	c-1,3.5-2.8,6.3-6,8.1c-1.8,1-3.1,2.5-4.9,3.6c-2.6,1.6-5.6,2.5-8.3,4C163.4,354.4,161.5,354.8,159.6,354.6z"/>
<path class="st31" d="M261.6,43c-1-4.4,1.4-6.4,5-8.2c3.7-2.1,8.2-2.1,12-0.1c3.2,1.6,6.9,2.6,9.3,5.3c2.9,3.2,6.1,6.4,7.8,10.5
	c1.6,3.8,0.3,8.1-2.7,9.8c-1.8,0.8-3.7,1.2-5.6,1.2c-3.4,0.3-6.7-0.4-9.7-1.9c-4.1-2-8-4.4-11.6-7.2c-1.6-1.3-2.9-2.9-4-4.6
	C261,46.4,261.7,44.6,261.6,43z"/>
<path class="st32" d="M386.1,52.1c-6.4,4.7-13.2,4.1-20,1.3c-4.3-1.8-5.4-6.4-3.1-10.9c0.3-0.6,1.1-1.2-0.3-1.4
	c1.4-1.3,2.9-2.5,5-2.6c1.1,0,2-1,2.8-1.8c2.5-2.4,2.7-2.4,5.2,0.1c1,1,2.2,1.8,3.6,2.3c2,0.7,3.9,0.9,5.9-0.2
	c0.8-0.4,1.7-0.7,2.6-0.8c1.4-0.3,2.3,0.5,3,1.6c0.7,0.9,0.5,2.3-0.4,3c-1.3,1.4-2.1,3.3-2.4,5.2C387.7,49.5,387.1,50.9,386.1,52.1z
	"/>
<path class="st32" d="M357.8,520.8c-3.7,0.2-7.4-0.1-10.7-2.5c-2.6-1.9-3.2-4.4-2.8-7.3c0.5-2.8,2.7-5,5.5-5.5c1.5-0.2,2.9-0.9,4-2
	c2.6-2.3,3.8-2.3,6,0c2.5,2.5,5.3,3.4,8.6,2.2c1-0.4,1.9-0.7,2.9-0.9c1-0.3,2.1,0.2,2.6,1.1c0.6,1,0.1,1.8-0.5,2.5
	c-1.3,1.5-2.1,3.3-2.4,5.2c-0.8,4.1-4.3,7-8.4,7.1C361,520.9,359.5,520.8,357.8,520.8z"/>
<path class="st33" d="M254.8,406.9v-3.1c0.3-1.4,0.8-2.7,1.6-3.9c0.3-0.7,1-1.1,1.8-1c0.9,0.2,1,1,1,1.7c0.3,2.6,0,5.3,0.2,7.9
	c0,0.6,0.2,1.1,0.6,1.5c1.1-1.9,1.5-3.6,0.6-5.7c-0.5-1.1-0.5-2.4-0.2-3.6c4.4-7.2,14.5-8.5,21.4-2.6c1.8,1.5,3.7,3,4.4,5.4
	c0.5,1.5,0.1,3.1-1,4.3c-4.1,3.9-7,8.9-11.7,12.1c2.6,1.3,5.3-1.6,7.9-0.1c-0.2,0.5-0.7,1-1.2,1.2c-3.3,2-6.6,1.8-10,0.3
	c-4.5-2-8.6-4.6-12.4-7.7C255.3,411.8,255.8,409.1,254.8,406.9z"/>
<path class="st2" d="M220.6,323.7c-6,0.4-9.5-3.4-12.2-8.2c-0.3-0.6-0.4-1.4-0.4-2.1c0.2-4.3,0.8-8.4,4.9-10.9
	c0.7-0.6,1.3-1.3,1.7-2.1c1.6-2.2,2.8-2.2,3.9,0.3c1.4,3.1,4.5,4.3,6.8,6.4c0.6,0.5,1.6,0.4,2.3,0.6c2.6,0.9,2.9,1.8,1.4,4
	c-0.5,0.8-0.8,1.6-0.8,2.5c-0.4,3.1-1.3,6-3.7,8.2C223.6,323.5,222.1,324,220.6,323.7z"/>
<path class="st34" d="M474,376.7c1-2.8,2.6-5.4,4.5-7.6c3.1-3.7,7.6-5.8,12.4-5.9c3.8-0.2,7.6,0,11.3,0.6
	c7.7,1.6,12.2,6.4,13.1,14.3c0.3,2.2,0.4,4.5,0.6,6.7c-0.2,3.6-1.2,7.1-3,10.2c-0.7,1.4-1.9,2.5-3.3,3.1c-3.2,1.4-6.5,2.4-9.9,3.2
	c-1.4,0.4-2.9,0.2-4.2-0.5c-1-2.1,0.3-2.7,1.9-3.1c1.4-0.3,2.8,0.3,4.4,0.5c-1.6-0.8-3.6-0.7-3.7-3c0.1-0.3,0.2-0.6,0.4-0.8
	c2.1-1,4.4-0.6,6.6-1.3c5.5-1.7,7.7-4.9,7-10.5c-0.1-0.4-0.1-0.8-0.1-1.2c0-11.6-7.8-14.5-15.7-14.8c-1.7-0.1-3.5,0-5.2,0
	c-6.6,0.2-12.9,7-13.5,12.7c-3.4,7,3,16.4,10.4,18.2c1.1,0.3,2.5,0.1,3.1,1.6c0.2,0.7,0,1.3-0.5,1.8c-0.8,0.7-1.9,0.9-2.9,0.3
	c-4-1.9-8.3-3.3-11.2-7.1c-2.3-3.1-4-6.4-3.9-10.4c0.1-1.3,0.1-2.7,0-4C472.6,378.4,473.1,377.4,474,376.7z"/>
<path class="st35" d="M270.2,105.9c0.1-3,0.1-3,2.9-3.7c1.8-0.4,3.6-0.7,5.5-0.7c4.1-0.1,8.1,0.2,12.2-0.5c3.9-0.7,6.5,1.9,6.5,6
	c0,2.7,0.1,5.3,0,8c-0.2,3.8,0.1,7.6,0.8,11.3c0.3,0.9,0.1,1.8-0.6,2.4c-0.4,0.3-0.9,0.7-1,1.1c-0.8,2.8-3,2.9-5.3,3
	c-0.9-0.1-1.8,0.1-2.7,0.4c-2.8,1.6-6,2.2-8.4,4.3c-1.9,1.6-3.6,0.7-4.1-1.5c-0.2-1.3-1-2.5-2.1-3.2c0.5-0.8,1.5-1,2.2-1.7
	c1.2-0.8,1.7-2.5,3.3-2.8c0.9,0.6,2.1,0.8,3.2,0.5c0.3-0.1,0.5-0.2,0.8-0.2c0.9-0.2,1.8-0.6,2.6-1c0.3-0.1,0.5-0.2,0.8-0.3
	c1.5-0.3,3-0.7,4.5-1.2c0.8-0.2,1.7-0.2,2.6,0c2.2,0.3,0.9-1.2,0.9-1.9c-0.6-4.4-1.1-8.7-0.3-13.1c0.6-3.1-1-4.4-4.2-4.5
	c-4.1,0-8.1,0.9-11.7,2.6c1.4,0.7,2.7-0.1,4-0.3c1.1-0.2,2.2-0.6,3.3-0.8c1.7-0.2,4.1-1.7,4.7,0.8c0.5,2.1-2.2,2.2-3.8,2.7
	c-1.3,0.4-2.6,0.5-3.9,0.9c-0.4,0.1-0.9,0.2-1.3,0.2c-1,0.2-2.5-0.2-2.5,1.5c0,1-0.8,2.6,1.3,2.7c0.4-0.1,0.9-0.1,1.3-0.1
	c2.6-0.2,5.2-0.6,7.7-1.4c1.4-0.3,3.1-0.6,2.4,1.9c-0.2,0.3-0.4,0.5-0.7,0.6c-0.8,0.2-1.7,0.4-2.5,0.6c-0.3,0.1-0.5,0.1-0.8,0.2
	c-0.8,0.1-1.6,0.2-2.4,0.4c-0.2,0.1-0.5,0.2-0.8,0.2c-0.8,0.1-1.5,0.3-2.3,0.7c-1.9,0.6-2.2,2.1-2.4,3.8c-0.1,0.3-0.3,0.5-0.5,0.7
	c-0.8,0.2-1.6,0-2.2-0.4c-0.7-0.6-1-1.6-0.7-2.5c0.6-2.7,0.1-5-2.3-6.6c-1.3-0.7-1.8-2.3-1.1-3.6c0,0,0,0,0,0
	c0.9-2.2-0.1-2.5-1.9-2.1C270.3,108.3,270,107.1,270.2,105.9z"/>
<path class="st36" d="M44.3,409.4v1.5c0.1,1.1-0.6,2-1.7,2.2c-0.2,0-0.5,0-0.7,0c-4.1-0.3-8.1,0.8-12.2,0.6c-1.2,0-2.5-0.1-3.6,0.9
	c0.6,1.2,1.7,0.9,2.6,0.9c4.5,0,9,0,13.5,0c0.6,0,1.2,0,1.8,0s1.6,0,1.5,1c-0.1,0.8-0.8,1.3-1.5,1.3c-5.5,0.1-11,0.2-16.5,0.1
	c-1.6,0.2-3.1-0.6-3.9-2c-0.5-0.9-1.2-1-2-0.3c-0.6,0.6-1.5,0.7-2.3,0.4c-2.1-0.8-4.2-1.6-6.2-2.5c-1.1-0.4-1.6-1.6-1.2-2.6
	c0,0,0-0.1,0-0.1c0.6-2.5,0.2-5.1,0.2-7.6c-0.1-2.2,0.5-4.3,1.8-6c1.6,0,1,1.2,0.9,2c-0.3,2,0.6,3.4,1.7,5.2c0.2-3.3,2.2-3.9,4.5-3
	c5.3,2.1,11.1,2.6,16.4,4.6c0.8,0.3,1.6,0.4,2,1.3c-0.3,0.9,0.1,0.9,0.8,0.9C41.8,408,43.3,408,44.3,409.4z"/>
<path class="st37" d="M115.8,459.8c0.3-0.4,0.8-0.7,1.3-0.6c1.1,0,1.8-0.4,1.7-1.6c0-1.5,1.1-1.8,2.1-1.4c1.2,0.4,2.4,0.1,3.4-0.5
	c0.9-0.5,1.9-0.8,2.9-0.8c2.6,0,5.1,0,7.7,0c1.3,0,2.4,0.4,2.7,1.6c0.5,1.8,2.2,2.7,2.9,4.3c0.3,0.7,1.1,0.9,1.8,1.1
	c2.4,0.6,4.4,2.4,5.2,4.8c0.5,1.6,1.7,2.8,3.3,3.4c1.8,0.7,2.8,1.9,2.5,4c-2.6,1.5-5.1,3-8.2,2.8c-1,0-1.9,0.7-2.7,1.2
	c-3.2,1.9-7.3,1.5-10.1-1.1c0.8-2.3,3.1-0.6,4.4-1.6c0-0.4-0.3-0.5-0.5-0.6c-3.2-1.4-3.2-1.4-1.1-4.3c0.5-0.6,0.8-1.4,1.4-2
	c0.5-0.5,1.4-0.5,1.9,0c0,0,0,0,0,0c-3.8-3.6-6.9-8.7-13.4-5.6c-0.5,0.1-0.9,0.1-1.4,0C120.7,462.5,117.8,462.3,115.8,459.8z"/>
<path class="st38" d="M345.3,167.3c0.2-0.7,1.4-1.1,0.6-2.1c-1.2-1.6-0.3-2.6,1-3.1s2.1-1.1,2.1-2.6c0.1-0.6,0.5-1.2,1-1.5
	c2.1-1.6,4.6-2.7,6.5-4.5c0.8-0.7,2-0.9,2.9-0.3c1.6,0.9,3.5,1,5.1,1.9c0.9,0.6,2.1,0.8,3.2,0.5c2.8-0.9,5.3,0,7.5,1.3
	c1.2,0.9,2.8,1.1,4.2,0.7c2.1-0.6,2.8,0,3.9,2.3c0.2,0.5,0.1,1-0.3,1.4c-2.3,4-5.8,6.9-8.6,10.5c-1.5,1.9-4,2.4-6.4,1.3
	c-0.7-1.1,0.4-1.3,1-1.8c0.8-0.7,2.1-0.8,2.6-1.8c-0.1-0.2-0.3-0.4-0.5-0.3c-5,0.8-5,0.8-4.1-4.2c0-0.4,0-0.8,0-1.2
	c-2.8-3-9.4-3.1-12.4-0.3c-0.5,0.5-0.9,1.1-1.4,1.6c-0.2,0.2-0.5,0.4-0.8,0.5c-1.5,0.6-2.6,2.1-4.3,2.3
	C347.3,168.2,346.2,168.4,345.3,167.3z"/>
<path class="st39" d="M39.4,407.5c-4.1-2.1-8.7-2.6-13.1-3.7c-0.5-0.1-1.1,0-1.5-0.3c-1.9-1.7-4.3-1.5-6.6-1.9c-1,1.1-0.1,2.3,0,3.5
	c-0.9,0.9-1.6,0.3-2.2-0.1c-1.3-0.8-0.9-2.5-1.6-3.5c-0.9-1.2-0.9-2.1,0.1-3.1c0.4-0.4,0.1-1-0.4-1.3l0,0c-0.4-0.6-0.4-1.3,0-1.8
	c0.3-1.6-0.8-3.9,2-4.5c0.4-0.1,0.5-0.6,0.5-1c-0.1-1.1,0.8-1.9,1.8-2c0.4,0,0.7,0.1,1,0.3c1.8,0.8,3,0,4.2-0.9
	c1.3-1.2,3.2-1.5,4.8-0.7c1,0.4,2.1,0.2,2.9-0.4c0.9-0.6,2.5-0.2,2.3,0.4c-0.8,2.9,2.8,4.4,2.2,7.2c-0.5,2.6-1.1,3.1-3.3,1.7
	c-1.1-0.7-1.8-1.9-2.6,0.5c-0.6,1.5-3,0.4-5,1.2c2.5,0.9,4.1,3.1,6.9,1.6c0.6-0.3,1.4,0.2,1.9,0.7c1.1,1,2.6,1.4,4,1
	c2.3-0.3,5.6,4,4.8,6.2C42,408.1,40.9,408.6,39.4,407.5z"/>
<path class="st40" d="M334.2,458c-0.2-0.9-0.6-1.7-1-2.5c-1.2-2.8-1.9-5.7,0.5-8.3c0.5-0.7,0.7-1.5,0.5-2.3
	c-0.1-2.6,0.1-5.3-0.9-7.9c-0.5-1.8-0.6-3.6-0.3-5.5c-0.1-1.3,0.9-2.4,2.2-2.4c0.1,0,0.2,0,0.4,0c1.7,0.1,1.9,1.2,1.9,2.6
	c0,2.5,0.4,4.9,1.2,7.2c0.4,3.3,0.5,3.4,3.5,2.7c6.2-1.3,11,3.5,9,10.2c-1.3,4.4-4.5,6.7-9.1,7.6C339.4,460,336.5,459.5,334.2,458z"
	/>
<path class="st41" d="M452.5,489.4c-4.3-0.1-7.6,0.3-10.6-1.6c-2.8-1.7-4.2-4.4-5.8-6.9c-0.3-0.6-0.3-1.2,0-1.8
	c1.7-5.3,4.4-9.6,10.1-11.5c0.3-0.1,0.6-0.2,0.9-0.3c4.1,0.1,8.1-1.3,12.2-0.4c1.6,0.2,3.3,0.3,4.9,0.1c4.1,0,7,2.6,9.6,5.3
	c1.6,1.7,1.4,4.3,0.5,6.4c-1.2,2.4-3,4.4-5.4,5.7c-2,1.2-4.2,2.1-6.3,3.1C459.3,489,455.9,489.6,452.5,489.4z"/>
<path class="st42" d="M368.2,173c2.9,0.4,5.7-0.1,7.3-2.8c1.4-2.4,3.2-4.5,5.3-6.2c1.1-1,1.9-2.6,2.8-4c0.3,0.3,0.6,0.6,0.5,1.1
	c-0.7,2.8-0.9,5.7-0.5,8.5c0.4,4.1-1.8,6.3-5,7.5c-6.3,2.5-12.4,5.5-18.6,8.3c-0.9,0.3-1.8,0.6-2.7,0.7c-2.4,0.6-2.2,0.4-3.5-1.9
	c-1.3-2.2-2.8-4.2-4.4-6.2c-0.5-0.8-1.1-1.5-1.6-2.2s-0.9-1.5-0.1-2.2c0.6-0.7,1.7-0.7,2.3-0.1c0,0,0.1,0.1,0.1,0.1l0.7,0.6
	c1.7,1.2,3.2,3,5.7,2.4c1,0,2-0.3,3-0.7c0.2-0.1,0.5-0.2,0.7-0.2c0.5-0.1,1-0.3,1.5-0.5c0.2-0.1,0.5-0.2,0.8-0.3
	c0.9-0.2,1.8-0.6,2.5-1.2C366,173.1,367,172.3,368.2,173z"/>
<path class="st43" d="M282.2,216.7c-3.4-0.1-6.3-1.2-8.1-4.1c-0.5-1-1.6-1.6-2.8-1.5c-3,0.1-5.9-0.7-8.8-0.7
	c-1.7-0.1-3.4-0.8-4.8-1.8c-0.6-0.3-0.9-0.9-0.7-1.6c0.3-0.6,0.9-0.9,1.5-0.9c0.4,0,0.8,0.1,1.2,0.2c3.4,1.2,7.1,0.8,10.6,1.5
	c1.9,0.4,2.2-0.2,1.6-2.2c-0.8-2.1,0.1-4.4,2.1-5.4c4.3-2.7,7.8-1.6,11.6,1.3c2.9,2.2,4.7,4.9,3.2,8.7c0,0.2,0,0.4,0,0.6
	C288.3,215.2,286.5,216.8,282.2,216.7z"/>
<path class="st44" d="M132.4,476.4c1.9,1.8,4.3,2.1,6.8,1.9c1,0.1,2-0.3,2.8-1c1.1-1.5,2.5-1.5,4.1-1.5c1.3,0.2,2.7-0.2,3.7-1
	c1-0.8,2.2-1.1,3.5-0.9c-2.4,3.6-5.9,6.1-8.3,9.7c-0.5,0.8-1.3,1.3-2.3,1.4c-2.6,0.1-5.1,0-7.7-0.2c-6.1-1-12.3-1.9-18.4-2.8
	c-1.1-0.1-2.2-0.5-3.1-1.3c-0.5-0.5-1.1-1.1-0.5-1.8c1-1.3,0.7-2.7,0.8-4.1c0-2.2,0-4.3,0-6.5c0-1.7,0.8-2.4,2.5-2.4
	c0.5,0.1,0.9,0.4,1.1,0.9c0.7,1.6-0.2,3.4,1,4.9c3.1,2,6.7,2.3,10.1,3.2C129.9,475.3,131.4,475.2,132.4,476.4z"/>
<path class="st45" d="M91.7,177.3c0,0.2,0,0.4,0,0.6c0,0.8,0.3,1.7-0.8,2.1c-0.8,0.3-1.7,0.1-2.3-0.5c-1.1-1.4-2.6-2.1-4-3.1
	c-3-2-5.9-4.2-9.5-5.4c-1.1-0.4-1.9-1.4-2-2.6c-0.4-2.4-2.5-4.2-5-4.1c-1.3,0-2.4-0.8-3-1.9c-0.1-0.6-0.2-1.2-0.4-1.8
	c-0.6-1.5-0.5-2.9,0.9-3.8c1.3-0.9,3-0.9,4.3,0c1.5,1.3,2.8,1,4.4,0.8c2.6-0.2,5.2-0.7,7.5,1.4c1.3,1.1,3.4,0.3,5.1,0.3
	c1.4,0,2.2,0.4,2.1,1.9c-1.1,1.4-2.3,2.6-3.6,3.7c-1.6,1.3-3.8,0.3-5.8,1.6c2,0.8,2.9,2.1,3.9,3.7c0.9,1.4,3.2,2,4.8,2.9
	S91.5,175.3,91.7,177.3z"/>
<path class="st46" d="M39.4,407.5c0.6,0,1.2,0,1.8-0.1c0.6-0.2,1.2-1.1,0.8-1.4c-1.2-1.2-1.2-3-2.1-4.3c-0.5-0.8-1.6-1.1-2.4-0.6
	c-1.3,0.8-3,0.5-3.8-0.8c0-0.1-0.1-0.1-0.1-0.2c-0.9-1.3-1.9-1.4-3-0.1c-0.7,0.8-1.4,0.6-2.1-0.1c-0.8-1.1-2.1-1.7-3.4-1.7
	c-0.8,0-1.4-0.6-1.4-1.4c0-0.1,0-0.2,0-0.3c0.1-1,1.1-0.6,1.8-0.7c1.3,0,2.6,0,3.9,0c0.1-0.3,0.3-0.5,0.3-0.6
	c-0.2-0.7-1.2-1.4-0.3-2.1s1.5,0.1,2.2,0.4c1.1,0.5,1.6,1.9,3.1,2.1c0.7-1.1,0.4-2.3,0.4-3.5s0-2.7-2-1.5c-0.8,0.4-1-0.3-1-1
	c0.1-0.4,0.2-0.7,0.5-1c1.5-1.9,1.5-2-1.2-2.5c2-0.7,3.4-0.4,4.3,1.8s3.3,3.1,3.9,5.3c0.2,0.4,0.5,0.6,0.9,0.7
	c3.4,0.8,5.1,3.2,6.2,6.1c0.4,1,1.3,1.7,2.3,1.8c1.1,0.3,2.1,1,2.6,2c0.7,1.2,0.8,2.5-0.5,3.2c-2.1,1-3.2,3.4-2.7,5.6
	c0,0.3-0.3,0.7-0.5,1.1c-0.9-1.1-1.2-2.7-2.5-3.7c-0.2-0.7-0.3-1.6-1.3-0.6c-2.2-0.9-4.6-0.5-7-0.7
	C37.8,407.3,38.7,407.6,39.4,407.5z"/>
<path class="st47" d="M182.2,554.1c0.4,4.8-2.7,9-8.5,9.8c-0.8,0.1-1.6,0.3-2.4,0.5c-2.3,0.5-4.6-0.6-5.6-2.7
	c-1.6-3.3-1.7-6.7,0.7-9.8c0.9-1,1.2-2.4,0.7-3.6c-0.8-2.6-1.3-5.3-1.9-8c-0.3-1.3-0.3-2.7,0-4c0.1-0.9,0.8-1.5,1.6-1.6
	c1.1,0,1.3,0.8,1.3,1.7c0.1,3.2,1.1,6.2,1.8,9.3c0.2,0.7,0.4,1.4,0.8,2c0.4,0.7,1,1,1.8,0.5l0.5-0.4c4.1-2.9,9.7,0.9,9.3,5.6
	C182.3,553.5,182.2,553.8,182.2,554.1z"/>
<path class="st48" d="M528.7,112.9c0.4,2-0.4,4.1-2.1,5.3c-1.1,0.9-2,2.1-3.1,3c-2.3,1.9-4.6,1.8-6.9,0c-2.9-2.3-5.2-5-4.1-9.1
	c0.3-1.1-0.4-1.4-1-2c-2.7-2.4-5.7-4.7-8-7.6c-0.2-0.3-0.6-0.6-0.8-1c-0.7-1.1-0.7-3.1,0.1-3.4c1.4-0.6,2.1,0.6,2.7,1.4
	c2,3.1,4.8,5.2,7.6,7.5c1,0.8,1.6,0.9,2.3-0.6c2.1-4.4,6.3-5.1,9.8-1.5C527.3,107.2,529.2,109.5,528.7,112.9z"/>
<path class="st49" d="M199.4,87c0,5.3-3.2,9-8.4,9.6c-1.3,0.3-2.6,0.5-3.9,0.6c-1.5,0-2.9-0.6-3.8-1.8c-1.9-2.5-2.8-7.6,0.2-10.8
	c1-0.9,1.4-2.3,0.9-3.6c-0.7-2-1-4.2-1.7-6.2c-0.5-1.9-0.6-3.9-0.4-5.8c0-1,0.4-1.9,1.6-1.8s1.5,1,1.4,2c-0.3,3.7,1.2,7,2,10.5
	c0.4,1.6,1,1.8,2.4,1C194.9,78,199.4,80.9,199.4,87z"/>
<path class="st50" d="M357,177.2c-2.8,0.6-5.2,0.1-6.2-3c0.6-1,0.7-1.6-0.8-1.8c-2.5-0.3-4.5-2.1-5.1-4.6c0-0.1,0.2-0.3,0.3-0.5
	c2.3,0.5,4.6-0.3,6.2-1.9c0.2-0.3,0.8-0.2,1.1-0.3c0.4,1.3,1,2.2,2.5,1.7c2.8-1,6.2,0.4,8.7-2.5c1.1-1.3,3-0.8,4.2,0.7
	c0.2,1,0,2-0.6,2.9c-0.8,1.1,0.1,1.5,1,1.3s2.1-0.7,3.2-1c0.7-0.3,1.4,0.1,1.7,0.7c0,0,0,0,0,0.1c0.2,0.6-0.1,1.3-0.7,1.5
	c-1.5,0.9-3,1.6-4.4,2.4l-3.2,1.3c-0.8,0.8-2,0.7-2.9,1.2l-0.2,0.1c-0.5,0.4-1.2,0-1.7,0.5l-0.2,0.1
	C359,176.5,357.9,176.4,357,177.2z"/>
<path class="st51" d="M117,466.6l-0.7-0.6c-1.1-2,0.1-4.1-0.6-6.1c0.1,0,0.2,0,0.3,0c2.4,1.3,5,1.8,7.6,2.4c0,0.5-1.2,0.7,0.1,1.5
	c3.6,2.2,7.3,3.6,11.6,3.1c0.7,0.3,1.2,0.9,1.3,1.7c0.3,2.2-2.1,2.8-2.7,4.5c1.1,0.6,2.2,1,3.4,1.2c0.6,0.1,1.1,0.7,1,1.4
	c-0.1,0.8-0.7,0.9-1.4,0.9h-4.6c-4.4-0.2-8.4-2-12.7-2.8c-1-0.1-1.9-0.7-2.4-1.7C116.9,470.2,117.8,468.4,117,466.6z"/>
<path class="st52" d="M167.4,421c-0.6-1.3-1.8-1.1-2.9-1.2c-1.8-0.1-3.6,0.2-5.4-0.5c2-0.7,3.5-1.6,3.6-3.9c0-0.6,0.7-1,1.4-1
	s1.2,0,1.8,0c3.9-0.1,4.4-0.7,4.6-4.7c0.1-3.7-0.3-7.3,0.3-11c0.4-2.1-1.2-3.9-3.4-4.5c-0.6-0.1-1.2-0.1-1.8-0.2
	c-0.6-0.1-1.1-0.6-1.2-1.3c-0.1-0.6,0.3-1.2,0.8-1.5c2.7-1.7,6.3-0.9,8,1.8c0.3,0.4,0.5,0.9,0.6,1.4c0.6,1.4,0.8,3,0.8,4.5
	c-0.1,4.5,0,9,0,13.5c0,2.7-0.4,5.5-1.2,8.1C171.5,420.5,169.4,420.3,167.4,421z"/>
<path class="st53" d="M344.7,366.3c0,1-0.4,1.8-1.4,1.5c-1.7-0.4-3.4-0.5-4.9-1.5c-2.1-1.4-4.6-1.1-6,1c-2.8,4.3-4.4,9.2-4.9,14.3
	c-0.2,2.4,0,2.4,2.3,3.3c1.6,0.5,3.1,1.1,4.5,1.8c1.7,1,4.6-0.3,5.9-2.5c0.3-0.6,0.6-1.3,0.8-2c0.8-2.9,0.8-2.9,4.2-3.2
	c0.1,2.5-0.6,5-2.2,7c-0.5,0.7-1.4,1.2-1.4,2.3c-1.1,3.1-3.1,4.3-6.8,3.7c-1.2-0.4-2.3-0.8-3.5-1.1c-1.7-0.4-2.6-1.1-2.7-3.1
	s-0.9-2.3-2.9-2c-2.3,0.3-2.8-0.3-2.2-2.6c0.9-3,1.9-6,3.2-8.9c1-2.4,2-4.7,2.9-7.1c0.6-1.1,0.8-2.3,0.7-3.5
	c-0.2-1.2,1.2-2.3,2.2-1.8C336.3,364.3,340.9,364,344.7,366.3z"/>
<path class="st54" d="M276.4,131.8c-0.5,0.9-1.5,1.4-2.5,1.2c-4-0.1-6.8-2.3-9.2-5.3c-1.2-1.5-1.9-3.4-2-5.3
	c-0.4-5.3,1.2-10.6,4.4-14.8c0.8-1.1,1.6-1.9,3-1.7c0.8,0.8,1.1,2,0.7,3.1c0.1,0.5-0.2,0.8-0.6,1c-4.1,4.3-5,12-1.8,16.6
	c-1.8-4.3-2.5-8.3,0-12.3c1.8-0.5,3.1-0.3,4.1,1.7s3.5,2.9,4.3,5.3c0.1,0.8-0.3,1.8,0.6,2.4c0.9,2-0.5,2.7-1.9,3.5
	c-1,0.6-2.4,0.6-3.3,1.6C273.2,130.7,276.2,129.3,276.4,131.8z"/>
<path class="st55" d="M99.1,99l-4.3,3.8c-1.3,0.9-2.7,1.7-4,2.7s-2.6,1.3-3.4-0.6c-0.3-0.9-0.5-1.8-0.6-2.7c-0.2-1.8,1-3.1,2.1-4.2
	c1.4-1.1,1.7-3,0.6-4.4c-0.1-0.2-0.3-0.3-0.4-0.4c-2.8-3.2-5.7-6.2-8.5-9.3c-0.9-1-2.4-1.3-3.6-0.7c-1,0.4-2,1.2-3.2,1
	c-2.3-0.9-2.3-2.2-0.9-4c3.4-4,7.3-4.4,11-0.5c5,5.3,10.2,10.3,14.3,16.3C98.8,97,100,97.7,99.1,99z"/>
<path class="st56" d="M112.7,370.6c0,0.5,0,1-0.1,1.5c-0.1,0.9-0.6,1.5-1.5,1.5s-0.9-0.9-0.9-1.6c0-0.5-0.1-1-0.5-1.4
	c-2.3-1.9-3.8-4.5-6.2-6.3c-2.8-2.3-6.4-3.3-10-2.8c-0.3,0.1-1-0.3-0.9,0.6c0.1,0.2,0.1,0.5,0.2,0.8c-0.1,0.9-0.2,1.8-0.4,2.7
	c-0.5,2.9,0.6,4.2,3.4,3.6c1.6-0.3,3.2-0.4,4.8-0.3c1.5,0.2,2.8-0.7,3.3-2.1c2.8,0.2,4.5,1.9,5,5.1c0.3,0.6,0.4,1.1,0.6,1.7
	c0.2,0.9-0.4,1.7-1.2,1.9c-0.8,0.3-1.7,0-2.2-0.8c-1.8-2.4-1.8-2.4-4.7-1.3c-0.3,0.1-0.7,0.3-0.8,0.2c-1.6-1-3.9-0.5-5.1-1.6
	c-1.8-1.7-3.4-0.8-5.1-0.8c-1.5-2-0.4-4.3-0.6-6.6c-1.7,0.3-1.9,2.3-3.2,2.9c-0.6-1.4-1.9-2.6-1.7-4.3c1.3-0.8,2-2.1,3.3-3.1
	c3.1-2.3,6.6-2.5,10.2-2.4c0.3,0,0.6,0.1,0.9,0.2C105.1,360.6,110,364.5,112.7,370.6z"/>
<path class="st57" d="M261,400.7c0,1.6-0.2,3.3,1,4.7c0.4,0.6,0.5,1.4,0.1,2.1c-0.8,1.2-1.2,2.6-1.2,4c0,0.3-0.2,0.6-0.6,0.6
	c-0.3,0-0.6-0.1-0.8-0.4c-0.7-1.3-1-2.7-1-4.1c0-2.7,0-5.5,0-8.6c-2.2,1.3-2.6,3.3-3.7,4.8c-0.1-0.4-0.4-0.8-0.3-1.2
	c2.4-6.8,6.1-12.2,13.8-13.6c2.3-0.4,4.5-1.5,6.9-1.2c0.6,0,1.2,0,1.8,0.2c2.6,0.9,5.2,1.8,7.6,3c4.3,2,6.8,5.6,8.6,9.9
	c1.1,2.6,0.9,5.4,0.8,8.1c0,0.7-0.5,1.4-1.1,1.8c-1.5,0.9-2.5,2.4-3.8,3.5c-1-1.8,0.7-2.8,1.1-4.2c3.3-11.4-6.5-18.8-14.6-19
	c-3.6-0.1-7.1,0.1-10.5,1.6c-2.2,0.9-4,2.6-4.9,4.8C260,398.6,259.6,399.9,261,400.7z"/>
<path class="st58" d="M99.1,99c-0.9-2.6-2.8-4.5-4.5-6.4c-2.3-3-4.9-5.8-7.6-8.3c-1-0.8-1.9-1.8-2.6-2.9c-1.3-2.3-3.8-2.5-5.8-3.7
	c-0.8-0.5-1.8,0.1-2.6,0.7c-0.9,0.7-1.7,1.4-2.5,2.3c-1.5,1.5-1.5,1.5,0.3,3.1c1,1.8,0.1,2.7-1.5,3.2c-0.6-1.7-1.2-3-3.4-1.6
	c-1,0.6-2.2,0.3-2.8-0.7c-0.1-0.1-0.1-0.2-0.2-0.4c0.4-2.1,2.2-3.1,3.6-4.4c1.7-1.5,3.4-2.9,5.3-4.2c1.8-1.5,4.3-1.7,6.3-0.5
	c2.1,0.9,3.9,2.3,5.3,4c3,4,6.9,7.3,10.3,10.9c1.4,1.5,2.6,3.1,3.5,4.9C101.3,97.2,101.3,97.3,99.1,99z"/>
<path class="st59" d="M415.5,104.7c0.1,2.6,1.6,4.8,2.7,7c2,4.1,3.4,8.5,3.9,13c0.1,0.9-0.1,1.3-1,1.4h-0.4c-0.7,0.2-1.6,0-2.2,0.5
	c-0.4,0.4-0.7,1-1.1,1.4c-0.9,2.6-3.3,3.2-5.1,1.1c-1.1-1.3-1.8-1.4-2.7-0.3c-1.1,1.2-3,1.4-4.2,0.3c-0.2-0.2-0.5-0.5-0.6-0.7
	c-1.1-1.8-3.3-3.3-2.4-6.1c0.2-0.6-1-1.4-1.4-2.2c-0.3-0.6-0.1-1.2,0.9-1.1c1.2,0.2,2.2,0.7,2.3,2.1c0.3,4,3.5,4.8,6.4,6.1
	c0.5,0.3,1.1,0.1,1.4-0.3c1.1-1.7,2.8-1.8,4.5-2.1c2.6-0.5,3.1-1.5,2.3-4.2c-0.5-1.3-0.7-2.8-0.7-4.2c0.1-0.3,0.1-0.6-0.1-0.9
	c-2-3-2.7-6.8-5.2-9.6c-0.5-0.4-1-0.7-1.6-0.8c-0.7-0.2-1.5-0.8-1.4-1.4c0.1-1,1.3-0.8,2-1C413.9,102.1,414.1,102.2,415.5,104.7z"/>
<path class="st60" d="M291.1,410.5c-0.5,1.3-1.8,2.3-1.8,3.8c-1.1,0.9-2.1,1.8-3.1,2.8c-1.3,1.5-3,2.4-4.9,2.7c-1.6,0-3.1,0.7-4.7,1
	c-1.9,0.3-3.8,0.5-5.4-1.2c4.1-0.9,6.2-4,8.4-7c0.7-1.1,1.6-2.1,2.6-2.8c2.2-1.2,3.5-3.5,3.4-6c0.2-0.1,0.5-0.1,0.6,0.1
	c0.7,2.2,2.2,4.1,4.1,5.3C290.7,409.5,290.8,410,291.1,410.5z"/>
<path class="st61" d="M88,104.6c0.1,1.1,0.7,1.5,1.7,0.9c0.6-0.4,1.1-0.9,1.6-1.4c0.8-1.1,2.2-1.6,3.5-1.3c0.2,2.4-1.9,3.3-3.2,4.6
	s-2.8,2.4-4.1,3.6c-1.9,1.8-3.5,2-5.4,0.2c-4.3-4.3-9.2-8.1-12-13.7c-1.2-2.2-3.4-3.8-4.1-6.4c1.3-2.2,2.2-2.3,3.9,0
	c2.7,3.5,4.8,7.4,7.8,10.7c0.6,0.6,1,1.3,1.6,1.9c1.3,1.2,2.2,2.9,3.8,3.5c1.9,0.7,2.4-1.9,3.9-2.4C87.2,104.6,87.6,104.5,88,104.6z
	"/>
<path class="st62" d="M88,104.6c-1.4,0.9-2.5,2-3.5,3.4c-0.7,1-1.3,0.8-1.9,0.1c-3.5-3.4-6.9-6.8-9.5-11c-1.3-2.1-2.8-4-4.2-6
	c-1.1-1.5-1.2-1.5-3,0.1c-2.5-2.7-2.5-3.5,0-6.8c1.4,0.7,2.9,1.1,4.2-0.3c0.7-0.7,1.4-1.2,2.3-0.3s0.1,1.4-0.2,2.1
	c-0.1,0.3-0.2,0.6-0.2,0.9c-0.4,2.9,0.7,5.8,2.8,7.7c1.4,1.3,2.5,3,3.8,4.4c1.9,2.1,3.7,4.2,7,2.4c0.7-0.4,1.3,0.2,1.7,0.9L88,104.6
	z"/>
<path class="st63" d="M13.5,138.5c-0.9-1.8-2.7-2.7-3.7-4.4c0.5-0.6,1.3-0.8,2-0.4c3.8,1.3,6.8,3.3,6.8,8.5c0.1,2.7,0,5.5-0.4,8.2
	c-1,5.9-4.3,9.4-10,10.8c0.4-0.9,1.2-1.7,2.2-1.9c1-0.4,1.8-1.3,2-2.4c2-5.8,2.1-11.7,1.6-17.7C14,139,13.7,138.8,13.5,138.5z"/>
<path class="st64" d="M158.2,389.6c1.3,0.9,2.4,2.2,4.3,1.9c0.7-0.1,1.1,0.4,1.1,1.1s-0.4,1-1,1.3c-4.8,1.9-5.6,3-5.6,8.1
	c0,3-0.1,5.9,0,8.9c0,2.4,0.6,3,3,3.3c0.8,0.1,1.7,0,1.8,1.1c0.1,1.1-0.6,2.1-1.6,2.4c-1.4,0.5-2.8,0-4.2,0.6
	c-0.6,0.2-0.9-0.4-1.1-0.9c-0.3-0.8-0.4-1.6-0.4-2.4c-0.3-6.1,0.3-12.2,1.6-18.2c0.5-2.1,0.2-2.4-2.2-2.9
	C154.1,390.7,155,389.9,158.2,389.6z"/>
<path class="st63" d="M254.8,406.9c0.8,0.5,1.2,1.4,1.2,2.4c0,1.4,0.7,2.6,1.9,3.3c3.4,3,7.2,5.5,11.4,7.5c2.6,1.4,5.6,1.8,8.5,1.4
	c0.8-0.2,1.6-0.4,2.4-0.4c-2.4,3.3-5.5,4.9-9.5,4.2c-2.3-0.4-4.2-2.1-6.3-3c-3-1.4-5.1-3.8-7.3-6c-1.5-1.5-2.3-3.5-2.2-5.6
	C254.9,409.4,254.8,408.1,254.8,406.9z"/>
<path class="st65" d="M446.9,60.3c-0.6-0.2-1.1-0.4-1.7-0.5c-1.5-0.2-1.5-1.3-1.2-2.3c0.4-1.6,3.5-3.1,5-2.6
	c1.1,0.4,0.9,1.5,1.1,2.3c0.1,0.3,0.3,0.5,0.6,0.4c0,0,0,0,0.1,0c0.2-0.1,0.5-0.5,0.5-0.7c-0.1-1-0.5-1.9-1.2-2.7
	c-0.3-0.3-0.5-0.7-0.2-1.1s0.8-0.8,1.3-0.5c0.9,0.7,1.1,0.3,1.8-0.5c0.9-1.1,2.5-1.2,4-1.1c0.7,0,0.9,0.6,1.3,1.1
	c1.9,2.7,0.7,5.3-0.3,7.8c-0.2,0.7-1,1.1-1.7,0.9c-0.2-0.1-0.4-0.2-0.6-0.4c-0.8-0.5-1.3-0.8-2.1,0s-1.7,0.4-2.5-0.2
	c-1.1-0.9-2.8-0.9-3.9,0L446.9,60.3z"/>
<path class="st66" d="M432.7,527h-1.8c-1,0.3-2.1,0.3-3.1,0l-1.1-0.2c-0.5-1.7,0.4-3.6,2.1-4.3c1.9-1,3.5-2.8,6-2.1
	c0.7,0.2,0.9-0.2,1.1-0.7s0.3-0.9,0.6-1c1-0.5,2.1-0.7,3.2-0.8c1.6,0,0.8,1.6,1.2,2.4c1.1,2.2,0.2,4.4-0.3,6.6
	c-0.2,0.7-0.8,1.5-1.5,0.9c-1.3-1-2.4-0.5-3.7-0.3C434.5,527.4,433.6,527.3,432.7,527z"/>
<path class="st67" d="M341.5,112.5c-0.9,0.1-1.8-0.4-2.1-1.3c-0.3-0.8,0.3-1.4,0.9-1.8c3.3-2.5,7-4.7,10.8-6.4
	c1.8-0.8,4-0.4,4.5,0.6c0.4,0.7-0.8,3.5-2.1,4.1c-3.8,1.6-7.3,4-11.5,4.7L341.5,112.5z"/>
<path class="st67" d="M235.7,377.3c-1,0-1.8-0.1-2.2-1c-0.3-0.8,0-1.7,0.8-2.1c3.7-2.4,7.1-5.2,11.4-6.4c1.4-0.4,3.1-0.9,3.9,0.7
	s-0.7,2.9-1.7,3.6c-3.7,2.2-7.6,4-11.7,5.2C236,377.3,235.8,377.3,235.7,377.3z"/>
<path class="st68" d="M379.5,227.8c-1.6,0-2.1-0.6-1.5-2.1c1.5-3.8,2.7-7.6,5.5-10.8c0.6-0.8,1.6-1.3,2.6-1.2c1.2,0.1,1.9,0.8,1.6,2
	c-0.8,4.3-2.1,8.3-5.8,11C381.1,227.3,380.4,227.9,379.5,227.8z"/>
<path class="st69" d="M66.2,316.4c0.3,0.1,0.6,0.2,0.9,0.4c3.6,2.9,6.1,6.5,6.7,11.2c0.2,0.8,0,1.6-0.6,2.3c-0.7,0.7-1.4,1-2.1,0.2
	c-2.7-3.2-5.5-6.4-6.9-10.4c-0.2-0.8-0.2-1.6-0.1-2.4C64.3,316.8,65,316.4,66.2,316.4z"/>
<path class="st70" d="M390.2,354c1,0,1.8,0.5,2.2,1.4c1.5,2.8,3,5.5,4.5,8.3c0.4,0.8,0.6,1.7,0.7,2.6c0,1-0.5,1.8-1.4,2.2
	c-0.9,0.5-1.6,0-2.2-0.6c-0.5-0.4-0.8-0.9-1.1-1.4c-1.1-3.1-3.3-5.6-4.6-8.6C387.5,355.9,388.3,354.1,390.2,354z"/>
<path class="st71" d="M10.6,11.1c1,0,1.9,0.5,2.4,1.4c1.9,2.6,4,5.1,5.8,7.9c1,1.5,1,2.2-0.1,3.1c-0.9,0.8-2.2,0.8-3.1-0.1
	c-0.1-0.1-0.1-0.2-0.2-0.2c-1-1.1-2-2.3-2.9-3.5c-1.4-1.8-2.7-3.6-3.9-5.5C7.5,12.1,8.2,11,10.6,11.1z"/>
<path class="st72" d="M525.3,58.4c-2.7-0.7-5.3-1.2-7.8-2c-1.3-0.5-2.7-0.9-4.1-1c-1.1,0.1-2-0.7-2.2-1.8c-0.2-0.9,1.1-2,2.4-1.8
	c3.5,0.7,7.1,0.4,10.6,1.3c1.1,0.3,2,1,2.8,1.8c0.7,0.6,0.9,1.7,0.4,2.5C526.9,58.2,526.1,58.6,525.3,58.4z"/>
<path class="st73" d="M507.1,525.1c-3.3-0.8-7.3-1.8-11.2-2.9c-0.9-0.2-1.7-0.8-1.5-2c0.2-0.9,1.1-1.5,2-1.3c0.1,0,0.1,0,0.2,0
	c4.1,0.6,8.3,0.7,12.3,2c1,0.4,1.7,1.2,1.9,2.3C511.2,524.4,509.9,525.2,507.1,525.1z"/>
<path class="st12" d="M26.3,93c-4.3-0.9-8.4-2.4-11.4-5.8c-0.9-1-0.6-1.9,0.8-2.2c1.3-0.2,2.7,0,3.8,0.8c2.4,1.5,5,2.7,7.7,3.7
	c0.9,0.3,2.4,0.8,2,2.2C28.8,92.8,27.6,93,26.3,93z"/>
<path class="st74" d="M282.4,164.4c-2.5,0.2-5.3-0.5-8.1-0.9c-1.1-0.1-2.8-0.4-2.6-2s1.8-1.3,2.9-1.4c3.6-0.1,7.1,0.2,10.6,1.1
	c0.4,0.1,0.8,0.2,1.2,0.3c0.8,0.3,1.6,0.7,1.5,1.7s-0.9,1.2-1.8,1.3C284.9,164.4,283.8,164.4,282.4,164.4z"/>
<path class="st75" d="M283.2,474c0.9,0,1.8,0.1,2.2,0.9s-0.1,1.3-0.5,1.9c-1.6,2.4-3.1,4.8-4.6,7.2c-0.3,0.5-0.7,1-1,1.5
	c-0.4,0.6-1.3,0.8-1.9,0.5c-0.7-0.3-1-1.1-0.8-1.8c0.2-1.6,0.7-3.2,1.4-4.7c0.8-1.3,1.5-2.7,2.3-4C280.8,474.4,282,473.8,283.2,474z
	"/>
<path class="st76" d="M300,7.4c0.7,0.1,1.6-0.3,2.1,0.7s0,1.5-0.6,2.2c-1.5,1.9-2.8,4-3.6,6.3c-0.4,0.8-1,1.6-1.7,2.1
	c-0.5,0.5-1,1.1-1.8,0.6c-0.8-0.4-1.2-1.2-1.1-2c0.5-3.5,2.5-6.4,4.4-9.2C298.2,7.3,299.1,7.4,300,7.4z"/>
<path class="st77" d="M43.6,208.7c-1.4,0-2.4,0-2.7-1.1s0.6-1.4,1.2-1.9c2.6-2.3,5.9-3.2,8.9-4.7c0.8-0.5,1.9-0.2,2.4,0.7
	c0,0,0,0,0,0c0.5,0.8,0.3,1.9-0.5,2.5C50.2,206.3,47,207.9,43.6,208.7z"/>
<path class="st78" d="M128,210.8c-0.1-0.5,0.1-0.9,0.5-1.2c0.8-0.4,1.4,0,1.9,0.5c2.9,2.7,4.7,6.1,6.7,9.5c0.2,0.5,0.3,1,0.2,1.5
	c0.1,0.6-0.3,1.2-0.9,1.5c-0.5,0.2-1.1,0-1.4-0.4c-0.8-0.7-1.5-1.4-2.1-2.2c-1.3-1.7-2.5-3.5-3.7-5.3
	C128.4,213.5,127.9,212.2,128,210.8z"/>
<path class="st79" d="M361,459.2c1.2,0.3,2.2,1.2,2.8,2.3c1.6,2.3,3.1,4.7,4.6,7.1c0.4,0.7,0.7,1.5,0.8,2.3c0.2,0.6-0.1,1.3-0.7,1.6
	c-0.5,0.4-1.2,0.3-1.7-0.1c-0.8-0.6-1.5-1.4-2.1-2.2c-1.2-2.2-2.6-4.4-4.1-6.4c-0.6-0.8-0.9-1.8-1-2.8
	C359.5,459.9,360.1,459.4,361,459.2z"/>
<path class="st80" d="M103.9,143.9c-0.9,0-1.7-0.7-1.7-1.6c0-0.2,0-0.3,0.1-0.5c0.2-0.7,0.6-1.3,1.2-1.8c2.2-2.3,4.5-4.4,7-6.4
	c0.7-0.7,1.8-0.8,2.5-0.2c0.1,0,0.1,0.1,0.2,0.2c0.7,0.6,0.8,1.6,0.3,2.4c-0.1,0.1-0.2,0.2-0.3,0.3c-1.7,1.7-3.5,3.4-5.4,4.9
	c-0.8,0.6-1.6,1.2-2.4,1.9C104.8,143.6,104.4,143.8,103.9,143.9z"/>
<path class="st81" d="M471.1,132.9c3.1,1.5,6.9,2.5,9.7,5.3c0.6,0.5,0.7,1.4,0.3,2c-0.4,0.7-1.1,1-1.9,0.8c-3.2-1.3-6.6-2.1-9.3-4.4
	c-0.8-0.7-1.1-1.8-0.8-2.8C469.4,133,470,133,471.1,132.9z"/>
<path class="st82" d="M222.3,144.4c0,1.7-1.2,2.5-2.6,1.6c-2.7-1.5-5.1-3.5-7.1-5.8c-0.6-0.6-0.9-1.4-0.9-2.2
	c0.1-1.6,1.1-2.3,2.4-1.4c2.6,1.9,5,3.9,7.4,5.9C222.1,143,222.3,143.7,222.3,144.4z"/>
<path class="st79" d="M209.5,474.6c-1-0.1-1.3-0.5-1.4-1.2c-0.1-0.8,0.1-1.7,0.6-2.3c1.8-2.7,3.5-5.5,5.3-8.2c0.4-0.6,1-1.1,1.7-1.2
	c1.1-0.2,2.1,0.5,1.6,1.5c-1.8,3.9-3.5,7.8-6.6,10.9C210.3,474.4,209.9,474.6,209.5,474.6z"/>
<path class="st83" d="M57,57.8c0.4,0,0.1,0-0.2,0c-1.1,0.1-2.1-0.6-2.3-1.6c-0.2-1.2,0.8-1.8,1.9-1.9c1.9-0.3,3.8-0.8,5.6-1.6
	c1.4-0.4,2.8-0.5,4.2-0.3c0.8,0,1.4,0.6,1.4,1.4c0.1,0.6-0.3,1.2-0.9,1.5C63.8,56.6,61,57.9,57,57.8z"/>
<path class="st84" d="M353.7,315.3c1-0.1,2-0.1,3.1,0c1.1,0,2,0.9,2,2c0,1.3-1.1,1.5-2.1,1.7c-2.8,0.5-5.7,0.7-8.5,0.6
	c-1.1,0-2.1,0-2.1-1.5c-0.2-1.1,0.6-2,1.6-2.2c0.1,0,0.2,0,0.4,0C349.8,315.5,351.7,314.8,353.7,315.3z"/>
<path class="st83" d="M145.5,294.9c-0.8,0-1.6,0-2.4,0c-0.8,0-1.4-0.6-1.4-1.3c-0.1-0.7,0.3-1.4,1.1-1.6c0,0,0,0,0.1,0
	c2.5-0.4,4.6-1.6,6.9-2.3c0.9-0.2,1.8-0.3,2.7-0.2c0.9,0,1.6,0.3,1.9,1.2c0.2,0.8-0.2,1.7-1,2C150.9,294,148.4,295.1,145.5,294.9z"
	/>
<path class="st85" d="M40.9,524.4c-0.6,0-1.3,0-1.9,0c-0.7-0.1-1.3-0.7-1.3-1.4c-0.1-0.6,0.3-1.2,0.9-1.4c3.2-0.9,6.4-1.8,9.7-2.5
	c1-0.1,1.9,0.5,2.1,1.5c0.4,1.1-0.4,1.7-1.3,2.1C46.6,523.7,44.2,524.7,40.9,524.4z"/>
<path class="st86" d="M334.9,392.2c2.6-0.6,5.3-1.2,6.8-3.7c1.8,0.1,1.8,1,1,2.2c-0.9,1.4-1.8,2.7-1.6,4.4c-2.7-0.5-5.5,0-8-1
	C333.3,393.1,334.3,392.9,334.9,392.2z"/>
<path class="st87" d="M498.6,395.2c0.4,1.8,1.9,1.8,3.3,1.9c0.6,0,1.3,0,1.5,0.7c0.1,0.4,0,0.8-0.3,1.1c-0.4,0.6-1.2,0.7-1.8,0.3
	c0,0,0,0,0,0c-0.9-0.7-2-1-3.1-0.9c-1.8,0-2.7,0.6-2.6,2.5h-4.9c0-0.6,0-1.3,0-1.9C492.7,396.5,495.6,395.8,498.6,395.2z"/>
<path class="st88" d="M381,1.8c1.2-1.1,2.6-0.7,4-0.4c0.6,0.2,1.3,0.4,2,0.5c0.1,1,0.2,2,0.2,3c0,0.8,0.1,1.7-0.8,2.1
	s-1.6-0.2-2.2-0.6c-1-0.7-1.7-1.6-2.2-2.7C381.7,3,381.7,2.2,381,1.8z"/>
<path class="st36" d="M45.6,410c2.4,0.8,2.4,0.8,2.5,3.7c-1.2,1.1-2,0.5-2.4-0.8C45.5,412,45.5,411,45.6,410z"/>
<path class="st36" d="M14.1,395.2c0,0.6,0,1.2,0,1.8C13.4,396.4,13.4,395.8,14.1,395.2z"/>
<path class="st89" d="M488.1,10.2c-0.1,1.3-0.8,2.6-1.9,3.4c-3.5,2.9-7.8,4.5-12.3,4.8c-0.8,0-1.6,0.3-2.3,0.7
	c-0.6,0.6-1.6,0.7-2.4,0.1c1.7-1.9,4.3-1.9,6.3-2.9s4.2-2.1,6.3-3.1S485.8,10.9,488.1,10.2z"/>
<path class="st90" d="M134.6,8.7c5.3,2.9,11.3,3.8,17.2,5.2c-0.6,1.1-1.5,0.9-2.2,0.8c-4.3-0.6-8.7-1.1-13-1.8
	C134.2,12.5,133.9,11.5,134.6,8.7z"/>
<path class="st91" d="M11.1,55.7c0.3,1.3-0.6,2.4-1.4,3.7C9.3,60,9.1,61,8,60.8c-1.5-0.3-2.8-1.3-3.5-2.7c-0.5-0.9,0.2-1.5,0.8-2.2
	c0.9-0.7,1.6-1.5,2.3-2.4c0.5-1,1.6-1.4,2.6-1.1c1.2,0.4,0.8,1.5,0.9,2.3C11.1,55.1,11.1,55.4,11.1,55.7z"/>
<path class="st16" d="M439.6,225.3c0.1-3.9,1-5,4.8-5.3c5.1-0.5,10.3,0.2,15.1,2.1c1.1,0.6,2.4,0.4,3.3-0.4
	c14.6-10.5,31-16.4,48.8-18.7c6.1-0.9,12.2-1.2,18.4-1l-0.1-0.1c1.1,1.2,1,2.6,1,4.1c0,43.5,0,86.9,0,130.4c0,1.4,0,2.9-1,4.1l0.1,0
	c-12.1,0.1-24.2-1.6-35.8-4.9c-12.8-3.8-24.7-9.4-35-17.9c-12.5-10.3-20.1-23.4-21.9-39.5c-0.9-7.2-0.5-14.6,1.4-21.7
	c0.4-1.3,0.6-2.6,1-3.9c6.3-1.3,12.7-1.9,19.2-1.6c2.5,0.1,4.9-0.3,7.2-1.2c1.9-0.5,3-2.4,2.7-4.3c-0.5-4.6-0.9-9.2-1.1-13.8
	c0-0.9-0.3-1.8-0.6-2.7c-1.3-3-2.5-3.3-4.4-0.7c-2,2.8-4.6,1.9-7.2,1.6c-0.1-0.1-0.2-0.1-0.2-0.2c-0.5-2.1,0.4-5.1-2.3-6
	c-3.5-1.1-7.3-1.6-10.2,1.8c-0.1,0.1-0.3,0.3-0.5,0.4C441.1,226.2,440.4,225.6,439.6,225.3z"/>
<path class="st92" d="M454.9,229.6c0.5,0,1-0.1,1.5-0.2c1.5-0.6,3.3,1.1,4.3-0.3c0.9-1.3,2.1-2.2,2.9-3.4s1.5-0.8,2.1,0
	c1.6,1.6,2.5,3.7,2.7,6c0.1,4.8,0.5,9.6,1.2,14.3c0.3,2.3-0.2,3.2-2.3,4.2c-2.1,1.1-4.4,1.6-6.8,1.6c-5.3,0-10.6-0.3-15.9,0.8
	c-1.7,0.4-3.4,0.8-5.1,0c-2.4-1.4-4.1-3.4-4.2-6.3c-0.1-1-0.5-2-1.2-2.8c-1.5-1.9-2.4-4-2.8-6.4c-0.9-4-0.4-4.8,3.7-5.7
	c1.5-0.7,1.9,0.6,2.6,1.4c2,2.3,3.5,2.7,6,0.9c2.1-1.4,4.7-1.1,6.7-2.7C451.9,230.8,453.1,229.4,454.9,229.6z"/>
<path class="st93" d="M450.6,231.5c-1.2,1-2.4,1.9-4.1,1.7c-0.9-0.1-1.5,0.5-2.1,1c-3.2,2.4-5.8,1.9-7.8-1.6
	c-0.3-0.6-0.8-1.1-1.5-1.3c1.5-0.3,1.9-1.6,2.6-2.7s1.3-2.2,2-3.4c0.8-0.3,1.6-1.1,1.7,0.6c0,0.4-0.1,0.8-0.4,1.2
	c-0.8,1.3-1.9,2.8,0.9,3.2c1.9,0.3,3.8,0.4,5.8,0.4C448.7,230.6,449.8,230.5,450.6,231.5z"/>
<path class="st15" d="M530,340.4c0-0.7-0.1-1.4-0.1-2.1v-134c0-0.8,0-1.6,0.1-2.4c26.1-0.3,50.2,6.1,70.7,22.8
	c11.5,9.4,19.2,21.3,21.7,36.1c3,17.2-1,32.7-11.8,46.5c-5.9,7.4-13.2,13.6-21.4,18.3c-0.8,0.5-1.5,1.1-2.6,0.7
	c-1.7-0.3-2.3-1.6-2.7-3c-0.9-3.1-2.9-5.5-4.7-8.1c-0.8-1.5-2.5-2.2-4.2-1.7c-3,0.2-6.1-0.2-9-1.2c-3.8-1.3-7.9-0.6-11.8-1.5
	c-2.5-0.5-3,2.3-3.8,4.1c-0.2,0.6-0.6,1.1-1.1,1.5c-4.5,4.5-4.5,5.4-1.2,10.7c2.3,3.7,5.8,6.5,7.9,10.4c-0.9,1-2.2,1-3.3,1.1
	C545.2,339.8,537.6,340.4,530,340.4z"/>
<path class="st94" d="M556,337.4c-3.7-3.4-6.9-7.3-9.5-11.5c-2.1-3.3-1.7-6.2,1.1-9c0.7-0.6,1.6-0.9,2.1-1.8
	c0.9-1.2,1.6-0.5,2.2,0.2c1.1,1.2,2.6,2,4.2,2.4c1.2,0.2,2.3,1.1,2.8,2.2c1,2.4,3,3.5,5.1,4.7c3.6,1.8,7,3.9,10.2,6.3
	c0.8,0.6,1.4,1.9,2.5,1.3s0.5-1.8,0.5-2.8c-1.3-3.9-1.8-8.1-4.4-11.6c0.5-1.9,1.6-3.6,3-5c1.5-1,2.7-0.7,3.5,0.9
	c0.9,1.5,1.9,2.9,3,4.2c0.8,0.9,1.4,2,1.8,3.1c0.4,2,1.3,3.8,2.7,5.2c0.1,0.4,0.4,1,0.3,1.1c-1.8,2.4-1.9,5.9-5.2,7.2
	c-0.5,0.2-1.2,0.5-1.3,1.2c-0.4,2.2-2.2,3.1-3.8,4.1c-2.4,1.2-4.5,2.8-6.3,4.8c-1.1,1.4-2.1,1.1-3.5,0.5
	C562.9,343.2,559.2,340.6,556,337.4z"/>
<path class="st95" d="M558.3,195.1c0-1,0.4-2,1-2.9c1.5-2.4,3.1-4.8,4.7-7.1c0.5-0.9,1.4-1.5,2.4-1.7c0.9-0.1,1.8,0.4,2.4,1.1
	c0.7,0.8,0.3,1.6-0.2,2.2c-1.8,2.9-3.6,5.7-5.4,8.5c-0.4,0.7-1,1.3-1.7,1.7c-0.9,0.7-2.1,0.6-2.8-0.3
	C558.3,196.2,558.2,195.6,558.3,195.1L558.3,195.1z"/>
<path class="st96" d="M669.2,261.7c-0.2,0.1-0.3,0.3-0.5,0.3s-4.3-0.5-4.6-0.5c-3.5,0.3-5.8-1.4-7.3-4.4c-1.2-2.4-2.4-4.8-3.6-7.1
	c-0.8-1.6-1.5-3.1-3.6-3.3c-1.2-0.1-1.8-1.2-1.9-2.4c-0.3-3.2,1.2-5.6,3.6-7.4c2-1.6,4.8-1.7,6.9-0.4c2.8,1.6,6.2,2.5,7.3,6.2
	c0.7,4.3,2.6,8.2,3.3,12.5C669.2,257.3,669.4,259.5,669.2,261.7z"/>
<path class="st97" d="M669.2,261.7c-0.2-0.2-0.5-0.5-0.5-0.7c-0.3-5.8-2.2-11.2-3.6-16.8c-0.2-0.6-0.3-1.2,0.3-1.6
	c0.6,2,1.6,4,2.8,5.7c2,2.9,2.9,6.3,2.7,9.8C670.8,259.6,670.6,260.9,669.2,261.7z"/>
<path class="st98" d="M526.5,458.9c-0.8,3.6-2,3.4-4.3,3.3c-0.9-0.1-1.8-0.2-2.7-0.5c-0.8-0.2-2.1,0.2-2.3-1
	c-0.2-1.2,0.3-2.5,1.3-3.3c0.8-0.9,2.1-1.1,3.1-0.4C523,458,524.3,459.5,526.5,458.9z"/>
<path class="st99" d="M645.1,365.7c0.4,2.3-1.7,3.5-3,5c-0.9,0.9-1.7-0.2-2.4-0.6c-2.1-1.4-2.1-1.6-1.1-3.9c0.2-0.6,0.4-1.1,0.4-1.8
	c0.2-2,1.3-3,3-2.9c2.2,0.2,3,1.1,3.1,3.3C645.1,365,645.1,365.2,645.1,365.7z"/>
<path class="st0" d="M427.8,527h3.1C430,527.8,428.7,527.8,427.8,527z"/>
<path class="st100" d="M166.2,175.4c-1.3,0.7-2.2,1.5-1.7,3.3c0.6,2.2-0.3,3.4-2.4,4c-0.4,0.1-0.9,0-1.2,0.3
	c-3.8,2.8-7.4,1.4-10.9-0.4c-3.4-1.6-5.9-4.6-6.8-8.3c-0.2-0.8-0.6-1.5-0.8-2.3c-0.4-2.4-0.6-4.7,1.5-6.8c2.3-2.4,4.1-5.3,6.6-7.6
	c0.4-0.4,0.7-0.7,1.1-1.1c2.6-2.3,2.7-2.3,5.3-0.2c0.2,1.8-1.2,1.8-2.3,2.1c-2.1,0.6-3.1,1.9-3.7,4c-1.2,3.9-1.5,7.4,0.9,11.1
	c1.9,2.9,3.3,3.6,6.6,2.1C161,174.4,163.6,174,166.2,175.4z"/>
<path class="st101" d="M166.2,175.4c-1.6,0-3.3,0-4.9,0c-0.8,0-1.6,0.2-2.3,0.7c-4.1,2.6-7,0.7-8.3-2.6c-0.9-2.3-2.2-4.2-1.8-6.8
	c0.3-2.1,1.1-4.1,1.5-6.2c0.3-1.7,2.1-2.6,4-2.9c1-0.1,2.1-0.1,2.4-1.4c3.2-1.9,5-1.8,7.3,0.8c1.3,1.4,2.5,2.6,4.6,2.4
	c0.9-0.1,1.9,0.2,2.4,1c1.9,2.6,3.7,5.3,3.6,8.7c-0.1,0.8-0.4,1.5-0.9,2.1C172.1,174.2,169.1,174.6,166.2,175.4z"/>
<path class="st102" d="M413.6,114.3c-3.4-0.5-4.1-1.3-3.6-4.2c0.1-0.4,0-0.8,0.6-0.9c0.4,0,0.8,0.1,1,0.5
	C412.6,110.9,412.9,112.5,413.6,114.3z"/>
<path class="st103" d="M417.4,128.2c-0.4-0.7-0.1-1.6,0.6-2c1-0.4,2-0.4,3-0.1h0c0.2,0.4,0.3,0.7,0.5,1.1c0.2,1.7-0.4,2.2-2.1,2
	C418.6,129.2,418.2,128.4,417.4,128.2z"/>
<path class="st104" d="M91.7,177.3c-0.8-1.6-1.5-3.3-3.9-3.2c-0.4,0-0.9-0.7-1.3-1.2c-0.5-0.7-1.3-1-2.1-1.1c-1.8,0.1-2.7-0.3-2-2.4
	c0.3-0.8-0.4-1.3-1.2-1.4c-0.5-0.1-1-0.1-1.5-0.1c-0.9-0.1-1-0.8-1-1.6c-0.1-0.6,0.4-1.2,1-1.3c0.1,0,0.2,0,0.4,0l5.5-0.1
	c-0.1,0.2-0.2,0.4-0.3,0.5c-0.4,0.9-2.3,0.8-1.8,2.1c0.4,0.9,1.8,0.6,2.7,1c0.6,0.3,1.4,0.1,2.1,0.3c1,0.1,1.7,1,1.6,2
	c-0.2,1.4,0.3,2.9,1.3,3.8C91.9,175.4,91.8,176.4,91.7,177.3z"/>
<path class="st105" d="M87.4,370c1.4,3.1-0.4,5.8-1,8.6c-0.2,0.5-0.4,1-0.6,1.4c-0.3,0.9-1.4,2,0.1,2.6c1.2,0.5,1.8-0.8,2.2-1.7
	c0.9-2.1,1.5-4.2,1.9-6.4c0.3-1,0.3-2.4,1.8-2.4c1.2,0,2.5,2.2,2.2,3.5c-0.3,0.9-0.6,1.7-1,2.6c-0.8,2.1-1.6,4.2-2.3,6.3
	c-0.3,0.6-0.1,1.4,0.5,1.7c0,0,0.1,0,0.1,0.1c0.9,0.3,1.4-0.4,1.6-1c1.1-2.6,2.1-5.3,3.1-8c0.4-0.9,0.6-2.2,1.8-2.2
	c1.2,0.1,2.4,0.7,3.2,1.6c0.6,0.6,0.3,1.3,0,2c-1.4,3.3-2.8,6.5-2.7,10.3c0.1,1.9-1.1,2.4-2.8,1.7c-1.1-0.5-2.2-1.1-3.2-1.8
	c-3.1-2-6.1-4.1-9.8-4.9c-0.7-0.5-2.2-0.1-1.9-1.8l0,0c3.1-3.3,3-7.8,4.3-11.7l0,0C85.6,369.6,86.3,369.1,87.4,370z"/>
<path class="st106" d="M93,360.8c7-1.3,11.4,2.5,15.4,7.5c0.6,0.7,1.1,1.5,1.3,2.4c-0.2,0.5-0.2,1-0.8,1.2c-1.2-2.1-2.5-4-4.9-4.9
	c-3.4-3-7.8-3.4-11.7-4.9l0,0C92,361.2,92.6,361.1,93,360.8z"/>
<path class="st0" d="M83.1,369.1c-0.3,3.3-1,6.5-2.2,9.5c-0.3,0.8-0.7,2-1.9,1.5s-1-1.5-0.4-2.3c2.1-2.8,2.1-6.1,2-9.4
	c0-0.4,0-0.8,0-1.2c0.1-0.8-0.2-1.9,0.9-2s1.5,0.8,1.6,1.8C83.1,367.5,83.1,368,83.1,369.1z"/>
<path class="st107" d="M86.7,367.5c0-1,0.5-2,1.3-2.7c0.8-0.7,1.5-2.3,2.6-1.9c1.3,0.6,0.1,2,0.1,3c-0.1,1.7-0.1,3.5-0.1,5.2
	c-1.5,0.1-2-1.3-3-1.9l0,0L86.7,367.5z"/>
<path class="st0" d="M85,370.6c-0.2,2.5-0.7,5.1-1.5,7.5c-0.3,1.7-1.4,3.3-2.8,4.2c1.4-3.1,3-6.1,3.3-9.6
	C84,371.9,84.3,371.1,85,370.6z"/>
<path class="st0" d="M87.4,370c-0.8-0.2-1.7,0-2.4,0.6c0.6-1.9,0.6-1.9,2.5-1.3l0,0C87.4,369.5,87.4,369.8,87.4,370z"/>
<path class="st0" d="M80.7,382.3c0.3,1,1.3,1.1,1.9,1.8c-0.6,0.2-1.2,0.1-1.7-0.2C80.3,383.4,79.8,382.9,80.7,382.3z"/>
<path class="st108" d="M171.7,340.4c-3.3,0.1-3.3,0.1-4.3,3.5c-0.2,0.8-0.9,1.4-1.7,1.4c-0.5-0.6,0-2-1-2c-2.5,0-4.5-1.3-6.7-2.2
	c2.3,1.8,4.9,3.2,7.6,4.2c-0.1,0.1-0.3,0.3-0.4,0.4c-2,1.8-4.2,3.4-6.6,4.7c-1.1,0.7-1.8,1-2.9,0.4s-2.5-0.5-3.1-1.8
	c0.6-2,0.3-4,0.4-6c0.2-3.4,3-6.1,6.4-6.2c1.9,0.5,4,0.1,5.6-1c0.9-0.5,1.6-1.5,2.9-1.5c1.4,2.7,1.4,2.7,4.6,0.6
	c1.3,0.4,3.1-0.5,3.6,1.7C175,338.3,173.1,339,171.7,340.4z"/>
<path class="st109" d="M159.4,336.9c-1.9,0.6-3,2.3-4.7,3.3c-0.9,0.5-0.9,1.5-0.9,2.4c0.1,1.6,0.1,3.3,0.1,4.9
	c0.1,1-0.2,1.6-1.3,1.6c-1.9-5.2-1.4-7.9,2.3-11.2c1.4-1.2,2.9-2.3,4.4-3.3c0.5-0.4,1.2-0.6,1.7,0s-0.2,1.1-0.6,1.5
	S159.8,336.6,159.4,336.9z"/>
<path class="st110" d="M171.7,340.4c0.6-2.3,2.6-2.9,4.4-3.8c0.8,0.1,1.4,0.8,1.3,1.5c0,0.2-0.1,0.4-0.2,0.6
	c-0.4,1.3-1.5,2.2-2.9,2.5C173.4,341.2,172.5,340.9,171.7,340.4z"/>
<path class="st111" d="M172.5,334.9c-0.1,1-0.8,1.9-1.8,2.2c-0.9,0.4-2,0.3-2.9-0.3c-0.9-0.8-0.1-1.7,0.1-2.5
	C169.5,333.8,171.1,333.3,172.5,334.9z"/>
<path class="st31" d="M244.4,510.4c0-0.9,0.1-1.4,0-1.9c-0.3-2.9,1-4.6,3.6-5.7c1.4-0.6,2.6-1.7,4-2.3c2.4-0.9,5.1-0.8,7.5,0.2
	c7.5,2.7,13.7,7.1,17.9,14.1c0.8,1.2,1.3,2.5,1.7,3.9c1.3,4.6-1.1,8.5-5.8,9.4c-4.1,0.8-8,0.9-11.9-1.1c-4.8-2.5-9.6-4.9-13.6-8.7
	C245.4,516,243.6,513.6,244.4,510.4z"/>
<path class="st112" d="M256.7,515.8c-0.4-0.3-0.9-0.8-1.3-0.8c-2.7,0.1-4.5-1.7-6.7-2.8c-0.9-0.5-1.3-0.9-1.3-1.8
	c0.1-1.5-0.6-3.1,0.6-4.4c1.4,1,2.3-0.1,3.3-0.7c2.5-1.9,5.9-2,8.6-0.3c0.9,0.5,1.9,0.8,1.8,2.2c1.3,2.2,2.8,4.1,5.4,4.9
	c0.6,0.2,1.1,0.6,1.4,1.1c-1.8,2.5-1.7,2.7,1.8,3.9c1,1.9,0.2,3.7-0.1,5.5c-0.1,0.5-0.6,0.5-1,0.5c-1.3-3.4-2-3.7-5-2.5
	c-0.4-0.3-0.6-0.8-0.5-1.3c0.3-2.3-0.7-3.2-2.9-2.7c-1.2,0.3-2.3,0.9-3.4-0.2c1-0.8,1.8-1.8,1-3.2c-0.7-1.2-0.9-2.7-0.5-4.1
	c0.2-0.6,0-1.2-1.1-1.3C256.7,510.5,256.7,513.1,256.7,515.8z"/>
<path class="st113" d="M261.6,507.1c-1.4-1.8-3.6-2.2-5.6-2.8c-1.6-0.5-3.2,1-4.7,1.8c-0.6,0.3-1.1,0.9-1.7,1.2
	c-1.6,1-1.6-0.2-1.6-1.3c1-0.5,2-1,2.9-1.6c2.6-2.1,5.3-1.7,8.1-0.8c1.7,0.7,3.4,1.4,5,2.3c0.4,0.3,0.8,0.6,1.1,1
	c0.2,0.3,0.2,0.6,0.1,0.9c-0.2,0.4-0.6,0.5-1,0.3C263.3,507.8,262.5,507.5,261.6,507.1z"/>
<path class="st114" d="M256.7,515.8c-0.5-1.6-2.2-3.1-0.4-5c0.4-0.5-0.3-1.1-0.5-1.6c-0.3-0.8-0.6-1.6,0.1-2.3
	c0.5-0.4,1.2-0.4,1.7-0.1c0.8,0.5,2,1.4,1.5,2.1c-1.4,1.9-0.1,3.4,0.4,5c0.7,2.3,0.6,2.4-2,2.7L256.7,515.8z"/>
<path class="st115" d="M264,520.7c1.1-2,1.5-2.2,3.2-1.3c2.4,1.2,2.6,1.7,1.8,3.8C267,523.5,265,522.5,264,520.7z"/>
<path class="st116" d="M270.2,517.1c-0.3,0.2-0.7,0.3-1.1,0.4c-1.4,0-2.6-1-3-2.3c-0.3-1.8,1.2-1.7,2.4-2
	C269.7,514.2,270.6,515.3,270.2,517.1z"/>
<path class="st117" d="M286.8,47.6c0.5,0.3,0.6,0.7,0.7,1.2c0.1,1.1-0.5,2.2,0.3,3.4c0.6,0.9-0.1,2.2-1,3.1c-1.7-1-3.2-3.9-5.4-0.7
	c-1.1-0.6-0.7-1.6-0.6-2.4c0.2-2.1,0.1-2.2-1.9-2.3c-0.6-0.1-1.2-0.1-1.8,0c-1.4,0.5-2.9,0.1-3.9-1c-0.3-0.3-0.7-0.7-1-0.7
	c-2.4,0.3-3.9-1.4-5.6-2.5c-2.5-1.6-3-2.5-2-5.7c1.6-0.4,3.1-1,4.4-2c3.6-2.2,8.2-1.1,10.5,2.5c0.2,2,1.6,3.7,3.5,4.1
	c1.1,0.3,2,1,2.6,2c0,0.3-0.2,0.5-0.4,0.7c-0.5,0.4-1.2,1-0.5,1.6s1.2-0.2,1.6-0.7C286.4,48,286.6,47.8,286.8,47.6z"/>
<path class="st118" d="M279.5,40.5c-1.4-1.2-3.2-1.7-4.8-2.6c-1.7-1-3.3-0.7-4.8,0.4c-1.1,0.8-2.2,1.4-3.4,2.1
	c-0.6,0.4-1.4,0.3-1.8-0.2c0,0-0.1-0.1-0.1-0.1c2.8-3.7,8.5-4.7,11.7-3.2c1.3,0.6,2.6,1.1,3.9,1.7c0.9,0.4,1.8,0.9,2.1,2.2
	C281.3,41.3,280.4,40.5,279.5,40.5z"/>
<path class="st119" d="M281.4,54.6c0.1-2.4,1-3.1,3.1-2.2c1.3,0.4,2.2,1.5,2.4,2.8C284.9,56.3,283,56.5,281.4,54.6z"/>
<path class="st120" d="M286.8,47.6c0.1,1.1,0.4,2.3-1.1,2.7c-1,0.3-1.7-0.5-2.3-1.2c-1-1.5-0.4-2.2,2.1-2.5
	C286,46.9,286.4,47.2,286.8,47.6z"/>
<path class="st121" d="M291.1,410.5c-1.6-0.6-2.5-2.6-4.5-2.7c-0.4,0-0.4-0.9-0.4-1.4c-0.1-0.9,0.3-1.9-0.6-2.6
	c-2.5-4-6.3-6.9-10.8-8.2c-3.9-1.2-6.6-1.1-9.2,2c-0.5,0.6-1.3,0.6-1.9,0.9c-1.2,0.3-2.2,1.1-2.7,2.3c-0.4,0.3-0.8,0.9-1.2,0.9
	c-0.8,0-0.7-0.9-0.7-1.4c-0.1-3.1,1.7-6.1,4.5-7.5c2.7-1.7,5.8-2.5,9-2.5c1.4,0,2.9,0,4.3,0c1.7-0.1,3.5,0.4,4.9,1.4
	c1.9,1.1,3.8,2.3,5.6,3.6c2.8,2.3,4.4,5.7,4.4,9.3C291.8,406.5,292.3,408.6,291.1,410.5z"/>
<path class="st122" d="M263.7,401.3c2.5-0.4,4.1-2,5.7-3.7c0.7-0.7,1.7-0.8,2.6-0.3c1.3,0.6,2.7,1,4.1,1.2c1.6,0.2,3.1,1.2,3.9,2.6
	c0.5,0.8,1.1,1.5,1.8,2c1.7,1.3,1.7,1.8,0.2,3.4c-0.8,0.9-1.8,1.7-2.6,2.6c-0.5,0.5-1.2,0.9-1.9,0.9c-0.7,0-1.5,0.1-1.9-0.7
	s0.4-1.1,0.8-1.5c1.2-0.9,1.6-2.5,0.9-3.9c-0.6-1.3-3.3-2.8-4.6-2.4c-1.1,0.2-2.1,1-2.5,2c-0.7,1.7-1.6,2-3.1,1.1
	C265.9,403.8,264.3,403.2,263.7,401.3z"/>
<path class="st87" d="M477.1,379.2c-0.1-0.9-0.5-1.7,0-2.7c2.4-4.1,4.8-8.1,9.6-9.9c1.6-0.6,3.3-1,5-1c3.4,0,6.8-0.1,10,0.7
	c6.5,1.7,9.9,5,10.8,11.7c0.5,2.7,0.6,5.4,0.3,8.1c-0.7,4-3.1,6-6.5,7.3c-2.5,0.9-5.2,1.3-7.8,1.1c-1.9-1.2-1.5-2.9-1.1-4.6
	c1.1-1.8,3.2-1.7,4.9-2.2c4.8-1.4,6-3.8,4.3-8.6c-1.1-3.2-2.8-5.4-6.4-5.5c-1-0.1-2-0.6-2.6-1.5c-1.9-2.3-4.1-2.9-6.8-1.3
	c-0.4,0.2-0.8,0.2-1.2,0.1c-1.5-1.2-2.7-1-4,0.4c-1.9,2-4,3.8-5.7,6C479.2,378.2,478.6,379.5,477.1,379.2z"/>
<path class="st123" d="M477.1,379.2c2.8-2.4,4.7-5.5,7.5-7.9c0.7-0.8,1.5-1.4,2.3-2c1.4-0.7,1.6-0.6,2.4,1.3c0,1.3-1.1,1.6-2,2
	c-1.9,0.8-3.3,2.6-3.5,4.6c-0.8,4.3-1,8.3,2.5,11.7c1.5,1.4,2.9,1.9,5,1.1s4.4-2,6.6-0.3c0.1,1.6-0.4,3.4,0.6,4.9c0,0.2,0,0.4,0,0.6
	c-2.4,1.8-5.4,2.2-8,3.7c-1.8-1-3.8-0.9-5.7-1.8c-5-2.5-7.5-6.7-8.9-11.8C475.4,383.2,475.8,381,477.1,379.2z"/>
<path class="st124" d="M290.5,117.6l0.6-0.1c1.1-0.8,1.9-1.6-0.2-2.1c-0.6-0.2-1.5,0.4-1.8-0.6c0-0.1,0.1-0.3,0.1-0.3
	c3.3-0.8,3.9-2.8,2.6-5.7c2-1,3.1,0,2.9,1.9c-0.4,4.4-0.3,8.9,0.4,13.3c0.3,1.6-0.2,2.6-2.1,2.4c-1-0.1-2,0-3,0.3
	c-1.3,0.4-2.6,0.7-3.9,1.2l0,0c-1,0.6-2.1,0.7-3.1,1.2l0,0c-1.4,0.3-3,1.2-3.5-1.2c0-0.3,0.1-0.6,0.3-0.9c1.9-2,4.6-2.5,7.1-3.2
	c1.3-0.2,2.5-0.7,3.5-1.4c-2.5,0-4.7,1-7,1.5c-1.4,0.3-2.8,1-4-0.4c0-3.2,0-3.2,3-4.2c0.7-0.6,1.7,0.1,2.5-0.6l0,0
	c0.9-0.8,2.1,0.1,3-0.6l0,0C288.8,117.5,289.8,118.2,290.5,117.6z"/>
<path class="st125" d="M289.3,126.8c1.1-1,2.5-0.5,3.8-0.6s2-0.5,1.8-1.8c-1-4.5-0.5-9.1-0.5-13.7c0-1.8-0.3-1.9-2.5-1.2
	c-2.1,2.9-5.9,3.9-9.2,2.4c1.3-0.9,3-0.6,4.4-1.2c0.8-0.3,1.8-0.5,2.6-0.8c0.4-0.1,0.7-0.5,0.7-0.9c0-0.7-0.6-0.8-1.1-0.7
	c-3,0.7-6,1.4-8.9,2.1c-0.4,0.1-0.8,0.3-1.2,0.4c-0.6,0.1-1.4,0.8-1.9-0.1s0-2.6,1-2.8c4.9-1.1,9.7-2.5,14.8-2
	c0.9,0,1.6,0.6,1.8,1.4c0.4,1.8,1,3.5,0.4,5.4c-0.6,2.4-0.6,4.9-0.1,7.3c0.3,1.6,0.3,3.2,0.5,4.9c0.2,1.1,0.7,2.4-1.3,1.9h-3
	C290.6,127.2,289.9,127.2,289.3,126.8z"/>
<path class="st126" d="M282.5,112c3.3,0,6.5-0.3,9.2-2.4c1.9,0.6,2,0.8,1.9,3.2c-0.1,1.6-0.9,1.8-2.1,1.8c-0.8,0-1.6-0.2-2.2,0.6
	c-1.6,2.1-4.3,1.3-6.3,2.1c-0.5,0.2-1.2-0.1-1.7,0.3l-1.2,0.1c-2.2-0.7-1.2-2.7-1.3-4s1.7-1,2.6-1.5L282.5,112z"/>
<path class="st127" d="M277,121.3c-2-1.1-2.8-3.5-5-4.3c-0.2-0.1-0.3-0.5-0.3-0.8c0.2-1.6-0.4-1.8-1.8-1.3c-0.4,0.1-0.8-0.1-1-0.4
	c-1.2-2.2,0.4-3.5,1.5-4.9c0.2-0.2,0.4-0.4,0.5-0.5s0.7-0.5,1-0.7c0.5-0.6,1.5-0.6,2.1-0.1c0,0,0.1,0.1,0.1,0.1
	c0.6,0.6,0.7,1.5,0.3,2.3c-0.1,0.3-0.4,0.5-0.5,0.8c-0.9,1.8-0.7,2.5,1.2,3.2c0.8,0.2,1.4,0.8,1.5,1.6c0.5,1.2,0.5,2.6,1.4,3.7
	C278.5,120.4,277.6,121,277,121.3z"/>
<path class="st127" d="M276.4,131.8c-1.2-0.9-2.6-1.3-4-1.3c-0.7,0-1.4-0.5-1.5-1.2c-0.2-0.9,0.6-1.2,1.2-1.5
	c0.8-0.4,1.7-0.7,2.6-0.9c1.6-0.2,2.8-1.5,2.9-3.1l1.9,0.6c2.1,0.7,1,2,0.6,3.1l0,0c-0.5,0.2-0.2,1-0.8,1.1
	C278.6,129.8,277.6,130.9,276.4,131.8z"/>
<path class="st0" d="M294,129.5c-0.3,0.8-0.9,1.6-1.7,1.5c-4.6-0.5-8.1,2.3-12,4c-0.7,0.3-1.5,0.7-1.9-0.1c-0.5-0.7-0.2-1.7,0.5-2.2
	c0.1-0.1,0.2-0.1,0.3-0.2c3.7-1.3,7.3-3.1,11.2-3.9c0.9-0.1,1.8-0.1,2.7,0C293.7,128.7,294,129,294,129.5
	C294,129.5,294,129.5,294,129.5z"/>
<path class="st0" d="M280.1,127.5c-0.2-1,0.4-2.3-0.6-3.1l0.1-0.7c2,0.5,3.8-0.4,5.7-0.9c1.6-0.4,3.1-1,4.7-1.3
	c0.9-0.2,2.2-0.5,2.4,1c0.2,1.3-1,1.2-1.9,1.4C286.9,124.8,283.3,125.5,280.1,127.5z"/>
<path class="st125" d="M281.2,117.5c2.1-1,4.5-1,6.8-1.7c0.5-0.2,1-0.2,1.3-0.7c0.6,0,1.2,0,1.8,0s1.6,0,1.7,0.8
	c0.2,1.2-0.6,1.6-1.7,1.6c0.4-0.9,0.9-2.1-0.8-1.6s-3.7,0.9-5.5,1.4C283.7,117.6,282.4,117.7,281.2,117.5z"/>
<path class="st125" d="M281.4,112.1c-2.7,1.4-2.9,1.9-1.3,5.5c-0.4,0.5-0.9,0.6-1.3,0.1c-1-1.4-0.8-3.1-0.3-4.6
	C278.9,111.7,280.2,112,281.4,112.1z"/>
<path class="st0" d="M289.3,126.8h1.9c-1.5,0.9-3.3,1.3-5,1.2C287,127.1,288.1,126.7,289.3,126.8z"/>
<path class="st0" d="M279.4,128.6c0.1-0.5,0.2-1,0.8-1.1c0.3,1.8,0.3,1.8,3,1.8C281,130.3,280.5,130.2,279.4,128.6z"/>
<path class="st0" d="M283.1,129.2c0.8-0.8,1.9-1.3,3.1-1.2C285.5,128.9,284.3,129.4,283.1,129.2z"/>
<path class="st0" d="M294.2,126.8c1.3-0.1,1.3-1,1.3-1.9c0.7,0.5,0.8,1.5,0.3,2.1c0,0,0,0,0,0C295.3,127.6,294.7,127.3,294.2,126.8z
	"/>
<path class="st125" d="M288.1,118.2c-0.9,0.9-2,0.6-3,0.6C285.9,117.8,287,118.3,288.1,118.2z"/>
<path class="st125" d="M285,118.8c-0.7,0.6-1.6,0.8-2.5,0.6C283.2,118.5,284.1,118.8,285,118.8z"/>
<path class="st125" d="M290.5,117.6c-0.7,0.6-1.6,0.8-2.4,0.6C288.7,117.3,289.7,117.6,290.5,117.6z"/>
<path class="st128" d="M135.3,467.3c-0.8,0-1.9-0.3-2.4,0.1c-1.7,1.6-2.9,0.5-4.2-0.5c-0.5-0.6-1.4-0.8-2.2-0.5
	c-0.5,0.2-1,0-1.3-0.5c-0.8-2-2.5-1.7-4.3-1.8c0.6-1.3,1.6-1.5,2.7-1.8h1.2c3.2-1.4,7-0.5,9.3,2.2
	C134.8,465.3,136,465.9,135.3,467.3z"/>
<path class="st129" d="M135.3,467.3c-1-2.3-3.1-3.5-5-4.7c-1.5-1-3.6-0.2-5.4-0.3c4-2,6.7-1.6,9.7,1.3c1.5,1.4,2.9,2.9,4.3,4.3
	c-0.7,0.9-1.5,0.4-2.1,0.7C136.1,468.2,135.6,467.8,135.3,467.3z"/>
<path class="st130" d="M368,165c-0.8-0.3-1.5-0.5-2.3-0.6c-1.2-0.2-2.3,0.1-2.5,1.6s-1,1.5-2.1,1.1c-1.2-0.5-2.7-0.4-3.8,0.4
	c-0.3,0.2-0.8,0.5-1.1,0.4c-1.5-0.7-2.9-0.1-4.3,0.2c-0.7-1.4,1-2,0.6-3l0.7-0.1c2.6-3.3,6-3.9,9.9-2.7c1.6,0.5,3.5,0.2,4.9,1.5
	L368,165z"/>
<path class="st131" d="M368.1,163.8c-1.8,0.1-3.7-0.2-5.4-0.7c-3.2-1-6-1-8.3,1.9c-0.3,0.3-0.6,0.5-1,0.1c1.4-3.1,4.7-4.8,8-4.2
	c2,0.5,4,0.9,6,1.2C368.5,162.1,368.6,162.9,368.1,163.8z"/>
<path class="st132" d="M274.6,293c-0.1-1.2,0.8-1.7,1.5-2.5s1.7-1.4,2.2-2.4c1.4-0.9,2.4-2.4,4.4-2.4c0.3,1.1-1.2,1.4-0.9,2.7
	c2,0.6,4.3-0.1,6.4,0.4c0.2,1.1-0.7,1.1-1.3,1.4c-1,0.2-1.9,0.7-2.6,1.4c-0.6,0.9-1.9,1.1-2.8,0.5c-0.1-0.1-0.1-0.1-0.2-0.2
	c-1.2-1.1-2.3-0.7-3.1,0.4C277.1,293.7,275.9,293.4,274.6,293z"/>
<path class="st133" d="M336.1,452.1c0-2.3,0.9-3.1,3.1-2.9c1.1,0.2,2.2,0.1,3.3-0.3c0.6-0.3,1.4,0,1.7,0.6c0,0,0,0.1,0,0.1
	c0.4,0.6,0.3,1.5-0.2,2c-1.7,1.6-3.9,2.7-6.2,3.1C336.7,455.1,336.1,454,336.1,452.1z"/>
<path class="st134" d="M460.5,485.1c-0.5,0.5-1.3,0.8-2,0.6c-1.2-0.1-2.5,0.2-3.5,0.9c-1.9,1.1-4.2,1.3-6.2,0.6c-2-0.4-4-1-5.9-1.6
	c-1.6-0.7-2.3-2-3.2-3.5c-1-1.6-0.3-2.7,0.1-4.2c0.4-2.3,2-4.3,4.1-5.4c1.2-0.6,2.4-1.2,3.3,0.6c0.4,0.9,1.3,1,2.1,0.6
	c1-0.4,2.2-0.5,3.2-1c2.8-1.2,5.8-1.9,8.9-2c2.9-0.1,5.4-0.3,7.2,2.3c0.3,0.4,0.9,0.5,1.4,0.7c2.5,1,2.6,1.2,1.5,3.9
	c-1.8-0.5-2.3,1.3-3.5,1.9c-3.1,1.5-6.1,3.3-9.4,4.5C459.2,484.7,460.1,484.4,460.5,485.1z"/>
<path class="st135" d="M460.5,485.1h-3.2l-0.2-0.7c4.5-3.1,10.2-4.2,14-8.3c0.6,0.5,0.4,1,0.5,1.5C469.1,482,465,483.9,460.5,485.1z
	"/>
<path class="st136" d="M373.3,175.8c-1.5,2-3.8,2.8-5.9,3.5c-2.2,0.7-4.3,1.7-6.4,2.8c-1.2,0.8-2.7,1-4.1,0.6
	c-0.8-0.2-1.3-1.1-1.2-1.9c0.1-0.8,0.7-0.9,1.4-0.9c5.2,0,9.8-2.6,14.6-4C372.2,175.6,372.7,175.3,373.3,175.8z"/>
<path class="st38" d="M362.1,175.4c0.8-0.7,1.8-1.1,2.9-1.2C364.4,175.5,363.2,175.5,362.1,175.4z"/>
<path class="st38" d="M357,177.2c0.7-1.2,1.8-1.2,3-1.1C359.2,176.8,358.1,177.2,357,177.2z"/>
<path class="st38" d="M360.2,176c0.4-0.7,1.1-0.6,1.7-0.5C361.5,176.2,360.8,176.1,360.2,176z"/>
<path class="st137" d="M283.2,211.2c-0.2,0.8,0.6,2.2-0.8,2.8s-2.4,0-3.5-0.7c-1.9-1.1-1.9-1.3-0.8-3.3c0.6-0.8,1-1.8,1.2-2.8
	c0.1-1.6,0.8-2,2.1-1.2C283.3,207.2,283.2,209.1,283.2,211.2z"/>
<path class="st138" d="M135.2,481.2c-1.4,1.3-3,0.9-4.4,0.7c-3.6-0.6-7.2-1.4-10.8-1.8c-1.9-0.2-2.8-1.1-2.9-2.5s0.5-1.9,1.8-1.4
	c1.7,0.9,3.5,1.7,5.3,2.2C127.8,479.2,131.5,479.7,135.2,481.2z"/>
<path class="st0" d="M117,466.6c0.7,0.1,1.8,0.3,1.2,1.1c-1.2,1.4-0.3,3-0.8,4.3C116.5,470.3,117.1,468.4,117,466.6z"/>
<path class="st139" d="M172.2,553.4c0.6,0,1.2-0.1,1.8,0c0.9,0.1,2.2-0.5,2.5,1c0.2,1.2,0.3,2.7-1,3.3c-1.6,0.8-3.1,1.9-4.4,3.2
	c-0.7,0.7-1.8,0.7-2.5,0c0,0,0,0,0,0c-1.6-1.5-1.3-3.5-1.2-5.5c-0.1-1.4,0.9-2.5,2.3-2.6c0,0,0.1,0,0.1,0c0.4,1-0.7,1.6-0.6,2.8
	C170.7,555.4,171.2,554,172.2,553.4z"/>
<path class="st140" d="M172.2,553.4c-0.1,1.8-1.3,2.6-2.8,3.2c-1,0.4-1.5-0.1-1.4-1.1c0.1-1.2,1.4-1.7,1.8-2.7
	C170.7,552.5,171.7,552.8,172.2,553.4z"/>
<path class="st141" d="M517.7,111.4c0.8-0.1,1.6-0.5,2.1-1.2c0.5-0.7,1.5-0.9,2.2-0.4c0.2,0.1,0.3,0.2,0.4,0.4c0.8,1,2.1,2.2,1,3.4
	c-0.9,1.2-1.4,2.6-1.7,4.1c-0.6,2.2-1.8,2.6-3.6,1.4c-1.1-0.7-2.3-1.4-2.2-3C517.8,115.1,517.3,113.1,517.7,111.4z"/>
<path class="st142" d="M517.7,111.4c1.3,2.9,0.8,4.3-1.8,4.8c0-0.2-0.1-0.3-0.1-0.5c-0.4-1-0.4-2.1,0-3.1c0.1-0.2,0.1-0.4,0.1-0.6
	C516.3,111.4,516.7,110.8,517.7,111.4L517.7,111.4z"/>
<path class="st141" d="M515.8,112.7c0,1,0,2,0,3.1C514.9,114.9,514.9,113.5,515.8,112.7C515.8,112.7,515.8,112.7,515.8,112.7z"/>
<path class="st141" d="M517.7,111.4l-1.7,0.7C516.1,110.7,516.6,110.4,517.7,111.4z"/>
<path class="st143" d="M187.2,85.5c0.3-0.5,1-0.7,1.6-0.4c0.1,0.1,0.2,0.2,0.3,0.3c1,0.9,1.8,1.4,3.2,0.9c1.1-0.4,1.6,0.4,1.6,1.5
	c0.1,2.1-0.1,2.6-2.1,3.3c-1.3,0.4-2,1.4-2.9,2.2c-0.7,0.8-1.8,1.1-2.8,0.8c-1.1-0.4-1.4-1.4-1.4-2.5s-0.1-2.2,0-3.4
	c-0.1-1,0.6-1.9,1.6-2.1c0.1,0,0.1,0,0.2,0c0.6,0.6-0.2,1.4,0.2,2.2C188.1,87.6,187.9,86.6,187.2,85.5z"/>
<path class="st144" d="M187.2,85.5c1.2,0.1,2,0.6,1.7,2c-0.2,0.9-2.2,2.4-3,2.3c-0.6-0.1-0.7-0.7-0.7-1.2c-0.1-1,0.9-1.5,1.2-2.4
	L187.2,85.5z"/>
<path class="st145" d="M270.3,109.5c-0.1,1.8-1.6,3.1-1.5,4.9c-1.1,2.3-1.1,4.7-1.1,7.1s1.9,4.2,2.4,6.6c-2.3-0.7-4.7-3.7-4.7-6
	c0-4.3,1.2-8.5,3.5-12.2C269.2,109.5,269.6,108.9,270.3,109.5z"/>
<path class="st61" d="M87.4,102.2c-0.7-0.5-1.6-0.5-2.2,0c-2.4,1.2-3.4,0.8-5.3-1.1c-2.5-2.3-4.5-5.1-6.8-7.5
	c-2.1-2.2-2.3-4.3-1-6.8c1.2-0.5,2-1.7,1.8-3.1c1.3-0.6,2.6-1.1,3.9-1.6c1-0.5,2.1-0.2,2.8,0.6c3.1,3.5,6.4,6.8,9.4,10.4
	c1.9,2.4,1.7,3.2-0.5,5.5C88.4,99.7,87.2,100.5,87.4,102.2z"/>
<path class="st146" d="M92.3,362c2.1,0.1,4.2,0.4,6.2,1c2.3,0.5,4.3,1.9,5.5,3.9c0,0.5,0,1,0,1.5c0,1-0.3,1.2-1.4,1.2
	c-2.2,0-4.4-0.6-6.7,0.5c-1.4,0.7-2.9-0.3-4.2-1.2c-0.9-0.7-0.4-1.6-0.2-2.5C91.9,365,92.1,363.5,92.3,362z"/>
<path class="st146" d="M93,360.8l-0.7,1.2c-0.4,0-0.9-0.1-0.8-0.5C91.7,360.8,92.4,360.8,93,360.8z"/>
<path class="st25" d="M421,126.1l-3,0.1C418.9,125.4,420.2,125.4,421,126.1z"/>
<path class="st0" d="M176.1,237.6c-0.1,0.9-0.7,1.7-1.4,2.3c-0.7,0.7-1.2,1.7-1.2,2.7c-2-1.4-2.2-2.3-0.4-3.5
	C174,238.6,175.1,238.1,176.1,237.6z"/>
<path class="st0" d="M190.2,246.7c0-0.5,0-1.1,0-1.6C191,245.6,191,246.2,190.2,246.7z"/>
<path class="st147" d="M465,297.7c1.2-0.3,2.4-0.5,3.6-0.5c3.2-0.1,5.9,2.4,6,5.5c0,0,0,0.1,0,0.1c0.5,7-3.2,11.1-10.3,11.1
	c-1,0-2,0-3.1,0c-3.6-0.3-5.6-2.6-5.8-6.2c-0.3-3,1-6,3.4-7.8c1.1-0.7,1.7-2,1.5-3.4c-0.1-2.5,0-5.1,0-7.7c0-1.1,0.2-2.3,0.5-3.3
	c0.7-1.8,1.5-2.5,2.8-2.2s2,1.4,1.5,3.2c-0.9,3.3-0.4,6.5-0.5,9.8C464.8,296.8,464.9,297.3,465,297.7z"/>
<path class="st148" d="M450.6,231.5c-1.6-0.3-3.2-0.3-4.8-0.1c-1.7,0.2-3.4-0.1-5-0.7c-0.7-1.4-0.2-2.8-0.1-4.2l0.6-0.7
	c2-3,4.7-4.3,8.3-3.6c0.1,0,0.2,0,0.3,0.1c1.4,0.6,2.9,0.1,4.2,0.7c1.5,0.6,0.3,2.5,1.4,3.5c1.3,1.3,0.1,2.1-0.7,3
	C453.8,230.7,452.2,231.5,450.6,231.5z"/>
<path class="st16" d="M440.8,226.5c0.6,1.3,0.7,2.8,0.1,4.2c-2.1-0.7-2.4-1-1.5-2.6C439.7,227.5,440.2,226.9,440.8,226.5z"/>
<path class="st149" d="M577.9,329.5c0,0.6,0.1,1.2,0.1,1.8c0,0.8,0.4,1.8-0.5,2.2c-1,0.4-2.1,0.1-2.7-0.8c-1-1.2-2.1-2.2-3.4-3
	c-2.8-1.7-5.6-3.3-8.5-4.9c-1.8-1.1-3.7-2-4.3-4.4c-0.4-1.2-1.5-2.1-2.7-2.2c-2-0.2-3.7-1.3-4.7-2.9c-0.4-0.6-0.8-0.4-1.3-0.2
	c0-0.3,0.1-0.6,0.2-0.9c1.6-4.7,2.7-5.3,7.3-3.7c1.3,0.4,2.6,0.5,3.9,0.3c2.5-0.2,5.1,0.2,7.4,1.3c2.3,1.1,4.8,0.4,7.2,0.6
	c0,2.1-1.8,3.1-2.8,4.7c-1.5,3.1-4.6,1.5-7.4,2.3c2,1.3,4.3,1.9,4.5,4.5c0,0.7,1.6,0.7,2.4,1.2C574.3,326.7,576.6,327.4,577.9,329.5
	z"/>
<path class="st150" d="M577.9,329.5c-3.2-1.3-5.7-4.1-9.3-4.5c0.4-2.9,0.4-2.9-2.2-3.6c-0.2,0-0.4,0-0.6-0.1
	c-0.9-0.2-1.5-0.7-1.3-1.7c0.1-0.8,0.8-1.3,1.6-1.2c0.1,0,0.2,0,0.3,0.1c2.2,0.7,4.5,0.3,6.4-1c2.4,2.4,3.8,5.6,3.9,8.9
	C576.8,327.6,578.2,328.2,577.9,329.5z"/>
<path class="st151" d="M153.9,160c0.3-0.4,0.8-0.7,1.3-0.6c1.3,0.1,2.6-0.4,3.5-1.4c1.4-1.4,2.4-1.4,3.2,0.1
	c1.3,2.3,3.2,2.9,5.5,3.2c1.6,0.2,3,0.8,3.1,2.7c0.1,0.6,0.3,1.2,0.7,1.7c0.6,0.9,1.6,1.9,0.9,3c-0.9,1.5-2,3.1-3.7,3.4
	c-1.3,0.3-2.9,1.3-4.3-0.1c-0.6-0.6-1.3-0.2-1.8,0.5c-0.3,0.7-1,1.1-1.8,1c-0.1-2,1.1-2.7,2.7-3.1c-0.3-0.1-1,0-1.4-0.4
	c1.7-4,0.8-5.4-3.5-5.1c-0.7,0.1-1.4,0-2-0.4c0.2-0.9,0.6-1.7,1.3-2.4C156.8,160.7,154.9,161.2,153.9,160z"/>
<path class="st152" d="M153.9,160c1.6-0.1,3.2,0.4,4.6,1.2c1,0.7,0.9,1.4-0.3,1.8c-0.8,0.2-1.5,0.4-1.8,1.3c0.1,0.7,0.2,1.4,0.2,2.1
	c0.2,3,0.9,3.5,4,3.1c0.5-0.1,1,0,1.4,0.3c0.6,0,1.2,0,1.8,0c0.4,0,1.1-0.4,1.1,0.4c0.1,0.4-0.2,0.7-0.6,0.8c-0.1,0-0.1,0-0.2,0
	c-2-0.2-2.6,1.4-3.5,2.5c-1.4,0.1-2.8,0.6-4,1.3c-1,0.7-2.3,0.6-2.6-0.4c-0.8-2.3-3.1-4.1-2.6-6.9C151.9,165,151.4,162,153.9,160z"
	/>
<path class="st153" d="M165.6,345.4c-0.9,0-1.8-0.1-2.8-0.1c-0.8,0.1-1.7-0.3-2.1-1c-0.5-0.9-1.5-1.5-2.5-1.3c-0.8,0-1.7,0.1-1.9-1
	c-0.1-0.5,0.1-1,0.5-1.4c0.7-0.7,1.7-0.8,2.6-0.4c0.2,0.1,0.4,0.2,0.5,0.4c0.7,1.8,2.3,1.7,3.8,1.7c0.2,0,0.4,0,0.6,0
	C166.8,342.6,167,343.1,165.6,345.4L165.6,345.4z"/>
<path class="st154" d="M276.1,42.3c-2,1.5-0.1,3.1,0.2,4.8c0.1,0.7,0.3,1.5-0.4,2s-1.6,0-2.1-0.7c-0.4-0.6-0.8-1.2-1.1-1.8
	c-0.6-1.2,0.6-2.1,0.6-3.1s-1.1-1.9-0.8-3.1c0.1-0.4,0.4-0.7,0.9-0.8C274.5,39.4,276.3,41,276.1,42.3z"/>
<path class="st155" d="M498,389.7c-2.3-0.3-4.7,0.2-6.8,1.3c-1.8,1-3.3,0.4-4.8-0.8c-3.9-3-4.2-7.2-3.7-11.6
	c0.1-0.7,0.4-1.4,0.5-2.1c0-2.2,1.6-4.1,3.8-4.6c0.9-0.1,1.7-0.6,2.4-1.2c0.9-0.3,1.7-0.7,2.5-1.1c1.6-1.1,3.8-0.8,5,0.8
	c1.3,1.7,3.3,2.8,5.5,2.9c2,0.1,3.7,1.6,4.2,3.5c0.4,1.2,0.8,2.3,1.3,3.4c1.5,3.2-0.3,7.1-4.2,8.1
	C501.8,388.8,499.9,389.2,498,389.7z"/>
<path class="st156" d="M459.2,307.7c0.1-2.2,1.6-4.1,3.8-4.7c0.7-0.1,1.6-0.3,1.8,0.7c0.2,1.1,1.2,1.7,1.6,2.6
	c0.7,1.1,0.4,2.6-0.7,3.3c-0.5,0.3-1,0.4-1.5,0.4c-0.5,0-1,0-1.4,0.2C460.4,310.9,459.1,310,459.2,307.7z"/>
<path class="st157" d="M161.9,169.8c-0.1,0-0.2,0-0.3,0.1c-1.6,0.6-3.2,1.8-4.7,0.1c-1.4-1.5-1.6-3.8-0.5-5.6c0.9,0,1.8-0.1,2.6-0.4
	c2.3-0.5,4.5,1,5,3.3c0,0.2,0.1,0.4,0.1,0.6C164.3,169.4,162.5,169,161.9,169.8z"/>
<path class="st158" d="M485.1,381.2c-0.4-1.9,0.5-3.6,0.7-5.4c0.1-1.2,1.1-2.1,2.3-2.1c1.5,0,3-0.6,4-1.7c1.2-1.2,2.2-1.1,3.4,0.1
	c1.4,1.6,3.4,2.6,5.5,2.9c2.4,0.5,4.3,2.3,4.8,4.7c1.2,3.8-2.6,7.7-6.6,6.6c-1.5-0.5-3.2-0.1-4.4,1.1c-1.6,1.5-4,1.2-5.9,2
	c-0.6,0.3-1.4-0.5-1.7-1.1C486.2,386.1,484.6,384,485.1,381.2z"/>
<path class="st159" d="M492.9,377.9c1.4-0.1,2.8,0.4,3.7,1.5c1.4,1.5,1,3.3-0.9,4.1c-0.6,0.3-1.1,0.5-1.7,0.7
	c-1.3,0.7-2.9,0.3-3.8-1c-0.9-1.1-1.1-2.7-0.5-4C490.5,377.9,491.8,377.9,492.9,377.9z"/>
<path class="st78" d="M158.8,262.8c0.1-0.7-0.1-1.4-0.7-1.8c-1.1-0.6-2,0-2.8,0.8c-4.2,4-6.9,9-9.8,13.9c-0.3,0.7-0.4,1.5-0.3,2.2
	c-0.1,0.9,0.4,1.8,1.3,2.1c0.7,0.2,1.5,0,2-0.6c1.1-1,2.2-2.1,3.1-3.3c1.9-2.5,3.7-5.1,5.4-7.8C158.2,266.9,158.8,264.9,158.8,262.8
	z"/>
<path class="st73" d="M254.1,239.2c-0.2,0.6-0.3,1.3-0.4,1.9c-0.1,1-0.4,1.9-1.6,1.9c-1,0-1.8-0.7-2-1.6c-0.7-2.4-1.8-4.8-2.8-7.1
	c-0.4-1.3,0.3-2.7,1.6-3.2c1.4-0.6,2.2,0.2,2.7,1.3C252.7,234.6,253.6,236.8,254.1,239.2z"/>
<path class="st15" d="M104,268c-5.2,15.2-10.3,30.4-15.5,45.8H75c-5.2-15.2-10.4-30.5-15.6-45.9l-1.3,0.1
	c-2.7,15.2-5.4,30.4-8.1,45.7H35.3c4.5-26,8.9-51.5,13.4-77.6h15c5.7,16.9,11.4,34,17.2,51.2c7.9-16.9,12.8-34.5,19.3-51.6h14.5
	c4.4,25.9,8.7,51.8,13.2,78.1h-14.5c-2.6-15.2-5.3-30.5-8-45.8L104,268z"/>
<path class="st15" d="M288.2,281.5l15.5-45.8h13.4c5.2,15.2,10.4,30.5,15.6,45.9l1.3-0.1c2.7-15.2,5.4-30.4,8.1-45.7h14.7
	c-4.5,26-8.9,51.5-13.4,77.6h-15c-5.7-16.8-11.5-34-17.2-51.2c-7.9,16.9-12.8,34.5-19.3,51.6h-14.5c-4.4-25.9-8.7-51.8-13.2-78.1
	h14.5c2.6,15.2,5.3,30.5,8,45.8L288.2,281.5z"/>
<path class="st160" d="M486.3,286.7c0.5-0.4,1-0.3,1.2,0.4c0.5,1.3,1,2.5,1.6,3.7c0.7,1.6,1.1,3.3,1.4,5c0.2,0.7-0.3,1.5-1,1.6
	c0,0-0.1,0-0.1,0c-1.9,0.5-3.9,0.8-5.9,0.7c-0.4,0-0.9,0.1-1.3,0.4c-0.7,0.3-0.9,0.2-1.3-0.5c-0.5-1.1-0.8-2.3-1.1-3.5
	c-0.4-1.4-0.8-2.8-1.3-4.2c-0.3-1-0.4-2-0.1-3c0.3-1,1.2-1.7,2.2-1.7c1-0.1,2-0.3,3-0.5s1.1,0.2,0.8,1.2c1.1,1.1,2,2.4,2.6,3.9
	c0.5,1.2,0.7,2.4,0.8,3.7c0.1,0.7-0.5,1-1.1,1.1c-0.7,0.1-1.4,0.4-1.9,0.9c-1.4,0-2.6-0.8-3-2.1c-0.1-0.4-0.1-0.8-0.7-0.9
	c0.1,2.1,1,3.4,2.7,3.9c0.1,0,0.2,0,0.3,0.1c0.8-0.1,1.8,0.3,2.4-0.6c0.4-1.5,1.1-1.8,2.3-1c-0.4-0.9-0.7-1.9-0.9-3
	c-0.5-1.4-1-2.7-1.6-4.1C486.2,287.7,485.9,287.2,486.3,286.7z"/>
<path class="st161" d="M484.9,295.8c0.3-0.6,0.5-1,1.3-1c0.2,0,0.5-0.1,0.7-0.2c0.9-0.2,1-0.5,0.8-1.3c-0.1-0.5-0.2-1-0.2-1.5
	c0-0.3,0-0.6-0.1-0.8c-0.8-0.9-0.9-2.2-1.7-3.1c-0.3-0.4-0.4-0.8-1-0.8c-0.5,0-0.5-0.5,0-0.8c1-0.4,1-0.4,1.7,0.5
	c-0.1,0.9,0.5,1.5,0.8,2.2c0.6,1.3,0.9,2.8,1.5,4.1c0.3,0.8,0.3,1.7,0.5,2.5c-0.3,0-0.4-0.2-0.5-0.3c-0.9-0.5-1.6-0.1-1.6,0.9
	c0,0.1,0,0.2,0,0.4C486,297,485.5,296.2,484.9,295.8z"/>
<path class="st162" d="M484.9,295.8c0.4-0.1,0.7,0.1,1,0.3c0.3,0.3,0.7,0.5,1.2,0.4c-0.1,0.1-0.2,0.3-0.3,0.3
	c-0.8,0.1-1.5,0.2-2.3,0.3c-0.1,0-0.2-0.1-0.3-0.2c0.1-0.1,0.2-0.2,0.2-0.2c-0.1,0.1-0.1,0.2-0.2,0.3c-0.8,0.1-1.5-0.2-1.9-0.9
	c-0.5-0.7-1.4-1.2-1.1-2.3c0.1-0.2-0.2-0.3-0.3-0.4c-0.2-0.2-0.3-0.5-0.1-0.7c0,0,0.1-0.1,0.1-0.1c0.4-0.2,0.9-0.1,1.2,0.3
	c0.1,0.3,0.2,0.6,0.2,0.9c0.1,0.6,0.4,1,0.9,1.3C483.7,295.3,484.3,295.5,484.9,295.8z"/>
<path class="st163" d="M484.2,289.3c0-0.3-0.1-0.6,0.3-0.7s0.5,0.2,0.6,0.4c0.1,0.1,0.2,0.3,0.2,0.4c0,0.3,0.5,0.6,0.1,1
	s-1.1-0.3-1.1-0.7C484.2,289.6,484.2,289.5,484.2,289.3z"/>
<path class="st161" d="M481.7,287.9c-0.4,0-0.7,0-0.7-0.3s0.2-0.3,0.4-0.4c0.4-0.1,0.9-0.3,1.3-0.4c0.2-0.1,0.4,0,0.4,0.2
	c0,0,0,0,0,0.1c0,0.2,0,0.3-0.2,0.4C482.5,287.6,482,287.7,481.7,287.9z"/>
<path class="st0" d="M723.3,236.2c6.3,0,11.6,0,16.8,0c9.4,0,18.8,0.3,28.2,0c10.1-0.4,19.6,6.6,22.8,16.1c3.3,10,0.6,18.6-8,25.9
	c-2,1.7-4.1,3.3-6.9,5.4c4.3,10.5,13.7,17.8,19.1,28.6c-7.3,1.7-12.8,1.4-17.1-5.1c-4-6.1-9-11.6-13.2-17.5
	c-2.2-3.1-4.7-4.8-8.7-4.7c-7.3,0.2-14.5,0.1-22.3,0.1v27.6h-11C723.1,287.1,722.6,262.2,723.3,236.2z M734.5,273.1
	c12.1,0,23,0.2,33.8-0.1c6.7-0.2,11.9-6.1,12.1-12.7c0.2-5.7-4.5-12-10.3-12.3c-11.9-0.5-23.8-0.1-35.6-0.1V273.1z"/>
<polygon class="st15" points="161,236.1 141.8,236.1 182.1,287.4 182.1,313.1 202.9,313 202.2,287.4 242.1,236.4 222.3,236.4 
	192.7,274.1 "/>
<path class="st164" d="M86.2,265.9c-4.8,0.8-7.1-2.7-9.7-5.4c-1.4-1.4-1.1-3.5,0.3-5.1c2.5-2.9,5-5.9,9.6-4.6c0.9,0.3,1.3-0.4,1.7-1
	c1.7-2.2,3.4-4.3,5.1-6.5c1.2-1.3,2.6-2.4,4.2-3.1c0.8-0.6,1.9-0.5,2.5,0.3c0.8,1.1-0.2,1.8-0.9,2.2c-3.2,2-5.2,5.2-7.7,7.9
	c-1,1.1-0.8,1.8,0.7,2.2c0.8,0.2,1.5,0.5,2.2,0.9c2.7,1.9,3.4,4.9,1.3,7.4C93,264,90.4,266.7,86.2,265.9z"/>
<path class="st165" d="M80.7,260.8c-2.4-1.8-2.4-3.6,0.1-5.9c2-1.8,7.2-1.3,9,0.7c0.8,1,0.9,1.8-0.1,2.7s-1.9,1.5-2.9,2.2
	c-0.5,0.4-0.9,0.2-1.3-0.2c-0.7-0.6-1.4-1.1-2.2-1.6c-0.7-0.3-1.4-0.3-2.1,0C80.3,259.2,81.5,260.1,80.7,260.8z"/>
<path class="st166" d="M196.3,254.1c-2,3.8-3.7,7.7-5.1,11.7c-1.2,3.7-4,5.3-7.7,4.1c-2.3-0.8-4.6-1.7-6.8-2.8
	c-3.9-2.2-8.2-3.6-12.7-4.3c-1.1-0.1-2-0.4-2.1-1.7c-0.1-0.8-0.6-1.2-1.1-1.7c-1.9-1.6-2.2-2.8-0.9-5.1c0.7-1.1,1-2.5,0.8-3.8
	c-0.4-2.6,0.5-5.1,0.7-7.6c0.2-1.9,1-2.7,3-2.9c1-0.1,2-0.1,3,0c1.1,0.5,1.1,1.6,1.3,2.6c0.2,1.9,1.8,3.3,3.7,3.1c0.1,0,0.1,0,0.2,0
	c2.1,0,4.2,0.2,6.2,0.6c5,0.8,10,1.2,15,1.2c3.6-0.1,4.3,0.5,3.3,4C197,252.5,196.7,253.4,196.3,254.1z"/>
<path class="st167" d="M196.3,254.1c0.2-1.4,0.5-2.8,0.7-4.2c0.2-1.3-0.3-2-1.7-1.9s-2.5-0.2-3.5,0.6c-0.7,0.7-1.8,0.7-2.5,0.1
	c-1.6-0.9-3.4-1.2-5.2-0.9c-2.6,0.4-5.3-0.1-7.5-1.5c-0.5-0.4-1.2-0.4-1.6,0c-1.8,1.2-3.6,0.4-5.3-0.3c-1-0.4-1.6-1.3-1.6-2.4
	c-0.1-1.2-0.4-2.4-0.6-3.6c2.3-0.4,4.4-1.4,6.2-2.8c0.5-0.5,1.2-0.8,1.9-0.9c1.1,0,0.6,0.7,0.6,1.2c-0.1,0.1-0.1,0.3-0.1,0.4
	c-0.6,0.9-1.6,1.2-2.4,1.8c-1.2,1-0.8,1.7,0.4,2.3c1.4,1,2.9,1.8,4.6,2.4c3.4,1.8,7,1.5,10.6,1.4c0.5-0.1,0.8-0.5,0.8-1
	c0-0.2,0.1-0.5,0.3-0.6c0.3-0.8,0.6-1.4,1.5-0.5c0.3,0.4,0.5,0.9,0.5,1.4c0.3,1.4,0.9,2.2,2.5,1.8c0.9-0.2,1.9,0.1,2.6,0.7
	c0.5,0.4,1.1,0.9,0.8,1.5C197.5,250.8,197.8,252.8,196.3,254.1z"/>
<path class="st168" d="M190.1,244.3l0.1,0.8c0.4,0.5,0.4,1.1,0,1.6c-4.2,0.1-8.5,1-12.4-1.7c4-1.7,3.4-5.3,3.7-8.6
	C185.4,238,188.7,240.1,190.1,244.3z"/>
<path class="st169" d="M181.6,236.5c0.4,0.8,1.4,1.2,1.6,2c-0.3,1.1-1.6,0.7-1.9,1.6c1.6,1.3,1.7,2.3,0.2,3.4
	c-1,0.8-2.1,1.7-3.5,1.6c-1.6-0.5-3.1-1.4-4.4-2.4c-1.3-2.8,1.7-3.3,2.6-5l0,0C177.9,237.1,179.5,236,181.6,236.5z"/>
<path class="st0" d="M175.6,241.2c0.1-0.1,0.3-0.3,0.4-0.3c0.2,0,0.4,0.1,0.4,0.3c0,0.1,0,0.2-0.1,0.2c0,0.1-0.3,0.2-0.5,0.2
	S175.7,241.4,175.6,241.2z"/>
<path class="st2" d="M333.6,289.6c0,5.1-4,11.1-8.7,12c-4,0.8-8.4,1.1-11.8-2.3c-0.9-0.7-1.9-1.2-3-1.3c-1-0.3-2-0.8-2.1-1.9
	c-0.1-0.9,0.8-1.4,1.5-1.8c3.2-2.2,5.3-5.7,5.8-9.5c0.4-2.5,1.4-3,3.8-2.1c0.8,0.4,1.8,0.6,2.7,0.4c3-0.9,5.9,0.2,8.7,1
	S333.8,287.2,333.6,289.6z"/>
<rect x="718.9" y="236.1" class="st0" width="16" height="77"/>
<polygon class="st0" points="718.9,271 777.5,271 776.1,286.2 719.8,286.2 "/>
<path class="st0" d="M766.2,248.1c0,0,18.7,8,5.3,23c2.1,1.5,4.7,2,7.2,1.5l8.5-18.9l-19.9-9.2L766.2,248.1z"/>
<polygon class="st0" points="761.3,286.2 778.7,313.1 796.2,313.1 776.1,283.8 "/>
<path class="st0" d="M842.4,236.4h16.4v34.2c5.1-5.9,21-23.2,30.7-34.2h19.8l-30.9,31.9l32.1,44.9h-20L867,279.1l-8.1,7.7v26.4
	h-16.4V236.4z"/>
<path class="st170" d="M744.5,294.6c-1.1,0.7-2.1,1.6-3.3,2.2c-1,0.7-2.3,0.5-3.1-0.3c-0.8-0.8-0.2-1.7,0.2-2.5c1-2.3,2-4.6,3-6.9
	c0.9-1.8,2.3-3.4,4-4.6c0.7-0.7,1.7-0.8,2.6-0.4c0.9,0.5,1,1.4,1,2.4c0,3.2-1.2,6.3-3.4,8.7C745,293.6,744.5,293.9,744.5,294.6z"/>
<path class="st171" d="M787.2,228.9c3.6-0.4,7.3,0.1,10.7,1.7c4.2,1.8,7.1,5.5,7.8,10c0.4,2.1,0.6,4.2,0.8,6.3c0.2,3.5-0.7,7-2.4,10
	c-0.9,1.8-2.5,3.2-4.4,3.8c-2.4,0.7-4.8,1.4-7.1,2.1c-0.1,0-0.2,0.1-0.3,0.1c-3.4-0.5-7.1,0.6-10.3-0.3c-10.1-2.7-15.5-10.3-13-21.5
	c0.5-1.8,1.5-3.4,2.7-4.8C775.5,231.2,780.5,227.9,787.2,228.9z"/>
<path class="st100" d="M793.1,252.1c-0.3,0.2-0.6,0.4-1,0.5c-1.8,0.6-2,1-1.8,2.8c0.4,2.4,0.3,2.5-1.7,3.6c-5.9,3.2-8.5,2-13.9-2.3
	c-3.1-2.4-3.8-6-4.3-9.6c-0.1-1,0.2-2.1,0.9-2.8c2.8-3.2,5-6.8,8.5-9.3c1.1-0.8,1.9-1.3,3-0.3c0.3,0.3,0.9,0.2,1.3,0.2
	c0.1,1.6-1.1,2.1-2.2,2.3c-2.6,0.5-3.5,2.1-3.8,4.6c-0.3,2.9-0.7,5.6,0.8,8.3c1.6,2.9,2.7,3.5,6,2.5c1.7-0.5,3.4-0.9,5.1-1.1
	C791.1,251.3,792.3,251.1,793.1,252.1z"/>
<path class="st172" d="M793.1,252.1c-2.8-0.1-5.6,0.4-8.3,1.4c-2.8,1.3-4.7-0.2-6.4-2.8c-2.5-3.7-1.1-7.5-0.7-11.2
	c0.2-1.9,2-2.8,3.8-3c1.1,0,2.1-0.6,2.7-1.6c2.6-1.7,4.2-1.4,6,1.1c0.6,1,1.7,1.6,2.9,1.7c2.7,0.2,4.7,1.4,5.3,4.3
	c0.2,0.8,0.7,1.5,0.9,2.3c0.6,1.6,0.3,3.5-0.8,4.8C797.3,250.9,795.3,251.9,793.1,252.1z"/>
<path class="st151" d="M780.9,238.8c0.3-0.4,0.9-0.7,1.5-0.5c1,0,2-0.4,2.7-1.1c1.9-1.7,3-1.6,4,0.7c0.4,1,1.5,1.7,2.6,1.5
	c2.4,0.1,4.3,0.9,4.8,3.6c0,0.1,0,0.2,0.1,0.3c2.5,2.2,0.9,3.7-0.8,5.2c-1.4,1.1-3.1,1.5-4.8,1.1c-0.7-0.1-1.4-0.2-2.2-0.2
	c-0.6-0.2,0.9-1.1-0.3-0.9c-1.1,0.3-2.2,0.4-3.3,0.4c-0.9-0.1-1.9-0.3-1.6-1.6c1.2-0.7,2.5,0,3.7-0.6c0.7-0.4,1.8-0.3,1.8-1.4
	s-0.8-1.6-1.6-2c-1.2-0.6-2.6-0.1-3.7-0.9C785.2,239.1,782.2,239.7,780.9,238.8z"/>
<path class="st173" d="M783.6,247.1c0.7,1.9,2.2,1.1,3.5,0.9c1-0.2,1.9-0.5,2.8-0.8c0.3-0.1,0.7,0.1,0.8,0.4c0,0,0,0.1,0,0.1
	c0.1,0.4-0.1,0.7-0.4,0.9c-0.5,0.3-1.3,0-1.7,0.7c-1.5,2.1-3.9,2.1-6,2.8c-0.7,0.2-1.8,0-1.9-0.8c-0.3-1.7-1.4-2.9-1.9-4.4
	c-0.2-0.8-0.2-1.6,0-2.4c0.5-1.5,0.8-3,1-4.5c0-0.6,0.5-0.9,1-1.2c1.3,0.1,2.5-0.1,3.8,0.4c0.5,0.2,1.1,0.3,1.1,1
	c0,0.6-0.4,0.8-0.8,1s-1,0.4-1.3,0.9C783.2,243.8,783.2,245.5,783.6,247.1z"/>
<path class="st174" d="M783.6,247.1c-1.5-2-1.5-3.2,0-5c0.8,0,1.6,0.1,2.5,0c1.3-0.1,2.6,0.5,3.3,1.6c1.4,1.8,1.1,2.5-1,3.3
	C786.8,247.5,785.2,248.1,783.6,247.1z"/>
<path class="st130" d="M859.6,304.3c-0.6-0.5-1.2-1.1-1.9-1.5c-1-0.7-2.1-0.9-2.9,0.4s-1.5,0.9-2.4,0.1c-0.9-1-2.3-1.5-3.6-1.2
	c-0.4,0.1-1,0.1-1.1-0.1c-1-1.3-2.6-1.3-4-1.6c0-1.6,1.7-1.4,1.8-2.5l0.7,0.2c3.8-1.9,7.1-1,10.1,1.7c1.3,1.2,3.1,1.6,3.8,3.4
	L859.6,304.3z"/>
<path class="st131" d="M860.2,303.2c-1.7-0.7-3.3-1.7-4.6-3c-2.5-2.2-5.1-3.4-8.3-1.8c-0.4,0.2-0.8,0.2-1-0.4c2.5-2.2,6.3-2.4,9-0.5
	c1.6,1.3,3.3,2.5,5,3.6C861.2,301.8,861,302.6,860.2,303.2z"/>
<path class="st50" d="M854.3,310c2.2,0.4,4,0,4.8-2.4c-0.5-0.8-0.6-1.2,0.6-1.4c1.9-0.2,3.5-1.6,4-3.5c0-0.1-0.2-0.3-0.3-0.4
	c-1.8,0.4-3.6-0.2-4.8-1.5c-0.2-0.2-0.6-0.2-0.9-0.3c-0.3,1-0.8,1.7-1.9,1.3c-2.2-0.8-4.8,0.3-6.7-2c-0.8-1-2.4-0.6-3.3,0.6
	c-0.1,0.8,0,1.6,0.5,2.3c0.6,0.9-0.1,1.1-0.8,1s-1.6-0.5-2.5-0.8c-0.5-0.2-1.1,0-1.3,0.5c0,0,0,0.1,0,0.1c-0.1,0.5,0.1,1,0.6,1.2
	c1.1,0.7,2.3,1.3,3.5,1.9l2.5,1c0.6,0.7,1.5,0.5,2.3,0.9l0.1,0.1c0.4,0.3,1,0,1.3,0.4l0.1,0C852.8,309.5,853.7,309.5,854.3,310z"/>
<path class="st131" d="M845.7,299.6c1.4,0.1,2.9-0.1,4.3-0.6c2.5-0.7,4.7-0.7,6.5,1.5c0.2,0.3,0.5,0.4,0.8,0.1
	c-1.1-2.4-3.7-3.8-6.3-3.2c-1.5,0.4-3.1,0.7-4.7,0.9C845.4,298.3,845.3,298.9,845.7,299.6z"/>
<path class="st38" d="M863.5,302.4c-0.2-0.5-1.1-0.8-0.5-1.6c1-1.2,0.2-2-0.8-2.4s-1.6-0.9-1.7-2c-0.1-0.5-0.4-0.9-0.8-1.1
	c-1.7-1.2-3.5-2.1-5.1-3.5c-0.6-0.5-1.5-0.6-2.3-0.3c-1.2,0.8-2.7,0.8-3.9,1.5c-0.7,0.5-1.7,0.6-2.5,0.4c-2-0.6-4.2-0.2-5.9,1
	c-1,0.7-2.2,0.9-3.3,0.5c-1.7-0.5-2.2,0-3,1.8c-0.1,0.4-0.1,0.8,0.2,1.1c1.8,3.1,4.5,5.4,6.7,8.2c1.2,1.5,3.3,1.9,5,1
	c0.5-0.9-0.3-1-0.8-1.4c-0.7-0.5-1.6-0.6-2.1-1.4c0-0.2,0.2-0.3,0.4-0.3c3.9,0.6,3.9,0.6,3.2-3.3c0-0.3,0-0.6,0-1
	c2.2-2.3,7.3-2.4,9.7-0.2c0.4,0.4,0.7,0.9,1.1,1.3c0.2,0.2,0.4,0.3,0.6,0.4c1.2,0.5,2,1.6,3.3,1.8
	C861.9,303,862.8,303.2,863.5,302.4z"/>
<path class="st42" d="M845.7,306.7c-2.3,0.3-4.4-0.1-5.7-2.1c-1.1-1.8-2.5-3.5-4.1-4.9c-0.8-0.9-1.6-2-2.1-3.1
	c-0.3,0.2-0.5,0.5-0.4,0.8c0.6,2.2,0.7,4.4,0.3,6.6c-0.3,3.2,1.4,4.9,3.9,5.9c4.9,2,9.7,4.3,14.5,6.4c0.7,0.3,1.4,0.4,2.1,0.5
	c1.9,0.5,1.7,0.4,2.7-1.5c1-1.7,2.2-3.3,3.4-4.8c0.4-0.6,0.8-1.2,1.3-1.7s0.7-1.2,0.1-1.7c-0.5-0.5-1.3-0.6-1.8-0.1
	c0,0-0.1,0.1-0.1,0.1l-0.5,0.5c-1.3,0.9-2.5,2.3-4.4,1.8c-0.8,0-1.6-0.2-2.3-0.5l-0.6-0.2c-0.4-0.1-0.8-0.2-1.1-0.4
	c-0.2-0.1-0.4-0.1-0.6-0.2c-0.7-0.1-1.4-0.5-2-1C847.4,306.9,846.6,306.3,845.7,306.7z"/>
<path class="st136" d="M841.7,309c1.2,1.4,2.8,2.3,4.6,2.7c1.7,0.6,3.4,1.3,4.9,2.2c1,0.6,2.1,0.7,3.2,0.5c0.6-0.2,1-0.8,0.9-1.5
	c-0.1-0.6-0.6-0.7-1-0.7c-4.1,0-7.6-2-11.4-3.1C842.5,308.8,842.2,308.6,841.7,309z"/>
<polygon class="st50" points="863.7,302.8 861.9,308.4 856.7,309.3 857.2,303.7 "/>
<path class="st32" d="M900.1,240.5c-3.9,2.8-8,2.5-12.2,0.8c-2.6-1.1-3.3-3.9-1.9-6.6c0.2-0.4,0.6-0.7-0.2-0.9
	c0.8-0.9,1.8-1.5,3-1.6c0.7,0,1.2-0.6,1.7-1.1c1.5-1.4,1.6-1.4,3.2,0.1c0.6,0.6,1.3,1.1,2.2,1.4c1.1,0.5,2.5,0.5,3.6-0.1
	c0.5-0.2,1-0.4,1.6-0.5c0.8-0.1,1.5,0.3,1.8,1c0.4,0.6,0.3,1.4-0.3,1.8c-0.8,0.9-1.3,2-1.5,3.2C901.1,239,900.7,239.8,900.1,240.5z"
	/>
<path class="st82" d="M724.2,239.5c0,1.7-1.2,2.5-2.6,1.6c-2.7-1.5-5-3.5-7.1-5.8c-0.6-0.6-0.9-1.4-0.8-2.2c0-1.6,1.1-2.3,2.4-1.4
	c2.5,1.9,5,3.9,7.4,5.9C724,238.1,724.2,238.8,724.2,239.5z"/>
</svg>
