<svg id="Capa_1_copia_4" data-name="Capa 1 copia 4" xmlns="http://www.w3.org/2000/svg" viewBox="0 0 1080 567.24"><defs><style>.cls-1{fill:#a76a5e;}.cls-2{fill:#5f2534;}.cls-3{fill:#462d2b;}.cls-4{fill:#801e3e;}.cls-5{fill:#e24765;}.cls-6{fill:#9d8579;}.cls-7{fill:#ab2145;}.cls-8{fill:#701726;}.cls-9{fill:#d16e56;}.cls-10{fill:#f29fac;}.cls-11{fill:#472d2b;}.cls-12{fill:#f08767;}.cls-13{fill:#de5c48;}.cls-14{fill:#e4997f;}.cls-15{fill:#e9b498;}.cls-16{fill:#fff;}.cls-17{fill:#a86a5e;}.cls-18{fill:#3e2236;}.cls-19{fill:#67212e;}.cls-20{fill:#66212f;}.cls-21{fill:#dc95ae;}.cls-22{fill:#aa6f66;}.cls-23{fill:#87213e;}.cls-24{fill:#8b243e;}.cls-25{fill:#712634;}.cls-26{fill:#c54e48;}.cls-27{fill:#4a2934;}.cls-28{fill:#9d3240;}.cls-29{fill:#9c5943;}.cls-30{fill:#c17b6a;}.cls-31{fill:#6e1620;}.cls-32{fill:#6f1620;}.cls-33{fill:#333737;}.cls-34{fill:#e0415d;}.cls-35{fill:#68222f;}.cls-36{fill:#975741;}.cls-37{fill:#644c48;}.cls-38{fill:#d06e55;}.cls-39{fill:#cf6d54;}.cls-40{fill:#552630;}.cls-41{fill:#65212e;}.cls-42{fill:#4b1c31;}.cls-43{fill:#a82145;}.cls-44{fill:#751724;}.cls-45{fill:#ab2146;}.cls-46{fill:#cbb088;}.cls-47{fill:#823d3e;}.cls-48{fill:#771722;}.cls-49{fill:#761723;}.cls-50{fill:#761823;}.cls-51{fill:#f3a49b;}.cls-52{fill:#f2a2a0;}.cls-53{fill:#682837;}.cls-54{fill:#e3b197;}.cls-55{fill:#bf2943;}.cls-56{fill:#692937;}.cls-57{fill:#a2253b;}.cls-58{fill:#e47962;}.cls-59{fill:#9b3442;}.cls-60{fill:#eaa079;}.cls-61{fill:#f08867;}.cls-62{fill:#9c303f;}.cls-63{fill:#c6594d;}.cls-64{fill:#7b2c38;}.cls-65{fill:#c75c4e;}.cls-66{fill:#e6a983;}.cls-67{fill:#e5aa83;}.cls-68{fill:#7b4e4f;}.cls-69{fill:#666e67;}.cls-70{fill:#964d93;}.cls-71{fill:#974e94;}.cls-72{fill:#e32247;}.cls-73{fill:#e32347;}.cls-74{fill:#eab296;}.cls-75{fill:#686e66;}.cls-76{fill:#676e66;}.cls-77{fill:#4e2e4d;}.cls-78{fill:#ebb396;}.cls-79{fill:#eab295;}.cls-80{fill:#ec8a68;}.cls-81{fill:#4c2e4d;}.cls-82{fill:#4d2d4d;}.cls-83{fill:#e22447;}.cls-84{fill:#e22347;}.cls-85{fill:#e32447;}.cls-86{fill:#71434d;}.cls-87{fill:#673e49;}.cls-88{fill:#ecc7b5;}.cls-89{fill:#995d55;}.cls-90{fill:#da678f;}.cls-91{fill:#c4354d;}.cls-92{fill:#221916;}.cls-93{fill:#6f424c;}.cls-94{fill:#4c353e;}.cls-95{fill:#edc7b4;}.cls-96{fill:#653d48;}.cls-97{fill:#998176;}.cls-98{fill:#d7686f;}.cls-99{fill:#b56066;}.cls-100{fill:#ad1831;}.cls-101{fill:#dc5a4b;}.cls-102{fill:#e39e79;}.cls-103{fill:#652e32;}.cls-104{fill:#7a3f4d;}.cls-105{fill:#e8bea7;}.cls-106{fill:#df857d;}.cls-107{fill:#4b1a2f;}.cls-108{fill:#ab1b33;}.cls-109{fill:#b87c6b;}.cls-110{fill:#d2877b;}.cls-111{fill:#d5887d;}.cls-112{fill:#ac1c34;}.cls-113{fill:#b9806e;}.cls-114{fill:#db7b77;}.cls-115{fill:#db9484;}.cls-116{fill:#db8b80;}.cls-117{fill:#ab1d35;}.cls-118{fill:#bb8370;}.cls-119{fill:#e39e8b;}.cls-120{fill:#e6a28e;}.cls-121{fill:#f0b699;}.cls-122{fill:#e96383;}.cls-123{fill:#954854;}.cls-124{fill:#e9c1aa;}.cls-125{fill:#c5735a;}.cls-126{fill:#ebc3ac;}.cls-127{fill:#7d2d3a;}.cls-128{fill:#d3618d;}.cls-129{fill:#933e53;}.cls-130{fill:#d2618c;}.cls-131{fill:#974055;}.cls-132{fill:#9b6950;}.cls-133{fill:#d6646d;}.cls-134{fill:#6a2936;}.cls-135{fill:#9a5e56;}.cls-136{fill:#dc6b92;}.cls-137{fill:#c5374e;}.cls-138{fill:#d7618c;}.cls-139{fill:#bc2746;}.cls-140{fill:#e29c7b;}.cls-141{fill:#b32645;}.cls-142{fill:#e9a480;}.cls-143{fill:#b72645;}.cls-144{fill:#e09678;}.cls-145{fill:#e1847d;}.cls-146{fill:#da324d;}.cls-147{fill:#6a202d;}.cls-148{fill:#e6b9a3;}.cls-149{fill:#e4b298;}.cls-150{fill:#5c615d;}.cls-151{fill:#e89580;}.cls-152{fill:#f6d6c4;}.cls-153{fill:#dc827b;}.cls-154{fill:#e48f84;}.cls-155{fill:#cc9378;}.cls-156{fill:#d86a70;}.cls-157{fill:#d46551;}.cls-158{fill:#e9bca5;}.cls-159{fill:#ca8c74;}.cls-160{fill:#c44e48;}.cls-161{fill:#e6a57d;}.cls-162{fill:#ee8665;}.cls-163{fill:#e5a27c;}.cls-164{fill:#741722;}.cls-165{fill:#c4314a;}.cls-166{fill:#2d1310;}.cls-167{fill:#752e42;}.cls-168{fill:#e67c60;}.cls-169{fill:#f3baa8;}.cls-170{fill:#5c615e;}.cls-171{fill:#712736;}.cls-172{fill:#dd5b4b;}.cls-173{fill:#f5cab9;}.cls-174{fill:#d66350;}.cls-175{fill:#656e66;}</style></defs><title>Mesa de trabajo 1</title><path class="cls-1" d="M.62,568.07v-11c1.42-1,2.51.21,3.68.64,2.1.76,4.17,1.5,6.48.26C7.18,556.59,4,554.5.62,552.77V313.93a6.25,6.25,0,0,1,2.45-1.17c3-1.21,4.15-2.86,4.14-5.73a6.14,6.14,0,0,0-4.39-6.27,5.1,5.1,0,0,1-2.2-1V248.07c1.45-1.19,3.14-.89,4.69-.5,2.5.62,4.62-.16,6.74-1.28A2.75,2.75,0,0,0,13.83,244c-.07-4.38,2.76-7.35,5-10.56,1.95-2.76,2-2.89-1.24-4.07-2.86-1-5.31-2.35-6.45-5.42-.23-.63-.7-1.68-1.71-1.4-.74.2-.74,1.14-1,1.8-1.65,4.6-4.2,6.11-7.86,4.67v-1.23c2.23-1.37,3.91-3,4.16-5.91.18-2-.07-3.4-2.54-3.24a2.1,2.1,0,0,1-1.62-.7V163.74c2-1.87,5-1.7,7.21-3.15,7.09-1.88,9.55-6.85,9.82-13.13.07-1.64.05-3.28,0-4.92-.13-5-2.66-7.58-7.79-8-3-1.62-6.11-3.23-9.25-4.66V58.48c1.3-.81,1.82.38,2.49,1a17,17,0,0,0,3,2.61c3.29,2,6,1.33,8.13-1.89,3.56-5.47,2.52-10.36-2.86-13.51C7.87,44.65,4.87,45.55,3,49.17c-.49.94-.51,2.64-2.38,1.92V.61h80c.14,2.15-1.51,2.67-3,3.27-5.92,2.39-7.23,8.25-2.93,13.18,3.67,4.22,13.75,5.84,18.52,3l.26-.17c1.89-1.27,5.25-10.33,4.69-12.51a3,3,0,0,0-2.4-2.09c-1.57-.48-3.24-.54-4.78-1S87.44,3.1,88.64.61h42.47c.8,3.13.29,6.3.06,9.4-.19,2.7.87,3.76,3.2,4.19,4.33.81,8.65,1.68,13,2.11a48.26,48.26,0,0,1,7.28,1,7.12,7.12,0,0,0,8.12-2.79c2-2.6,4.57-4.7,6.28-7.53.87-2.31-1-2.92-2.38-3.86-.89-.6-2.5-.75-1.73-2.51h62.17c.61,1.54-.4,2.7-.93,4-.19.45-.52,1-.06,1.39s1.14.17,1.6-.25a16.79,16.79,0,0,0,2.1-2.58,3.81,3.81,0,0,1,3.54-1.9q73.29,0,146.55,0c1.78-.14,2.31,1.26,3,2.47.57.93,1.2,2.14,2.41,2s.89-1.57,1.1-2.47.45-1.77,1.56-2c23.56-.11,47.11-.07,70.66,0,2.4.68,1,1.83.14,2.5-2.48,1.94-3.54,4.69-4.66,7.43a3.88,3.88,0,0,0-.17,3c1.53,4.12,6.48,7.63,10.88,7.82,6.11.26,12-.31,17.48-3.39a24.48,24.48,0,0,0,5.53-3.8c4.54-4.51,4.1-8.61-1.26-12-.87-.55-2.29-.61-2.19-2.17H530c0,1.54-.09,3.07-.09,4.6q0,73.89,0,147.79c0,1.33.07,2.66.11,4-.89.92-2.07.76-3.18.77a185.16,185.16,0,0,0-42,5.1c-27.82,6.87-52.43,19.57-71.72,41.19C398.89,220,390,238.57,388,260.05q-4.67,47.93,29.1,82.32c15,15.26,33,25.41,53,32.52,1.35.48,2.81.67,3.94,1.66-.15,2.32-.51,4.61-.47,6.95a15.28,15.28,0,0,0,7,12.92c3,2,6.14,4.6,10.33,3.68a15,15,0,0,1,4.43-.09c5.49,1.21,10.3-.94,14.84-3.47,2.72-1.51,3.4-4.71,4.18-7.59.45-1.63.27-3.53,1.87-4.71,2.35-.46,4.71-1.06,6.9.54,1.67.66,3.42.31,5.14.4,1.12.05,1.72.41,1.65,1.62,0,.71,0,1.43,0,2.14q0,22.51,0,45c0,1.43.09,2.85.14,4.28-3.67,2.12-4.91,5.85-6.19,9.52-.94,2.7-2.18,4.92-5.16,6a7.72,7.72,0,0,0-4.6,5.45,5.18,5.18,0,0,0,2.27,6.15c3.68,2.09,7.51,3.38,11.63,1,.6-.35,1.24-.78,2-.37,0,2.87-.1,5.74-.09,8.61q0,26,.07,52c0,1.54-.06,3.07-.09,4.61a11.26,11.26,0,0,0-.2,3.66v32"/><path class="cls-2" d="M484.45.61c1.74,1.37,3.89,2.05,5.43,3.81,2.16,2.45,2.67,4.5,1.24,7.48a13.66,13.66,0,0,1-6.69,6.47c-3.54,1.69-6.91,3.82-11,4.15a59.79,59.79,0,0,1-10.7.08c-2.78-.29-5-2.12-6.9-4.23-.6-.69-1.09-1.47-1.64-2.21a5.3,5.3,0,0,1-.58-5.89,19.51,19.51,0,0,1,6.27-8.41c1.3-1.09,2.87-.86,4.39-.94,3.45-.17,6.93.42,10.37-.31Z"/><path class="cls-3" d="M88.64.61c.45,2.29,1,2.9,3.32,3.1a30.44,30.44,0,0,1,5.38,1.13,2.24,2.24,0,0,1,1.83,2.45,9.9,9.9,0,0,1,0,1.54c-.65,3.68-2.52,7-3.77,10.42-.65,1.81-2.78,2.19-4.66,2.5-5.38.9-10.55,1-15.13-2.71A12.15,12.15,0,0,1,71.85,6.89a3.07,3.07,0,0,1,1.64-2.08c1.29-.6,2.45-1.55,3.9-1.74A4,4,0,0,0,80.64.61Z"/><path class="cls-4" d="M.62,229c1.51-.06,3,.15,4.41-.85s2.32-1.8,2.56-3.54a6.37,6.37,0,0,1,1.86-4c1.22.77,1.61,2.34,2.72,3.1,1.35.91.35,3.45,2.89,3.59,1.64.08,2.93,1.62,4.8,1.74s2.23,1.68.73,3.42c-1.74,2-3,4.35-4.58,6.49a5,5,0,0,0-1.23,3.64c.29,2.51-.86,3.79-3.16,4.88a9.43,9.43,0,0,1-7,.68,15.89,15.89,0,0,0-4-.1Z"/><path class="cls-5" d="M8.1,161.28a21.54,21.54,0,0,1-7.48,2.46V137.88a14.3,14.3,0,0,1,9.72.92c1.58.79,2.48.66,3.56-.41a2.54,2.54,0,0,1,1.08,2.4A51.13,51.13,0,0,1,13.67,156C12.86,159.16,10.13,159.72,8.1,161.28Z"/><path class="cls-6" d="M474.6.61c-1,.87-2.14.46-3.22.49-3.86.13-7.74-.25-11.54.76L387,1.9c-2,1.16-4-.41-6,0H232.06a.83.83,0,0,1,0-1.24Z"/><path class="cls-7" d="M169.88,6.8c.08,1.33-1.15,1.86-1.72,2.79-1.63,2.61-4.15,4.46-6,6.91-1.7,2.23-4.52,2.47-7,1.78-5-1.4-10.34-1-15.4-2.26-2.65-.66-5.43-.74-8-1.75-1.41-.55-2-1.18-1.43-2.74.65-1.87.25-3.85.27-5.79a16.74,16.74,0,0,1,.61-5.13h2.47c1.42,5.43,6.13,6,10.47,7.13.3.08.58.2.86.3,2.28.89,4.73,1.13,7,2.08a6.45,6.45,0,0,0,5.64-.1c3.07-1.74,6.74-1.57,9.78-3.32A2,2,0,0,1,169.88,6.8Z"/><path class="cls-8" d="M.62,51.09c1.14.06,1.19-.85,1.46-1.61,1.74-4.89,5.38-6.07,9.93-3.36a9.91,9.91,0,0,1,5,6.3c.54,2.26.59,4.44-1,6.41a25.35,25.35,0,0,0-1.41,2.36c-1.85,3-4.41,3.68-7.93,2.18a12.36,12.36,0,0,1-4.43-3.69c-.46-.54-.76-1.23-1.62-1.2Z"/><path class="cls-9" d="M169.88,6.8a3.86,3.86,0,0,0-2,.49c-2,1-3.95,2.13-6.32,1.9a2.34,2.34,0,0,0-1.7.56c-3,2.37-6.19,2.11-9.38.61-1.85-.88-4-.43-5.76-1.69,1.13-1.2,2.45-.55,3.73-.4,1.77.21,3.49,1,5.34.58,0-.86-.59-.91-1-1.08-3.32-1.32-3.38-1.42-.88-4.16.82-.89.89-2,1.41-3H165c.06,1.17,1,1.54,1.85,1.75,1.54.35,2.37,1.53,3.3,2.59A1.16,1.16,0,0,1,169.88,6.8Z"/><path class="cls-10" d="M153.27.61a2.31,2.31,0,0,1-.41,3.26c-.7.74-1.84.91-2.35,2.05,1,1.21,2.59.9,3.8,1.47.57.27,1.2.48,1.2,1.2,0,.93-.76,1.08-1.49,1.18-2.07.27-4-.45-6-.8a10.64,10.64,0,0,0-3.32-.3c-2.14-.58-4.27-1.25-6.44-1.72-2.54-.55-4.36-1.58-4.22-4.58a6.52,6.52,0,0,0-.45-1.76Z"/><path class="cls-11" d="M.62,299.78c4.53-.72,8.67,3.56,7.27,9.63-.52,2.28-3.89,4.28-7.27,4.52Z"/><path class="cls-12" d="M13.5,138.53c-.07.89.23,1.81-.24,2.65-.74.42-1.18-.1-1.54-.54a6.13,6.13,0,0,0-4.83-2.1,36.54,36.54,0,0,1-6.27-.66v-8c3.66.13,6.49,2,9.17,4.28C11.72,135,13.22,136.26,13.5,138.53Z"/><path class="cls-13" d="M.62,552.77a5.55,5.55,0,0,1,3.74,1c2,1.27,3.88,2.61,6.35,2.75a1.43,1.43,0,0,1,1.49,1.59c-.06,1-.79,1.36-1.69,1.42A12.46,12.46,0,0,1,4,558.45c-1.09-.52-2.08-1.31-3.36-1.37Z"/><path class="cls-14" d="M.62,217.91l.91,0c4.38.05,4.38.05,4,4.46a5.58,5.58,0,0,1-4.94,5.35Z"/><path class="cls-15" d="M232.07.61V1.85c-1.4.93-2,2.52-3.1,3.72a13.15,13.15,0,0,1-1.22,1.35,1.74,1.74,0,0,1-2.49,0,1.48,1.48,0,0,1,0-2.19c1-1.23,1.28-2.77,1.93-4.15Z"/><path class="cls-16" d="M523.11,384.78l-7.27-.07c-1.28-1.77-1.08-3.9-1.35-5.88-1.25-9.08-6.79-14.35-15.88-14.8a64.64,64.64,0,0,0-8.58,0c-6.5.55-10.84,4.29-13.91,9.79-.58,1-.79,2.39-2.15,2.85a5.89,5.89,0,0,1-2.68-.55c-20.08-6.76-38.2-16.84-53.45-31.72-14.35-14-24.45-30.57-28.73-50.24-7.09-32.57-.16-62,21-87.86,13.54-16.52,30.74-28.13,50.34-36.33a164.13,164.13,0,0,1,47.77-11.9A193.37,193.37,0,0,1,530,157l0-.05a4.79,4.79,0,0,1,1,3.45q.06,19,0,38.07a7.86,7.86,0,0,1-.38,2.72c-1.05,2-3,1.51-4.63,1.55a117,117,0,0,0-42.53,8.54,87,87,0,0,0-18.85,10.25,6.49,6.49,0,0,1-6.86.86,29.55,29.55,0,0,0-12.39-1.66c-2.71.14-4.73,1.3-5.09,4.31-1,2.73-2.12,5.38-4.9,6.85-3.71,1.54-4.35,2.25-2.87,6,2,5.13,3.86,10.45,7.5,14.81a7.32,7.32,0,0,1-.43,3.62,59.58,59.58,0,0,0-.75,25.93c2.95,16.36,12.08,28.72,25.41,38.14,16.45,11.62,35,17.23,54.94,18.68,2.86.2,5.7.64,8.58.62a2.74,2.74,0,0,1,2.84,1.45,9.22,9.22,0,0,1,.42,3.34q0,18.1,0,36.23c0,1.41.18,2.9-.94,4.07Z"/><path class="cls-17" d="M530,384.72c0-5.51.11-11,.11-16.51,0-9.28-.07-18.55-.11-27.83l.38-.36c4-1,8.06-.54,12.08-1,4.23-.51,8.46-.95,12.62-1.86,1.54-.38,2.48.64,3.45,1.55a38.56,38.56,0,0,0,7.32,5c2,1.12,3.59,1.23,5.12-.68a10.69,10.69,0,0,1,2.83-2.34,32.13,32.13,0,0,0,13-14.8c11.94-6.52,21.87-15.15,28.55-27.2a56.21,56.21,0,0,0,6.89-23.06c1.32-16-3.57-29.91-13.71-42.08a73.21,73.21,0,0,0-21.73-17.4,110.3,110.3,0,0,0-53.11-13.43,7,7,0,0,1-3.32-.43l-.34-.34-.06-45c7.27.12,14.53.44,21.76,1.23,32.78,3.6,62.47,14.55,87.21,37a104.76,104.76,0,0,1,29.21,44.09,11.76,11.76,0,0,1,.31,1.48c-1.67.11-2.13-1.41-3-2.31-3.69-3.74-7.77-6.18-13.37-5-4.42.91-8.62,6.75-7.59,11.28,2.15,9.47,8.35,15.72,16.7,20a9,9,0,0,0,9.63-.65c.57-.4,1.16-.88,2-.58a47.05,47.05,0,0,1,.45,11.91,99.43,99.43,0,0,1-19.58,55.18c-2,.89-2.52-.82-3.19-1.93a24.34,24.34,0,0,0-5-6.15c-.71-.59-1.57-1.24-2.46-.47s-.22,1.55.14,2.24c2,3.76,4.77,6.87,7.53,10a105.7,105.7,0,0,1-18.3,18.37c-1.42,1.15-2.9,2.25-4.37,3.35-.55.41-.85.84-.53,1.52-1.68.78-2.23-.9-3.26-1.53-.86-.52-1.8-1.57-2.7-.71s.36,1.56.82,2.28,1,1.09.64,1.91C606.85,370.06,589.24,377,570.48,381a171.52,171.52,0,0,1-34.69,3.89C533.87,384.9,531.92,385.6,530,384.72Z"/><path class="cls-18" d="M672.78,263.45c-4.08,3.92-8.73,4-13.27,1.29-7.79-4.61-13.92-10.72-15.87-20.06a5.59,5.59,0,0,1,0-3,31.29,31.29,0,0,1,3.82-7.29,3.08,3.08,0,0,1,1.75-1.18c5.59-1.74,10.72-1.12,15.09,3.06,1.47,1.4,2.77,3,4.16,4.48a33,33,0,0,1,5.37,13.82C674.2,257.61,674.29,260.62,672.78,263.45Z"/><path class="cls-19" d="M530,466c-4.6,3.82-9.36,2.6-14,.2a6.09,6.09,0,0,1-2.67-7.39c1.17-3.17,3.13-5.41,6.42-6.37A3.33,3.33,0,0,0,522,450.2c1-2.57,1.94-5.15,3-7.68,1-2.22,2.28-4.1,5-4.27,2,1.43,2,1.57,1.05,3.23-.35.6-.77,1.16-1.15,1.74-.59,1.62-.33,3.47-1.17,5-1.18,2.12-.54,3.59,1.35,4.76,3.48,1.57,4.71,5,3.19,8.82A10.4,10.4,0,0,1,530,466Z"/><path class="cls-20" d="M622.93,359.45c-.74-.82-1.49-1.63-2.22-2.46s-1.09-1.54-.37-2.42a2,2,0,0,1,2.5-.36,11.18,11.18,0,0,1,3.1,2.36c.45.39.81.92,1.49.93,1.84.89,3.71,1.73,5.51,2.7.95.5,1.52.37,1.93-.6.08-.19.21-.36.28-.55,2.05-5.63,9.41-5.47,13-1.45s4,9.37.68,13.43c-2.69,3.3-6.52,4-10.11,1.76-2.22-1.39-4.08-3.14-4.69-5.82a5.06,5.06,0,0,0-3.12-3.52C628.19,362.17,625.57,360.79,622.93,359.45Z"/><path class="cls-21" d="M650.63,334.26a1.8,1.8,0,0,1-1.37-.58,40.88,40.88,0,0,1-7.23-9.8c-.45-.93-1-2,.12-2.74a2.49,2.49,0,0,1,3.36.23,25.11,25.11,0,0,1,5.38,6.62c.6,1.15,1.12,2.48,2.76,2.55C653.57,333.65,653.49,333.75,650.63,334.26Z"/><path class="cls-22" d="M530.13,453c-3.51-1-3.53-1-2.19-4.45.69-1.76.93-3.69,2-5.29C530,446.46,529.68,449.72,530.13,453Z"/><path class="cls-23" d="M432.72,527c.91,1.64,2,2.86,4.11,1.81a1.63,1.63,0,0,1,1.21,0c2.61,1,3.81-1.39,5.56-2.36a2.09,2.09,0,0,0,.69-2.51c-.71-1.71.1-3.16.49-5,2.06,1.58,4.47,2.35,5.31,4.94.15.48.46,1.13,1.05.78,1.88-1.11,3.75.11,5.63-.06,2.14-.19,2.9,1,2.26,3.15-.52,1.75-1.21,3.46-1.86,5.17a10,10,0,0,0-.63,6.85c.75,2.38.22,3.06-2.27,4.54-.34.21-.86.44-.92.73-.52,2.63-2.53,2.32-4.34,2.19-4.57-.33-8.92.74-13.24,2a22.46,22.46,0,0,1-7.22,1.16c-3.79-.12-5.54-1.85-5.68-5.6a51.12,51.12,0,0,0-2-10.49,21.27,21.27,0,0,1-.43-6.09c.06-1.5.72-2,2.24-1.59a12.9,12.9,0,0,0,4,.24,1.61,1.61,0,0,1,1.2-.3,6.27,6.27,0,0,0,3.3-.09A1.53,1.53,0,0,1,432.72,527Z"/><path class="cls-24" d="M446.92,60.28c1.42.06,2.87-.12,3.95,1.2a1.76,1.76,0,0,0,2.24.35,2.74,2.74,0,0,1,2.1-.21c1.92.78,3-.46,4.26-1.47a4,4,0,0,0,1.63-3.7c-.05-1.36-.63-3.2.94-3.9s2.31,1.25,3.42,2a.74.74,0,0,1,.22.21c2,2.8,4.87,3.17,8,3,2.54-.14,3.15.67,2.28,3-.65,1.72-1.23,3.47-1.87,5.19a11,11,0,0,0-.64,6.86c.53,1.93.11,3.42-1.94,4.19a1.71,1.71,0,0,0-1,.7c-1.1,2.54-3.28,2.38-5.45,2.28a19.08,19.08,0,0,0-7,.92c-3.59,1.18-7.36,1.6-11,2.62-2.44.68-4.3-.71-6.19-1.88a1.75,1.75,0,0,1-.75-1.62c.37-5.44-1.75-10.43-2.87-15.59a11.54,11.54,0,0,1-.16-3.36c.13-1.63.83-2.18,2.44-1.86,2,.39,4,.88,5.95,1.37.53.13,1,.24,1.34-.3Z"/><path class="cls-25" d="M160.2,187c-6.74,1-12-2.07-16.54-6.73a13.82,13.82,0,0,1-3.91-9.39c0-.92.07-1.86,0-2.77-.58-4.93,1.75-8.67,4.91-12.07,1-1.05,2-2,3-3.06a12.21,12.21,0,0,1,5.3-2.91c5.91-1.85,11.78-.86,17.56.33a12.93,12.93,0,0,1,8.69,6.86,23.79,23.79,0,0,1,2.29,17.53c-.89,3.34-2,6.84-5.34,9-1.24.78-2.28,1.58-3.82,1.59a7.11,7.11,0,0,0-2.68.6C166.64,187.26,163.49,187.29,160.2,187Z"/><path class="cls-26" d="M415.47,104.67c.22-.48.53-1,1.09-.91a2.48,2.48,0,0,1,1.94,1.37c1,2.14,2,4.26,2.9,6.44a69.4,69.4,0,0,1,4.48,15.23c.64,3.84-1.11,5.5-4.57,5.55a6.88,6.88,0,0,0-2.42.24,12.31,12.31,0,0,1-9.14.31,2.89,2.89,0,0,0-3.51.92,7,7,0,0,1-1.2,1c-1.46,1-2.32.8-3.06-.86a64.08,64.08,0,0,1-3.63-10.4c-1-3.86-2.14-7.67-3.23-11.5-1.74-6.12.7-8.89,5.06-10.4a52.65,52.65,0,0,1,8.67-1.83c2.3-.39,2.76.23,2.89,3-.64,1.06.06,1.54.77,2.25a22.39,22.39,0,0,1,6.26,12.61c.17,1,.44,2,.69,3,.72,2.92,0,4.15-2.94,5a13.88,13.88,0,0,0-2.92.9,6.79,6.79,0,0,1-9.86-3.68,4.82,4.82,0,0,0-1.05-2.18c.86,4.75,1.15,5.47,2.68,7.16,1.09,1.19,2.27,1.86,3.71.66a2.51,2.51,0,0,1,3.59.2c1.77,1.52,3.15.92,4.45-.61,1.41-.42,4,1.36,3.79-2.08.5-4.31-.86-8.23-2.61-12-.89-1.94-1.81-3.87-2.68-5.82C415.13,107,414.53,105.86,415.47,104.67Z"/><path class="cls-27" d="M89.28,161.3c.22-.33.46-.65.65-1,.69-1.28,1.56-1.23,2.39-.23,1.7,2,3,4.37,5,6.15a2.31,2.31,0,0,1,.48,1.4c.21,1.57-.24,3.29,1.57,4.36a1.65,1.65,0,0,1,.32,2,4.57,4.57,0,0,0-.72,3.92c.14.46-.49.82-.9,1.14-2,1.47-4,2.8-5.49,5-1.3,1.94-3.57,3-5.53,4.3a17.47,17.47,0,0,0-3.74,2.56,2,2,0,0,1-2.78.14c-2.63-1.86-6.07-2.56-8-5.49-4.17-1.79-6.39-5.56-9-8.93-1.48-1.93-2.76-4-4.14-6a1.62,1.62,0,0,1-.37-1.44c1-2.5,1.71-5.19,4.18-6.82.79-.52,1.35,0,2,.14,1.49.36,2.86,1.07,4.38,1.37a4.62,4.62,0,0,1,3.66,3c.8,2.39,2.6,3.34,4.64,4.47a74.68,74.68,0,0,1,10.54,6.82c1.57,1.25,2.36,1.12,2.37-1-.18-2.38-1.9-4.22-2.26-6.57-.17-1.05-1.66-1-2.62-1.26-1.14-.34-2.69-.24-3.09-1.61s1.09-2,1.92-2.84C86.41,163.76,87.31,161.85,89.28,161.3Z"/><path class="cls-28" d="M158.21,389.63a3.8,3.8,0,0,1,3.64-1.8q4.59,0,9.19,0a5,5,0,0,1,4.64,2.9,12.54,12.54,0,0,1,1.64,6.4c-.13,5.92,0,11.85,0,17.77a10.38,10.38,0,0,1-.27,3c-.71,2.33-.7,2.36-3.41,2.45-.74-2.15.15-4.24.24-6.36.24-5.43.16-10.85,0-16.28a9,9,0,0,0-.93-3.55c-1.38-3-3.6-3.58-6.74-1.81.43,1,1.51.93,2.29,1.32a4.91,4.91,0,0,1,3.05,4.91c-.27,3.89-.05,7.79-.25,11.67-.17,3.4-1.3,4.77-4.66,4.78-2.91,0-3.54,2.24-4.87,3.76,1.87.8,4.68-1.05,5.62,2.18a5.37,5.37,0,0,1-3.59,1.36c-2.73.12-5.43.66-8.19.6a2.81,2.81,0,0,1-3-2,16.41,16.41,0,0,1-1.17-5.63c0-3.16-.26-6.35.07-9.48A45.27,45.27,0,0,1,153.89,394c2.38-.34,3.23.31,3,2.59s-.64,4.46-1,6.67c-.66,3.57-.47,7.16-.48,10.74,0,1.08-.27,2.47,1.06,3a3.33,3.33,0,0,0,4-1.07c-1.35-1.19-3.58-1.32-4.07-3.4a24.32,24.32,0,0,1-.27-5.52c0-1.84-.1-3.69.06-5.53.33-3.78,1.36-7.12,6.09-8.28C160.61,391.77,158.49,391.67,158.21,389.63Z"/><path class="cls-29" d="M112.69,370.56c.91,1.5.6,3.44,2.16,4.82.88.77.17,2.35-.48,3.43-1.59,2.62-3.15,5.25-4.85,7.79-1.33,2-2.26,4.13-3.38,6.2-1.8,3.35-4.57,4.28-7.92,2.53a100.28,100.28,0,0,1-10.71-6.44c-2.3-1.58-5-2.27-7.53-3.43-1.27-.58-2.47-.92-2.55-2.6a2,2,0,0,0-.63-1,3.84,3.84,0,0,1-.27-5.33,9.27,9.27,0,0,0,1.67-6.05c0-2.24.71-4.41.66-6.69,0-1.58,1-2.07,2.53-1.4a7.11,7.11,0,0,0,3.55.8c1.17,1.1,1.6,2.63,2.34,4a2.32,2.32,0,0,1,.37,2c-.58.66-1.75.49-2.12,1.47l-.33.71c-1.13,3.51-1.28,7.37-3.68,10.42a4.5,4.5,0,0,0-.25.7c.1,1.2,1.1.82,1.76,1a30.87,30.87,0,0,1,9.58,4.7,19.49,19.49,0,0,0,2.63,1.58c1.32.6,2.33.35,2.35-1.21.06-3.36,1.34-6.38,2.41-9.46.4-1.15.32-2-.89-2.52s-1.89.32-2.31,1.35c-.73,1.8-1.55,3.56-2.25,5.38-.62,1.6-1,4.23-3.41,3.31-2.21-.83-.94-3-.38-4.56a35.84,35.84,0,0,1,1.85-4.87,3.49,3.49,0,0,0,.48-2.36c-.14-.63-.45-1.2-1.17-1.23s-.88.45-1.06,1a30.15,30.15,0,0,0-.82,3,13.52,13.52,0,0,1-1.5,4c-.69,1.05-1.53,2.19-3,1.52s-1-2-.54-3.21c1.15-3.06,2.5-6.08,1.84-9.49a1.94,1.94,0,0,1,.33-.8c1.45-.83,2.25,1.05,3.54.84,3.06-1.1,5.36,1.41,8.14,1.74a6.66,6.66,0,0,0,3.26,0,3.3,3.3,0,0,1,4.11,1c.43.54.86,1.35,1.68,1s.53-1.42.68-2.18a2.32,2.32,0,0,1,.89-1.46c.32,0,.7,0,.81.28C111.31,373,112,371.33,112.69,370.56Z"/><path class="cls-3" d="M67.22,466.56c2.21,0,4.06,0,4.41,2.62.14,1.08,1.37,1.06,2.21,1.39,1.08.43,2.23.19,3.34.35,4.69.65,5.58,2.28,4.35,7-.5,1.91-1.32,3.79-1.86,5.76-.66,2.45-2,4.36-5,4.71-3.23.38-6.36,1.2-9.71.48-5.77-1.23-9.56-4.77-10.6-10.44a6.72,6.72,0,0,1,5.19-8.12,5.9,5.9,0,0,0,3.64-2A4.1,4.1,0,0,1,67.22,466.56Z"/><path class="cls-3" d="M410.25,421.18c-2.89-.43-5.93-1-8.53-3.13-2.35-2-1.81-4.45-1.46-6.8a8.77,8.77,0,0,0,0-3.85c-.9-3.49,1.16-6,4.78-6a4.94,4.94,0,0,0,3.56-1.5,30.6,30.6,0,0,0,2.58-2.64,4,4,0,0,1,6-.47,65.73,65.73,0,0,1,7.72,8.9,2,2,0,0,1,.24,2.05c-1.63,3.94-3,8-6.64,10.77C416.11,420.31,413.41,420.87,410.25,421.18Z"/><path class="cls-30" d="M345.62,391.2a11.43,11.43,0,0,1-1,2.87c-.83,1.79-1.42,1.92-3.61,1-1-1.3-.41-2.54.3-3.63a2.76,2.76,0,0,0,0-3.36c.15-2.26,2.41-3.54,2.66-5.76.08-.73.9-1.74-.25-2.09-.91-.28-1.42.69-1.65,1.49a8.2,8.2,0,0,1-3.52,5.2,4.75,4.75,0,0,1-4.67.49c-.84-.38-1.68-.75-2.55-1.08-4.72-1.74-5.28-2.81-4.19-7.81a36.17,36.17,0,0,1,3.8-10.35c2-3.52,4.53-4.22,8.21-2.49,1.76.83,3.55,1.7,5.54.61a2.84,2.84,0,0,1,2.11,1.09c.36.33.81.8,1.29.33s.21-1.13-.19-1.63a5.87,5.87,0,0,0-3.53-2.27c-2.19-.43-4.39-.84-6.58-1.25a5.52,5.52,0,0,1-.92-.09c-.8-.32-2-.42-1.76-1.65.24-1.08,1.37-.8,2.08-.61,2.66.73,5.43.59,8.11,1.36a8.7,8.7,0,0,1,5.66,12.34c-2.07,4.5-2.62,9.37-4.18,13.87C346.62,389.11,346,389.32,345.62,391.2Z"/><path class="cls-31" d="M159.64,354.57a6.49,6.49,0,0,1-4.91-1.31,11.31,11.31,0,0,0-3.56-1.77,2.92,2.92,0,0,1-2.22-2.95,6.94,6.94,0,0,0-.12-1.83c-1.55-5,.88-8.56,4.53-11.43a63.07,63.07,0,0,1,9.63-5.91,12.76,12.76,0,0,1,4.77-1c3.51-.4,7-1.19,10.63-.35,5.16,1.21,7.26,4.68,5.82,9.81-1,3.53-2.76,6.33-6,8.09-1.81,1-3.14,2.55-4.91,3.64-2.64,1.62-5.57,2.55-8.27,4A9.77,9.77,0,0,1,159.64,354.57Z"/><path class="cls-32" d="M261.65,43c-1-4.41,1.44-6.36,5-8.23a12.25,12.25,0,0,1,11.95-.07c3.19,1.58,6.85,2.58,9.27,5.28,2.9,3.22,6.07,6.36,7.78,10.47,1.56,3.75.29,8.15-2.68,9.8a13.46,13.46,0,0,1-5.63,1.23,17.53,17.53,0,0,1-9.71-1.93A73.45,73.45,0,0,1,266,52.38a20,20,0,0,1-4-4.59C261,46.42,261.67,44.6,261.65,43Z"/><path class="cls-33" d="M386.07,52.13c-6.4,4.65-13.23,4.11-20,1.31-4.27-1.75-5.42-6.42-3.1-10.87.31-.61,1.06-1.2-.29-1.42,1.43-1.33,2.86-2.54,5-2.59,1.15,0,2-1,2.81-1.75,2.49-2.36,2.71-2.36,5.21.1a9.13,9.13,0,0,0,3.56,2.27c2,.7,3.91.93,5.88-.2a8.28,8.28,0,0,1,2.63-.79c1.4-.27,2.31.49,3,1.62a2.15,2.15,0,0,1-.41,3A9.22,9.22,0,0,0,388,48,8.87,8.87,0,0,1,386.07,52.13Z"/><path class="cls-33" d="M357.77,520.82c-3.71.21-7.38-.09-10.69-2.49-2.62-1.89-3.24-4.39-2.84-7.28a6.81,6.81,0,0,1,5.49-5.49,7,7,0,0,0,4-2c2.56-2.26,3.76-2.27,6,.05,2.48,2.54,5.27,3.35,8.63,2.18a27.56,27.56,0,0,1,2.93-.91,2.32,2.32,0,0,1,2.65,1.11c.58.95.14,1.75-.54,2.48a10.54,10.54,0,0,0-2.44,5.2,8.75,8.75,0,0,1-8.44,7.11C361,520.9,359.45,520.82,357.77,520.82Z"/><path class="cls-34" d="M254.83,406.89l0-3.1a10.18,10.18,0,0,1,1.61-3.89,1.67,1.67,0,0,1,1.75-1c.86.17.95,1,1,1.68.28,2.63-.05,5.28.23,7.92A2.51,2.51,0,0,0,260,410c1.06-1.85,1.54-3.64.62-5.68a5.61,5.61,0,0,1-.21-3.6c4.42-7.2,14.5-8.48,21.35-2.61,1.76,1.51,3.71,3,4.41,5.38a4.41,4.41,0,0,1-1,4.29c-4.09,3.87-7,8.9-11.74,12.11,2.65,1.28,5.25-1.6,7.9-.08a2.48,2.48,0,0,1-1.2,1.23c-3.26,2-6.62,1.79-10,.34a55,55,0,0,1-12.42-7.74C255.34,411.79,255.81,409.13,254.83,406.89Z"/><path class="cls-3" d="M220.58,323.73c-6,.43-9.5-3.38-12.23-8.24a4,4,0,0,1-.36-2.08c.17-4.3.84-8.38,4.95-10.9a6.85,6.85,0,0,0,1.7-2.14c1.64-2.23,2.77-2.16,3.91.31,1.41,3.06,4.46,4.34,6.8,6.37.55.48,1.57.37,2.34.63,2.56.88,2.93,1.82,1.44,3.95a5.18,5.18,0,0,0-.81,2.55c-.39,3.1-1.28,5.95-3.68,8.2A4.29,4.29,0,0,1,220.58,323.73Z"/><path class="cls-35" d="M474,376.69a25.73,25.73,0,0,1,4.49-7.65,16.53,16.53,0,0,1,12.37-5.94,51.28,51.28,0,0,1,11.34.61c7.69,1.59,12.17,6.44,13.07,14.27.26,2.24.4,4.48.6,6.73a23.63,23.63,0,0,1-3,10.2,6.89,6.89,0,0,1-3.27,3.11,52.83,52.83,0,0,1-9.9,3.16,5.94,5.94,0,0,1-4.19-.46c-1-2.08.25-2.72,1.91-3.11,1.42-.33,2.76.28,4.4.54-1.59-.82-3.65-.68-3.68-3a1.89,1.89,0,0,1,.39-.82c2.08-1,4.41-.65,6.57-1.31,5.46-1.66,7.68-4.89,7-10.54a10.13,10.13,0,0,1-.14-1.22c0-11.58-7.77-14.45-15.68-14.83-1.74-.09-3.48-.05-5.22,0-6.58.2-12.9,7-13.48,12.68-3.42,7,3,16.42,10.37,18.18,1.15.27,2.52.15,3.07,1.6a2,2,0,0,1-.46,1.84,2.39,2.39,0,0,1-2.85.32c-4-1.92-8.3-3.33-11.18-7.14-2.34-3.12-3.95-6.39-3.87-10.36a35.06,35.06,0,0,0,0-4A3.52,3.52,0,0,1,474,376.69Z"/><path class="cls-36" d="M270.2,105.87c.14-3,.14-3,2.9-3.68a22.7,22.7,0,0,1,5.45-.65c4.08-.06,8.15.23,12.24-.5,3.94-.7,6.52,1.92,6.53,6,0,2.66.06,5.33,0,8a47.25,47.25,0,0,0,.83,11.27,2.25,2.25,0,0,1-.64,2.45c-.38.34-.89.7-1,1.14-.78,2.82-3,2.94-5.32,3a5.53,5.53,0,0,0-2.69.45c-2.75,1.57-6,2.23-8.44,4.31-1.88,1.57-3.65.67-4.06-1.54a4.65,4.65,0,0,0-2.06-3.18c.54-.8,1.55-1,2.17-1.7,1.23-.8,1.71-2.49,3.34-2.81a3.83,3.83,0,0,0,3.19.47c.26-.09.52-.16.78-.23a12.29,12.29,0,0,0,2.6-1,5.32,5.32,0,0,1,.79-.29c1.52-.35,3-.73,4.54-1.15a6.14,6.14,0,0,1,2.56,0c2.18.29.88-1.15.93-1.92-.59-4.36-1.1-8.67-.32-13.11.56-3.1-1-4.42-4.21-4.47a27.57,27.57,0,0,0-11.74,2.59c1.42.68,2.7-.08,4-.32,1.1-.21,2.17-.64,3.28-.79,1.68-.22,4.15-1.7,4.74.75.5,2.1-2.19,2.17-3.77,2.69-1.26.42-2.6.54-3.89.87a7.45,7.45,0,0,1-1.32.23c-1,.16-2.46-.15-2.5,1.5,0,1-.78,2.62,1.33,2.68.44-.06.88-.11,1.33-.14a35.93,35.93,0,0,0,7.7-1.36c1.41-.32,3.07-.59,2.35,1.89a2,2,0,0,1-.67.62,22.17,22.17,0,0,1-2.54.57,7.19,7.19,0,0,1-.8.2,18.93,18.93,0,0,0-2.37.41,7.25,7.25,0,0,1-.76.22,8.08,8.08,0,0,0-2.25.66c-1.85.59-2.23,2.13-2.43,3.79a2,2,0,0,1-.52.72,2.87,2.87,0,0,1-2.24-.44,2.36,2.36,0,0,1-.72-2.53c.63-2.69.11-5-2.32-6.59a2.7,2.7,0,0,1-1.14-3.66c.91-2.2-.09-2.51-1.93-2.13A3.69,3.69,0,0,1,270.2,105.87Z"/><path class="cls-37" d="M44.35,409.35v1.53A1.92,1.92,0,0,1,42,413c-4.1-.26-8.12.82-12.21.65-1.21-.05-2.47-.14-3.56.91.57,1.21,1.68.9,2.59.9,4.5,0,9,0,13.5,0,.61,0,1.23,0,1.84,0s1.6.05,1.52,1a1.47,1.47,0,0,1-1.51,1.28c-5.49.07-11,.16-16.47.06a4,4,0,0,1-3.88-2c-.46-.89-1.23-1-2-.32a2.23,2.23,0,0,1-2.3.43c-2.1-.79-4.2-1.58-6.24-2.52a2.05,2.05,0,0,1-1.18-2.73c.6-2.49.24-5.09.21-7.64a9.3,9.3,0,0,1,1.82-6c1.65,0,1,1.19.87,1.95-.32,2,.58,3.43,1.73,5.17.23-3.31,2.17-3.87,4.46-2.95,5.31,2.13,11.06,2.58,16.37,4.64.75.29,1.6.43,2,1.28-.33.85.11.88.82.85C41.83,408,43.32,408,44.35,409.35Z"/><path class="cls-38" d="M115.76,459.84a1.4,1.4,0,0,1,1.31-.63c1.1,0,1.75-.38,1.74-1.58,0-1.49,1.07-1.77,2.08-1.41a3.94,3.94,0,0,0,3.41-.55,6.18,6.18,0,0,1,2.93-.78c2.56,0,5.11,0,7.67,0,1.26,0,2.43.41,2.71,1.56.46,1.84,2.18,2.68,2.9,4.26.33.72,1.07.86,1.76,1.08a7.44,7.44,0,0,1,5.16,4.81,5.23,5.23,0,0,0,3.31,3.36c1.81.69,2.84,1.94,2.54,4-2.55,1.48-5.08,3-8.21,2.83-1-.05-1.86.72-2.73,1.23a8.47,8.47,0,0,1-10.08-1.08c.81-2.26,3.1-.56,4.36-1.62,0-.38-.25-.5-.5-.61-3.2-1.42-3.21-1.42-1.05-4.33.49-.65.82-1.4,1.35-2a1.33,1.33,0,0,1,1.92,0c-3.77-3.56-6.89-8.68-13.43-5.65a4.06,4.06,0,0,1-1.39,0C120.66,462.5,117.8,462.28,115.76,459.84Z"/><path class="cls-39" d="M345.32,167.33c.21-.69,1.42-1.07.61-2.08-1.22-1.55-.26-2.62,1-3.13s2.1-1.1,2.15-2.56a2.08,2.08,0,0,1,1-1.48c2.12-1.58,4.56-2.66,6.53-4.5a2.48,2.48,0,0,1,2.89-.33c1.59.95,3.5,1,5.07,1.86a4,4,0,0,0,3.21.53c2.81-.92,5.26,0,7.55,1.34a4.89,4.89,0,0,0,4.24.71c2.12-.58,2.79,0,3.88,2.31a1.46,1.46,0,0,1-.26,1.42c-2.28,4-5.79,6.94-8.58,10.51-1.5,1.92-4,2.37-6.41,1.31-.71-1.15.43-1.32,1-1.77.83-.68,2.09-.78,2.65-1.84-.1-.24-.26-.37-.48-.34-5,.8-5,.81-4.07-4.19,0-.42,0-.83,0-1.24-2.76-3-9.42-3.11-12.43-.26-.52.49-.86,1.14-1.41,1.62a4,4,0,0,1-.78.5c-1.5.65-2.59,2.05-4.29,2.3C347.31,168.18,346.17,168.39,345.32,167.33Z"/><path class="cls-40" d="M39.41,407.47c-4.1-2.15-8.68-2.56-13.07-3.66-.49-.12-1.14,0-1.47-.31-1.91-1.69-4.31-1.53-6.57-1.85-.95,1.15-.13,2.34-.05,3.46-.86.87-1.56.26-2.22-.14-1.31-.8-.87-2.47-1.61-3.48-.87-1.21-.95-2.08.13-3.15.4-.39.07-.95-.42-1.27l0,0a1.68,1.68,0,0,1,0-1.84c.28-1.65-.76-3.88,2-4.48.39-.09.46-.62.5-1A1.91,1.91,0,0,1,19.49,388c1.77.78,3,0,4.17-.91a4.33,4.33,0,0,1,4.83-.7,3.11,3.11,0,0,0,2.91-.4c.93-.57,2.46-.17,2.32.39-.76,2.93,2.76,4.36,2.18,7.24-.52,2.57-1.11,3.08-3.31,1.66-1.08-.69-1.78-1.91-2.65.51-.56,1.55-3,.44-5,1.21,2.46.86,4.08,3.13,6.85,1.64.63-.34,1.41.2,1.93.7a4.37,4.37,0,0,0,4,1c2.28-.29,5.58,4,4.83,6.21C42,408.1,40.86,408.57,39.41,407.47Z"/><path class="cls-41" d="M334.23,458a13.66,13.66,0,0,0-1-2.54c-1.2-2.83-1.91-5.66.48-8.31a3.12,3.12,0,0,0,.51-2.34c-.06-2.65.08-5.31-.88-7.88a13,13,0,0,1-.34-5.48,2.32,2.32,0,0,1,2.56-2.43c1.68.09,1.93,1.24,1.88,2.59a20.12,20.12,0,0,0,1.2,7.21c.43,3.28.49,3.35,3.47,2.72,6.19-1.31,10.95,3.54,9,10.22-1.27,4.43-4.5,6.7-9.06,7.57A9.92,9.92,0,0,1,334.23,458Z"/><path class="cls-42" d="M452.45,489.43c-4.34-.06-7.58.28-10.62-1.57-2.79-1.7-4.19-4.38-5.83-6.94a2.21,2.21,0,0,1,0-1.8c1.66-5.31,4.43-9.64,10.07-11.45a2.87,2.87,0,0,1,.87-.29c4.07.13,8.07-1.31,12.2-.4a24.94,24.94,0,0,0,4.9.15c4.15.05,7,2.6,9.61,5.32,1.65,1.73,1.44,4.26.47,6.38a12.9,12.9,0,0,1-5.38,5.73c-2,1.17-4.18,2.11-6.3,3.1A21.49,21.49,0,0,1,452.45,489.43Z"/><path class="cls-43" d="M368.19,173c2.91.36,5.7-.15,7.25-2.76a23.87,23.87,0,0,1,5.31-6.23c1.12-1,1.85-2.61,2.75-4,.33.28.64.62.51,1.05a22,22,0,0,0-.45,8.53c.4,4.07-1.81,6.28-5,7.53-6.33,2.52-12.44,5.5-18.65,8.28a14.11,14.11,0,0,1-2.66.7c-2.42.58-2.2.44-3.46-1.88a58.94,58.94,0,0,0-4.41-6.22c-.54-.75-1.07-1.5-1.62-2.23s-.85-1.5-.11-2.2a1.65,1.65,0,0,1,2.46,0l.67.61c1.73,1.2,3.23,3,5.7,2.37a8.62,8.62,0,0,0,3-.68q.35-.13.72-.24c.49-.14,1-.28,1.46-.46a6.15,6.15,0,0,1,.76-.25,5.13,5.13,0,0,0,2.54-1.23C366,173.11,367,172.35,368.19,173Z"/><path class="cls-44" d="M282.16,216.71c-3.35-.09-6.25-1.17-8.1-4.11a2.79,2.79,0,0,0-2.75-1.48c-3,.08-5.86-.73-8.84-.7a9.88,9.88,0,0,1-4.83-1.75,1.26,1.26,0,0,1-.69-1.55,1.44,1.44,0,0,1,1.5-.86,4.09,4.09,0,0,1,1.2.21c3.42,1.19,7.07.78,10.57,1.47,1.86.37,2.17-.21,1.63-2.22a4.38,4.38,0,0,1,2.14-5.44c4.3-2.67,7.82-1.55,11.57,1.27,2.88,2.17,4.68,4.89,3.22,8.74a2.4,2.4,0,0,0,0,.61C288.3,215.21,286.55,216.76,282.16,216.71Z"/><path class="cls-45" d="M132.43,476.44c1.94,1.79,4.29,2.07,6.79,1.9a3.68,3.68,0,0,0,2.79-1c1.08-1.52,2.5-1.53,4.06-1.46a5.17,5.17,0,0,0,3.74-1,4.63,4.63,0,0,1,3.47-.9c-2.38,3.57-5.94,6.13-8.27,9.74a2.65,2.65,0,0,1-2.29,1.35,56,56,0,0,1-7.66-.21q-9.19-1.47-18.4-2.84a5.71,5.71,0,0,1-3.07-1.25c-.54-.49-1.11-1.11-.5-1.84,1-1.26.73-2.72.75-4.12q.06-3.23,0-6.45c0-1.71.83-2.43,2.46-2.37a1.51,1.51,0,0,1,1.09.85c.73,1.56-.16,3.44,1,4.91,3.08,2,6.71,2.29,10.13,3.22C129.87,475.32,131.39,475.23,132.43,476.44Z"/><path class="cls-46" d="M91.71,177.28a4.14,4.14,0,0,1,0,.61c0,.77.3,1.71-.76,2.09a2,2,0,0,1-2.25-.54c-1.09-1.42-2.64-2.1-4-3.06-3-2-5.93-4.24-9.47-5.38a3.15,3.15,0,0,1-2-2.56,4.88,4.88,0,0,0-5-4.11,3.51,3.51,0,0,1-3-1.87,11.6,11.6,0,0,0-.38-1.77c-.55-1.49-.54-2.89.89-3.81a3.66,3.66,0,0,1,4.31,0c1.48,1.28,2.8,1,4.45.84,2.55-.18,5.17-.68,7.54,1.38,1.26,1.1,3.36.31,5.08.34,1.38,0,2.16.41,2.09,1.89A22.54,22.54,0,0,1,85.56,165c-1.56,1.3-3.8.25-5.78,1.64,2,.77,2.91,2.11,3.88,3.69.86,1.42,3.16,2,4.85,2.93S91.47,175.27,91.71,177.28Z"/><path class="cls-47" d="M39.41,407.47a7.19,7.19,0,0,0,1.81-.13c.61-.2,1.17-1.06.82-1.42-1.17-1.24-1.17-3-2.12-4.29a1.78,1.78,0,0,0-2.44-.56,2.77,2.77,0,0,1-3.94-1c-.91-1.27-1.93-1.35-3-.09-.68.81-1.42.64-2.09-.08a4.3,4.3,0,0,0-3.41-1.74,1.39,1.39,0,0,1-1.35-1.7c.15-1,1.13-.64,1.79-.66,1.32,0,2.64,0,3.91,0,.13-.29.31-.49.27-.62-.24-.71-1.21-1.39-.32-2.15s1.53.1,2.24.41c1.11.49,1.58,1.9,3.09,2.11.71-1.09.37-2.34.38-3.5s0-2.68-2-1.55c-.8.44-1-.34-1-1a1.74,1.74,0,0,1,.53-1c1.49-1.89,1.45-2-1.18-2.51,2-.7,3.39-.43,4.34,1.77s3.25,3.1,3.91,5.34a1.42,1.42,0,0,0,.92.74c3.37.76,5.08,3.2,6.23,6.15a3.05,3.05,0,0,0,2.3,1.83,4,4,0,0,1,2.61,2c.69,1.23.83,2.5-.46,3.24a5.13,5.13,0,0,0-2.7,5.62c0,.33-.32.71-.5,1.06-.94-1.15-1.24-2.73-2.45-3.71-.17-.72-.27-1.58-1.25-.61-2.2-.93-4.61-.47-7-.7C37.79,407.31,38.68,407.57,39.41,407.47Z"/><path class="cls-48" d="M182.24,554.06c.44,4.8-2.69,9-8.51,9.78-.81.11-1.6.31-2.4.45a5.07,5.07,0,0,1-5.65-2.74c-1.58-3.34-1.72-6.74.66-9.79a3.52,3.52,0,0,0,.73-3.61c-.77-2.63-1.29-5.35-1.89-8a9.61,9.61,0,0,1,0-4,1.81,1.81,0,0,1,1.61-1.63c1.05,0,1.3.83,1.34,1.7.12,3.19,1.12,6.21,1.84,9.28a8.43,8.43,0,0,0,.76,2c.39.71,1,1,1.76.45l.49-.37c4.12-2.87,9.74.94,9.31,5.61A8.59,8.59,0,0,0,182.24,554.06Z"/><path class="cls-49" d="M528.74,112.92a5.24,5.24,0,0,1-2.13,5.31c-1.11.89-2,2.06-3.1,3-2.25,1.86-4.61,1.83-6.93,0-2.93-2.32-5.18-5-4.12-9.11.28-1.07-.4-1.4-1-2-2.73-2.45-5.7-4.65-7.95-7.59-.24-.33-.56-.61-.77-1-.67-1.12-.68-3.07.06-3.39,1.4-.62,2.13.58,2.68,1.44,2,3.08,4.83,5.24,7.6,7.48,1,.8,1.6.88,2.28-.55,2.11-4.45,6.31-5.05,9.85-1.47C527.31,107.21,529.19,109.51,528.74,112.92Z"/><path class="cls-50" d="M199.42,87c0,5.26-3.21,9-8.4,9.62a21.65,21.65,0,0,1-3.94.58,4.8,4.8,0,0,1-3.78-1.75c-1.89-2.46-2.75-7.57.17-10.81a3.18,3.18,0,0,0,.86-3.57c-.67-2-1-4.18-1.7-6.21a16.89,16.89,0,0,1-.41-5.79c0-1,.44-1.88,1.6-1.85s1.52,1,1.44,2c-.26,3.68,1.19,7,2,10.51.36,1.59,1,1.77,2.45,1C194.91,78,199.41,80.92,199.42,87Z"/><path class="cls-51" d="M357.05,177.17c-2.84.56-5.16.05-6.23-3,.65-1,.72-1.57-.76-1.75a6,6,0,0,1-5.07-4.56c0-.13.21-.32.33-.48a6.75,6.75,0,0,0,6.18-1.92c.24-.25.75-.23,1.13-.34.35,1.27,1,2.22,2.48,1.71,2.82-1,6.21.42,8.66-2.51,1.08-1.29,3-.81,4.23.73a4.38,4.38,0,0,1-.57,2.9c-.75,1.15.07,1.48,1,1.29s2.1-.67,3.17-1a1.32,1.32,0,0,1,1.74.79,1.26,1.26,0,0,1-.74,1.5c-1.45.86-2.95,1.63-4.43,2.43L365,174.26c-.79.84-2,.66-2.9,1.16l-.18.08c-.49.43-1.23,0-1.7.5l-.16.07C359,176.47,357.9,176.42,357.05,177.17Z"/><path class="cls-52" d="M117,466.62l-.67-.65c-1.06-2,.14-4.13-.55-6.13.1,0,.22,0,.3,0,2.36,1.34,5,1.75,7.6,2.43,0,.47-1.23.66.08,1.46,3.61,2.2,7.33,3.59,11.61,3.08a2.23,2.23,0,0,1,1.34,1.69c.33,2.21-2.07,2.82-2.73,4.5a11.22,11.22,0,0,0,3.44,1.17,1.27,1.27,0,0,1,1,1.39c-.08.79-.74.87-1.36.88h-4.57c-4.39-.23-8.43-2-12.71-2.75a3,3,0,0,1-2.39-1.69C116.94,470.23,117.83,468.37,117,466.62Z"/><path class="cls-53" d="M167.4,421c-.62-1.26-1.78-1.13-2.92-1.17-1.76-.06-3.57.23-5.4-.53,2-.7,3.53-1.64,3.65-3.94,0-.6.73-1,1.4-1s1.23,0,1.84-.05c3.94-.06,4.45-.66,4.57-4.71.1-3.67-.32-7.34.32-11,.36-2.07-1.2-3.91-3.38-4.49-.59-.15-1.23-.09-1.82-.22a1.38,1.38,0,0,1-1.16-1.26,1.41,1.41,0,0,1,.83-1.49,5.82,5.82,0,0,1,8.67,3.16,12,12,0,0,1,.83,4.49c-.07,4.5,0,9,0,13.5a30.07,30.07,0,0,1-1.2,8.1C171.53,420.54,169.42,420.27,167.4,421Z"/><path class="cls-54" d="M344.67,366.29c0,.95-.39,1.79-1.4,1.55-1.66-.41-3.42-.55-4.91-1.55-2.12-1.42-4.62-1.12-6,1a31.24,31.24,0,0,0-4.85,14.34c-.19,2.36.05,2.44,2.28,3.29a29.76,29.76,0,0,1,4.53,1.82c1.72,1,4.61-.3,5.93-2.48a8,8,0,0,0,.76-2c.8-2.87.79-2.88,4.2-3.24a10.42,10.42,0,0,1-2.21,7.05c-.54.72-1.39,1.24-1.37,2.3-1.07,3.14-3.06,4.25-6.75,3.74-1.16-.37-2.31-.83-3.49-1.1-1.69-.38-2.64-1.1-2.69-3.07s-.86-2.31-2.93-2.05c-2.3.3-2.81-.26-2.23-2.58a67.3,67.3,0,0,1,3.22-8.92q1.46-3.54,2.94-7.07a6.23,6.23,0,0,0,.69-3.53c-.18-1.23,1.17-2.32,2.17-1.75C336.34,364.29,340.94,364,344.67,366.29Z"/><path class="cls-55" d="M276.44,131.77a2.43,2.43,0,0,1-2.53,1.22c-4-.14-6.83-2.33-9.17-5.29a9.28,9.28,0,0,1-2-5.31,22,22,0,0,1,4.44-14.8c.76-1.06,1.59-1.86,3-1.72a2.89,2.89,0,0,1,.67,3.13c.13.51-.2.76-.57,1-4.13,4.31-5.05,12-1.78,16.61-1.81-4.28-2.49-8.3,0-12.27,1.82-.49,3.1-.32,4.15,1.71s3.52,2.93,4.27,5.26c.1.84-.26,1.79.63,2.42.85,2-.48,2.74-1.86,3.52-1.05.59-2.39.58-3.3,1.62C273.18,130.67,276.24,129.31,276.44,131.77Z"/><path class="cls-56" d="M99.11,99.05l-4.33,3.84c-1.32.9-2.73,1.66-4,2.69s-2.55,1.3-3.4-.57a13.17,13.17,0,0,1-.64-2.69c-.17-1.85,1-3.07,2.14-4.22a3.17,3.17,0,0,0,.2-4.89c-2.77-3.15-5.68-6.19-8.46-9.33A3,3,0,0,0,77,83.2c-1,.42-2,1.15-3.19,1-2.32-.87-2.33-2.2-.86-4,3.36-4,7.32-4.4,11-.47,5,5.27,10.17,10.34,14.3,16.33C98.83,97,100,97.74,99.11,99.05Z"/><path class="cls-57" d="M112.69,370.56c0,.5,0,1-.07,1.49-.11.89-.58,1.54-1.53,1.49s-.9-.89-.92-1.58a2,2,0,0,0-.46-1.38c-2.28-1.86-3.76-4.49-6.17-6.26a13.37,13.37,0,0,0-10-2.83c-.35.12-1-.25-.88.61a3.24,3.24,0,0,1,.16.75,14.54,14.54,0,0,1-.41,2.71c-.46,2.93.62,4.19,3.41,3.57a17.17,17.17,0,0,1,4.83-.32,3,3,0,0,0,3.27-2.08c2.84.19,4.54,1.91,5,5.06a8.15,8.15,0,0,1,.57,1.73,1.59,1.59,0,0,1-1.22,1.87,1.89,1.89,0,0,1-2.15-.75c-1.82-2.42-1.83-2.41-4.66-1.33-.28.11-.68.34-.85.23-1.58-1-3.93-.52-5.06-1.61-1.75-1.7-3.37-.81-5.08-.79-1.51-2-.42-4.32-.63-6.59-1.73.29-1.88,2.27-3.19,2.92-.57-1.44-1.86-2.58-1.74-4.3,1.33-.76,2-2.15,3.3-3.08,3.12-2.3,6.58-2.49,10.17-2.41a2.21,2.21,0,0,1,.89.17C105.14,360.64,110,364.46,112.69,370.56Z"/><path class="cls-58" d="M261,400.74c0,1.63-.16,3.26,1,4.68a1.9,1.9,0,0,1,.09,2.07,7.38,7.38,0,0,0-1.18,4c0,.28-.18.64-.56.59a1.17,1.17,0,0,1-.77-.36,7.89,7.89,0,0,1-1-4.1c0-2.74,0-5.47,0-8.64-2.2,1.29-2.64,3.27-3.7,4.77-.1-.39-.38-.84-.27-1.16,2.36-6.79,6.11-12.17,13.8-13.62,2.29-.43,4.45-1.52,6.88-1.2a8.9,8.9,0,0,1,1.81.16c2.57.94,5.17,1.82,7.64,3,4.29,2,6.84,5.65,8.65,9.91,1.13,2.65.86,5.4.8,8.15a2.19,2.19,0,0,1-1.1,1.76c-1.48.93-2.46,2.37-3.75,3.48-1-1.76.68-2.81,1.13-4.19,3.34-11.4-6.5-18.79-14.58-19-3.6-.1-7.13.07-10.47,1.64a9.05,9.05,0,0,0-4.89,4.8C260,398.63,259.6,399.85,261,400.74Z"/><path class="cls-59" d="M99.11,99.05c-.86-2.57-2.8-4.47-4.47-6.43a78.68,78.68,0,0,0-7.57-8.35,12.62,12.62,0,0,1-2.64-2.93c-1.31-2.3-3.84-2.52-5.8-3.66-.83-.48-1.82.13-2.55.67A23,23,0,0,0,73.6,80.6c-1.51,1.53-1.49,1.54.27,3.14,1,1.78.06,2.66-1.52,3.22-.6-1.69-1.2-3-3.44-1.59a2.06,2.06,0,0,1-3-1.05c.36-2.14,2.22-3.11,3.57-4.41a66.14,66.14,0,0,1,5.26-4.15A5.48,5.48,0,0,1,81,75.24a13.84,13.84,0,0,1,5.31,4c3,4,6.87,7.26,10.32,10.87a20.54,20.54,0,0,1,3.54,4.95C101.27,97.25,101.26,97.26,99.11,99.05Z"/><path class="cls-60" d="M415.47,104.67c.14,2.64,1.63,4.8,2.72,7a39.94,39.94,0,0,1,3.94,13c.11.94-.13,1.34-1,1.41l-.4,0c-.74.16-1.56,0-2.19.53-.41.45-.68,1-1.13,1.43-.93,2.64-3.28,3.16-5.09,1.11-1.14-1.29-1.77-1.37-2.7-.34a3,3,0,0,1-4.85-.47c-1.13-1.85-3.26-3.29-2.42-6.06.16-.55-1-1.43-1.39-2.24-.27-.61-.06-1.24.88-1.09,1.2.21,2.16.74,2.26,2.09.27,4,3.55,4.78,6.35,6.1a1.11,1.11,0,0,0,1.4-.32c1.1-1.65,2.83-1.76,4.54-2.09,2.61-.49,3.11-1.49,2.3-4.16a10.58,10.58,0,0,1-.67-4.21,1.53,1.53,0,0,0-.06-.91c-2-3-2.71-6.8-5.16-9.62a3.14,3.14,0,0,0-1.62-.77c-.7-.24-1.5-.78-1.42-1.45.12-1,1.27-.76,2-1C413.94,102.15,414.08,102.23,415.47,104.67Z"/><path class="cls-61" d="M291.09,410.47c-.49,1.31-1.77,2.25-1.77,3.79a41.88,41.88,0,0,0-3.11,2.84,8.13,8.13,0,0,1-4.89,2.74c-1.64,0-3.15.72-4.74,1-1.89.32-3.82.52-5.4-1.24,4.13-.88,6.23-4,8.44-7a9.71,9.71,0,0,1,2.63-2.8,6.43,6.43,0,0,0,3.4-6c.22-.06.52-.08.56.06a10,10,0,0,0,4.1,5.31C290.72,409.48,290.83,410,291.09,410.47Z"/><path class="cls-62" d="M88,104.63c.14,1.06.7,1.49,1.66.93a6.45,6.45,0,0,0,1.59-1.41,3.38,3.38,0,0,1,3.51-1.27c.18,2.39-1.89,3.28-3.21,4.56s-2.8,2.36-4.14,3.63c-1.9,1.82-3.53,2-5.38.15C77.7,106.94,72.87,103.07,70,97.5c-1.17-2.24-3.39-3.82-4.08-6.38,1.31-2.24,2.19-2.26,3.91,0,2.69,3.48,4.78,7.4,7.76,10.68.55.61,1,1.3,1.61,1.87,1.25,1.2,2.22,2.9,3.82,3.5,1.93.71,2.39-1.86,3.88-2.41A1.36,1.36,0,0,1,88,104.63Z"/><path class="cls-63" d="M88,104.63A12.45,12.45,0,0,0,84.53,108c-.71,1-1.25.8-1.94.11-3.46-3.43-6.92-6.84-9.49-11-1.27-2.08-2.75-4-4.19-6-1.09-1.5-1.22-1.48-3,.05-2.55-2.73-2.54-3.51,0-6.8,1.45.74,2.89,1.07,4.21-.25.72-.71,1.37-1.16,2.33-.27s.11,1.42-.22,2.1a3.61,3.61,0,0,0-.19.89,8.67,8.67,0,0,0,2.85,7.7c1.4,1.34,2.47,3,3.8,4.4,1.94,2.09,3.73,4.19,7,2.42.73-.39,1.34.2,1.7.9Z"/><path class="cls-64" d="M13.5,138.53c-.89-1.75-2.69-2.72-3.71-4.37a1.69,1.69,0,0,1,2-.45c3.79,1.34,6.85,3.32,6.75,8.53a53.73,53.73,0,0,1-.38,8.2c-1,5.85-4.31,9.42-10,10.84a3.33,3.33,0,0,1,2.22-1.91A3.42,3.42,0,0,0,12.41,157c2-5.79,2.06-11.73,1.62-17.73C14,139,13.68,138.76,13.5,138.53Z"/><path class="cls-65" d="M158.21,389.63c1.31.93,2.43,2.22,4.31,1.93.69-.11,1.12.39,1.14,1.13s-.39,1-1,1.26c-4.76,1.87-5.55,3-5.62,8.1,0,3-.05,5.93,0,8.9,0,2.42.56,3,3,3.32.8.12,1.73,0,1.82,1.13a2.2,2.2,0,0,1-1.6,2.35c-1.35.47-2.84,0-4.22.56-.55.21-.85-.39-1.09-.85a5.33,5.33,0,0,1-.39-2.4,69.15,69.15,0,0,1,1.59-18.2c.47-2.12.24-2.38-2.21-2.9C154.11,390.73,155,389.87,158.21,389.63Z"/><path class="cls-64" d="M254.83,406.89a2.81,2.81,0,0,1,1.17,2.37,4.14,4.14,0,0,0,1.86,3.34,50.21,50.21,0,0,0,11.36,7.51,13.74,13.74,0,0,0,8.51,1.37,8.43,8.43,0,0,1,2.39-.4c-2.37,3.25-5.53,4.87-9.55,4.16-2.33-.41-4.18-2.07-6.3-3.05-3-1.36-5.09-3.75-7.26-6.05a7.48,7.48,0,0,1-2.2-5.56C254.86,409.35,254.82,408.12,254.83,406.89Z"/><path class="cls-66" d="M446.85,60.3a10.26,10.26,0,0,0-1.74-.54c-1.51-.21-1.46-1.25-1.23-2.28.36-1.58,3.52-3.14,5-2.56,1.1.42.91,1.46,1.14,2.31a.53.53,0,0,0,.7.38c.23-.11.5-.5.45-.7A5,5,0,0,0,450,54.2c-.31-.31-.5-.66-.23-1.07s.79-.83,1.27-.46c.91.69,1.12.3,1.79-.46.93-1.07,2.51-1.2,4-1.14.73,0,.92.58,1.28,1.09,1.93,2.7.68,5.27-.28,7.81a1.36,1.36,0,0,1-2.28.54c-.75-.55-1.27-.76-2.09,0s-1.7.37-2.53-.19a3.07,3.07,0,0,0-3.93,0Z"/><path class="cls-67" d="M432.72,527l-1.84,0a5,5,0,0,1-3.09,0l-1.13-.19a3.52,3.52,0,0,1,2.11-4.25c1.9-1,3.49-2.79,6-2.12.67.18.89-.22,1.1-.74s.34-.88.64-1a9.72,9.72,0,0,1,3.22-.84c1.59,0,.79,1.58,1.2,2.39,1.12,2.24.19,4.41-.27,6.58-.16.73-.8,1.54-1.53.94-1.26-1-2.41-.53-3.7-.34A8.8,8.8,0,0,1,432.72,527Z"/><path class="cls-68" d="M341.47,112.55a2.13,2.13,0,0,1-2.14-1.26c-.29-.8.32-1.37.89-1.8A54,54,0,0,1,351,103.11c1.83-.82,4.05-.37,4.54.6.38.74-.78,3.51-2.14,4.09-3.82,1.61-7.33,4-11.54,4.68Z"/><path class="cls-68" d="M235.68,377.31c-1,.05-1.82-.11-2.19-1a1.66,1.66,0,0,1,.83-2.1c3.67-2.4,7.15-5.17,11.44-6.44,1.35-.4,3.09-.91,3.86.69s-.66,2.92-1.72,3.57a49.67,49.67,0,0,1-11.74,5.24A2.5,2.5,0,0,1,235.68,377.31Z"/><path class="cls-69" d="M66.16,316.43a2.89,2.89,0,0,1,.88.4c3.55,2.94,6.11,6.48,6.71,11.2a2.55,2.55,0,0,1-.56,2.27c-.65.69-1.4,1.05-2.09.22-2.68-3.21-5.47-6.36-6.92-10.36a5.1,5.1,0,0,1-.06-2.43C64.27,316.83,65,316.38,66.16,316.43Z"/><path class="cls-70" d="M390.17,354a2.35,2.35,0,0,1,2.24,1.35c1.53,2.75,3,5.51,4.45,8.31a7.84,7.84,0,0,1,.72,2.63,2.22,2.22,0,0,1-1.42,2.17c-.89.49-1.58,0-2.16-.63a4.92,4.92,0,0,1-1.12-1.44c-1.15-3.06-3.29-5.58-4.58-8.57C387.47,355.89,388.27,354.06,390.17,354Z"/><path class="cls-71" d="M10.62,11.06A2.63,2.63,0,0,1,13,12.44c1.92,2.62,4,5.13,5.76,7.86,1,1.51,1,2.24-.09,3.13a2.16,2.16,0,0,1-3.25-.31c-1-1.13-2-2.31-2.91-3.53a64.63,64.63,0,0,1-3.89-5.47C7.46,12.13,8.23,11,10.62,11.06Z"/><path class="cls-72" d="M525.27,58.38c-2.7-.67-5.3-1.21-7.83-2a14.78,14.78,0,0,0-4.11-1,2.07,2.07,0,0,1-2.16-1.78c-.16-.91,1.12-2,2.42-1.76,3.5.65,7.11.37,10.56,1.35A6,6,0,0,1,526.9,55a2,2,0,0,1,.37,2.52A1.81,1.81,0,0,1,525.27,58.38Z"/><path class="cls-73" d="M507.12,525.06c-3.32-.85-7.26-1.83-11.18-2.9-.9-.24-1.74-.81-1.52-2a1.68,1.68,0,0,1,2.13-1.28c4.1.64,8.3.67,12.28,2a3.21,3.21,0,0,1,1.9,2.26C511.16,524.42,509.91,525.2,507.12,525.06Z"/><path class="cls-13" d="M26.33,93c-4.34-.89-8.39-2.38-11.45-5.79-.92-1-.56-1.93.76-2.18a5.28,5.28,0,0,1,3.81.76,42.14,42.14,0,0,0,7.67,3.65c.9.34,2.39.77,2,2.17C28.81,92.77,27.57,93,26.33,93Z"/><path class="cls-74" d="M282.35,164.39c-2.55.19-5.34-.54-8.14-.91-1.06-.13-2.76-.36-2.59-2s1.76-1.34,2.93-1.39a38,38,0,0,1,10.57,1.1,10.88,10.88,0,0,1,1.19.26c.79.3,1.56.74,1.5,1.69s-.94,1.23-1.78,1.26C284.91,164.42,283.79,164.39,282.35,164.39Z"/><path class="cls-75" d="M283.2,474c.94,0,1.77.06,2.19.94s-.1,1.31-.52,1.94c-1.58,2.38-3.08,4.81-4.63,7.22a12.08,12.08,0,0,1-1.05,1.49,1.47,1.47,0,0,1-1.92.46,1.55,1.55,0,0,1-.82-1.83,16.68,16.68,0,0,1,1.44-4.66c.79-1.32,1.53-2.66,2.32-4A2.88,2.88,0,0,1,283.2,474Z"/><path class="cls-76" d="M300,7.37c.68.1,1.63-.28,2.08.69s-.05,1.53-.56,2.23a23.79,23.79,0,0,0-3.64,6.29,6,6,0,0,1-1.72,2.12c-.49.51-1,1.15-1.82.64a1.87,1.87,0,0,1-1.06-2c.53-3.55,2.54-6.36,4.42-9.24C298.19,7.33,299.07,7.37,300,7.37Z"/><path class="cls-77" d="M43.56,208.66c-1.42,0-2.37,0-2.72-1.15s.64-1.37,1.21-1.88c2.58-2.26,5.87-3.23,8.86-4.73a1.75,1.75,0,0,1,2.41.69,1.89,1.89,0,0,1-.46,2.49A21.45,21.45,0,0,1,43.56,208.66Z"/><path class="cls-78" d="M128,210.77a1.13,1.13,0,0,1,.46-1.19c.76-.45,1.35,0,1.9.53,2.88,2.7,4.71,6.14,6.68,9.48a3.3,3.3,0,0,1,.23,1.49,1.41,1.41,0,0,1-.89,1.47,1.26,1.26,0,0,1-1.39-.4,21.12,21.12,0,0,1-2.13-2.21c-1.28-1.71-2.49-3.48-3.67-5.27A6.11,6.11,0,0,1,128,210.77Z"/><path class="cls-79" d="M361,459.24a4.62,4.62,0,0,1,2.8,2.26c1.62,2.3,3.12,4.69,4.59,7.09a8.44,8.44,0,0,1,.82,2.29,1.35,1.35,0,0,1-.68,1.56,1.33,1.33,0,0,1-1.69-.14,9.19,9.19,0,0,1-2.08-2.2,46.69,46.69,0,0,0-4.1-6.37,6.15,6.15,0,0,1-1-2.84C359.48,459.93,360.09,459.41,361,459.24Z"/><path class="cls-80" d="M103.86,143.92a1.64,1.64,0,0,1-1.65-2.06,3.69,3.69,0,0,1,1.16-1.76,66.41,66.41,0,0,1,7-6.41,1.8,1.8,0,0,1,2.7,0,1.69,1.69,0,0,1-.07,2.69,68.41,68.41,0,0,1-5.45,4.91,26.9,26.9,0,0,0-2.39,1.9A2.06,2.06,0,0,1,103.86,143.92Z"/><path class="cls-81" d="M471.09,132.91c3.09,1.51,6.9,2.47,9.73,5.32a1.47,1.47,0,0,1,.29,2,1.55,1.55,0,0,1-1.86.75c-3.17-1.34-6.64-2.07-9.33-4.43a2.51,2.51,0,0,1-.78-2.78C469.36,133,470,133,471.09,132.91Z"/><path class="cls-82" d="M222.27,144.45c0,1.69-1.22,2.5-2.63,1.59a28.88,28.88,0,0,1-7.09-5.8,3.23,3.23,0,0,1-.85-2.23c.06-1.63,1.08-2.33,2.39-1.38,2.56,1.85,5,3.9,7.42,5.89A2.25,2.25,0,0,1,222.27,144.45Z"/><path class="cls-79" d="M209.48,474.56c-1-.06-1.34-.45-1.43-1.16a3.43,3.43,0,0,1,.55-2.34q2.64-4.1,5.33-8.17a2.66,2.66,0,0,1,1.7-1.21c1.13-.21,2.06.5,1.61,1.51-1.76,3.88-3.54,7.78-6.61,10.87A1.56,1.56,0,0,1,209.48,474.56Z"/><path class="cls-83" d="M57,57.83c.37,0,.07,0-.24,0a2.09,2.09,0,0,1-2.29-1.63c-.17-1.19.84-1.85,1.92-1.94A25.77,25.77,0,0,0,62,52.67a10.33,10.33,0,0,1,4.24-.3,1.46,1.46,0,0,1,1.38,1.4,1.44,1.44,0,0,1-.91,1.46C63.83,56.61,61,57.89,57,57.83Z"/><path class="cls-84" d="M353.66,315.25a24,24,0,0,1,3.06,0,2.07,2.07,0,0,1,2,2c0,1.34-1.06,1.46-2.13,1.66a42.15,42.15,0,0,1-8.54.63c-1.06,0-2.11,0-2.15-1.51a1.93,1.93,0,0,1,2-2.21C349.82,315.54,351.68,314.84,353.66,315.25Z"/><path class="cls-83" d="M145.47,294.85c-.75,0-1.57,0-2.38,0a1.48,1.48,0,0,1-1.45-1.34,1.34,1.34,0,0,1,1.13-1.58c2.46-.37,4.6-1.65,6.94-2.34a9.67,9.67,0,0,1,2.73-.22c.88,0,1.65.25,1.9,1.2a1.78,1.78,0,0,1-1,2C150.93,294,148.44,295.15,145.47,294.85Z"/><path class="cls-85" d="M40.9,524.42a12.35,12.35,0,0,1-1.91,0A1.46,1.46,0,0,1,37.65,523a1.31,1.31,0,0,1,.94-1.41c3.21-.88,6.43-1.76,9.67-2.48a1.91,1.91,0,0,1,2.06,1.5c.38,1.09-.38,1.72-1.28,2.09C46.6,523.67,44.16,524.71,40.9,524.42Z"/><path class="cls-86" d="M334.88,392.17c2.61-.6,5.25-1.16,6.75-3.74,1.77.08,1.79,1.05,1,2.21-.92,1.36-1.78,2.7-1.64,4.43-2.66-.49-5.45,0-8-1C333.33,393.14,334.3,392.86,334.88,392.17Z"/><path class="cls-87" d="M498.57,395.17c.43,1.83,1.9,1.81,3.33,1.87.6,0,1.25,0,1.48.73a1.11,1.11,0,0,1-.29,1.12,1.32,1.32,0,0,1-1.89.27,4.85,4.85,0,0,0-3.1-.92c-1.76,0-2.7.62-2.57,2.48l-4.91,0c0-.63,0-1.26,0-1.89C492.71,396.45,495.61,395.75,498.57,395.17Z"/><path class="cls-88" d="M381,1.85c1.23-1.15,2.65-.74,4-.41A7.53,7.53,0,0,0,387,1.9c.07,1,.17,2,.23,3,.05.82.07,1.66-.82,2.09s-1.56-.15-2.2-.6A6.83,6.83,0,0,1,382,3.66C381.67,3.05,381.7,2.24,381,1.85Z"/><path class="cls-37" d="M45.6,410c2.36.83,2.36.83,2.45,3.71-1.21,1.06-2,.52-2.38-.75A12.67,12.67,0,0,1,45.6,410Z"/><path class="cls-37" d="M14.13,395.2c0,.61,0,1.23,0,1.84C13.4,396.42,13.36,395.8,14.13,395.2Z"/><path class="cls-89" d="M488.13,10.21a4.66,4.66,0,0,1-1.85,3.38A21.41,21.41,0,0,1,474,18.41a4,4,0,0,0-2.28.74,1.8,1.8,0,0,1-2.36.14c1.71-1.91,4.26-1.85,6.29-2.86s4.16-2.14,6.33-3.07S485.77,10.92,488.13,10.21Z"/><path class="cls-90" d="M134.65,8.75c5.33,2.91,11.27,3.76,17.18,5.23-.59,1.06-1.51.86-2.22.77-4.34-.55-8.7-1.07-13-1.83C134.24,12.5,133.89,11.52,134.65,8.75Z"/><path class="cls-91" d="M11.1,55.72c.3,1.28-.65,2.43-1.37,3.66-.4.67-.6,1.67-1.7,1.44a5.11,5.11,0,0,1-3.52-2.74c-.46-.88.15-1.55.75-2.15a17.29,17.29,0,0,0,2.35-2.42,2.1,2.1,0,0,1,2.58-1.06c1.21.38.8,1.48.9,2.35A7.92,7.92,0,0,1,11.1,55.72Z"/><path class="cls-17" d="M439.62,225.29c.14-3.86,1.05-5,4.81-5.29a31.82,31.82,0,0,1,15.08,2.05,3,3,0,0,0,3.32-.36c14.64-10.47,31.05-16.36,48.82-18.71a101.79,101.79,0,0,1,18.38-1l-.06-.05c1.06,1.18,1,2.64,1,4.07q0,65.2,0,130.4c0,1.44,0,2.9-1,4.08l.06-.05a129,129,0,0,1-35.8-4.88c-12.79-3.77-24.69-9.36-35-17.92-12.47-10.3-20.11-23.39-21.94-39.54a57.62,57.62,0,0,1,1.37-21.67c.35-1.28.65-2.58,1-3.87a75.81,75.81,0,0,1,19.18-1.59,17.63,17.63,0,0,0,7.22-1.2,3.71,3.71,0,0,0,2.67-4.27c-.51-4.57-.92-9.16-1.13-13.76a7.81,7.81,0,0,0-.62-2.68c-1.3-3-2.54-3.25-4.44-.67-2.05,2.79-4.65,1.91-7.24,1.63-.08-.05-.22-.1-.24-.18-.47-2.14.43-5.14-2.32-6-3.54-1.11-7.31-1.6-10.2,1.82a1.92,1.92,0,0,1-.48.37C441.06,226.24,440.38,225.64,439.62,225.29Z"/><path class="cls-92" d="M454.87,229.59a6.89,6.89,0,0,0,1.51-.23c1.46-.57,3.32,1.14,4.34-.33.88-1.26,2.08-2.19,2.87-3.45s1.49-.78,2.13,0a9.57,9.57,0,0,1,2.7,6,137.9,137.9,0,0,0,1.18,14.34c.33,2.27-.2,3.16-2.27,4.17a15,15,0,0,1-6.79,1.61c-5.31,0-10.65-.31-15.89.82-1.72.37-3.37.82-5.06,0-2.4-1.45-4.06-3.37-4.2-6.33a4.69,4.69,0,0,0-1.19-2.76,14.07,14.07,0,0,1-2.81-6.36c-.85-4-.35-4.77,3.67-5.68,1.5-.67,1.89.65,2.57,1.45,2,2.33,3.49,2.68,6,.94,2.07-1.41,4.74-1.1,6.68-2.69C451.9,230.77,453.13,229.39,454.87,229.59Z"/><path class="cls-93" d="M450.64,231.53c-1.18,1-2.39,1.91-4.09,1.73-.9-.1-1.49.47-2.15,1-3.22,2.43-5.76,1.94-7.82-1.59a2.33,2.33,0,0,0-1.52-1.28c1.49-.3,1.92-1.59,2.56-2.71s1.33-2.24,2-3.37c.75-.34,1.61-1.06,1.7.57a2.2,2.2,0,0,1-.35,1.19c-.76,1.34-1.88,2.77.86,3.16a33.54,33.54,0,0,0,5.75.38C448.67,230.62,449.83,230.52,450.64,231.53Z"/><path class="cls-16" d="M530,340.43c0-.72-.06-1.43-.06-2.15V204.33c0-.81,0-1.63.06-2.45,26.11-.29,50.15,6.06,70.7,22.8,11.47,9.35,19.19,21.25,21.73,36.07,3,17.21-1,32.73-11.76,46.5a75.18,75.18,0,0,1-21.38,18.27c-.78.46-1.54,1.07-2.56.72-1.65-.31-2.34-1.61-2.73-3-.9-3.12-2.9-5.54-4.72-8.12a3.51,3.51,0,0,0-4.15-1.66,23,23,0,0,1-9-1.17c-3.77-1.25-7.86-.63-11.78-1.46-2.52-.54-3,2.25-3.83,4.06a4.28,4.28,0,0,1-1.07,1.46c-4.51,4.52-4.48,5.36-1.23,10.66,2.3,3.74,5.82,6.5,7.87,10.39-.91,1-2.17.95-3.35,1.15A140.6,140.6,0,0,1,530,340.43Z"/><path class="cls-94" d="M556,337.42a53,53,0,0,1-9.53-11.54c-2.1-3.34-1.71-6.24,1.13-9,.65-.63,1.6-.93,2.06-1.78.86-1.22,1.59-.47,2.22.21a8.21,8.21,0,0,0,4.19,2.4,3.93,3.93,0,0,1,2.82,2.19c1,2.35,3,3.5,5.07,4.67a71,71,0,0,1,10.15,6.31c.75.6,1.41,1.88,2.51,1.31s.45-1.84.45-2.82c-1.27-3.94-1.81-8.15-4.38-11.59a11.17,11.17,0,0,1,3-5c1.48-1,2.67-.71,3.51.88a44.35,44.35,0,0,0,3,4.2A8.67,8.67,0,0,1,584,321a10,10,0,0,0,2.72,5.21c.11.39.44.95.29,1.14-1.79,2.35-1.93,5.89-5.18,7.18-.55.22-1.17.46-1.3,1.18-.38,2.2-2.15,3.13-3.83,4.07a20.2,20.2,0,0,0-6.26,4.81c-1.07,1.35-2.14,1.14-3.47.49A40.44,40.44,0,0,1,556,337.42Z"/><path class="cls-95" d="M558.25,195.06a5.27,5.27,0,0,1,1-2.86c1.53-2.41,3.13-4.77,4.72-7.14a3.18,3.18,0,0,1,2.42-1.68,2.79,2.79,0,0,1,2.4,1.1c.72.81.25,1.55-.17,2.23-1.78,2.86-3.6,5.7-5.41,8.54a5.14,5.14,0,0,1-1.72,1.72,2,2,0,0,1-3.23-1.91Z"/><path class="cls-96" d="M669.16,261.73c-.18.1-.35.28-.52.28s-4.26-.53-4.58-.5c-3.53.34-5.8-1.44-7.33-4.4q-1.83-3.56-3.6-7.13c-.78-1.58-1.47-3.1-3.63-3.28-1.21-.1-1.83-1.17-1.93-2.44-.25-3.18,1.24-5.56,3.6-7.4a6,6,0,0,1,6.94-.39c2.76,1.58,6.2,2.51,7.25,6.16.71,4.26,2.59,8.21,3.35,12.47A20,20,0,0,1,669.16,261.73Z"/><path class="cls-97" d="M669.16,261.73c-.18-.23-.51-.46-.52-.71-.28-5.79-2.19-11.23-3.59-16.78-.16-.59-.35-1.19.31-1.61a19.13,19.13,0,0,0,2.85,5.67,15.7,15.7,0,0,1,2.71,9.79C670.83,259.56,670.58,260.92,669.16,261.73Z"/><path class="cls-98" d="M526.45,458.93c-.83,3.63-2,3.4-4.28,3.31a14,14,0,0,1-2.7-.47c-.82-.2-2.09.23-2.29-1a3.41,3.41,0,0,1,1.29-3.26,2.37,2.37,0,0,1,3.06-.42C523,458.05,524.35,459.45,526.45,458.93Z"/><path class="cls-99" d="M645.13,365.69c.44,2.32-1.65,3.48-3,4.95-.87.91-1.67-.16-2.38-.63-2.08-1.37-2.14-1.59-1.11-3.85a5.36,5.36,0,0,0,.4-1.75c.2-2,1.29-3,3-2.88,2.21.19,3,1.06,3.08,3.28C645.13,365,645.13,365.22,645.13,365.69Z"/><path class="cls-1" d="M427.79,527l3.09,0A2.3,2.3,0,0,1,427.79,527Z"/><path class="cls-100" d="M166.21,175.44c-1.29.74-2.2,1.53-1.72,3.33.58,2.17-.25,3.36-2.4,4-.39.12-.89,0-1.18.27-3.77,2.78-7.4,1.43-10.91-.44a12.79,12.79,0,0,1-6.83-8.25c-.2-.79-.63-1.54-.75-2.33-.37-2.43-.57-4.68,1.48-6.8,2.33-2.4,4.11-5.33,6.59-7.63.37-.35.71-.74,1.09-1.08,2.58-2.25,2.69-2.25,5.31-.24.23,1.78-1.19,1.84-2.3,2.15-2.08.58-3.05,1.91-3.71,4-1.23,3.89-1.52,7.45.87,11.09,1.91,2.9,3.32,3.57,6.59,2.08C161,174.43,163.56,174,166.21,175.44Z"/><path class="cls-101" d="M166.21,175.44c-1.63,0-3.26,0-4.89,0a4.12,4.12,0,0,0-2.28.67c-4.13,2.59-7,.68-8.26-2.59-.86-2.25-2.23-4.24-1.8-6.83.34-2.1,1.09-4.08,1.48-6.18.31-1.67,2.13-2.65,4-2.88,1-.12,2.07-.1,2.45-1.35,3.22-1.89,5-1.78,7.26.76,1.29,1.42,2.54,2.62,4.65,2.36a2.55,2.55,0,0,1,2.44,1c1.89,2.63,3.66,5.31,3.64,8.74a3.83,3.83,0,0,1-.88,2.12C172.15,174.24,169.09,174.61,166.21,175.44Z"/><path class="cls-102" d="M413.62,114.28c-3.4-.49-4.07-1.35-3.63-4.16.06-.38.05-.83.56-.93a1.06,1.06,0,0,1,1,.46C412.65,110.91,412.93,112.49,413.62,114.28Z"/><path class="cls-103" d="M417.38,128.17a1.53,1.53,0,0,1,.64-2,3.89,3.89,0,0,1,3-.05l.05,0a5.12,5.12,0,0,1,.45,1.13c.19,1.65-.44,2.2-2.06,2C418.6,129.19,418.17,128.37,417.38,128.17Z"/><path class="cls-104" d="M91.71,177.28c-.8-1.64-1.54-3.29-3.86-3.21-.43,0-.9-.74-1.32-1.17a2.72,2.72,0,0,0-2.11-1.05c-1.8.11-2.71-.33-2-2.38.28-.75-.38-1.31-1.2-1.43-.5-.07-1-.07-1.52-.14-.94-.13-1-.82-1-1.58A1.18,1.18,0,0,1,80.08,165l5.48-.08c-.1.17-.21.35-.3.52-.45.85-2.26.81-1.76,2.08.37.93,1.81.6,2.72,1,.63.26,1.41.14,2.08.34a1.81,1.81,0,0,1,1.55,2,4.33,4.33,0,0,0,1.34,3.84C91.92,175.37,91.76,176.36,91.71,177.28Z"/><path class="cls-105" d="M87.38,370c1.36,3.06-.39,5.77-1,8.6a13.23,13.23,0,0,1-.58,1.42c-.32.88-1.39,2,.1,2.57,1.21.46,1.76-.81,2.18-1.69A32,32,0,0,0,90,374.47c.26-1.05.26-2.43,1.84-2.39,1.21,0,2.52,2.17,2.18,3.53a25.1,25.1,0,0,1-1,2.58c-.79,2.09-1.61,4.17-2.35,6.29a1.29,1.29,0,0,0,.68,1.8c.89.33,1.36-.36,1.62-1,1.07-2.65,2.06-5.33,3.11-8,.36-.93.56-2.22,1.8-2.2a5.11,5.11,0,0,1,3.19,1.64c.61.57.26,1.28,0,2C99.7,382,98.28,385.24,98.38,389c.05,1.87-1.06,2.42-2.82,1.73a16.87,16.87,0,0,1-3.18-1.78c-3.06-2-6.1-4.11-9.8-4.86-.74-.48-2.23-.14-1.91-1.77v0c3.13-3.29,3-7.77,4.31-11.71h0C85.58,369.59,86.32,369.12,87.38,370Z"/><path class="cls-106" d="M93,360.77c7-1.27,11.44,2.55,15.38,7.46a5.66,5.66,0,0,1,1.35,2.35c-.15.47-.2,1-.76,1.21-1.17-2.09-2.51-4-4.89-4.93-3.36-2.95-7.79-3.35-11.74-4.9h0C92,361.24,92.58,361.06,93,360.77Z"/><path class="cls-1" d="M83.11,369.09a33.68,33.68,0,0,1-2.21,9.53c-.34.8-.69,1.95-1.88,1.46s-1-1.53-.39-2.34c2.08-2.84,2.05-6.09,2-9.37a10,10,0,0,1,0-1.22c.06-.77-.24-1.86.89-2s1.53.81,1.58,1.83C83.13,367.52,83.11,368,83.11,369.09Z"/><path class="cls-107" d="M86.68,367.47A3.41,3.41,0,0,1,88,364.79c.84-.68,1.47-2.31,2.55-1.85,1.34.58.1,1.95.07,3-.06,1.74-.06,3.48-.08,5.22-1.46.12-2-1.33-3-1.86h0Z"/><path class="cls-1" d="M85,370.58a31.08,31.08,0,0,1-1.47,7.48,6.45,6.45,0,0,1-2.84,4.23c1.44-3.09,3-6.11,3.31-9.6A2.54,2.54,0,0,1,85,370.58Z"/><path class="cls-1" d="M87.38,370a2.7,2.7,0,0,0-2.41.58c.56-1.89.56-1.89,2.5-1.31h0C87.45,369.52,87.41,369.77,87.38,370Z"/><path class="cls-1" d="M80.67,382.27c.27,1,1.33,1.12,1.91,1.77a2.39,2.39,0,0,1-1.71-.19C80.25,383.43,79.77,382.91,80.67,382.27Z"/><path class="cls-108" d="M171.71,340.39c-3.25.07-3.26.07-4.32,3.54a1.76,1.76,0,0,1-1.74,1.4c-.47-.62,0-2-1-2-2.47,0-4.49-1.28-6.69-2.17a26.45,26.45,0,0,0,7.63,4.22c-.15.14-.3.26-.44.41a32.76,32.76,0,0,1-6.56,4.71c-1.14.71-1.83,1-2.87.35s-2.46-.45-3.05-1.78c.58-2,.31-4,.41-6a6.59,6.59,0,0,1,6.38-6.2,7.06,7.06,0,0,0,5.61-1c.94-.53,1.63-1.54,2.86-1.55,1.38,2.71,1.38,2.71,4.57.6,1.28.36,3.13-.45,3.57,1.7C175,338.27,173.09,339,171.71,340.39Z"/><path class="cls-109" d="M159.45,336.85c-1.88.64-3,2.33-4.72,3.27-.93.51-.95,1.49-.92,2.43.05,1.63.07,3.26.14,4.88.05.95-.22,1.6-1.29,1.63-1.87-5.18-1.38-7.92,2.27-11.18a47.26,47.26,0,0,1,4.41-3.25c.52-.37,1.24-.59,1.66-.05s-.18,1.08-.61,1.49S159.77,336.59,159.45,336.85Z"/><path class="cls-110" d="M171.71,340.39c.55-2.29,2.56-2.92,4.35-3.8a1.42,1.42,0,0,1,1.13,2.09,3.65,3.65,0,0,1-2.89,2.46A3.82,3.82,0,0,1,171.71,340.39Z"/><path class="cls-111" d="M172.49,334.89a2.62,2.62,0,0,1-1.81,2.22,2.85,2.85,0,0,1-2.87-.33c-.9-.81-.14-1.66.11-2.49C169.53,333.84,171.14,333.31,172.49,334.89Z"/><path class="cls-32" d="M244.44,510.37c0-.9.05-1.41,0-1.92-.31-2.86,1-4.59,3.61-5.67,1.39-.57,2.56-1.7,4-2.28a10.35,10.35,0,0,1,7.51.21c7.49,2.69,13.68,7.15,17.85,14.09a15.91,15.91,0,0,1,1.74,3.93c1.27,4.6-1.12,8.46-5.75,9.42-4.1.85-8,.92-11.9-1.13-4.81-2.51-9.63-4.9-13.62-8.68C245.42,516.05,243.58,513.58,244.44,510.37Z"/><path class="cls-112" d="M256.68,515.77c-.43-.27-.87-.77-1.29-.76-2.69.09-4.51-1.7-6.67-2.81-.88-.45-1.34-.87-1.25-1.76.15-1.47-.59-3.06.56-4.4,1.37,1,2.29-.11,3.25-.74a7.5,7.5,0,0,1,8.58-.32c.85.5,1.94.82,1.77,2.16,1.3,2.18,2.82,4.11,5.38,4.93a2.4,2.4,0,0,1,1.36,1.13c-1.76,2.55-1.68,2.71,1.81,3.92,1,1.88.17,3.71-.15,5.54-.07.45-.61.45-1,.5-1.27-3.38-2-3.72-5-2.46a1.23,1.23,0,0,1-.46-1.33c.26-2.29-.68-3.23-2.85-2.72-1.17.28-2.29.93-3.36-.19,1-.83,1.75-1.75,1-3.15a5.14,5.14,0,0,1-.52-4.13c.19-.58,0-1.24-1.12-1.33C256.71,510.5,256.71,513.14,256.68,515.77Z"/><path class="cls-113" d="M261.63,507.14c-1.39-1.84-3.65-2.19-5.58-2.77-1.59-.47-3.17,1-4.67,1.75-.62.32-1.12.86-1.73,1.21-1.62,1-1.62-.17-1.62-1.29a18.39,18.39,0,0,0,2.92-1.63c2.55-2.06,5.33-1.73,8.09-.81a39,39,0,0,1,4.95,2.32,3.49,3.49,0,0,1,1.1,1,1,1,0,0,1,.09.86c-.16.43-.56.51-1,.34C263.33,507.78,262.48,507.46,261.63,507.14Z"/><path class="cls-114" d="M256.68,515.77c-.46-1.64-2.2-3.12-.42-5,.43-.46-.27-1.11-.51-1.65-.34-.78-.6-1.59.13-2.26a1.42,1.42,0,0,1,1.72-.07c.8.48,2,1.37,1.46,2.06-1.41,1.91-.13,3.36.35,5,.68,2.28.57,2.4-2,2.65Z"/><path class="cls-115" d="M264,520.7c1.08-2,1.53-2.16,3.16-1.34,2.41,1.21,2.64,1.68,1.82,3.8A4.72,4.72,0,0,1,264,520.7Z"/><path class="cls-116" d="M270.18,517.12a3.8,3.8,0,0,1-1.12.41,3.23,3.23,0,0,1-3-2.35c-.25-1.82,1.22-1.73,2.35-2C269.68,514.18,270.58,515.35,270.18,517.12Z"/><path class="cls-117" d="M286.83,47.56c.53.25.61.72.66,1.23.1,1.12-.47,2.17.34,3.41.58.89-.14,2.23-1,3.13-1.71-1-3.19-3.91-5.44-.68-1.09-.59-.7-1.56-.6-2.44.24-2.06.12-2.24-1.9-2.35a5.54,5.54,0,0,0-1.82,0,3.52,3.52,0,0,1-3.87-1c-.26-.29-.68-.69-1-.66-2.39.26-3.85-1.38-5.63-2.51-2.51-1.59-3-2.53-2-5.67A11.71,11.71,0,0,0,269,38a7.63,7.63,0,0,1,10.45,2.51A4.51,4.51,0,0,0,283,44.58a4.4,4.4,0,0,1,2.62,2,1.09,1.09,0,0,1-.43.72c-.53.44-1.24.95-.47,1.63s1.17-.15,1.56-.69A3.26,3.26,0,0,1,286.83,47.56Z"/><path class="cls-118" d="M279.45,40.51c-1.41-1.21-3.22-1.71-4.78-2.64-1.73-1-3.26-.66-4.8.43-1.07.77-2.23,1.42-3.37,2.08a1.27,1.27,0,0,1-1.87-.36c2.8-3.69,8.5-4.74,11.72-3.16,1.27.62,2.61,1.11,3.88,1.71.91.43,1.84.88,2.08,2.2C281.29,41.26,280.38,40.48,279.45,40.51Z"/><path class="cls-119" d="M281.4,54.65c.13-2.42,1-3.07,3.06-2.15a3.38,3.38,0,0,1,2.38,2.83C284.87,56.33,283,56.47,281.4,54.65Z"/><path class="cls-120" d="M286.83,47.56c.14,1.12.4,2.34-1.09,2.73-1.05.28-1.73-.47-2.25-1.22-1-1.45-.36-2.21,2.1-2.52C286,46.88,286.42,47.22,286.83,47.56Z"/><path class="cls-121" d="M291.09,410.47c-1.65-.62-2.47-2.58-4.46-2.74-.42,0-.36-.86-.41-1.36-.08-.88.27-1.86-.57-2.57a18.87,18.87,0,0,0-10.8-8.23c-3.92-1.19-6.64-1.09-9.2,2-.48.58-1.26.62-1.93.86a4.07,4.07,0,0,0-2.72,2.28c-.39.31-.79.89-1.17.87-.84,0-.67-.86-.68-1.42a8.16,8.16,0,0,1,4.47-7.48,16.75,16.75,0,0,1,9-2.48c1.43,0,2.86,0,4.29,0a8,8,0,0,1,4.89,1.36,45.66,45.66,0,0,1,5.56,3.63,11.94,11.94,0,0,1,4.38,9.29C291.78,406.5,292.31,408.6,291.09,410.47Z"/><path class="cls-122" d="M263.73,401.3c2.48-.35,4.06-2,5.68-3.68a2,2,0,0,1,2.56-.3,12.15,12.15,0,0,0,4.08,1.16,5.43,5.43,0,0,1,3.92,2.65,6.67,6.67,0,0,0,1.83,2c1.71,1.34,1.72,1.75.21,3.36-.84.89-1.75,1.72-2.62,2.58a2.54,2.54,0,0,1-1.89.87c-.71,0-1.53.1-1.87-.7s.38-1.09.8-1.48a3,3,0,0,0,.86-3.85c-.65-1.34-3.29-2.77-4.64-2.44a3.3,3.3,0,0,0-2.48,2c-.74,1.71-1.63,2-3.07,1.06C265.86,403.77,264.33,403.2,263.73,401.3Z"/><path class="cls-87" d="M477.1,379.21c-.07-.88-.53-1.71,0-2.66,2.38-4.09,4.76-8.14,9.58-9.88a14.7,14.7,0,0,1,5.05-1.05c3.37,0,6.79-.14,10,.72,6.48,1.71,9.87,5,10.81,11.73a26.76,26.76,0,0,1,.34,8.13c-.68,4-3.13,5.95-6.52,7.26a18.22,18.22,0,0,1-7.81,1.12c-1.92-1.17-1.47-2.89-1.1-4.6,1.14-1.78,3.16-1.72,4.88-2.24,4.84-1.44,5.95-3.8,4.3-8.56-1.11-3.21-2.75-5.44-6.44-5.52a3.71,3.71,0,0,1-2.62-1.48c-1.92-2.27-4.1-2.92-6.77-1.34a1.73,1.73,0,0,1-1.21.07c-1.45-1.19-2.72-1-4,.38-1.89,2-4,3.81-5.71,6C479.24,378.24,478.64,379.46,477.1,379.21Z"/><path class="cls-123" d="M477.1,379.21c2.78-2.37,4.72-5.55,7.52-7.92a12.75,12.75,0,0,1,2.31-2c1.42-.72,1.58-.65,2.44,1.32,0,1.34-1.15,1.59-2,2a5.48,5.48,0,0,0-3.46,4.65c-.75,4.26-1,8.33,2.54,11.67,1.48,1.4,2.92,1.92,4.95,1.07s4.36-2,6.65-.32c.06,1.65-.35,3.36.6,4.91,0,.19,0,.39,0,.59-2.38,1.84-5.42,2.23-8,3.71-1.75-1-3.84-.88-5.7-1.81-5-2.48-7.49-6.72-8.93-11.75A6.94,6.94,0,0,1,477.1,379.21Z"/><path class="cls-124" d="M290.54,117.6l.63-.09c1.15-.79,1.89-1.56-.17-2.09-.62-.16-1.47.42-1.82-.58,0-.09.06-.25.11-.26,3.31-.8,3.93-2.81,2.59-5.71,2-1,3.06,0,2.9,1.91a54.73,54.73,0,0,0,.37,13.35c.26,1.6-.18,2.58-2.06,2.36a8.36,8.36,0,0,0-3,.33c-1.28.39-2.61.67-3.86,1.17h0c-1,.58-2.09.74-3.07,1.24h0c-1.42.34-3,1.2-3.48-1.18a1.79,1.79,0,0,1,.25-.9c1.93-2,4.59-2.47,7.11-3.24a9.74,9.74,0,0,0,3.55-1.42c-2.47,0-4.7,1-7.05,1.48-1.35.27-2.77,1-4-.36,0-3.21,0-3.21,3-4.22.73-.59,1.73.06,2.45-.55h0c.9-.77,2.13.1,3-.62h0C288.8,117.52,289.84,118.24,290.54,117.6Z"/><path class="cls-125" d="M289.3,126.8c1.14-1,2.52-.54,3.8-.58s2-.5,1.75-1.8c-1-4.53-.49-9.1-.55-13.66,0-1.8-.32-1.89-2.55-1.2a7.5,7.5,0,0,1-9.2,2.44c1.3-.94,2.95-.63,4.36-1.2.84-.34,1.76-.52,2.63-.82a1,1,0,0,0,.71-.9c0-.68-.64-.8-1.12-.69-3,.65-6,1.36-8.94,2.06-.4.1-.77.3-1.17.37-.63.11-1.35.84-1.89-.11s0-2.62,1.05-2.84c4.87-1.1,9.71-2.53,14.81-2a1.73,1.73,0,0,1,1.77,1.4c.36,1.78,1,3.49.44,5.42a17.42,17.42,0,0,0-.14,7.33c.26,1.63.34,3.24.47,4.87.24,1.11.74,2.39-1.32,1.94h-3A1.69,1.69,0,0,1,289.3,126.8Z"/><path class="cls-126" d="M282.55,112c3.28,0,6.49-.3,9.2-2.44,1.91.55,2,.82,1.9,3.18-.06,1.55-.9,1.79-2.14,1.76-.78,0-1.62-.16-2.2.61-1.65,2.06-4.25,1.31-6.33,2.12-.52.2-1.19-.08-1.74.27l-1.16.06c-2.22-.7-1.22-2.67-1.32-4s1.66-1,2.59-1.48Z"/><path class="cls-127" d="M277,121.3c-2-1.07-2.78-3.5-5-4.3-.18-.06-.34-.54-.31-.8.24-1.58-.44-1.8-1.75-1.3a.91.91,0,0,1-1-.44c-1.2-2.15.35-3.47,1.47-4.93.17-.18.35-.36.53-.53s.67-.47,1-.73a1.46,1.46,0,0,1,2.17,0,1.87,1.87,0,0,1,.29,2.25c-.12.27-.37.49-.5.76-.85,1.83-.68,2.51,1.23,3.16a2.24,2.24,0,0,1,1.55,1.61c.47,1.21.47,2.55,1.35,3.67C278.45,120.37,277.63,121,277,121.3Z"/><path class="cls-127" d="M276.44,131.77a6.47,6.47,0,0,0-4-1.31,1.52,1.52,0,0,1-1.54-1.23c-.17-.94.57-1.24,1.22-1.5a18.42,18.42,0,0,1,2.59-.89,3.31,3.31,0,0,0,2.86-3.12l1.87.61c2.09.65,1,2,.65,3.13h0c-.49.21-.19,1-.78,1.12A10,10,0,0,1,276.44,131.77Z"/><path class="cls-1" d="M294,129.52c-.27.77-.9,1.55-1.69,1.47-4.63-.49-8.11,2.27-11.95,4-.67.3-1.45.69-1.87-.14a1.56,1.56,0,0,1,.81-2.31c3.73-1.31,7.29-3.13,11.2-3.87a12,12,0,0,1,2.74,0A.76.76,0,0,1,294,129.52Z"/><path class="cls-1" d="M280.13,127.46c-.21-1,.4-2.27-.65-3.13l.06-.72c2,.47,3.81-.44,5.67-.92,1.58-.4,3.13-1,4.72-1.29.94-.19,2.23-.48,2.43,1,.18,1.34-1,1.2-1.87,1.43C286.94,124.76,283.31,125.46,280.13,127.46Z"/><path class="cls-125" d="M281.24,117.5c2.15-1,4.54-1,6.75-1.74.48-.16,1-.21,1.32-.65.62,0,1.23,0,1.84,0s1.61,0,1.73.85c.17,1.18-.63,1.6-1.71,1.59.38-.86.94-2.05-.79-1.58s-3.69.95-5.54,1.41A10.89,10.89,0,0,1,281.24,117.5Z"/><path class="cls-125" d="M281.35,112.1c-2.73,1.41-2.86,1.94-1.27,5.46-.38.47-.89.62-1.25.12-1-1.44-.76-3.12-.33-4.62C278.88,111.73,280.24,112,281.35,112.1Z"/><path class="cls-1" d="M289.3,126.8l1.89,0a8.94,8.94,0,0,1-5,1.15A4,4,0,0,1,289.3,126.8Z"/><path class="cls-1" d="M279.35,128.58c.13-.47.24-1,.78-1.12.31,1.81.31,1.81,3,1.77C281,130.3,280.5,130.22,279.35,128.58Z"/><path class="cls-1" d="M283.14,129.23a4,4,0,0,1,3.07-1.24A3.18,3.18,0,0,1,283.14,129.23Z"/><path class="cls-1" d="M294.21,126.85c1.27-.08,1.27-1,1.32-1.94a1.5,1.5,0,0,1,.22,2.15C295.26,127.62,294.67,127.33,294.21,126.85Z"/><path class="cls-125" d="M288.08,118.21c-.88.88-2,.61-3,.62C285.88,117.78,287,118.27,288.08,118.21Z"/><path class="cls-125" d="M285,118.84a2.75,2.75,0,0,1-2.45.55C283.23,118.53,284.15,118.82,285,118.84Z"/><path class="cls-125" d="M290.54,117.6a2.92,2.92,0,0,1-2.43.6C288.74,117.28,289.68,117.58,290.54,117.6Z"/><path class="cls-128" d="M135.28,467.29c-.81,0-1.93-.33-2.35.07-1.7,1.62-2.9.48-4.17-.48a2,2,0,0,0-2.19-.54,1,1,0,0,1-1.28-.49c-.77-2-2.52-1.7-4.29-1.82.56-1.34,1.64-1.51,2.66-1.76l1.19,0a8,8,0,0,1,9.27,2.24C134.82,465.28,136,465.93,135.28,467.29Z"/><path class="cls-129" d="M135.28,467.29c-1-2.27-3.14-3.45-5-4.69-1.54-1-3.58-.19-5.39-.31,4-2,6.69-1.64,9.69,1.27,1.46,1.41,2.87,2.87,4.28,4.28-.69.92-1.49.43-2.13.66A3.24,3.24,0,0,1,135.28,467.29Z"/><path class="cls-130" d="M368,165a19.5,19.5,0,0,0-2.33-.61c-1.21-.17-2.3.1-2.46,1.56s-1,1.46-2.12,1.1a3.93,3.93,0,0,0-3.76.38c-.3.23-.83.52-1.07.4-1.47-.73-2.92-.1-4.28.24-.7-1.44,1-2,.65-3l.7-.1c2.62-3.33,6-3.93,9.85-2.68,1.63.53,3.5.22,4.9,1.46Z"/><path class="cls-131" d="M368.08,163.76a15.49,15.49,0,0,1-5.42-.74c-3.16-1-6-1-8.32,1.88-.26.33-.64.52-1,.08a7.22,7.22,0,0,1,8-4.17,49,49,0,0,0,6,1.19C368.49,162.07,368.57,162.86,368.08,163.76Z"/><path class="cls-132" d="M274.58,293c-.1-1.18.83-1.73,1.47-2.46s1.7-1.4,2.18-2.42c1.37-.93,2.44-2.44,4.39-2.36.27,1.15-1.24,1.43-.9,2.69,2,.59,4.29-.09,6.43.4.16,1.06-.73,1.14-1.32,1.37a6.39,6.39,0,0,0-2.65,1.39,2,2,0,0,1-3,.3c-1.24-1.07-2.29-.69-3.12.42C277.07,293.67,275.86,293.37,274.58,293Z"/><path class="cls-133" d="M336.07,452.14c0-2.28.89-3.14,3.07-2.85a6.52,6.52,0,0,0,3.3-.32,1.3,1.3,0,0,1,1.77.72,1.55,1.55,0,0,1-.21,2,13.08,13.08,0,0,1-6.2,3.13C336.72,455.09,336.08,454,336.07,452.14Z"/><path class="cls-134" d="M460.45,485.08a2.07,2.07,0,0,1-2,.59,5.91,5.91,0,0,0-3.5.9,7.64,7.64,0,0,1-6.23.63,41.63,41.63,0,0,1-5.87-1.65c-1.62-.72-2.34-2-3.2-3.48-1-1.65-.28-2.68.12-4.18a7.66,7.66,0,0,1,4.07-5.39c1.18-.59,2.44-1.24,3.29.62.39.86,1.26,1,2.13.58,1-.44,2.17-.47,3.22-.95a23.36,23.36,0,0,1,8.89-2c2.85-.14,5.38-.33,7.24,2.3.26.36.88.5,1.35.69,2.5,1,2.58,1.16,1.54,3.9-1.76-.51-2.3,1.31-3.52,1.89-3.1,1.48-6.06,3.27-9.43,4.45C459.2,484.66,460.09,484.39,460.45,485.08Z"/><path class="cls-135" d="M460.45,485.08h-3.23l-.19-.67c4.5-3.08,10.2-4.17,14-8.27.56.51.4,1.05.47,1.54C469.08,482,465,483.86,460.45,485.08Z"/><path class="cls-136" d="M373.31,175.82c-1.46,2-3.76,2.8-5.85,3.46a38.47,38.47,0,0,0-6.36,2.8,5.23,5.23,0,0,1-4.11.58,1.67,1.67,0,0,1-1.18-1.92c.1-.77.72-.93,1.35-.93,5.24,0,9.76-2.55,14.59-4C372.23,175.64,372.68,175.34,373.31,175.82Z"/><path class="cls-39" d="M362.06,175.42a5.15,5.15,0,0,1,2.9-1.16C364.36,175.55,363.2,175.47,362.06,175.42Z"/><path class="cls-39" d="M357.05,177.17c.69-1.19,1.8-1.22,3-1.1A4.81,4.81,0,0,1,357.05,177.17Z"/><path class="cls-39" d="M360.18,176c.42-.66,1.06-.58,1.7-.5C361.46,176.17,360.82,176.09,360.18,176Z"/><path class="cls-137" d="M283.17,211.2c-.24.79.61,2.19-.76,2.8s-2.41,0-3.48-.7c-1.86-1.13-1.86-1.25-.8-3.27a7.58,7.58,0,0,0,1.16-2.81c.14-1.65.81-2,2.11-1.16C283.25,207.24,283.24,209.1,283.17,211.2Z"/><path class="cls-138" d="M135.17,481.17c-1.43,1.29-3,.91-4.43.66-3.61-.63-7.18-1.43-10.84-1.77-1.92-.17-2.83-1.12-2.94-2.53s.51-1.94,1.81-1.38a28.18,28.18,0,0,0,5.34,2.24C127.76,479.18,131.48,479.73,135.17,481.17Z"/><path class="cls-1" d="M117,466.62c.71.06,1.82.31,1.18,1.07-1.16,1.4-.29,2.95-.83,4.32C116.5,470.25,117.08,468.42,117,466.62Z"/><path class="cls-139" d="M172.23,553.44c.62,0,1.23-.08,1.84,0,.93.08,2.22-.46,2.49,1,.22,1.22.32,2.71-1,3.27a16.63,16.63,0,0,0-4.39,3.2,1.75,1.75,0,0,1-2.51,0c-1.6-1.52-1.31-3.55-1.22-5.48a2.45,2.45,0,0,1,2.43-2.61c.41,1-.67,1.61-.64,2.75C170.69,555.42,171.19,554,172.23,553.44Z"/><path class="cls-140" d="M172.23,553.44c-.1,1.78-1.32,2.61-2.76,3.21-1,.42-1.5-.06-1.39-1.11.13-1.24,1.35-1.71,1.8-2.7A2.07,2.07,0,0,1,172.23,553.44Z"/><path class="cls-141" d="M517.67,111.45a3.32,3.32,0,0,0,2.09-1.15,1.6,1.6,0,0,1,2.63,0c.85,1,2.08,2.19,1,3.45a9.79,9.79,0,0,0-1.68,4.12c-.57,2.17-1.81,2.63-3.62,1.4-1.06-.72-2.29-1.44-2.22-3C517.76,115.1,517.27,113.12,517.67,111.45Z"/><path class="cls-142" d="M517.67,111.45c1.28,2.89.77,4.26-1.76,4.79a1.49,1.49,0,0,0-.14-.51,4.36,4.36,0,0,1,0-3.06,1.68,1.68,0,0,0,.13-.58c.39-.72.82-1.33,1.73-.65Z"/><path class="cls-141" d="M515.79,112.67c0,1,0,2,0,3.06A2.16,2.16,0,0,1,515.79,112.67Z"/><path class="cls-141" d="M517.65,111.44l-1.73.65C516.07,110.72,516.62,110.44,517.65,111.44Z"/><path class="cls-143" d="M187.16,85.52A1.13,1.13,0,0,1,189,85.4c1,.91,1.81,1.44,3.24.9,1.11-.42,1.58.4,1.65,1.53.13,2.13-.07,2.63-2.14,3.28-1.27.4-2,1.4-2.85,2.22a2.64,2.64,0,0,1-2.79.77c-1.15-.38-1.35-1.45-1.42-2.48s-.07-2.24,0-3.36a1.86,1.86,0,0,1,1.78-2.08c.57.64-.24,1.37.23,2.24C188.14,87.62,187.86,86.62,187.16,85.52Z"/><path class="cls-144" d="M187.16,85.52c1.16.14,2,.61,1.74,2-.18.94-2.17,2.39-3,2.25-.65-.11-.66-.66-.68-1.16-.05-1,.94-1.53,1.23-2.38Z"/><path class="cls-145" d="M270.34,109.53c-.11,1.76-1.64,3.09-1.47,4.93-1.13,2.26-1.13,4.69-1.14,7.14s1.88,4.23,2.37,6.6c-2.27-.66-4.72-3.66-4.7-6a23.35,23.35,0,0,1,3.5-12.2C269.18,109.53,269.6,108.87,270.34,109.53Z"/><path class="cls-62" d="M87.38,102.21a2,2,0,0,0-2.24,0c-2.37,1.2-3.36.77-5.29-1.06-2.46-2.34-4.47-5.06-6.79-7.52-2.09-2.21-2.31-4.31-1-6.83a2.92,2.92,0,0,0,1.85-3.05c1.29-.55,2.59-1.11,3.89-1.64a2.35,2.35,0,0,1,2.8.61c3.14,3.46,6.4,6.84,9.37,10.45,1.94,2.37,1.67,3.23-.52,5.49C88.43,99.67,87.15,100.51,87.38,102.21Z"/><path class="cls-146" d="M92.32,362a24.82,24.82,0,0,1,6.24,1,8.53,8.53,0,0,1,5.5,3.94c0,.51,0,1,0,1.52,0,1-.29,1.22-1.45,1.24-2.2.05-4.43-.65-6.67.5-1.38.71-2.93-.33-4.16-1.2-.93-.66-.43-1.6-.22-2.5C91.88,365,92.07,363.45,92.32,362Z"/><path class="cls-146" d="M93,360.77,92.32,362c-.36,0-.9-.07-.77-.54C91.73,360.76,92.39,360.75,93,360.77Z"/><path class="cls-26" d="M421.05,126.13l-3,.05A2.19,2.19,0,0,1,421.05,126.13Z"/><path class="cls-1" d="M176.08,237.64a3.51,3.51,0,0,1-1.4,2.27,4.08,4.08,0,0,0-1.23,2.68c-2-1.36-2.18-2.27-.37-3.47A26.94,26.94,0,0,1,176.08,237.64Z"/><path class="cls-1" d="M190.21,246.7c0-.54,0-1.08,0-1.62C191,245.64,191,246.18,190.21,246.7Z"/><path class="cls-147" d="M465,297.73a16.19,16.19,0,0,1,3.64-.5,5.77,5.77,0,0,1,6,5.65c.5,7-3.23,11.06-10.27,11.08-1,0-2.05,0-3.07,0-3.58-.29-5.64-2.64-5.83-6.22a8.79,8.79,0,0,1,3.44-7.8,3.59,3.59,0,0,0,1.55-3.35c-.12-2.55,0-5.12,0-7.68a8.73,8.73,0,0,1,.55-3.31c.7-1.81,1.55-2.52,2.79-2.22s2,1.39,1.53,3.17c-.89,3.25-.38,6.52-.5,9.78A8.24,8.24,0,0,0,465,297.73Z"/><path class="cls-148" d="M450.64,231.53a16.5,16.5,0,0,0-4.76-.11,11.14,11.14,0,0,1-5-.69c-.68-1.38-.23-2.8-.14-4.2l.56-.67c2-3,4.74-4.31,8.34-3.57a1.54,1.54,0,0,1,.31.05c1.35.59,2.9.14,4.2.7,1.47.63.31,2.5,1.36,3.52,1.31,1.25.11,2.14-.66,3A6.1,6.1,0,0,1,450.64,231.53Z"/><path class="cls-17" d="M440.76,226.53a5.09,5.09,0,0,1,.14,4.2c-2.15-.74-2.35-1-1.47-2.56A3.54,3.54,0,0,1,440.76,226.53Z"/><path class="cls-149" d="M577.94,329.46c0,.61.08,1.22.06,1.83,0,.77.43,1.75-.52,2.19a2.23,2.23,0,0,1-2.74-.76,13.58,13.58,0,0,0-3.43-3c-2.81-1.66-5.64-3.26-8.46-4.88-1.85-1.06-3.72-2-4.35-4.39a3.14,3.14,0,0,0-2.73-2.19,6.08,6.08,0,0,1-4.74-2.94c-.37-.58-.85-.37-1.33-.21a8.57,8.57,0,0,1,.18-.88c1.57-4.74,2.67-5.31,7.3-3.67a9.6,9.6,0,0,0,3.91.28,14.18,14.18,0,0,1,7.39,1.34c2.29,1.15,4.81.35,7.21.62,0,2.08-1.77,3.15-2.75,4.66-1.51,3.14-4.62,1.5-7.41,2.28,2.05,1.31,4.26,1.89,4.45,4.51,0,.68,1.61.66,2.36,1.16C574.26,326.69,576.58,327.41,577.94,329.46Z"/><path class="cls-150" d="M577.94,329.46c-3.21-1.29-5.67-4.06-9.26-4.47.44-2.9.44-2.91-2.17-3.62-.19-.05-.4,0-.6-.08-.92-.21-1.49-.74-1.25-1.73a1.39,1.39,0,0,1,1.87-1.09,7.4,7.4,0,0,0,6.41-1,12.9,12.9,0,0,1,3.86,8.94C576.82,327.56,578.21,328.2,577.94,329.46Z"/><path class="cls-151" d="M153.89,160.05a1.35,1.35,0,0,1,1.33-.59,4.21,4.21,0,0,0,3.52-1.43c1.42-1.37,2.36-1.41,3.22.09,1.27,2.25,3.17,2.93,5.51,3.21,1.57.18,3,.75,3.12,2.74a3.8,3.8,0,0,0,.66,1.68c.58.95,1.6,1.88.93,3-.87,1.48-2,3.06-3.71,3.41-1.34.28-2.87,1.25-4.31-.12-.61-.57-1.33-.22-1.78.51a1.69,1.69,0,0,1-1.75,1c-.09-2,1.13-2.74,2.67-3.08-.32-.13-1,0-1.41-.42,1.7-4,.77-5.38-3.5-5.14a2.86,2.86,0,0,1-2-.38,5.45,5.45,0,0,1,1.26-2.41C156.8,160.68,154.85,161.23,153.89,160.05Z"/><path class="cls-152" d="M153.89,160.05a7.76,7.76,0,0,1,4.55,1.23c1,.73.95,1.43-.25,1.77-.81.24-1.54.43-1.84,1.31a12.08,12.08,0,0,1,.17,2.08c.24,3,.95,3.53,4,3.14a1.62,1.62,0,0,1,1.4.26c.61,0,1.22,0,1.83,0,.45,0,1.06-.44,1.11.44a.68.68,0,0,1-.74.78c-2-.23-2.55,1.35-3.46,2.51a9.49,9.49,0,0,0-4,1.31c-1,.73-2.29.61-2.65-.4-.84-2.31-3.11-4.13-2.57-6.89C151.91,165,151.38,162,153.89,160.05Z"/><path class="cls-153" d="M165.58,345.37c-.92,0-1.83-.06-2.75-.06a2,2,0,0,1-2.06-1,2.36,2.36,0,0,0-2.5-1.31c-.79,0-1.72.07-1.9-1.05a1.33,1.33,0,0,1,.52-1.35,2.27,2.27,0,0,1,2.55-.4c.18.09.41.2.48.37.73,1.8,2.28,1.73,3.82,1.69a4,4,0,0,1,.6,0c2.43.35,2.63.82,1.31,3.05Z"/><path class="cls-154" d="M276.15,42.27c-2,1.54-.09,3.14.23,4.8.13.71.33,1.55-.36,2s-1.58,0-2.11-.69a11,11,0,0,1-1.12-1.82c-.64-1.23.58-2.11.64-3.1s-1.12-1.9-.76-3.13a1,1,0,0,1,.85-.77C274.55,39.39,276.27,41,276.15,42.27Z"/><path class="cls-155" d="M498,389.67a11.52,11.52,0,0,0-6.8,1.26c-1.82,1-3.3.39-4.76-.76-3.87-3.05-4.23-7.19-3.71-11.62.09-.7.4-1.38.45-2.08a4.84,4.84,0,0,1,3.78-4.62,4.4,4.4,0,0,0,2.4-1.2,25.83,25.83,0,0,0,2.52-1.13,3.63,3.63,0,0,1,5,.81,7.2,7.2,0,0,0,5.47,2.86,4.59,4.59,0,0,1,4.21,3.53,32.52,32.52,0,0,0,1.32,3.44c1.5,3.24-.33,7.08-4.17,8.15C501.8,388.82,499.9,389.22,498,389.67Z"/><path class="cls-156" d="M459.17,307.67a5.08,5.08,0,0,1,3.77-4.67c.71-.15,1.57-.27,1.78.66.24,1.09,1.16,1.67,1.63,2.56a2.41,2.41,0,0,1-2.28,3.69,3.7,3.7,0,0,0-1.43.17C460.44,310.92,459.13,310,459.17,307.67Z"/><path class="cls-157" d="M161.89,169.84c-.09,0-.2,0-.29.08-1.57.6-3.24,1.84-4.72.06a4.67,4.67,0,0,1-.53-5.62A12.08,12.08,0,0,0,159,164a4.24,4.24,0,0,1,5.12,3.81C164.26,169.44,162.47,169,161.89,169.84Z"/><path class="cls-158" d="M485.07,381.21c-.4-1.87.5-3.59.67-5.41a2.21,2.21,0,0,1,2.26-2.11,5.32,5.32,0,0,0,4.05-1.7c1.23-1.19,2.17-1.14,3.43.15a9.41,9.41,0,0,0,5.5,2.93,6.28,6.28,0,0,1,4.84,4.67c1.16,3.8-2.58,7.66-6.6,6.65a4.12,4.12,0,0,0-4.36,1.08c-1.61,1.48-4,1.18-5.93,2-.65.27-1.39-.52-1.67-1.14C486.21,386.08,484.56,384,485.07,381.21Z"/><path class="cls-159" d="M492.9,377.94a4.63,4.63,0,0,1,3.71,1.45c1.43,1.48,1,3.3-.88,4.11-.56.25-1.13.48-1.7.7a2.86,2.86,0,0,1-3.76-.95,3.63,3.63,0,0,1-.47-4C490.5,377.93,491.75,377.86,492.9,377.94Z"/><path class="cls-78" d="M158.75,262.82a1.71,1.71,0,0,0-.68-1.76c-1.11-.65-2,0-2.79.78-4.23,4-6.93,9-9.83,13.94a4.91,4.91,0,0,0-.34,2.2,2.07,2.07,0,0,0,1.32,2.15,1.84,1.84,0,0,0,2-.58,30.81,30.81,0,0,0,3.12-3.25c1.89-2.52,3.68-5.12,5.41-7.75A9,9,0,0,0,158.75,262.82Z"/><path class="cls-73" d="M254.13,239.17a19.6,19.6,0,0,0-.44,1.91c-.12,1-.43,1.87-1.56,1.95a2.07,2.07,0,0,1-2-1.59c-.74-2.44-1.82-4.75-2.75-7.11a2.56,2.56,0,0,1,1.55-3.19c1.36-.61,2.22.2,2.7,1.28A30.26,30.26,0,0,1,254.13,239.17Z"/><path class="cls-1" d="M745.86,281.33l15.55-45.81h13.4c5.16,15.17,10.37,30.53,15.59,45.89l1.3-.06c2.71-15.19,5.41-30.38,8.15-45.72h14.67c-4.48,26-8.89,51.53-13.39,77.61h-15L768.91,262c-7.89,16.89-12.83,34.51-19.25,51.62H735.13c-4.37-25.91-8.74-51.8-13.17-78.09h14.53c2.64,15.17,5.31,30.5,8,45.82Z"/><path class="cls-160" d="M486.34,286.69c.55-.37,1-.27,1.22.36.47,1.26,1,2.49,1.58,3.71a21.76,21.76,0,0,1,1.36,5,1.35,1.35,0,0,1-1.12,1.64,20.1,20.1,0,0,1-5.87.71,2.73,2.73,0,0,0-1.25.35c-.66.26-.93.17-1.25-.47a21.11,21.11,0,0,1-1.1-3.49c-.42-1.4-.77-2.82-1.29-4.2a5.12,5.12,0,0,1-.08-3.05,2.44,2.44,0,0,1,2.22-1.74c1-.12,2-.3,3-.5s1.14.23.82,1.17a12.22,12.22,0,0,1,2.6,3.86,10.26,10.26,0,0,1,.75,3.69c.1.73-.5,1-1.13,1.15a3.27,3.27,0,0,0-1.88.93,3.09,3.09,0,0,1-3-2.15c-.13-.35-.11-.83-.66-.86.1,2.12,1,3.42,2.71,3.88a1.55,1.55,0,0,1,.31.07c.84-.1,1.79.26,2.41-.63.39-1.52,1.11-1.79,2.28-1a14.61,14.61,0,0,1-.91-2.95,36.62,36.62,0,0,0-1.61-4.07C486.24,287.66,485.88,287.19,486.34,286.69Z"/><path class="cls-161" d="M484.86,295.76c.26-.57.55-1.05,1.3-1a2.16,2.16,0,0,0,.69-.16c.88-.24,1-.46.82-1.34a5.69,5.69,0,0,1-.2-1.53c0-.27,0-.59-.13-.8-.8-.91-.87-2.19-1.66-3.11-.3-.36-.39-.79-1-.78-.47,0-.48-.47,0-.83,1-.4,1-.4,1.71.48-.06.85.51,1.48.84,2.18.64,1.32.93,2.76,1.47,4.11.34.81.29,1.68.55,2.52-.32,0-.36-.24-.52-.32-.94-.5-1.59-.12-1.63.94,0,.12,0,.24,0,.36C486,297,485.49,296.23,484.86,295.76Z"/><path class="cls-162" d="M484.86,295.76a1.08,1.08,0,0,1,1,.34,1.3,1.3,0,0,0,1.18.38c-.1.12-.18.32-.29.34-.76.13-1.52.23-2.28.32-.08,0-.18-.13-.27-.2a1.81,1.81,0,0,0,.24-.24c-.08.08-.15.17-.23.26a1.92,1.92,0,0,1-1.94-.87c-.52-.69-1.39-1.22-1.09-2.31.06-.21-.19-.31-.33-.44a.51.51,0,0,1,0-.82.93.93,0,0,1,1.21.29,3.6,3.6,0,0,1,.24.91,1.63,1.63,0,0,0,.94,1.28C483.7,295.3,484.29,295.51,484.86,295.76Z"/><path class="cls-163" d="M484.18,289.34c0-.25-.09-.6.28-.69s.5.17.64.42a1,1,0,0,1,.2.42c0,.32.48.65.06.95s-1.06-.3-1.15-.74A2.19,2.19,0,0,1,484.18,289.34Z"/><path class="cls-161" d="M481.69,287.86c-.42,0-.69-.05-.72-.32s.2-.33.39-.39c.44-.15.89-.31,1.34-.42a.33.33,0,0,1,.45.25.35.35,0,0,1-.18.4C482.5,287.57,482,287.73,481.69,287.86Z"/><path class="cls-164" d="M86.19,265.93c-4.76.83-7.07-2.7-9.7-5.39-1.36-1.4-1.11-3.54.25-5.1,2.5-2.88,5-5.89,9.57-4.57.87.25,1.26-.36,1.71-1,1.69-2.18,3.44-4.32,5.14-6.49a12.88,12.88,0,0,1,4.16-3.09,1.82,1.82,0,0,1,2.52.28c.79,1.07-.18,1.75-.91,2.22-3.19,2-5.16,5.24-7.68,7.9-1,1.06-.76,1.75.7,2.16a7,7,0,0,1,2.22.93c2.71,1.85,3.4,4.89,1.27,7.35C93,264,90.39,266.72,86.19,265.93Z"/><path class="cls-165" d="M80.71,260.8c-2.45-1.84-2.39-3.59.13-5.87,2-1.75,7.23-1.29,9,.73.82,1,.88,1.83-.06,2.65s-1.92,1.49-2.9,2.21c-.5.36-.89.17-1.34-.21a12.86,12.86,0,0,0-2.23-1.58,2.32,2.32,0,0,0-2.07,0C80.26,259.2,81.51,260.08,80.71,260.8Z"/><path class="cls-166" d="M196.29,254.14a83.8,83.8,0,0,0-5.08,11.72c-1.2,3.66-4,5.28-7.69,4.07a48.45,48.45,0,0,1-6.78-2.82,38.06,38.06,0,0,0-12.67-4.31c-1.1-.13-2-.38-2.13-1.7-.05-.82-.59-1.18-1.15-1.66-1.87-1.6-2.18-2.82-.94-5.05a6,6,0,0,0,.84-3.79c-.35-2.59.46-5.06.7-7.58.19-1.94,1-2.66,3-2.89a25.8,25.8,0,0,1,3,0c1.11.53,1.13,1.64,1.31,2.61a3.44,3.44,0,0,0,3.91,3.09,27.16,27.16,0,0,1,6.19.64,85.29,85.29,0,0,0,15,1.2c3.61-.15,4.27.53,3.3,4A6,6,0,0,1,196.29,254.14Z"/><path class="cls-167" d="M196.29,254.14c.24-1.4.51-2.8.7-4.21.18-1.25-.34-2-1.69-1.91s-2.48-.22-3.54.64a1.88,1.88,0,0,1-2.5.07,7.38,7.38,0,0,0-5.2-.88,10.65,10.65,0,0,1-7.51-1.5,1.2,1.2,0,0,0-1.62,0c-1.79,1.2-3.56.36-5.26-.26a2.57,2.57,0,0,1-1.63-2.39c-.12-1.2-.4-2.38-.62-3.57a14.45,14.45,0,0,0,6.19-2.82,3,3,0,0,1,1.87-.86c1.09,0,.64.71.62,1.24a3.12,3.12,0,0,0-.15.39c-.61.86-1.65,1.16-2.42,1.81-1.16,1-.75,1.69.37,2.3a22.43,22.43,0,0,0,4.55,2.45c3.36,1.77,7,1.46,10.58,1.36a1,1,0,0,0,.81-1,1.13,1.13,0,0,1,.31-.65c.26-.81.62-1.36,1.46-.53a2.43,2.43,0,0,1,.49,1.41c.28,1.38.93,2.2,2.54,1.75a3.17,3.17,0,0,1,2.58.68c.54.35,1.06.88.84,1.49C197.47,250.78,197.75,252.77,196.29,254.14Z"/><path class="cls-168" d="M190.15,244.3l.1.78a1.31,1.31,0,0,1,0,1.62c-4.21.14-8.52,1-12.35-1.66,4-1.68,3.41-5.3,3.69-8.57C185.39,238,188.69,240.13,190.15,244.3Z"/><path class="cls-169" d="M181.55,236.47c.45.77,1.38,1.21,1.56,2-.28,1.11-1.55.72-1.87,1.56,1.58,1.34,1.67,2.26.16,3.43-1,.79-2.07,1.71-3.54,1.56a13.47,13.47,0,0,1-4.41-2.45c-1.26-2.78,1.72-3.32,2.63-5h0C177.89,237.14,179.54,236,181.55,236.47Z"/><path class="cls-1" d="M175.63,241.24c.13-.11.26-.31.39-.31a.37.37,0,0,1,.37.56c0,.12-.34.21-.49.18S175.72,241.39,175.63,241.24Z"/><path class="cls-170" d="M744.52,294.64c-1.08.74-2.12,1.56-3.26,2.19a2.44,2.44,0,0,1-3.09-.29c-.81-.82-.21-1.68.15-2.51q1.5-3.46,3-6.93a12.92,12.92,0,0,1,4-4.64,2.26,2.26,0,0,1,2.56-.4c.94.53,1,1.41,1,2.4a13.31,13.31,0,0,1-3.38,8.69C745,293.6,744.47,293.93,744.52,294.64Z"/><path class="cls-171" d="M787.19,228.9a19.53,19.53,0,0,1,10.66,1.71,13.12,13.12,0,0,1,7.84,10,52.1,52.1,0,0,1,.75,6.27,18.14,18.14,0,0,1-2.44,10,7.27,7.27,0,0,1-4.43,3.84c-2.39.67-4.75,1.42-7.12,2.13a.7.7,0,0,1-.27.08c-3.44-.49-7.08.59-10.3-.28-10.1-2.73-15.51-10.26-13-21.53a12.54,12.54,0,0,1,2.72-4.76C775.55,231.25,780.45,227.86,787.19,228.9Z"/><path class="cls-100" d="M793.12,252.1a5,5,0,0,1-1,.49c-1.77.58-2,1-1.76,2.75.37,2.43.33,2.51-1.72,3.62-5.93,3.21-8.45,2-13.92-2.3-3.06-2.38-3.81-6-4.33-9.55a3.47,3.47,0,0,1,.91-2.82c2.75-3.18,5-6.83,8.54-9.31,1.13-.78,1.86-1.31,3-.28.29.26.88.17,1.34.24.11,1.6-1.07,2.05-2.24,2.28-2.57.52-3.55,2.1-3.83,4.61-.32,2.85-.73,5.55.81,8.26,1.63,2.87,2.73,3.53,6,2.46a27.2,27.2,0,0,1,5.09-1.1C791.12,251.3,792.26,251.14,793.12,252.1Z"/><path class="cls-172" d="M793.12,252.1a19.92,19.92,0,0,0-8.25,1.43c-2.83,1.26-4.72-.19-6.44-2.81-2.45-3.74-1.09-7.46-.68-11.16.2-1.85,2-2.8,3.85-3a3,3,0,0,0,2.65-1.64c2.63-1.67,4.2-1.44,6,1.07a3.66,3.66,0,0,0,2.91,1.71c2.66.22,4.72,1.37,5.32,4.29.17.79.66,1.51.9,2.29a4.92,4.92,0,0,1-.76,4.84A7.65,7.65,0,0,1,793.12,252.1Z"/><path class="cls-151" d="M780.92,238.77a1.46,1.46,0,0,1,1.48-.53,3.43,3.43,0,0,0,2.69-1.11c1.88-1.68,3-1.55,4,.68a2.43,2.43,0,0,0,2.58,1.54c2.42.07,4.3.93,4.75,3.63,0,.09,0,.22.06.27,2.55,2.17.87,3.7-.81,5.21a5.61,5.61,0,0,1-4.83,1.07,20.15,20.15,0,0,0-2.18-.23c-.61-.17.88-1.13-.28-.93a10.35,10.35,0,0,1-3.26.41c-.91-.13-1.94-.25-1.6-1.64,1.16-.7,2.53,0,3.72-.6.7-.35,1.78-.32,1.79-1.39s-.78-1.6-1.62-2c-1.15-.58-2.57-.07-3.69-.85C785.23,239.15,782.16,239.7,780.92,238.77Z"/><path class="cls-173" d="M783.64,247.11c.73,1.88,2.23,1.06,3.46.91a23.47,23.47,0,0,0,2.84-.84.64.64,0,0,1,.81.52.71.71,0,0,1-.42.88c-.54.25-1.3,0-1.65.72-1.48,2.07-3.91,2.14-6,2.81-.69.21-1.75,0-1.87-.78-.29-1.67-1.39-2.92-1.93-4.42a4.22,4.22,0,0,1,0-2.44,19.81,19.81,0,0,0,1-4.51c0-.56.55-.92,1-1.19,1.26.1,2.55-.14,3.76.43.49.23,1.1.27,1.12,1,0,.57-.43.75-.81,1s-1,.39-1.31.93A9.71,9.71,0,0,0,783.64,247.11Z"/><path class="cls-174" d="M783.64,247.11c-1.47-2-1.46-3.18,0-5,.82,0,1.64.06,2.45,0a3.4,3.4,0,0,1,3.25,1.6c1.36,1.82,1.13,2.48-1,3.27C786.78,247.5,785.24,248.1,783.64,247.11Z"/><path class="cls-33" d="M803.62,318.6c-3.88,2.82-8,2.49-12.15.79-2.59-1.06-3.29-3.9-1.89-6.6.2-.36.65-.72-.17-.86a4.64,4.64,0,0,1,3-1.57,2.84,2.84,0,0,0,1.71-1.06c1.51-1.43,1.64-1.43,3.16.06a5.45,5.45,0,0,0,2.16,1.38,4,4,0,0,0,3.57-.12,5,5,0,0,1,1.59-.48,1.73,1.73,0,0,1,1.84,1,1.31,1.31,0,0,1-.25,1.82,5.63,5.63,0,0,0-1.46,3.17A5.24,5.24,0,0,1,803.62,318.6Z"/><path class="cls-82" d="M733.13,241.79c0,1.69-1.22,2.49-2.63,1.58a29.07,29.07,0,0,1-7.09-5.8,3.19,3.19,0,0,1-.85-2.22c.06-1.64,1.08-2.34,2.39-1.38,2.56,1.85,5,3.9,7.42,5.89A2.25,2.25,0,0,1,733.13,241.79Z"/><path class="cls-16" d="M281.49,265.77V313h-13.4c-1.49-5.25-1.74-69.29-.19-77.17,3.46,0,7.1.06,10.73,0,3.21-.08,4.18,2.46,5.53,4.53q12.51,19.13,25,38.26a13.92,13.92,0,0,0,5.19,5.05v-47.5H328c1.6,5.07,2.2,61.81.86,76.24-4.06,1.93-8.49,1.22-12.7.68-1.57-.21-3.14-2.47-4.23-4.12-8.41-12.7-16.69-25.48-25-38.23-1.23-1.88-2.59-3.68-3.89-5.51Z"/><path class="cls-3" d="M333.59,289.59c0,5.12-4,11.08-8.7,12-4,.78-8.36,1.08-11.75-2.29a6.67,6.67,0,0,0-3-1.34c-1-.32-2-.79-2.11-1.92-.09-.91.79-1.36,1.46-1.81a13.86,13.86,0,0,0,5.77-9.55c.44-2.46,1.43-3.05,3.8-2.11a4.12,4.12,0,0,0,2.67.38c3.05-.86,5.88.24,8.67,1.05S333.82,287.22,333.59,289.59Z"/><path class="cls-130" d="M272.88,278.15a18,18,0,0,0-1.86-1.53c-1-.66-2.13-.87-2.88.39s-1.5.92-2.39.11a3.88,3.88,0,0,0-3.57-1.22c-.37.08-1,.12-1.14-.09-1-1.28-2.62-1.31-4-1.57,0-1.6,1.69-1.37,1.85-2.46l.67.21c3.77-1.93,7.11-1.05,10.07,1.69,1.25,1.16,3.08,1.65,3.84,3.37Z"/><path class="cls-131" d="M273.48,277.05a15.56,15.56,0,0,1-4.62-2.95c-2.47-2.18-5.08-3.38-8.34-1.76-.37.19-.8.21-.95-.35a7.22,7.22,0,0,1,9-.45,46.37,46.37,0,0,0,5,3.59C274.56,275.68,274.3,276.43,273.48,277.05Z"/><path class="cls-51" d="M267.64,283.88c2.21.43,4,0,4.84-2.36-.5-.76-.55-1.23.59-1.37A4.65,4.65,0,0,0,277,276.6c0-.1-.16-.25-.25-.37a5.25,5.25,0,0,1-4.81-1.49c-.19-.2-.59-.19-.88-.27-.27,1-.79,1.73-1.93,1.33-2.19-.77-4.83.33-6.74-1.95-.84-1-2.36-.63-3.29.57a3.38,3.38,0,0,0,.44,2.25c.59.9-.05,1.15-.79,1s-1.64-.53-2.47-.76a1,1,0,0,0-1.36.61,1,1,0,0,0,.58,1.17c1.13.67,2.3,1.27,3.45,1.89l2.51,1c.61.65,1.54.52,2.26.91l.14.06c.38.33,1,0,1.32.39l.13,0C266.09,283.33,267,283.29,267.64,283.88Z"/><path class="cls-131" d="M259.06,273.45a12,12,0,0,0,4.21-.59c2.46-.73,4.7-.73,6.47,1.47.21.26.5.41.79.06a5.61,5.61,0,0,0-6.22-3.24,38.58,38.58,0,0,1-4.67.93C258.74,272.13,258.68,272.74,259.06,273.45Z"/><path class="cls-39" d="M276.77,276.22c-.17-.53-1.11-.83-.48-1.62.95-1.2.2-2-.81-2.43s-1.63-.86-1.67-2A1.64,1.64,0,0,0,273,269c-1.65-1.23-3.55-2.07-5.08-3.5a2,2,0,0,0-2.25-.26c-1.23.74-2.72.77-3.94,1.45a3.1,3.1,0,0,1-2.51.41,6.73,6.73,0,0,0-5.86,1.05,3.82,3.82,0,0,1-3.3.55c-1.66-.45-2.18,0-3,1.8a1.12,1.12,0,0,0,.21,1.1c1.77,3.09,4.5,5.4,6.67,8.18a4,4,0,0,0,5,1c.55-.9-.33-1-.76-1.38-.65-.53-1.63-.61-2.06-1.43.08-.18.2-.29.37-.26,3.88.62,3.88.62,3.17-3.27,0-.32,0-.64,0-1,2.15-2.31,7.34-2.42,9.68-.2.4.38.67.89,1.1,1.26a2.94,2.94,0,0,0,.6.39c1.17.5,2,1.59,3.34,1.78C275.22,276.88,276.11,277,276.77,276.22Z"/><path class="cls-43" d="M259,280.59c-2.27.28-4.44-.11-5.64-2.14a18.67,18.67,0,0,0-4.13-4.85,14.52,14.52,0,0,1-2.15-3.08c-.25.21-.49.48-.39.81A17.33,17.33,0,0,1,247,278c-.32,3.17,1.41,4.89,3.86,5.87,4.93,2,9.68,4.28,14.51,6.43a10.39,10.39,0,0,0,2.07.55c1.88.45,1.72.35,2.69-1.46a46.11,46.11,0,0,1,3.43-4.84l1.26-1.74c.42-.56.67-1.16.09-1.71a1.28,1.28,0,0,0-1.91,0l-.53.48c-1.34.93-2.51,2.29-4.43,1.84a6.65,6.65,0,0,1-2.32-.53l-.57-.19c-.38-.11-.76-.22-1.13-.36l-.59-.19a4,4,0,0,1-2-1C260.68,280.72,259.94,280.13,259,280.59Z"/><path class="cls-136" d="M255,282.83c1.14,1.57,2.93,2.17,4.56,2.69a29.62,29.62,0,0,1,4.95,2.18,4.06,4.06,0,0,0,3.2.45,1.29,1.29,0,0,0,.91-1.49c-.07-.6-.56-.73-1.05-.73-4.07,0-7.6-2-11.35-3.13C255.83,282.69,255.48,282.45,255,282.83Z"/><polygon class="cls-51" points="277.02 276.6 275.26 282.27 270 283.19 270.53 277.57 277.02 276.6"/><path class="cls-175" d="M323.43,244.72c-1.58,0-2.11-.65-1.52-2.15,1.47-3.76,2.71-7.64,5.48-10.78a2.83,2.83,0,0,1,2.57-1.23c1.23.14,1.86.79,1.61,2.06-.83,4.26-2.1,8.27-5.81,11C325,244.22,324.36,244.83,323.43,244.72Z"/></svg>