<svg id="Capa_1" data-name="Capa 1" xmlns="http://www.w3.org/2000/svg" viewBox="0 0 1080 154.39"><defs><style>.cls-1{fill:#e51325;}.cls-2{fill:#fefefe;}.cls-3{fill:#fffefe;}.cls-21,.cls-4{fill:#fff;}.cls-5{fill:#fffdfd;}.cls-6{fill:#fffcfc;}.cls-7{fill:#fefbfa;}.cls-8{fill:#951b27;}.cls-9{fill:#e8374d;}.cls-10{fill:#fcefed;}.cls-11{fill:#fef9f8;}.cls-12{fill:#e51626;}.cls-13{fill:#e61425;}.cls-14{fill:#e51426;}.cls-15{fill:#e51425;}.cls-16{fill:#e61829;}.cls-17{fill:#ed7d70;}.cls-18{fill:#c7cacf;}.cls-19{fill:#e61728;}.cls-20{fill:#fefbfb;}.cls-21{font-size:18px;font-family:ArialMT, Arial;}</style></defs><title>Mesa de trabajo 1</title><path class="cls-1" d="M901.4,146.17c-1,.89-2,1.8-3,2.68a23.25,23.25,0,0,1-26.4,2.53,22.91,22.91,0,0,1-11.41-23.5c.2-1.29.39-2.59.58-3.91-1.63-.47-2.71.57-3.9,1-42.06,15.39-80.64-14.53-86.42-49.47-2.69-16.3,0-31.53,8.69-45.63.47-.76.83-1.57,1.24-2.36l2.85-3.43C794.77,10.55,808.92,2.48,826.43.4,863.92-4,893.29,24.23,897.81,55.3c2.71,18.61-1.81,35.28-13.43,50.05-.55.7-1.09,1.41-1.56,2,.16,1,.81.88,1.37.88,16.5-.09,29.17,19.47,18.33,36C902.12,144.88,901.77,145.53,901.4,146.17Z"/><path class="cls-1" d="M120.4,97.5c-2.55,3.28-4.6,6.92-8,10.39,2,.33,3.39.48,4.74.8,9.62,2.26,17,10.69,17.75,20.16.81,10.62-4.65,19.83-14.07,23.71a23.06,23.06,0,0,1-26.48-6.27c-.87-1-1.7-2.06-2.55-3.09A30,30,0,0,1,89,126.37c-2.75-1.13-4.77,1.22-7.23,1.56s-4.66,1.92-7.16.48a4,4,0,0,0-2.87.56c-1.94,1.95-4.45,1.43-6.74,1.35-8.13-.32-16.12-1.43-23.71-4.65a13,13,0,0,1-4.43-2.86l-.95-.6c-1.76-.2-3.38-.64-4.36-2.3-2.1-2.19-5.08-3.13-7.27-5.18a3.47,3.47,0,0,1-2.55-2.21,20.1,20.1,0,0,0-4.24-4.25,3.59,3.59,0,0,1-2.26-2.54c-.58-.85-1.12-1.73-1.75-2.55a64,64,0,0,1,33.87-101C84.48-8,120.28,16.44,127.59,52.44a62.36,62.36,0,0,1-6.13,42.63C121.05,95.85,120.75,96.69,120.4,97.5Z"/><path class="cls-1" d="M233.66,2.27c3.9-.06,7.55-1.55,11.43-1.91,25.5-2.37,45.73,7,60.47,27.65,16.87,23.66,15.71,54.32-2.29,77.27-.61.77-1.66,1.34-1.51,2.89,8-.28,14.82,2.46,19.89,8.86,4.13,5.23,5.41,11.23,4.6,17.75-1.53,12.18-13.17,21-25.93,19.37a22.22,22.22,0,0,1-16.68-10.93c-3.84-6.24-4.05-12.95-2.12-20-2,0-3.38,1-4.82,1.52-42.41,16.11-82-14.51-87.27-50.34a74.09,74.09,0,0,1,1.86-29.76c1.62-3.67,3-7.48,4.89-11a63.65,63.65,0,0,1,33-29.34C230.72,3.66,232.18,2.94,233.66,2.27Z"/><path class="cls-1" d="M1022.57,129.32l-13.45-.06c-1.32,1.1-2.76.61-4.23.39-10.24-1.53-19.17-6-27.24-12.27-1-.78-1.24-2.33-2.73-2.58-.64-.37-1.4-.59-1.64-1.43-2.94-3.38-6.2-6.45-8.94-10-28.31-36.92-9.14-93.73,40.4-102,41.18-6.84,70.44,24.43,74.59,54.89,2.54,18.67-2.17,35.27-13.83,50-.55.69-1,1.43-1.55,2.15a17.58,17.58,0,0,1-4.51,4.55l-9.07,6.94c-1.11.8-1.81,2.28-3.52,2.06a.82.82,0,0,0-1,.52c-6,4.46-13,6.41-20.29,7.57A4,4,0,0,1,1022.57,129.32Z"/><path class="cls-2" d="M36.87,122.81c6.67,2.58,13.38,4.94,20.57,5.8,4.78.58,9.54.21,14.31.36.94.7.36,1.27-.19,1.77a9.14,9.14,0,0,1-9.72,1.5c-3.8-1.52-7.68-1.48-11.49-2.18-4-.73-7.51-2.83-11.31-4.1A3.29,3.29,0,0,1,36.87,122.81Z"/><path class="cls-2" d="M977.65,117.38c.85-.28,1.39.31,2,.72a66.2,66.2,0,0,0,29.48,11.16c1.27,2.16.08,2.81-1.76,2.43-3.75-.77-7.58-1.23-11.18-2.61a69.21,69.21,0,0,1-16.24-9A6.64,6.64,0,0,1,977.65,117.38Z"/><path class="cls-2" d="M1022.57,129.32a78.43,78.43,0,0,0,23.27-6.84c-2,3.5-5.72,4.5-9,6.1-3.47,1.71-7.35,2.23-11.09,3.08C1024,132.06,1022.44,131.75,1022.57,129.32Z"/><path class="cls-2" d="M74.62,128.41a90.78,90.78,0,0,0,13.53-3.67c1.81-.66,1.51.58.86,1.63-3.73,1.4-7.45,2.84-11.2,4.19C75.89,131.24,74.54,130.82,74.62,128.41Z"/><path class="cls-2" d="M1059.44,113a22.35,22.35,0,0,1,4.51-4.55C1063.18,111,1062.08,112.1,1059.44,113Z"/><path class="cls-2" d="M31.56,119.91a15.2,15.2,0,0,1,4.36,2.3C32.7,123.1,32.4,122.94,31.56,119.91Z"/><path class="cls-2" d="M15.24,105.73a6,6,0,0,1,2.26,2.54C14.87,108,14.55,107.66,15.24,105.73Z"/><path class="cls-2" d="M21.74,112.52a5.59,5.59,0,0,1,2.55,2.21C22.37,115.49,22,115.16,21.74,112.52Z"/><path class="cls-2" d="M1046.85,122a7.78,7.78,0,0,1,3.52-2.06C1049.48,121.07,1049.32,123.48,1046.85,122Z"/><path class="cls-2" d="M973.28,113.37a2.92,2.92,0,0,1,1.64,1.43C973.39,115.46,973.49,114.24,973.28,113.37Z"/><path class="cls-1" d="M493.26,108.35c14.45-.29,22.93,4.63,26.65,15.12a23.12,23.12,0,0,1-34.24,27.26c-9.42-6-12.33-15.54-8.83-29.69-18,9.26-36.34,10.76-55,3.39C407,118.6,396,108.31,388.38,94.49a64.05,64.05,0,0,1,99.45-77.9C509.66,36.36,520.5,75.08,493.26,108.35Z"/><path class="cls-1" d="M691.58,108.36c9-.76,16.13,1.67,21.52,8.08a22.55,22.55,0,0,1,5.12,17.6,23,23,0,0,1-26.59,20A22.31,22.31,0,0,1,675,142.3c-3.52-6.39-3.54-13.09-1.15-20.13-37.42,17.45-72.43,0-87.4-28.13-13.58-25.47-9-60.51,17.93-81a63.86,63.86,0,0,1,83.67,5.46C711,41,716.37,78.63,691.58,108.36Z"/><path class="cls-3" d="M888.87,64.1a15.32,15.32,0,0,1-2.41,8.53,80.89,80.89,0,0,0-9.61,23.05c-1.47,5.74-5.39,9.54-11.12,11.33-2.14.66-4.26,1.41-6.43,1.91a41.22,41.22,0,0,0-11.55,4.75c-2.06,1.21-4.18,2.32-6.3,3.43a16.29,16.29,0,0,1-15.5.09,47.49,47.49,0,0,1-4.3-2.39A52,52,0,0,0,806,108.31a45.76,45.76,0,0,1-5.55-1.75,15.63,15.63,0,0,1-9.64-10c-.68-2-1.34-4-1.82-6a41.74,41.74,0,0,0-5.88-14c-5.94-8.69-6-17.14.2-25.78,2.87-4,4.44-8.77,5.71-13.57a65.29,65.29,0,0,1,2.11-6.85,15.26,15.26,0,0,1,9.69-9.31,43.34,43.34,0,0,1,4.68-1.53A51.26,51.26,0,0,0,821.59,13c.89-.55,1.85-1,2.74-1.52,6.57-4,13.17-3.66,19.48.34a63.71,63.71,0,0,0,19.73,8.25c7.39,1.74,12.11,6.24,13.87,13.65A65.33,65.33,0,0,0,886,54.3,18.56,18.56,0,0,1,888.87,64.1Z"/><path class="cls-3" d="M8.9,63.92c-.16-4.14,1.37-7.57,3.37-10.75A59.83,59.83,0,0,0,20,34.64C21.7,27,26.17,21.87,34.08,20.11A61.2,61.2,0,0,0,53.83,11.9c7.1-4.52,14.14-4.08,21.06.36A55.7,55.7,0,0,0,93,19.77c8,1.79,13.19,6.59,15,14.8a56.35,56.35,0,0,0,7.72,18.52c4.56,7.08,4.69,14.36,0,21.49a58.05,58.05,0,0,0-7.9,18.91c-1.73,7.56-6.29,12.34-13.93,14.14a60.48,60.48,0,0,0-19.37,8c-7.52,4.92-14.88,4.3-22.21-.54a46.45,46.45,0,0,0-16.46-6.82c-8.61-1.77-14.15-6.71-16-15.47A59.49,59.49,0,0,0,12.4,74.62C10.41,71.29,8.52,67.83,8.9,63.92Z"/><path class="cls-3" d="M252.81,8.67a20.87,20.87,0,0,1,10.49,3.56,56.3,56.3,0,0,0,18.09,7.52c8,1.76,13.28,6.54,15.09,14.72a62.33,62.33,0,0,0,8.1,19.32c4,6.5,4.34,13.33.12,19.92a69.37,69.37,0,0,0-8.72,21,16.34,16.34,0,0,1-12.6,12.66,76.79,76.79,0,0,0-21.82,9c-6.22,3.82-12.63,3.57-18.67-.21a71.89,71.89,0,0,0-21-8.72c-6.78-1.68-11.28-6-12.95-12.89a74,74,0,0,0-8.86-21.44c-4-6.57-3.54-13.18.4-19.49a65.52,65.52,0,0,0,8.19-19.77c1.7-7.12,6.06-11.9,13.37-13.6a69.84,69.84,0,0,0,20.6-8.51C245.72,9.92,249.05,8.49,252.81,8.67Z"/><path class="cls-3" d="M1015.39,119.42c-4.08.27-7.7-1.22-11-3.33a57.54,57.54,0,0,0-18.51-7.69c-7.66-1.75-12.78-6.23-14.56-14.09A64.39,64.39,0,0,0,963,74.14c-4.27-6.82-3.92-13.66.32-20.27A58.75,58.75,0,0,0,971.18,35c1.74-7.78,6.48-12.65,14.21-14.44a61.71,61.71,0,0,0,19.35-8c7.38-4.67,14.72-4.16,21.88.56a48.31,48.31,0,0,0,16.84,7c8.52,1.77,13.87,6.66,15.74,15.15a58,58,0,0,0,7.74,18.5c4.26,6.78,4.69,13.83.26,20.71a66.9,66.9,0,0,0-8.57,20.58c-1.64,6.68-5.84,11-12.51,12.71A79.23,79.23,0,0,0,1023.9,117,14.48,14.48,0,0,1,1015.39,119.42Z"/><path class="cls-3" d="M443.65,8.62a22,22,0,0,1,12,3.73,54.65,54.65,0,0,0,17.69,7.34c8,1.76,13.35,6.44,15.18,14.63a62.1,62.1,0,0,0,8.08,19.33c4.15,6.64,4.4,13.6.06,20.32a66.55,66.55,0,0,0-8.57,20.58c-1.69,6.9-6.1,11.22-12.92,12.89a70.82,70.82,0,0,0-21,8.7c-6.46,4-13.09,3.91-19.47-.1a65.53,65.53,0,0,0-20.14-8.41c-7.2-1.69-11.89-6.13-13.62-13.35a67.62,67.62,0,0,0-8.51-20.62c-4.41-7-3.82-13.93.51-20.66a56.51,56.51,0,0,0,7.57-18.1c1.79-7.86,6.26-13,14.34-14.85a65.41,65.41,0,0,0,19.38-8C437.43,10.16,440.81,8.51,443.65,8.62Z"/><path class="cls-3" d="M642.54,119.21c-3.45.06-7-1.47-10.34-3.54a57.56,57.56,0,0,0-18.09-7.53c-7.78-1.74-13.1-6.22-14.89-14.33A61.59,61.59,0,0,0,591,74c-4.53-7.15-4-14.18.48-21.05a54.18,54.18,0,0,0,7.38-17.69c1.78-8,6.36-13.33,14.63-15.15a57.61,57.61,0,0,0,18.93-7.85C640,7.43,647.32,8,654.66,12.8a48.75,48.75,0,0,0,16.44,6.88,32.44,32.44,0,0,1,5.53,1.79,15.42,15.42,0,0,1,9.09,9.36A68.72,68.72,0,0,1,688,38.1a43.87,43.87,0,0,0,5.6,13.13,50.6,50.6,0,0,1,2.79,5.11,17.09,17.09,0,0,1-.28,16c-.7,1.31-1.37,2.66-2.18,3.91a48.4,48.4,0,0,0-6.42,15.21c-.35,1.45-.76,2.89-1.2,4.32a16.76,16.76,0,0,1-11.55,11.55c-1.28.41-2.56.8-3.87,1.1a54.91,54.91,0,0,0-16.07,6.65C651.23,117.19,647.55,119.28,642.54,119.21Z"/><path class="cls-1" d="M833.62,13.13a12.24,12.24,0,0,1,7.21,2.13,69.1,69.1,0,0,0,21.82,9.09c5.82,1.3,9.36,5.06,10.67,10.86a61.52,61.52,0,0,0,8.29,20.24c3.92,6,3.53,11.86-.34,17.63a55,55,0,0,0-7.8,19c-1.42,6.39-5.24,10.25-11.59,11.63a58.65,58.65,0,0,0-19.76,8.19c-5.59,3.64-11.16,3.73-16.79,0a57.89,57.89,0,0,0-19.77-8.17c-6.3-1.38-10.24-5.18-11.64-11.6a58.25,58.25,0,0,0-8.2-19.78c-3.66-5.59-3.74-11.17,0-16.79a57.59,57.59,0,0,0,8.19-19.78c1.38-6.36,5.21-10.28,11.58-11.65a62,62,0,0,0,20.19-8.35A14,14,0,0,1,833.62,13.13Z"/><path class="cls-1" d="M64.06,114.69a12.7,12.7,0,0,1-7.2-2.19,69,69,0,0,0-21.81-9.09c-5.84-1.34-9.37-5-10.67-10.85A64.3,64.3,0,0,0,15.84,72c-3.39-5.33-3.49-10.68-.05-16A60,60,0,0,0,24.2,35.74c1.35-6.41,5.24-10.25,11.56-11.65a58.88,58.88,0,0,0,19.77-8.18c5.77-3.78,11.47-3.64,17.19.17a53.48,53.48,0,0,0,18.94,7.85c6.73,1.4,10.82,5.38,12.23,12.11a54.85,54.85,0,0,0,7.82,19c4.1,6.27,3.74,12.34-.32,18.42a50.08,50.08,0,0,0-7.26,17.27c-.25,1.17-.64,2.31-1,3.45A12.66,12.66,0,0,1,94.35,103c-.29.09-.58.14-.87.21a72.6,72.6,0,0,0-22.24,9.24A12.73,12.73,0,0,1,64.06,114.69Z"/><path class="cls-1" d="M252.52,114.69a12.42,12.42,0,0,1-7.19-2.19,69.59,69.59,0,0,0-21.81-9.1c-5.84-1.34-9.35-5-10.63-10.87a63.17,63.17,0,0,0-8.58-20.59c-3.4-5.31-3.49-10.67,0-16a59.37,59.37,0,0,0,8.43-20.16c1.35-6.44,5.25-10.27,11.57-11.65a61,61,0,0,0,20.17-8.38c5.34-3.43,10.63-3.49,16,0A63.07,63.07,0,0,0,281,24.2c5.92,1.32,9.77,4.94,11.09,11a61.43,61.43,0,0,0,8.29,20.23c3.8,6,3.58,11.84-.34,17.63a54.21,54.21,0,0,0-7.82,19c-1.42,6.44-5.26,10.25-11.58,11.63A63.28,63.28,0,0,0,260.5,112,14.38,14.38,0,0,1,252.52,114.69Z"/><path class="cls-1" d="M1065.83,64a13.39,13.39,0,0,1-2.22,7.92,68.56,68.56,0,0,0-9.09,21.83c-1.28,5.5-4.85,8.85-10.28,10.1a67.67,67.67,0,0,0-21.41,8.89c-5.18,3.31-10.48,3.22-15.61-.12A62.58,62.58,0,0,0,986.64,104c-6-1.37-9.74-4.9-11.1-11a65.55,65.55,0,0,0-8.77-21c-3.34-5.21-3.23-10.43.09-15.6a60.26,60.26,0,0,0,8.42-20.18c1.39-6.54,5.39-10.4,12-11.79A58.74,58.74,0,0,0,1007,16.24c5.3-3.4,10.68-3.59,16-.12a66.86,66.86,0,0,0,21.44,8.82c5.23,1.24,8.77,4.5,10,9.82a79.44,79.44,0,0,0,9.11,22.33C1064.83,59.23,1066.12,61.54,1065.83,64Z"/><path class="cls-1" d="M444.37,13.14a12,12,0,0,1,7.35,2.1,69,69,0,0,0,21.82,9.09,13.07,13.07,0,0,1,10.55,10.43,65.84,65.84,0,0,0,8.61,21.07c3.67,5.75,3.28,11.33-.33,16.84a57.1,57.1,0,0,0-8,19.37c-1.4,6.39-5.22,10.26-11.59,11.63a58.27,58.27,0,0,0-19.76,8.2c-5.59,3.64-11.16,3.71-16.79,0a57.21,57.21,0,0,0-19.77-8.16c-6.33-1.36-10.25-5.2-11.62-11.61a60.78,60.78,0,0,0-8.41-20.17c-3.41-5.33-3.5-10.65,0-16a60.25,60.25,0,0,0,8.39-20.19c1.37-6.33,5.21-10.28,11.59-11.64a62.64,62.64,0,0,0,20.19-8.36C439,14.23,441.52,13,444.37,13.14Z"/><path class="cls-1" d="M693.81,64.09a13.8,13.8,0,0,1-2.39,7.62c-4.44,6.71-7.12,14.11-9.06,21.85-1.28,5.08-4.39,8.42-9.54,9.68a78.33,78.33,0,0,0-23.06,9.62,12.22,12.22,0,0,1-13.61-.07,72.32,72.32,0,0,0-22.21-9.28c-5.61-1.27-9.12-4.85-10.42-10.53a67.25,67.25,0,0,0-8.92-21.43c-3.22-5-3.17-10.14.09-15.19a62.12,62.12,0,0,0,8.57-20.6c1.33-6.13,5-10,11.24-11.41a64.2,64.2,0,0,0,21-8.74c5.07-3.24,10.13-3.17,15.18,0a61.7,61.7,0,0,0,20.58,8.56c6.36,1.34,10.24,5.28,11.59,11.66a63.54,63.54,0,0,0,7.91,19.43C692.35,58,694,60.76,693.81,64.09Z"/><path class="cls-4" d="M815.75,66c.11,22.63,31.06,38.17,53.29,17.26-.06,1.7-1,2.7-1.7,3.75-16.39,24.71-53.57,22.81-67.4-3.44-1.7-3.22-1.71-3.24,1-5.49C805.69,74.16,810.43,70.31,815.75,66Z"/><path class="cls-3" d="M846.05,80.12c-4.92-.11-9-1.26-12.52-4.1-7.68-6.2-8.13-16.66-1-23.48a19.12,19.12,0,0,1,26.91,1.09,15,15,0,0,1,.28,20A18.18,18.18,0,0,1,846.05,80.12Z"/><path class="cls-5" d="M801.8,43.69c1,3.22,2.87,3.79,5.18,3.76a94.51,94.51,0,0,1,15.49.79L795.61,68.76C794.77,59.41,797,51.72,801.8,43.69Z"/><path class="cls-6" d="M805.83,38.79a34.58,34.58,0,0,1,13-9.49,53.12,53.12,0,0,1,6.73-2.36c2-.58,4.07-1.26,4.67,2,.24,1.33,1.77,1.95,2.79,2.8,2.61,2.18,5.27,4.31,8.68,7.08Z"/><path class="cls-7" d="M870.65,51c-9.16-8.93-19.89-15.66-29.72-24C853.13,26.87,869,40.7,870.65,51Z"/><path class="cls-4" d="M25.62,65c.17-21.6,18.15-39.43,39.61-39.27A39.64,39.64,0,0,1,104.31,65.5c-.15,21.36-18,39.21-39.32,39A39.52,39.52,0,0,1,25.62,65Z"/><path class="cls-4" d="M292.82,65.2c0,21.58-17.95,39.6-39.46,39.31a39.36,39.36,0,0,1,.07-78.71C275,25.58,292.83,43.6,292.82,65.2Z"/><path class="cls-4" d="M997.42,100.38C990,95.82,984,89.94,980.35,81.88c-12.57-27.84,9.82-57.69,38.91-55.4,17.28,1.36,32.64,15.05,35.59,32.17,3.64,21.07-9.65,37.56-22.55,42.61-1.68-2.09-1.15-4.58-1.15-6.92,0-7.63.37-15.29-2.45-22.61-2.32-9.35-6.06-18.25-8.78-27.48-1.09-4.28-2.11-8.59-4.8-13.38-1.8,4.69-4.35,8.22-2.83,12.81a6.5,6.5,0,0,1,1.65,4.48c0,7.51.46,15-.25,22.52-1.73,2.84-1.76,6.85-5.61,8.25-1.49-.77-1.76-2.32-2.34-3.67s-.85-2.82-2.51-2.8c-1.91,0-2.14,1.83-2.59,3.2a25.2,25.2,0,0,0-1.11,8c0,4.33.14,8.67-.08,13C999.38,98.06,999.86,100.09,997.42,100.38Z"/><path class="cls-8" d="M1029.6,70.81a30.36,30.36,0,0,1,2.56,13.91c-.19,5.5.08,11,.14,16.54l-1.59.86c-2.83-.64-6,1.55-8.6-1.06-1.9-7.37-.59-14.86-.82-22.3a17.09,17.09,0,0,1,2.68-7.37C1025.47,69.08,1027.43,68.16,1029.6,70.81Z"/><path class="cls-9" d="M997.42,100.38c1.64-.79,1-2.31,1-3.52.11-5.19.18-10.39.09-15.58a29,29,0,0,1,1.29-7.85c.47-1.78,1.46-3.09,3.17-3.3,2-.24,2.68,1.59,3.33,3,.79,1.74,1.34,3.59,2,5.4,1.39,1.41,1.34,3.25,1.28,5-.2,5.71.77,11.47-.69,17.14-2.11,3-5.15.49-7.64,1.28C999.92,101.59,998.46,101.48,997.42,100.38Z"/><path class="cls-10" d="M1001.25,102c2.2-1.33,4.68-.1,7-.77a16.84,16.84,0,0,1,14.3,0c2.68.82,5.59-.46,8.21.92A37.84,37.84,0,0,1,1001.25,102Z"/><path class="cls-4" d="M472.06,80.61c.4,5.78,4.61,3,7.76,3.79-7.74,12.7-18.81,19.72-33.46,20-15.07.29-26.56-6.64-34.53-19.09.32-1.3,1.07-1.07,1.54-1,4.33.72,6.94-1,8.66-5.09,1.6-3.79,3.85-7.32,6.06-11.42,2.53,4.67,4.92,8.65,6.87,12.84,1.35,2.89,3.27,4.07,6.32,3.64a6.76,6.76,0,0,1,.9,0c4.8-.06,5-.37,2.59-4.76-2.66-4.85-5.32-9.7-8.16-14.45-1.2-2-1.36-3.57-.05-5.66,2.77-4.43,5.26-9,7.78-13.64,2.14-3.9,1.74-4.28-2.83-4.54-3.31-.19-5.24,1-6.62,4-1.67,3.66-3.77,7.12-5.81,10.88-2.38-2.6-3.6-5.67-5.17-8.5-3.16-5.66-3.12-5.68-8.55-6.94,10.75-15.77,39.07-22.22,57.94-3.21,0,1.43-2,1.12-2.16,2.33a28.49,28.49,0,0,0-.11,3.58c0,3.72,0,7.43,0,11.54-2.43-1-4.15-2.58-6.36-3a12.28,12.28,0,0,0-14.15,7.65,25.16,25.16,0,0,0-.6,16.32c2.4,8.43,11,11.64,18.58,7.1C469.62,82.33,470.68,81.54,472.06,80.61Z"/><path class="cls-3" d="M410.28,82.52C404.52,69.31,405,57.28,412,44.87c3.19,5.64,6,10.71,8.93,15.73a2.92,2.92,0,0,1,0,3.31C417.47,69.83,414.11,75.79,410.28,82.52Z"/><path class="cls-3" d="M471,69.09c1,3.22-.8,5.77-3.82,7.69-3.36,2.14-6.95,1.06-8.39-2.67a15,15,0,0,1,0-11.34c1.14-2.83,3.23-4.1,5.87-3.8s6,3.19,6.3,5.54A42.34,42.34,0,0,1,471,69.09Z"/><path class="cls-11" d="M479.89,83.47V47.73C486,53.92,486.87,73.1,479.89,83.47Z"/><path class="cls-4" d="M604.72,65.47C604.63,43.91,622.5,25.78,644,25.94c21.29.16,39.41,16.79,39.36,39.42s-18,39-39,39.32C622.86,105,604.81,87,604.72,65.47Z"/><path class="cls-12" d="M845.13,52.56a10.84,10.84,0,0,1,7.62,2.63A10.07,10.07,0,0,1,854,69.93c-4.92,5.55-14.58,5.2-18.94-.74a9.67,9.67,0,0,1-1-10.59C836,54.72,840,52.57,845.13,52.56Z"/><path class="cls-13" d="M36.48,62.53c0-5.68-.06-11.37,0-17.05.06-3.77.75-4.47,4.53-4.43,5.21.05,10.46-.52,15.64.72,5.86,1.4,9.43,4.91,10,10,.84,7.28-1.8,12.64-7.55,15.3A23.26,23.26,0,0,1,49.09,69c-3.3,0-3.32.07-3.36,3.48,0,2.69-.11,5.39,0,8.08.11,2.3-1,3.3-3.11,3.44-.75,0-1.5,0-2.25,0C37,83.84,36.53,83.48,36.5,80,36.44,74.2,36.48,68.37,36.48,62.53Z"/><path class="cls-14" d="M80.65,84.45a19.27,19.27,0,0,1-7.47-1.34c-1-.41-2-.83-2.24-2-.38-1.61-.88-3.45.3-4.73s2.46.26,3.62.7a13.4,13.4,0,0,0,6.52,1.21c1.83-.24,3.65-.76,4-3,.29-2.06-1.35-2.86-2.84-3.55-2.3-1.06-4.74-1.85-7-3a8.07,8.07,0,0,1-4.7-7.12C70.56,57,73,53.4,77.82,52a20.78,20.78,0,0,1,11.09.08,6.11,6.11,0,0,1,2,.92c1.31.94,1.91,4,1,5.32-1.16,1.68-2.36.26-3.53-.1-2-.62-4-1.31-6.14-.94-1.57.27-2.87,1-3.15,2.71s.85,2.52,2.1,3.09c1.9.86,3.89,1.5,5.82,2.31,5.31,2.25,7.35,5.36,6.78,10.27-.51,4.43-4,7.64-9.14,8.43C83.34,84.34,82,84.35,80.65,84.45Z"/><path class="cls-15" d="M243.8,74.11c-.3,0-.6,0-.89,0-2.37.15-5.14-.86-7,.49-1.71,1.23-1.71,4-2.47,6.11-1.08,3-5.6,4.53-8.51,2.91a1.5,1.5,0,0,1-.9-1.83c.29-1,.62-2,1-3Q231.09,62,237.2,45.14C238.71,41,238.73,41,243.3,41c7.56,0,6.38-.64,8.84,6,3.82,10.36,7.53,20.76,11.28,31.15.35,1,.66,2,1,3,.71,2-.24,2.79-2.12,2.85-1,0-2.1-.07-3.13,0-2.7.26-4.1-1-4.84-3.54-.6-2.1-.73-4.8-2.59-6s-4.37-.28-6.6-.39C244.7,74.09,244.25,74.11,243.8,74.11Z"/><path class="cls-15" d="M278.73,67.9c0,4.17,0,8.35,0,12.52,0,3-.38,3.34-3.24,3.55a21.79,21.79,0,0,1-2.68,0c-1.75-.1-2.71-.93-2.7-2.81q0-13.2,0-26.39c0-1.86.85-2.77,2.64-2.85,1.05,0,2.09,0,3.13,0,2,0,2.94.93,2.89,3C278.66,59.25,278.73,63.57,278.73,67.9Z"/><path class="cls-16" d="M274.31,39.07c4,0,5.16,1,5.09,4.4-.07,3.09-1.42,4.27-4.9,4.3-3.8,0-5.1-1.12-5-4.52S270.57,39.09,274.31,39.07Z"/><path class="cls-17" d="M1022.5,101.2h-14.3q0-11.33.1-22.64c1.8-2.17,2.18-5.19,4.32-7.16,2-2.49,4.12-1.8,6.2-.08s2.8,4.17,3.63,6.57Q1022.47,89.56,1022.5,101.2Z"/><path class="cls-18" d="M1022.45,77.9c-1.66-1-1.94-2.83-2.9-4.25-2.11-3.08-3.08-3.4-6.93-2.24,0-7.59-.11-15.18.14-22.76a4.9,4.9,0,0,0-2.73-4.88c3.58-2.23,7.16-1.28,10.74,0,3.29,8.9,6.43,17.84,8.83,27-3.74-.85-4.08-.71-5.43,2.48C1023.53,74.8,1023,76.36,1022.45,77.9Z"/><path class="cls-19" d="M1020.77,43.79c-3.58.67-7.16,0-10.74,0,.17-4.52,2.4-8.47,3.52-12.73a1.85,1.85,0,0,1,1.52-1.46,1.82,1.82,0,0,1,2,1.47C1018.11,35.35,1020.29,39.32,1020.77,43.79Z"/><path class="cls-1" d="M660.08,81.11c-3.16,2.4-6.37,4.4-10.57,4.21-5.46-.25-9.4-2.88-11.13-8.09a25.36,25.36,0,0,1-.12-15.88c2.63-8.41,11-11.56,18.69-7.18a3,3,0,0,0,2.47.79c0-4,0-8.09,0-12.19,0-1.24-.62-3,1.13-3.46a9.64,9.64,0,0,1,6.57.23c.74.33.73,1.23.74,2,0,1.2,0,2.4,0,3.59q0,17.73,0,35.44c0,1.88.51,4-2.47,4.34C662.09,85.24,661.12,84.68,660.08,81.11Z"/><path class="cls-14" d="M629.77,63.49c0,5.82,0,11.64,0,17.46,0,3.31-.53,3.78-3.91,3.92a17.08,17.08,0,0,1-3.12-.14,2.25,2.25,0,0,1-2.18-2.38q0-19,0-38c0-1.66.93-2.41,2.53-2.42.9,0,1.79-.05,2.69,0,3.84.1,4,.19,4,4.17C629.8,51.85,629.77,57.67,629.77,63.49Z"/><path class="cls-3" d="M45.72,55a7.05,7.05,0,0,1,0-1.78c.46-1.77-1.4-4.76,1.53-5.15,4.63-.62,7.64-.17,9.4,3.23,1.93,3.74.21,10.12-5.15,10.66-1,.1-2.07.22-3.1.34-1.78.2-2.86-.32-2.72-2.4C45.81,58.3,45.72,56.66,45.72,55Z"/><path class="cls-20" d="M250,67a71.9,71.9,0,0,1-12.19,0c2-5.67,3.81-11.06,5.67-16.44l.76,0C246.06,55.82,247.91,61.13,250,67Z"/><path class="cls-5" d="M659.41,69.32c.7,3.26-.77,5.92-3.89,7.82-3.43,2.09-7,1.12-8.44-2.55a14.6,14.6,0,0,1,0-11.33c1.19-2.9,3.32-4.24,5.83-3.91,2.76.36,6.26,3.52,6.5,6C659.51,66.49,659.41,67.69,659.41,69.32Z"/><text class="cls-21" transform="translate(95.18 138.59)">35%</text><text class="cls-21" transform="translate(285.65 138.59)">40%</text><text class="cls-21" transform="translate(480.35 138.78)">50%</text><text class="cls-21" transform="translate(678.7 138.59)">25%</text><text class="cls-21" transform="translate(866.47 138.78)">35%</text></svg>