<svg id="Capa_1" data-name="Capa 1" xmlns="http://www.w3.org/2000/svg" viewBox="0 0 521.27 337.8"><defs><style>.cls-1{fill:#e51325;}.cls-2{fill:#fefefe;}.cls-3{fill:#fffefe;}.cls-11,.cls-22,.cls-4{fill:#fff;}.cls-5{fill:#fef9f8;}.cls-6{fill:#e61425;}.cls-7{fill:#e51426;}.cls-8{fill:#e51425;}.cls-9{fill:#e61829;}.cls-10{fill:#fefbfb;}.cls-11,.cls-22{isolation:isolate;font-family:ArialMT, Arial;}.cls-11{font-size:18px;}.cls-12{fill:#fffdfd;}.cls-13{fill:#fffcfc;}.cls-14{fill:#fefbfa;}.cls-15{fill:#951b27;}.cls-16{fill:#e8374d;}.cls-17{fill:#fcefed;}.cls-18{fill:#e51626;}.cls-19{fill:#ed7d70;}.cls-20{fill:#c7cacf;}.cls-21{fill:#e61728;}.cls-22{font-size:18.07px;}</style></defs><title>Mesa de trabajo 1</title><path class="cls-1" d="M120.4,97.5c-2.55,3.28-4.6,6.92-8,10.39,2,.33,3.39.48,4.74.8,9.62,2.26,17,10.69,17.75,20.16.81,10.62-4.65,19.83-14.07,23.71a23.05,23.05,0,0,1-26.48-6.27c-.87-1-1.7-2.06-2.55-3.09A30,30,0,0,1,89,126.37c-2.75-1.13-4.77,1.22-7.23,1.56s-4.66,1.92-7.16.48a4,4,0,0,0-2.87.56c-1.94,1.95-4.45,1.43-6.74,1.35-8.13-.32-16.12-1.43-23.71-4.65a12.94,12.94,0,0,1-4.43-2.86l-1-.6c-1.76-.2-3.38-.64-4.36-2.3-2.1-2.19-5.08-3.13-7.27-5.18a3.47,3.47,0,0,1-2.55-2.21,20.1,20.1,0,0,0-4.24-4.25,3.59,3.59,0,0,1-2.26-2.54c-.58-.85-1.12-1.73-1.75-2.55a64,64,0,0,1,33.87-101C84.48-8,120.28,16.44,127.59,52.44a62.39,62.39,0,0,1-6.13,42.63C121.05,95.85,120.75,96.69,120.4,97.5Z"/><path class="cls-1" d="M233.66,2.27c3.9-.06,7.55-1.55,11.43-1.91,25.5-2.37,45.73,7,60.47,27.65,16.87,23.66,15.71,54.32-2.29,77.27-.61.77-1.66,1.34-1.51,2.89,8-.28,14.82,2.46,19.89,8.86,4.13,5.23,5.41,11.23,4.6,17.75-1.53,12.18-13.17,21-25.93,19.37a22.23,22.23,0,0,1-16.68-10.93c-3.84-6.24-4.05-12.95-2.12-20-2,0-3.38,1-4.82,1.52-42.41,16.11-82-14.51-87.27-50.34a74.16,74.16,0,0,1,1.86-29.76c1.62-3.67,3-7.48,4.89-11a63.68,63.68,0,0,1,33-29.34C230.72,3.66,232.18,2.94,233.66,2.27Z"/><path class="cls-2" d="M36.87,122.81c6.67,2.58,13.38,4.94,20.57,5.8,4.78.58,9.54.21,14.31.36.94.7.36,1.27-.19,1.77a9.15,9.15,0,0,1-9.72,1.5c-3.8-1.52-7.68-1.48-11.49-2.18-4-.73-7.51-2.83-11.31-4.1A3.3,3.3,0,0,1,36.87,122.81Z"/><path class="cls-2" d="M74.62,128.41a90.45,90.45,0,0,0,13.53-3.67c1.81-.66,1.51.58.86,1.63-3.73,1.4-7.45,2.84-11.2,4.19C75.89,131.24,74.54,130.82,74.62,128.41Z"/><path class="cls-2" d="M31.56,119.91a15.07,15.07,0,0,1,4.36,2.3C32.7,123.1,32.4,122.94,31.56,119.91Z"/><path class="cls-2" d="M15.24,105.73a6,6,0,0,1,2.26,2.54C14.87,108,14.55,107.66,15.24,105.73Z"/><path class="cls-2" d="M21.74,112.52a5.6,5.6,0,0,1,2.55,2.21C22.37,115.49,22,115.16,21.74,112.52Z"/><path class="cls-1" d="M493.26,108.35c14.45-.29,22.93,4.63,26.65,15.12a23.12,23.12,0,0,1-34.24,27.26c-9.42-6-12.33-15.54-8.83-29.69-18,9.26-36.34,10.76-55,3.39C407,118.6,396,108.31,388.38,94.49a64.05,64.05,0,0,1,99.45-77.9C509.66,36.36,520.5,75.08,493.26,108.35Z"/><path class="cls-3" d="M8.9,63.92c-.16-4.14,1.37-7.57,3.37-10.75A59.78,59.78,0,0,0,20,34.64C21.7,27,26.17,21.87,34.08,20.11A61.43,61.43,0,0,0,53.83,11.9c7.1-4.52,14.14-4.08,21.06.36A55.81,55.81,0,0,0,93,19.77c8,1.79,13.19,6.59,15,14.8a56.21,56.21,0,0,0,7.72,18.52c4.56,7.08,4.69,14.36,0,21.49a58.09,58.09,0,0,0-7.9,18.91c-1.73,7.56-6.29,12.34-13.93,14.14a60.59,60.59,0,0,0-19.37,8c-7.52,4.92-14.88,4.3-22.21-.54a46.53,46.53,0,0,0-16.46-6.82c-8.61-1.77-14.15-6.71-16-15.47A59.68,59.68,0,0,0,12.4,74.62C10.41,71.29,8.52,67.83,8.9,63.92Z"/><path class="cls-3" d="M252.81,8.67a20.87,20.87,0,0,1,10.49,3.56,56.39,56.39,0,0,0,18.09,7.52c8,1.76,13.28,6.54,15.09,14.72a62.37,62.37,0,0,0,8.1,19.32c4,6.5,4.34,13.33.12,19.92a69.37,69.37,0,0,0-8.72,21,16.34,16.34,0,0,1-12.6,12.66,76.85,76.85,0,0,0-21.82,9c-6.22,3.82-12.63,3.57-18.67-.21a71.78,71.78,0,0,0-21-8.72c-6.78-1.68-11.28-6-12.95-12.89a74.14,74.14,0,0,0-8.86-21.44c-4-6.57-3.54-13.18.4-19.49a65.78,65.78,0,0,0,8.19-19.77c1.7-7.12,6.06-11.9,13.37-13.6a70,70,0,0,0,20.6-8.51C245.72,9.92,249.05,8.49,252.81,8.67Z"/><path class="cls-3" d="M443.65,8.62a22,22,0,0,1,12,3.73,54.75,54.75,0,0,0,17.69,7.34c8,1.76,13.35,6.44,15.18,14.63a62.14,62.14,0,0,0,8.08,19.33c4.15,6.64,4.4,13.6.06,20.32a66.69,66.69,0,0,0-8.57,20.58c-1.69,6.9-6.1,11.22-12.92,12.89a70.93,70.93,0,0,0-21,8.7c-6.46,4-13.09,3.91-19.47-.1a65.57,65.57,0,0,0-20.14-8.41c-7.2-1.69-11.89-6.13-13.62-13.35a67.62,67.62,0,0,0-8.51-20.62c-4.41-7-3.82-13.93.51-20.66a56.55,56.55,0,0,0,7.57-18.1c1.79-7.86,6.26-13,14.34-14.85a65.52,65.52,0,0,0,19.38-8C437.43,10.16,440.81,8.51,443.65,8.62Z"/><path class="cls-1" d="M64.06,114.69a12.72,12.72,0,0,1-7.2-2.19,68.91,68.91,0,0,0-21.81-9.09c-5.84-1.34-9.37-5-10.67-10.85A64.26,64.26,0,0,0,15.84,72c-3.39-5.33-3.49-10.68-.05-16A60,60,0,0,0,24.2,35.74c1.35-6.41,5.24-10.25,11.56-11.65a59.05,59.05,0,0,0,19.77-8.18c5.77-3.78,11.47-3.64,17.19.17a53.55,53.55,0,0,0,18.94,7.85c6.73,1.4,10.82,5.38,12.23,12.11a54.88,54.88,0,0,0,7.82,19c4.1,6.27,3.74,12.34-.32,18.42a50.16,50.16,0,0,0-7.26,17.27c-.25,1.17-.64,2.31-1,3.45A12.67,12.67,0,0,1,94.35,103c-.29.09-.58.14-.87.21a72.5,72.5,0,0,0-22.24,9.24A12.78,12.78,0,0,1,64.06,114.69Z"/><path class="cls-1" d="M252.52,114.69a12.37,12.37,0,0,1-7.19-2.19,69.73,69.73,0,0,0-21.81-9.1c-5.84-1.34-9.35-5-10.63-10.87a63.21,63.21,0,0,0-8.58-20.59c-3.4-5.31-3.49-10.67,0-16a59.49,59.49,0,0,0,8.43-20.16c1.35-6.44,5.25-10.27,11.57-11.65a61.13,61.13,0,0,0,20.17-8.38c5.34-3.43,10.63-3.49,16,0A63,63,0,0,0,281,24.2c5.92,1.32,9.77,4.94,11.09,11a61.43,61.43,0,0,0,8.29,20.23c3.8,6,3.58,11.84-.34,17.63a54.31,54.31,0,0,0-7.82,19c-1.42,6.44-5.26,10.25-11.58,11.63A63.26,63.26,0,0,0,260.5,112,14.39,14.39,0,0,1,252.52,114.69Z"/><path class="cls-1" d="M444.37,13.14a12,12,0,0,1,7.35,2.1,69.06,69.06,0,0,0,21.82,9.09,13.07,13.07,0,0,1,10.55,10.43,66,66,0,0,0,8.61,21.07c3.67,5.75,3.28,11.33-.33,16.84a57.16,57.16,0,0,0-8,19.37c-1.4,6.39-5.22,10.26-11.59,11.63a58.19,58.19,0,0,0-19.76,8.2c-5.59,3.64-11.16,3.71-16.79,0a57.17,57.17,0,0,0-19.77-8.16c-6.33-1.36-10.25-5.2-11.62-11.61a60.69,60.69,0,0,0-8.41-20.17c-3.41-5.33-3.5-10.65,0-16a60.25,60.25,0,0,0,8.39-20.19c1.37-6.33,5.21-10.28,11.59-11.64a62.55,62.55,0,0,0,20.19-8.36C439,14.23,441.52,13,444.37,13.14Z"/><path class="cls-4" d="M25.62,65c.17-21.6,18.15-39.43,39.61-39.27A39.64,39.64,0,0,1,104.31,65.5c-.15,21.36-18,39.21-39.32,39A39.52,39.52,0,0,1,25.62,65Z"/><path class="cls-4" d="M292.82,65.2c0,21.58-17.95,39.6-39.46,39.31a39.36,39.36,0,0,1,.07-78.71C275,25.58,292.83,43.6,292.82,65.2Z"/><path class="cls-4" d="M472.06,80.61c.4,5.78,4.61,3,7.76,3.79-7.74,12.7-18.81,19.72-33.46,20-15.07.29-26.56-6.64-34.53-19.09.32-1.3,1.07-1.07,1.54-1,4.33.72,6.94-1,8.66-5.09,1.6-3.79,3.85-7.32,6.06-11.42,2.53,4.67,4.92,8.65,6.87,12.84,1.35,2.89,3.27,4.07,6.32,3.64a6.76,6.76,0,0,1,.9,0c4.8-.06,5-.37,2.59-4.76-2.66-4.85-5.32-9.7-8.16-14.45-1.2-2-1.36-3.57-.05-5.66,2.77-4.43,5.26-9,7.78-13.64,2.14-3.9,1.74-4.28-2.83-4.54-3.31-.19-5.24,1-6.62,4-1.67,3.66-3.77,7.12-5.81,10.88-2.38-2.6-3.6-5.67-5.17-8.5-3.16-5.66-3.12-5.68-8.55-6.94,10.75-15.77,39.07-22.22,57.94-3.21,0,1.43-2,1.12-2.16,2.33a28.55,28.55,0,0,0-.11,3.58V54.91c-2.43-1-4.15-2.58-6.36-3a12.29,12.29,0,0,0-14.15,7.65,25.15,25.15,0,0,0-.6,16.32c2.4,8.43,11,11.64,18.58,7.1C469.62,82.33,470.68,81.54,472.06,80.61Z"/><path class="cls-3" d="M410.28,82.52C404.52,69.31,405,57.28,412,44.87c3.19,5.64,6,10.71,8.93,15.73a2.91,2.91,0,0,1,0,3.31C417.47,69.83,414.11,75.79,410.28,82.52Z"/><path class="cls-3" d="M471,69.09c1,3.22-.8,5.77-3.82,7.69-3.36,2.14-6.95,1.06-8.39-2.67a15,15,0,0,1,0-11.34c1.14-2.83,3.23-4.1,5.87-3.8s6,3.19,6.3,5.54A41.15,41.15,0,0,1,471,69.09Z"/><path class="cls-5" d="M479.89,83.47V47.73C486,53.92,486.87,73.1,479.89,83.47Z"/><path class="cls-6" d="M36.48,62.53c0-5.68-.06-11.37,0-17.05.06-3.77.75-4.47,4.53-4.43,5.21.05,10.46-.52,15.64.72,5.86,1.4,9.43,4.91,10,10,.84,7.28-1.8,12.64-7.55,15.3a23.25,23.25,0,0,1-10,1.93c-3.3,0-3.32.07-3.36,3.48,0,2.69-.11,5.39,0,8.08.11,2.3-1,3.3-3.11,3.44H40.37c-3.37-.16-3.84-.52-3.87-4C36.44,74.2,36.48,68.37,36.48,62.53Z"/><path class="cls-7" d="M80.65,84.45a19.3,19.3,0,0,1-7.47-1.34c-1-.41-2-.83-2.24-2-.38-1.61-.88-3.45.3-4.73s2.46.26,3.62.7a13.43,13.43,0,0,0,6.52,1.21c1.83-.24,3.65-.76,4-3,.29-2.06-1.35-2.86-2.84-3.55-2.3-1.06-4.74-1.85-7-3a8,8,0,0,1-4.7-7.12C70.56,57,73,53.4,77.82,52a20.77,20.77,0,0,1,11.09.08,6,6,0,0,1,2,.92c1.31.94,1.91,4,1,5.32-1.16,1.68-2.36.26-3.53-.1-2-.62-4-1.31-6.14-.94-1.57.27-2.87,1-3.15,2.71s.85,2.52,2.1,3.09c1.9.86,3.89,1.5,5.82,2.31,5.31,2.25,7.35,5.36,6.78,10.27-.51,4.43-4,7.64-9.14,8.43A35.17,35.17,0,0,1,80.65,84.45Z"/><path class="cls-8" d="M243.8,74.11h-.89c-2.37.15-5.14-.86-7,.49-1.71,1.23-1.71,4-2.47,6.11-1.08,3-5.6,4.53-8.51,2.91a1.51,1.51,0,0,1-.9-1.83c.29-1,.62-2,1-3Q231.09,62,237.2,45.14C238.71,41,238.73,41,243.3,41c7.56,0,6.38-.64,8.84,6,3.82,10.36,7.53,20.76,11.28,31.15.35,1,.66,2,1,3,.71,2-.24,2.79-2.12,2.85-1,0-2.1-.07-3.13,0-2.7.26-4.1-1-4.84-3.54-.6-2.1-.73-4.8-2.59-6s-4.37-.28-6.6-.39C244.7,74.09,244.25,74.11,243.8,74.11Z"/><path class="cls-8" d="M278.73,67.9V80.42c0,3-.38,3.34-3.24,3.55a24,24,0,0,1-2.68,0c-1.75-.1-2.71-.93-2.7-2.81V54.77c0-1.86.85-2.77,2.64-2.85h3.13c2,0,2.94.93,2.89,3C278.66,59.25,278.73,63.57,278.73,67.9Z"/><path class="cls-9" d="M274.31,39.07c4,0,5.16,1,5.09,4.4-.07,3.09-1.42,4.27-4.9,4.3-3.8,0-5.1-1.12-5-4.52S270.57,39.09,274.31,39.07Z"/><path class="cls-3" d="M45.72,55a6.63,6.63,0,0,1,0-1.78c.46-1.77-1.4-4.76,1.53-5.15,4.63-.62,7.64-.17,9.4,3.23C58.58,55,56.86,61.42,51.5,62l-3.1.34c-1.78.2-2.86-.32-2.72-2.4C45.81,58.3,45.72,56.66,45.72,55Z"/><path class="cls-10" d="M250,67a70.89,70.89,0,0,1-12.19,0c2-5.67,3.81-11.06,5.67-16.44h.76C246.06,55.82,247.91,61.13,250,67Z"/><text class="cls-11" transform="translate(95.18 138.59)">35%</text><text class="cls-11" transform="translate(285.65 138.59)">40%</text><text class="cls-11" transform="translate(480.35 138.78)">50%</text><path class="cls-1" d="M323.67,329.43l-3,2.69a23.34,23.34,0,0,1-26.5,2.54,23,23,0,0,1-11.46-23.6c.2-1.29.39-2.6.58-3.92-1.63-.48-2.72.57-3.91,1-42.23,15.45-81-14.59-86.77-49.67-2.7-16.37,0-31.66,8.72-45.82.47-.76.84-1.57,1.25-2.37l2.86-3.44c11.18-13.58,25.39-21.69,43-23.78,37.64-4.41,67.13,23.93,71.67,55.13,2.72,18.68-1.82,35.42-13.48,50.25-.55.7-1.1,1.42-1.57,2,.16,1,.81.88,1.38.88,16.56-.09,29.28,19.55,18.4,36.15C324.39,328.13,324,328.78,323.67,329.43Z"/><path class="cls-1" d="M452.83,311.39l-13.5-.06c-1.33,1.11-2.77.62-4.25.4-10.28-1.54-19.25-6-27.35-12.32-1-.79-1.25-2.34-2.74-2.6-.64-.37-1.41-.59-1.65-1.43-2.95-3.39-6.22-6.48-9-10-28.42-37.07-9.17-94.11,40.57-102.41,41.35-6.87,70.72,24.52,74.89,55.11,2.55,18.74-2.18,35.41-13.89,50.2-.55.69-1,1.44-1.55,2.16a17.73,17.73,0,0,1-4.53,4.57l-9.11,7c-1.11.8-1.81,2.28-3.53,2.06a.82.82,0,0,0-1,.53c-6,4.47-13.06,6.43-20.38,7.6A4,4,0,0,1,452.83,311.39Z"/><path class="cls-2" d="M407.73,299.41c.85-.29,1.39.31,2,.72a66.4,66.4,0,0,0,29.6,11.2c1.27,2.17.08,2.82-1.77,2.44-3.77-.77-7.61-1.23-11.23-2.62a69.28,69.28,0,0,1-16.3-9A6.74,6.74,0,0,1,407.73,299.41Z"/><path class="cls-2" d="M452.83,312.39a78.88,78.88,0,0,0,23.37-6.86c-2,3.51-5.75,4.51-9,6.12-3.49,1.72-7.38,2.24-11.14,3.09C454.27,315.14,452.7,314.83,452.83,312.39Z"/><path class="cls-2" d="M489.85,295a22.55,22.55,0,0,1,4.53-4.57C493.61,293,492.5,294.1,489.85,295Z"/><path class="cls-2" d="M477.21,305a7.76,7.76,0,0,1,3.53-2.06C479.85,304.11,479.69,306.53,477.21,305Z"/><path class="cls-2" d="M403.34,295.38a3,3,0,0,1,1.65,1.43C403.45,297.48,403.55,296.25,403.34,295.38Z"/><path class="cls-1" d="M113,291.46c9-.76,16.19,1.68,21.6,8.11a22.63,22.63,0,0,1,5.14,17.68,23.09,23.09,0,0,1-25.63,20.23c-.36,0-.71-.09-1.06-.15a22.41,22.41,0,0,1-16.7-11.79c-3.54-6.42-3.56-13.14-1.16-20.21-37.57,17.52-72.72,0-87.75-28.25a64.3,64.3,0,0,1,102-75.84C132.5,223.83,137.89,261.61,113,291.46Z"/><path class="cls-3" d="M311.09,247a15.48,15.48,0,0,1-2.42,8.57A81.07,81.07,0,0,0,299,278.73c-1.48,5.76-5.41,9.58-11.17,11.38-2.15.66-4.28,1.41-6.45,1.91a41.58,41.58,0,0,0-11.6,4.77c-2.07,1.22-4.2,2.33-6.33,3.45a16.36,16.36,0,0,1-15.56.09q-2.22-1.09-4.32-2.4a52.07,52.07,0,0,0-15.71-6.52,45.55,45.55,0,0,1-5.57-1.76,15.68,15.68,0,0,1-9.68-10c-.68-2-1.35-4-1.83-6a41.91,41.91,0,0,0-5.9-14.06c-6-8.72-6-17.21.2-25.88,2.88-4,4.46-8.81,5.73-13.63a65.7,65.7,0,0,1,2.12-6.87,15.28,15.28,0,0,1,9.73-9.35,42.32,42.32,0,0,1,4.7-1.54,51.54,51.54,0,0,0,16.15-6.54c.9-.56,1.86-1,2.75-1.53,6.6-4,13.23-3.68,19.56.34a63.81,63.81,0,0,0,19.81,8.28c7.42,1.75,12.16,6.27,13.93,13.71a65.75,65.75,0,0,0,8.62,20.66A18.67,18.67,0,0,1,311.09,247Z"/><path class="cls-3" d="M445.62,301.45c-4.09.27-7.73-1.22-11-3.34A57.93,57.93,0,0,0,416,290.39c-7.69-1.76-12.83-6.26-14.62-14.15A64.6,64.6,0,0,0,393,256c-4.29-6.85-3.94-13.72.32-20.35a58.9,58.9,0,0,0,7.89-18.95c1.75-7.81,6.51-12.7,14.27-14.5a61.76,61.76,0,0,0,19.43-8c7.41-4.69,14.78-4.18,22,.56a48.4,48.4,0,0,0,16.91,7c8.55,1.78,13.92,6.69,15.8,15.21a58.22,58.22,0,0,0,7.77,18.58c4.28,6.81,4.71,13.88.26,20.79A67.2,67.2,0,0,0,489,277c-1.65,6.71-5.87,11.05-12.56,12.77A79.5,79.5,0,0,0,454.17,299,14.52,14.52,0,0,1,445.62,301.45Z"/><path class="cls-3" d="M63.76,302.36c-3.47.06-7-1.48-10.38-3.56a57.78,57.78,0,0,0-18.17-7.56c-7.81-1.75-13.15-6.24-14.95-14.39A61.8,61.8,0,0,0,12,257c-4.55-7.18-4-14.23.48-21.13a54.3,54.3,0,0,0,7.41-17.76c1.79-8,6.39-13.39,14.69-15.22a57.91,57.91,0,0,0,19-7.88c7.61-4.85,15-4.27,22.33.54a48.88,48.88,0,0,0,16.5,6.91,33.09,33.09,0,0,1,5.56,1.8,15.48,15.48,0,0,1,9.12,9.4,68.62,68.62,0,0,1,2.29,7.3A44.05,44.05,0,0,0,115,234.1a51.08,51.08,0,0,1,2.81,5.13,17.18,17.18,0,0,1-.29,16.07c-.7,1.31-1.37,2.67-2.18,3.92a48.66,48.66,0,0,0-6.45,15.27c-.35,1.46-.76,2.91-1.21,4.34a16.83,16.83,0,0,1-11.59,11.6c-1.29.41-2.57.8-3.89,1.1a55.22,55.22,0,0,0-16.13,6.68C72.48,300.33,68.79,302.43,63.76,302.36Z"/><path class="cls-1" d="M255.61,195.85a12.27,12.27,0,0,1,7.24,2.13,69.4,69.4,0,0,0,21.91,9.13c5.84,1.31,9.4,5.08,10.71,10.91a61.76,61.76,0,0,0,8.33,20.32c3.93,6,3.54,11.91-.35,17.7a55.29,55.29,0,0,0-7.83,19.08c-1.42,6.41-5.26,10.29-11.63,11.67A58.65,58.65,0,0,0,264.15,295c-5.62,3.65-11.21,3.74-16.86,0a58.06,58.06,0,0,0-19.85-8.21c-6.33-1.38-10.28-5.2-11.69-11.64a58.26,58.26,0,0,0-8.23-19.86c-3.68-5.62-3.76-11.22,0-16.86a57.74,57.74,0,0,0,8.22-19.86c1.39-6.39,5.23-10.32,11.63-11.7a62.26,62.26,0,0,0,20.27-8.38A14,14,0,0,1,255.61,195.85Z"/><path class="cls-1" d="M496.27,245.81a13.42,13.42,0,0,1-2.23,7.95,68.8,68.8,0,0,0-9.13,21.92c-1.28,5.52-4.87,8.89-10.32,10.14a68,68,0,0,0-21.5,8.93c-5.2,3.32-10.52,3.23-15.67-.12A62.8,62.8,0,0,0,416.76,286c-6-1.37-9.78-4.92-11.15-11a65.57,65.57,0,0,0-8.81-21.09c-3.35-5.23-3.24-10.47.1-15.66a60.52,60.52,0,0,0,8.45-20.26c1.39-6.57,5.41-10.45,12-11.84a59.2,59.2,0,0,0,19.8-8.22c5.32-3.42,10.72-3.61,16.06-.12a67.31,67.31,0,0,0,21.53,8.85c5.25,1.25,8.8,4.52,10,9.86A79.42,79.42,0,0,0,494,238.87C495.26,241,496.56,243.34,496.27,245.81Z"/><path class="cls-1" d="M115.24,247a13.9,13.9,0,0,1-2.4,7.65c-4.46,6.74-7.15,14.17-9.1,21.94-1.29,5.1-4.41,8.46-9.58,9.72A78.61,78.61,0,0,0,71,296a12.28,12.28,0,0,1-13.67-.07A72.66,72.66,0,0,0,35,286.59c-5.63-1.27-9.16-4.87-10.46-10.57a67.63,67.63,0,0,0-9-21.52c-3.23-5-3.18-10.18.09-15.25a62.28,62.28,0,0,0,8.61-20.68c1.33-6.16,5-10,11.28-11.46a64.64,64.64,0,0,0,21.09-8.77c5.09-3.26,10.17-3.19,15.24,0a62.14,62.14,0,0,0,20.66,8.59c6.39,1.35,10.29,5.3,11.64,11.71a63.85,63.85,0,0,0,7.94,19.51C113.77,240.9,115.43,243.67,115.24,247Z"/><path class="cls-4" d="M237.67,248.93c.11,22.72,31.19,38.32,53.51,17.33-.06,1.71-1,2.71-1.71,3.77-16.46,24.81-53.79,22.9-67.67-3.46-1.71-3.23-1.72-3.25,1-5.51C227.57,257.12,232.33,253.26,237.67,248.93Z"/><path class="cls-3" d="M268.09,263.11c-4.94-.11-9-1.27-12.57-4.12-7.71-6.22-8.16-16.73-1-23.57a19.2,19.2,0,0,1,27,1.09,15.07,15.07,0,0,1,.28,20.08A18.29,18.29,0,0,1,268.09,263.11Z"/><path class="cls-12" d="M223.66,226.53c1,3.23,2.88,3.81,5.2,3.78a94.15,94.15,0,0,1,15.56.79l-27,20.6C216.6,242.31,218.84,234.59,223.66,226.53Z"/><path class="cls-13" d="M227.71,221.61a34.74,34.74,0,0,1,13-9.53,54.16,54.16,0,0,1,6.76-2.37c2-.58,4.09-1.26,4.69,2,.24,1.34,1.78,2,2.8,2.81,2.62,2.19,5.29,4.33,8.71,7.11Z"/><path class="cls-14" d="M292.79,233.87c-9.2-9-20-15.72-29.84-24.1C275.2,209.64,291.14,223.53,292.79,233.87Z"/><path class="cls-4" d="M427.58,282.34c-7.45-4.58-13.48-10.49-17.14-18.58-12.62-27.95,9.86-57.92,39.07-55.62,17.35,1.36,32.77,15.11,35.73,32.3,3.66,21.15-9.69,37.71-22.64,42.78-1.69-2.1-1.15-4.6-1.15-7,0-7.66.37-15.35-2.46-22.7-2.33-9.39-6.09-18.32-8.82-27.59-1.09-4.3-2.12-8.63-4.82-13.44-1.81,4.71-4.37,8.26-2.84,12.87a6.56,6.56,0,0,1,1.66,4.49c0,7.55.46,15.07-.26,22.62-1.73,2.85-1.76,6.87-5.63,8.28-1.49-.77-1.77-2.33-2.35-3.69s-.85-2.83-2.52-2.81c-1.92,0-2.15,1.84-2.6,3.22a25.11,25.11,0,0,0-1.11,8c0,4.35.14,8.7-.08,13.05C429.55,280,430,282.05,427.58,282.34Z"/><path class="cls-15" d="M459.89,252.65a30.56,30.56,0,0,1,2.57,14c-.19,5.53.08,11.05.14,16.61l-1.6.86c-2.84-.64-6,1.56-8.63-1.06-1.91-7.4-.59-14.92-.82-22.39a17.11,17.11,0,0,1,2.69-7.4C455.74,250.91,457.71,250,459.89,252.65Z"/><path class="cls-16" d="M427.58,282.34c1.65-.8,1-2.32,1-3.54.11-5.21.18-10.43.09-15.64a29.2,29.2,0,0,1,1.3-7.88c.47-1.79,1.46-3.11,3.18-3.32,2-.24,2.69,1.6,3.34,3,.8,1.74,1.35,3.6,2,5.42,1.4,1.41,1.35,3.26,1.29,5-.2,5.73.77,11.51-.69,17.21-2.12,3-5.18.49-7.68,1.28C430.09,283.55,428.62,283.44,427.58,282.34Z"/><path class="cls-17" d="M431.42,284c2.21-1.33,4.7-.1,7-.77a16.93,16.93,0,0,1,14.36,0c2.69.82,5.61-.46,8.24.92A38,38,0,0,1,431.42,284Z"/><path class="cls-4" d="M25.78,248.4c-.09-21.65,17.86-39.85,39.44-39.69,21.38.16,39.57,16.86,39.52,39.58s-18.07,39.16-39.15,39.48C44,288.09,25.87,270,25.78,248.4Z"/><path class="cls-18" d="M267.17,235.44a10.88,10.88,0,0,1,7.65,2.64,10.11,10.11,0,0,1,1.77,14.19c-.16.21-.34.41-.52.61-4.94,5.57-14.63,5.22-19-.75a9.7,9.7,0,0,1-1-10.63C258,237.6,262,235.45,267.17,235.44Z"/><path class="cls-19" d="M452.76,283.16H438.4q0-11.37.1-22.73c1.81-2.18,2.19-5.21,4.34-7.19,2-2.5,4.14-1.81,6.23-.08s2.81,4.19,3.64,6.6Q452.73,271.48,452.76,283.16Z"/><path class="cls-20" d="M452.71,259.77c-1.67-1-1.95-2.85-2.91-4.27-2.12-3.09-3.09-3.42-7-2.25,0-7.62-.11-15.24.14-22.85a4.91,4.91,0,0,0-2.74-4.9c3.59-2.24,7.19-1.29,10.78,0,3.31,8.93,6.46,17.91,8.87,27.11-3.76-.86-4.1-.72-5.45,2.49C453.79,256.65,453.26,258.22,452.71,259.77Z"/><path class="cls-21" d="M451,225.52c-3.59.67-7.19,0-10.78,0,.17-4.54,2.41-8.51,3.53-12.78a1.88,1.88,0,0,1,1.53-1.47,1.83,1.83,0,0,1,2,1.48C448.35,217,450.54,221,451,225.52Z"/><path class="cls-1" d="M81.37,264.1c-3.17,2.41-6.4,4.42-10.61,4.23-5.49-.25-9.44-2.89-11.18-8.12a25.44,25.44,0,0,1-.12-15.95c2.64-8.44,11-11.61,18.77-7.21a3,3,0,0,0,2.48.8V225.61c0-1.25-.63-3,1.13-3.48a9.72,9.72,0,0,1,6.6.23c.74.33.73,1.24.74,2v39.19c0,1.89.51,4-2.48,4.36C83.39,268.25,82.41,267.69,81.37,264.1Z"/><path class="cls-7" d="M50.94,246.41v17.53c0,3.32-.54,3.8-3.93,3.94a17.23,17.23,0,0,1-3.13-.14,2.26,2.26,0,0,1-2.19-2.33V227.19c0-1.66.93-2.42,2.54-2.43.9,0,1.8,0,2.7,0,3.86.1,4,.19,4,4.19C51,234.72,50.94,240.57,50.94,246.41Z"/><path class="cls-12" d="M80.7,252.26c.7,3.28-.78,5.95-3.91,7.86-3.44,2.09-7,1.12-8.47-2.56a14.59,14.59,0,0,1,0-11.38c1.19-2.91,3.33-4.26,5.85-3.93,2.77.36,6.29,3.54,6.53,6C80.8,249.42,80.7,250.63,80.7,252.26Z"/><text class="cls-22" transform="translate(100.06 321.81)">25%</text><text class="cls-22" transform="translate(288.59 322)">35%</text></svg>