<?xml version="1.0" encoding="UTF-8"?>
<svg id="Capa_5" data-name="Capa 5" xmlns="http://www.w3.org/2000/svg" viewBox="0 0 227.29 227.28">
  <defs>
    <style>
      .cls-1 {
        fill: #fff;
      }
    </style>
  </defs>
  <path class="cls-1" d="M.02,118.74c0-3.4,0-6.8,0-10.2,.06-.37,.14-.74,.19-1.12,.63-5.13,.97-10.31,1.93-15.38,3.99-21.04,13.3-39.49,27.83-55.19C48.39,16.93,71.1,4.98,97.99,1.14c15.19-2.17,30.22-1.25,45.02,2.74,44.19,11.9,76.71,48.71,83.12,93.98,1.96,13.84,1.46,27.61-1.77,41.2-7.05,29.62-23.36,52.91-48.72,69.74-15.12,10.04-31.83,15.87-49.89,17.78-2.34,.25-4.68,.44-7.02,.67h-10.2c-.45-.07-.9-.17-1.36-.2-11.3-.6-22.28-2.82-32.85-6.81-25.43-9.59-45.1-26.12-58.91-49.52-8.17-13.85-13.02-28.85-14.71-44.85-.25-2.37-.45-4.75-.67-7.12Zm154.32,58.81c.61,0,1.69,.08,2.77-.02,3.05-.28,5.91-1.08,8.16-3.36,2.66-2.69,5.36-5.35,8.03-8.04,3.17-3.18,4.46-7.13,4.23-11.5-.37-7.08-5.84-13.62-12.69-15.49-5.25-1.43-10.47-2.96-15.74-4.28-5.74-1.44-10.86-.06-15.2,3.98-1.75,1.63-3.41,3.36-5.08,5.08-.46,.47-.87,.63-1.52,.39-2.67-.99-5.45-1.75-8.04-2.92-18.21-8.25-30.25-21.97-36.18-41.06-.27-.86-.12-1.39,.53-2,1.61-1.51,3.16-3.07,4.68-4.66,4.25-4.43,5.62-9.67,4.13-15.58-1.26-5.01-2.76-9.96-4.03-14.97-1-3.95-3.17-7.1-6.3-9.6-6.86-5.47-16.11-4.77-21.52,1.09-2.41,2.61-5.02,5.03-7.52,7.56-2.17,2.19-3.21,4.93-3.25,7.94-.09,7.28,.65,14.5,2.16,21.63,5.05,23.94,16.74,44.04,35.31,59.95,19.13,16.39,41.47,24.78,67.09,25.86Z"/>
</svg>