<?xml version="1.0" encoding="utf-8"?>
<!-- Generator: Adobe Illustrator 27.0.0, SVG Export Plug-In . SVG Version: 6.00 Build 0)  -->
<svg version="1.1" id="Capa_4" xmlns="http://www.w3.org/2000/svg" xmlns:xlink="http://www.w3.org/1999/xlink" x="0px" y="0px"
	 viewBox="0 0 227.3 227.3" style="enable-background:new 0 0 227.3 227.3;" xml:space="preserve">
<style type="text/css">
	.st0{fill:#FFFFFF;}
</style>
<path class="st0" d="M113.4,227.3C51.2,227.5-0.4,176.3,0,112.4C0.4,50.8,51.4,0.2,113.5,0c62.8-0.2,114.3,51.4,113.8,115.1
	C226.8,176.8,175.9,227.3,113.4,227.3z M81.3,151.5c-14.7,11.1-30.6,15.4-48.3,14.3c0.7,0.8,1.5,1.3,2.2,1.7
	c27.2,15.2,55.7,17.8,84.3,6c37.8-15.6,56.4-45.7,59.2-85.9c0.4-5,0.9-9,5.5-11.8c2-1.2,3.6-3.3,5.2-5.1c2-2.3,3.8-4.7,5.9-7.2
	c-6.2,1.7-12,3.3-17.8,4.8c-0.1-0.2-0.2-0.5-0.4-0.7c6.4-4.4,11.1-10,13.9-17.9c-1.1,0.5-1.7,0.9-2.3,1.1c-5.2,2-10.4,4-15.7,6
	c-2.1,0.8-3.6,0.3-5.4-1.3c-10.2-8.8-22-11.2-34.6-6.3c-12.6,4.9-19.7,14.5-21.2,28c-0.4,3.6-0.1,7.2-0.1,11
	c-27.7-1.9-50.5-13.7-69-35.3c-8,17.8-4.7,32.5,9.9,44.8c-0.1,0.2-0.3,0.4-0.4,0.7c-4.7-1.3-9.4-2.6-14.3-4
	c1.3,17,10.1,27.8,26.2,32.8c0,0.2,0,0.4-0.1,0.6c-4.6,0-9.2,0-14.3,0C55.7,142.4,65.9,149.9,81.3,151.5z"/>
</svg>
